<?xml version="1.0" encoding="utf-8"?>
<!-- Generator: Adobe Illustrator 27.0.0, SVG Export Plug-In . SVG Version: 6.00 Build 0)  -->
<svg version="1.1" xmlns="http://www.w3.org/2000/svg" xmlns:xlink="http://www.w3.org/1999/xlink" x="0px" y="0px"
	 viewBox="0 0 471.6 230.2" style="enable-background:new 0 0 471.6 230.2;" xml:space="preserve">
<style type="text/css">
	.st0{fill:#3C55A2;}
	.st1{fill:#BACEE0;}
	.st2{font-family:'ArialUnicodeMS';}
	.st3{font-size:5.5589px;}
	.st4{fill:#9BABB3;}
	.st5{fill:#9AABB3;}
	.st6{font-size:6.2186px;}
	.st7{font-size:6.2205px;}
</style>
<g id="Capa_3">
	<path class="st0" d="M0,97.2c157.2-5.9,314.4-11.7,471.6-17.6c0,26,0,52,0,77.9c-157.2-3.7-314.4-7.3-471.6-11
		C0,130.1,0,113.7,0,97.2z"/>
	<circle class="st1" cx="279.9" cy="93.9" r="20.6"/>
	<text transform="matrix(1.0109 0 0 1 271.8142 96.7188)" class="st2 st3">45ยบ</text>
</g>
<g id="Capa_2_00000182499928202166760700000007408967336239341222_">
	<g>
		<polygon class="st4" points="199.9,104 199.9,104 199.9,104 		"/>
		<path class="st4" d="M154.7,108C154.7,108,154.7,108,154.7,108C154.7,108,154.7,108,154.7,108L154.7,108z"/>
		<path class="st4" d="M163.2,39.4c1.2,0.8,2.7,1.2,4.2,1.4c1.3,0.2,2.6-0.2,3.9-0.4c1.1-0.1,1.7,0.3,2,1.6c1.7-1.1,3.4-2.2,5-3.3
			c0.7-0.5,1.2-1.3,1.8-1.9c0.1-0.3,0.1-0.6,0.2-0.9c0.2-0.4,0.4-0.8,0.5-1.2c0-0.2,0-0.4,0-0.6c0,0,0,0,0,0l0,0h0c0,0,0,0,0,0
			c0,0,0,0,0,0c0.5-1.6,1.1-3.1,2.2-4.4c1.1-1.4,0.9-4.6-0.6-5.3c0.1-1.4,0.4-2.8,0.4-4.2c0-1-0.6-2.1-0.6-3.1c0-2.5-1.5-4.2-3-5.5
			c-2.4-2-5-3.9-8.5-3.8c-3.6,0.1-7,0.4-10,2.7c-0.9,0.7-1.6,1.9-2.6,2.5c-1.5,1-2.2,2.5-2.1,4.3c0.1,2.3,0.3,4.7,0.5,7v0
			c0.6,0.7,1.2,1.5,1.8,2.2c0.1-0.1,0.3-0.1,0.4-0.2c0,0,0,0,0,0c-0.1,0.1-0.3,0.1-0.4,0.2c-0.6-0.7-1.2-1.5-1.8-2.2
			c-0.1,1.5-0.3,3.1-0.4,4.6c0,0,0,0,0,0h0c0.2,1.8,1.4,2.6,2.8,3.1c-0.2-0.8-0.3-1.7-0.6-2.4c-0.1-0.2-0.2-0.4-0.3-0.6
			c0.1,0.2,0.3,0.4,0.4,0.6c0.3,0.7,0.4,1.6,0.6,2.4l0,0c0.2,0.2,0.4,0.4,0.6,0.5c0.4,1.4,0.8,2.8,1.1,4.3c0,0,0,0,0,0
			c0,0.1,0,0.2,0,0.3c0.1,0.1,0.3,0.2,0.4,0.3c0,0,0,0,0,0c-0.1-0.1-0.3-0.2-0.4-0.3v0c0,0.2,0.1,0.4,0.1,0.6c0,0,0,0,0,0
			c0,0.2,0.1,0.4,0.1,0.6v0C161.8,38.3,162.4,38.9,163.2,39.4z M157.1,28C157.1,28,157.1,28,157.1,28c0,0.1,0.1,0.1,0.1,0.2
			C157.2,28.2,157.1,28.1,157.1,28z M161.3,17C161.3,17,161.3,17.1,161.3,17C161.3,17.1,161.3,17,161.3,17z M167.6,33.5
			C167.6,33.5,167.6,33.5,167.6,33.5c1.4,0.7,2.9,0.8,4.4,0.6C170.5,34.3,169,34.3,167.6,33.5z M172.7,31.3l0.3-0.4c0,0,0,0,0,0
			L172.7,31.3C172.7,31.3,172.7,31.3,172.7,31.3z M169.1,32.2c1.4,0.1,2.8-0.1,4.3-0.3C171.9,32.1,170.5,32.3,169.1,32.2z
			 M174.8,23.7c0.2-0.3,0.4-0.7,0.6-1c0.1,0,0.2,0,0.3,0c0,0,0,0,0,0c-0.1,0-0.2,0-0.3,0C175.2,23,175,23.4,174.8,23.7
			c-0.6-0.2-1.2,0-1.7-0.1c0,0,0,0,0,0C173.5,23.7,174.1,23.4,174.8,23.7z M173.6,18.5c0.8,0.2,1.7,0.4,2.6,0.6c0,0,0,0,0,0
			C175.3,18.9,174.4,18.7,173.6,18.5L173.6,18.5z M175,20.2c0.1,0,0.1,0,0.2,0C175.2,20.2,175.1,20.2,175,20.2z M176.2,29.3
			C176.2,29.3,176.2,29.3,176.2,29.3C176.2,29.3,176.2,29.3,176.2,29.3C176.2,29.3,176.2,29.3,176.2,29.3z M176.2,13.8
			c-0.1,0-0.1,0-0.2,0c0,0,0,0,0,0C176.1,13.7,176.1,13.7,176.2,13.8C176.2,13.8,176.2,13.8,176.2,13.8z M174.5,19.9
			c0.1,0.1,0.3,0.2,0.5,0.2C174.8,20.1,174.6,20,174.5,19.9c-0.2-0.1-0.4-0.2-0.5-0.3C174.1,19.7,174.3,19.8,174.5,19.9z
			 M169.5,19.3c0.2,0.3,0.6,0.5,0.9,0.8c0,0,0,0,0,0C170,19.8,169.7,19.6,169.5,19.3c-0.4-0.4-0.7-1-1-1.4c0.2-0.1,0.4-0.2,0.6-0.3
			c-0.2,0.1-0.4,0.2-0.6,0.3C168.8,18.4,169.1,18.9,169.5,19.3z M169.9,17.4C169.9,17.4,169.9,17.4,169.9,17.4
			C170,17.4,170,17.4,169.9,17.4C169.9,17.4,169.9,17.4,169.9,17.4z M170.1,25.9c-0.3-0.1-0.6-0.4-0.8-0.5
			C169.5,25.5,169.8,25.8,170.1,25.9C170.1,25.9,170.1,26,170.1,25.9z M168,38.7c0.5,0.2,1.1,0.2,1.7,0.3
			C169.1,38.9,168.5,38.9,168,38.7z M170.1,36.3c-0.4,0.5-0.7,1-1.2,1.6c0.2,0.2,0.5,0.5,0.9,0.7c-0.3-0.3-0.6-0.6-0.9-0.7
			C169.3,37.3,169.7,36.8,170.1,36.3c0.2,0.2,0.4,0.3,0.6,0.2C170.5,36.6,170.3,36.5,170.1,36.3z M173.2,35c0.1,0.3,0.1,0.5,0.2,0.8
			C173.3,35.5,173.2,35.3,173.2,35z M174.3,34.4c-0.4,0.2-0.8,0.4-1.1,0.6c-0.8-0.2-1.2,1.6-2.2,0.6c0,0,0,0,0,0
			c-0.9,0-1.8,0.2-2.7-0.7c-0.4-0.4-1.3-0.1-2-0.2v0c0.7,0,1.6-0.2,2,0.2c0.8,0.9,1.8,0.7,2.7,0.7v0c1,1,1.4-0.8,2.2-0.6
			C173.5,34.8,173.9,34.6,174.3,34.4c-0.3-0.2-0.6-0.4-0.9-0.6c0,0,0,0,0,0C173.7,34,174,34.2,174.3,34.4c0.3-0.4,0.9-0.8,0.9-1.2
			c0,0,0,0,0,0C175.3,33.6,174.6,34,174.3,34.4z M175.7,28.9c-1-1.1-1.9-2.2-2.9-3.3c0,0-0.1-0.1-0.2-0.1c0.1,0,0.1,0,0.2,0.1
			C173.8,26.7,174.8,27.8,175.7,28.9C175.7,28.9,175.7,28.9,175.7,28.9C175.7,28.9,175.7,28.9,175.7,28.9z M178.2,15.6
			c0.9,1.5,1.7,3.1,2.4,4.7c0.4,1.1,0.5,2.3,0.7,3.5c0.1,0.5,0.3,1,0.5,1.7c0,0,0,0,0,0c-0.2-0.8-0.4-1.3-0.5-1.8
			c-0.2-1.2-0.3-2.4-0.7-3.5C179.9,18.7,179.1,17.1,178.2,15.6c-0.5-0.8-1.3-1.3-2-1.9c0,0,0,0,0,0
			C176.9,14.4,177.8,14.9,178.2,15.6z M162.7,13.5c0.4-0.4,1-0.5,1.5-0.7c0.5-0.1,0.9-0.2,1.4-0.3c0.4-0.3,0.8-0.6,1.2-0.8h3.1
			c0.5,0,0.9,0,1.4,0c1,0.3,2.1,0.6,3.1,0.9c0,0,0,0,0,0c-1-0.3-2.1-0.6-3.1-0.9c-0.5,0-0.9,0-1.4,0h-3.1c-0.4,0.3-0.8,0.6-1.2,0.8
			c-0.5,0.1-0.9,0.2-1.4,0.3c0,0.8-0.7,1.7,0.5,2.1c0.2,0.1,0.4,0.7,0.3,1.1c-0.5,2,0.4,2.2,1.9,2.1c0.2,0,0.3,0.1,0.5,0.1
			c-0.1,0.1-0.2,0.3-0.3,0.4c0.4,0.4,0.8,0.9,1.2,1.3c0.9,0.7,1.6,1.5,1.1,2.6c0,0-0.1,0-0.1,0c0,0,0.1,0,0.1,0
			c0.5-1.1-0.2-1.9-1.1-2.6c-0.5-0.4-0.8-0.9-1.2-1.3c0.1-0.1,0.2-0.3,0.3-0.4c-0.2,0-0.4-0.1-0.5-0.1c-1.4,0.2-2.4-0.1-1.9-2.1
			c0.1-0.3-0.1-1-0.3-1.1c-1.3-0.4-0.6-1.3-0.5-2.1C163.7,13,163.1,13.2,162.7,13.5c-0.6,0.6-1.4,0.9-1.5,2.1
			C161.3,14.5,162.1,14.1,162.7,13.5z M161.1,17.9c0,0.1,0,0.1,0,0.2C161.1,18,161.1,17.9,161.1,17.9z M160.9,18.7
			c0,0.1-0.1,0.2-0.1,0.2C160.8,18.9,160.8,18.8,160.9,18.7z M158.6,24.6c0,0.5,0,1.1,0,1.6C158.6,25.7,158.6,25.2,158.6,24.6
			c0.1-1.9,0.6-3.5,1.7-5c0,0,0.1-0.1,0.1-0.1c0,0-0.1,0.1-0.1,0.2C159.3,21.2,158.8,22.8,158.6,24.6z M159.8,26
			c-0.4-0.2-0.4-1.9,0-2.7c0.1-0.2,0.2-0.3,0.3-0.4c-0.1,0.1-0.2,0.2-0.3,0.4C159.5,24.1,159.5,25.8,159.8,26c1,0.5,1,1.3,1.1,2.2
			c0.3,1.7,1.6,2.7,3,2.2c-1.4,0.4-2.8-0.5-3-2.2C160.8,27.3,160.8,26.6,159.8,26z"/>
		<polygon class="st4" points="217.9,61.9 217.9,61.9 217.9,61.9 		"/>
		<polygon class="st4" points="225.8,70.7 225.8,70.7 225.8,70.7 		"/>
		<path class="st4" d="M226.7,67.2c-0.5-1-1.6-1.7-2.4-2.5v0c-0.5-0.4-1-0.9-1.5-1.2c-1.1-0.4-1.7-1.1-2.1-2.3
			c-0.1-0.4-0.6-0.8-0.9-1.2c-0.7,0.6-1.3,1.3-2,1.9c0.5,1.3,1.1,2.5,1.4,3.8c0.3,1.1,0.5,2.5,0.2,3.5c0,0.1-0.1,0.2-0.1,0.3
			c0.1-0.1,0.1-0.2,0.1-0.3c0.3-1.1,0.1-2.4-0.2-3.5c-0.3-1.3-0.9-2.6-1.4-3.8h0c-0.7,0.3-1.5,0.6-2.2,0.9v0l0,0
			c0.7-0.3,1.5-0.6,2.2-0.9c0.7-0.6,1.3-1.3,2-1.9c-0.6-1.4-0.7-2.8-0.2-4.3c0.5-1.5,0.6-3.2,0.9-4.8c0-0.1-0.1-0.1-0.1-0.2
			c0,0,0.1-0.1,0.1-0.1c-0.1-0.4-0.1-0.8-0.2-1.2l0,0c-1.8-0.1-3.6-0.2-5.4-0.3c-0.5,0-1.1,0-1.6,0v0c0.5,0,1.1-0.1,1.6,0
			c1.8,0.1,3.6,0.2,5.4,0.3c-0.3-0.3-0.6-0.6-0.9-1c0,0,0,0,0,0c-3.2-2.3-3.6-6-4.2-9.7c-0.3-0.8-0.5-1.6-0.8-2.3c0,0,0,0,0,0
			c0.3,0.8,0.5,1.6,0.8,2.4v0c-0.1-1-0.1-2-0.3-2.9c-0.1-0.4-0.8-1.1-1-1c-0.5,0.1-0.8,0.7-1.2,1.1c0.2,0.2,0.3,0.4,0.4,0.7
			c0.1,0.4,0.2,0.7,0.3,1.1c0,0,0,0,0,0c-0.1-0.4-0.2-0.8-0.3-1.1c-0.1-0.3-0.3-0.5-0.4-0.7c-0.3,2.2-0.6,4.3-0.7,6.5
			c-0.1,0.9-0.2,1.5-0.9,1.8v0c0,0,0,0.1,0,0.1c0,0,0-0.1,0-0.1c-0.6,0.9-1.1,1.7-1.7,2.5c0,0.1,0,0.1,0,0.2c0-0.1,0-0.1,0-0.2
			c-0.7,0.2-1.4,0.3-2.1,0.5c0,0,0,0,0,0c-0.8,0.4-1.7,0.8-2.5,1.2l0,2.4c-0.1,0.4-0.1,0.8-0.2,1.2c0.5,1,0.9,2,1.5,2.9
			c0.3,0.4,0.6,0.8,0.9,1.2c-0.3-0.4-0.6-0.8-0.9-1.2c-0.6-0.9-1-1.9-1.5-2.9v0c0,0-0.1,0.1-0.1,0.1c-0.3,0.2-0.5,0.4-0.8,0.6
			c0,0,0,0,0,0c0.3-0.2,0.5-0.4,0.8-0.6c0,0,0.1-0.1,0.1-0.1c0.1-0.4,0.1-0.8,0.2-1.2c-0.3,0.2-0.7,0.3-1.2,0.6
			c-0.1-0.5-0.1-0.9-0.2-1.3c-0.1-0.4-0.2-0.7-0.3-1.1c-0.1,0-0.2,0-0.3,0.1c0,0,0,0,0,0c0.1,0,0.2,0,0.3-0.1
			c0.1,0.4,0.2,0.7,0.3,1.1c0.1,0.4,0.1,0.8,0.2,1.3c0.5-0.2,0.8-0.4,1.2-0.5c0,0,0,0,0,0c0,0,0,0,0,0v0c0,0,0,0,0,0l0-2.4
			c-1-0.3-2.1-0.7-3.1-1c0,0,0,0,0,0c-3.1-0.7-6.1-1.3-9.1-2.1c-3.2-0.8-6.4-1.6-9.5-2.6c-0.8-0.2-1.3-1.2-1.9-1.9
			c-0.4-0.5-0.7-1-1.1-1.6c-1.2,1-2.3,2.1-3.5,3c-1.2,1-2.5,1.8-3.8,2.7c0.2,0,0.3,0,0.5,0c0,0,0,0,0,0c-0.2,0-0.3,0-0.5,0
			c-1,0-2,0-3,0c-0.4,0.1-0.9,0.2-1.3,0.4c-0.7,0.5-1.4,1-2,1.5c0,0,0,0,0,0c-0.6,0.3-1.1,0.6-1.7,0.9l0,0c0.6-0.3,1.1-0.6,1.7-0.9
			c0.7-0.5,1.4-1,2.1-1.5c0-0.4,0-0.8,0-1.2c-0.3-0.2-0.6-0.3-0.9-0.5l-0.5-0.4c-0.2-0.1-0.4-0.1-0.6-0.2l-1.2-0.5
			c0.4,0.2,0.8,0.3,1.2,0.5c0.2,0.1,0.4,0.1,0.6,0.2c0.2,0.1,0.4,0.2,0.5,0.4c0.3,0.2,0.6,0.3,0.9,0.5c0.4,0.3,0.9,0.6,1.3,0.9
			c1,0,2,0,3,0c1.3-0.9,2.6-1.7,3.8-2.7c1.2-0.9,2.3-2,3.5-3c0-0.8,0-1.6,0-2.4c-0.6,0.6-1.1,1.4-1.8,1.9c-1.6,1.1-3.2,2.2-5,3.3
			c-0.2-1.3-0.9-1.7-2-1.6c-1.3,0.2-2.6,0.6-3.9,0.4c-1.4-0.2-3-0.6-4.2-1.4c-0.8-0.6-1.4-1.2-2.4-1c0,0.4-0.1,0.7-0.1,1.1v0
			c-0.3,0.3-0.6,0.5-0.8,0.8c-0.6,1-1.1,2-1.6,3c0,0,0,0,0,0c0,0,0,0,0,0c-0.8,0.3-1.7,0.6-2.5,1v0c-1.4,0.7-2.7,1.7-4.1,2
			c-2.2,0.5-4.6,0.6-7.2,1c0,0,0,0,0,0c2.6-0.3,5-0.4,7.2-1c1.4-0.3,2.8-1.3,4.1-2c-0.9,0-1.8-0.1-2.6,0.2
			c-4.1,1.2-8.2,2.7-12.3,3.9c-1.4,0.4-2.9,0.3-4.4,0.5c1.1-2.6,0.8-3.6-1.4-4.5c-0.8-0.3-1.5-0.6-2.3-0.9l0,3.6c0,0.5,0,1,0,1.4h0
			c0.3,0.2,0.5,0.5,0.8,0.7c0,0,0-0.1,0-0.1c0,0,0,0.1,0,0.1c-0.3-0.2-0.5-0.5-0.8-0.7c0,0,0,0,0,0c0-0.5,0-1,0-1.5
			c0-1.2,0-2.4,0-3.6c-0.6-0.7,0-2.2-1.4-2.3c0-0.1-0.1-0.1-0.1-0.2c-0.1-0.2-0.1-0.4-0.2-0.6c0-0.3,0-0.6,0.1-0.9
			c0,0,0.1,0,0.1-0.1c0,0,0,0-0.1,0c0,0,0,0,0,0c-0.8-0.5-1.3-0.9-1.8-1c0.5,0.1,1,0.5,1.8,1c0.1-0.9,0.1-1.7,0.2-2.6
			c-1.5,0.6-2.1,0.7-2.4,0.4c0.3,0.4,0.9,0.3,2.4-0.4c-0.1-1.5-0.1-3-0.3-4.5c-0.2-1.2-1.1-1.8-2.1-1.6c-0.3,0.1-0.5,1.2-0.7,1.8
			c0,0,0,0,0,0c-0.2,1-0.4,2-0.6,3c-0.3,1.6-0.7,3.1-1,4.7c-0.1,0.7-0.2,1.4-0.4,2.1c0,0,0,0,0,0v0c-0.2,0-0.3-0.1-0.5-0.1
			c-0.7,0.3-1.4,0.7-2.1,1c-0.1,0.1-0.3,0.2-0.4,0.3c-0.6,0.6-0.7,2-2.1,1.6c0,1.2-0.4,2.2-1.5,2.8c0.2,1.4,0.4,2.8,0.6,4.3
			c0.1,1,0.2,2,0.3,3c-0.2,0.2-0.6,0.4-0.6,0.7c-0.7,3-1.3,6-1.9,9l0,0l0,0c-0.6,0.6-1.2,1.3-1.9,1.9c0.6,0.5,1.4,0.8,1.7,1.4
			c0.5,1,0.7,2.1,1.1,3.3c0,0,0,0,0,0c-0.4-1.2-0.6-2.4-1.1-3.3c-0.3-0.6-1.1-0.9-1.7-1.4h0c0,1.3,0,2.7,0.1,4l0,0
			c0.2,2.5-0.2,5,0.7,7.5c0.7,2.1,0.9,4.3,1.7,6.4c0.3,1,1.3,1.7,2,2.5l-0.5-1.7c0.1-0.1,0.2-0.2,0.3-0.3c0,0,0,0,0,0
			c-0.1,0.1-0.2,0.2-0.3,0.2l0.5,1.7c1.4,2.7,4.1,3.8,6.1,3.1c0.7-0.2,1.4-0.7,2.1-0.6c2.6,0.2,4.3-1.5,6-3.1c0,0,0,0,0,0
			c0.9-0.6,2-1.1,2.7-1.9c0.9-0.9,1.7-0.9,2.7-0.6c0-0.6,0-1.1,0.1-1.6c0.3-1,0.2-1.8-0.7-2.4c-0.5-0.4-1-1.1-1.2-1.7
			c-0.5-1.9-1.7-2.9-3.2-3.7c-0.2-0.3-0.4-0.6-0.6-0.9c0,0.4,0,0.8,0,1.2c0,0,0,0,0,0c0,0,0,0,0,0c0-0.4,0-0.8,0-1.2
			c-0.1-0.2-0.2-0.4-0.2-0.6h0c0.7,0.3,1.5,0.6,2.2,0.9c0,0,0,0,0,0c-0.7-0.3-1.5-0.6-2.2-0.9c0.1,0.2,0.2,0.4,0.2,0.6
			c0.2,0.3,0.4,0.6,0.6,0.9c1.5,0.7,2.7,1.8,3.2,3.7c0.2,0.7,0.7,1.3,1.2,1.7c0.9,0.7,1,1.4,0.7,2.4c-0.2,0.5-0.1,1.1-0.1,1.6
			c-0.3,0.5-0.6,1-0.9,1.4c0.3,0.2,0.9,0.6,1,0.6c0.3-0.4,0.5-0.9,0.7-1.4c0,0,0,0,0,0c-0.2,0.5-0.4,1-0.7,1.4
			c-0.1,0.1-0.6-0.4-1-0.6c0,0,0,0,0,0c0,0,0,0,0,0c-0.6,1.2-1.1,2.4-1.7,3.7c0.1,1.7,0.3,3.4,0,5c0.3-1.6,0.1-3.3,0-5
			c-0.3,0.3-0.6,0.6-0.7,1c-0.8,1.9-1.5,3.7-2.2,5.6c-0.5,1.2-1.3,2.5-1.1,3.6c0.3,1.6,1,3.2,2.6,4c1.8,0.9,3.6,1.9,5.5,2.9
			c0.4,0,0.8-0.1,1.2,0c1.7,0.4,3.5,0.9,5.2,1.2c2,0.3,4.1,0.5,6.1,0.7c-0.1-0.1-0.1-0.3-0.2-0.3c-2.4-1.2-2.5-1.8-2.4-4.6
			c0.1-2.3-0.2-4.5-0.2-6.8c0-1.1,0.2-2.3,0.5-3.4c0.4-1.4,0.4-2.8,0.6-4.1c0.3-1.4,0.5-2.1-0.3-2.3c0.8,0.2,0.6,1,0.3,2.3
			c-0.3,1.3-0.2,2.7-0.6,4.1c-0.3,1.1-0.5,2.3-0.5,3.4c0,2.3,0.3,4.5,0.2,6.8c-0.2,2.9,0,3.4,2.4,4.6c0.1,0.1,0.2,0.2,0.2,0.3
			c0.4,0.2,0.7,0.3,1.1,0.5c0.1,0,0.3,0,0.4,0.1c-0.1,0-0.3,0-0.4-0.1c0.4,0.2,0.8,0.6,1.2,0.6c3,0.4,6,0.7,9,1.1
			c0-0.7-0.3-1-0.6-1.2c0.4,0.2,0.6,0.5,0.6,1.2c0.5,0.1,1.1,0.1,1.5,0.4c0.7,0.6,1.3,0.6,1.9,0.3c-0.6,0.3-1.2,0.3-1.9-0.3
			c-0.4-0.3-1-0.3-1.5-0.4c-3-0.4-6-0.7-9-1.1c-0.4,0-0.8-0.4-1.2-0.6c-0.4-0.2-0.7-0.3-1.1-0.5c-2.1-0.2-4.1-0.4-6.1-0.7
			c-1.8-0.3-3.5-0.8-5.2-1.2c-0.4-0.1-0.8,0-1.2,0c-0.3,0.7-0.6,1.3-0.8,2c-0.6,1.8-1.1,3.7-1.8,5.5c-1.2,3.3-1,6.7-0.1,10
			c0.3,1.3,1,2.5,1.3,3.8c0.3,1.3,0.1,2.7,0.2,4.1c0.3,4.1,0.7,8.1,1.1,12.2c0.4,3.8,0.8,7.5,1.3,11.2c0.4,3.1,0.8,6.3,1.3,9.4
			c0.5,3,1.3,5.8,2,8.8c1,4,1.8,8.1,3,12.1c0.9,3.1,2.1,6.1,3.2,9.2c0.1,0.4,0.3,0.7,0.4,1.1c0.2,1.9,0.4,3.7,0.6,5.6
			c0,0.3,0.2,0.5,0.3,0.8c0.9,1.7,1.8,3.4,2.8,5.1c0,0,0,0,0,0c-0.4,1.3-0.7,2.6-1,3.9c0.3-0.2,0.7-0.2,1-0.5c0.8-1,1.7-1.8,2.8-2
			c0,0,0.1,0,0.1,0c-1.2,0.2-2.1,1-2.9,2c-0.2,0.3-0.6,0.3-1,0.5c-0.2,0.4-0.6,0.8-0.6,1.3c-0.1,1.3-0.1,2.7,0,4.1
			c0.1,0.8,0.4,1.5,0.7,2.3c0,0,0,0,0,0c0.5,0.7,0.8,1.8,1.4,2.2c3.1,1.7,6.5,1.9,9.8,0.5c1-0.4,1.8-1.4,2.6-2.1c0,0,0,0,0,0
			c0.1-0.1,0.2-0.3,0.3-0.5c0.2-0.1,0.4-0.2,0.5-0.2c0.2,0,0.4,0,0.6,0c0.2,0.1,0.4,0.2,0.5,0.2c0.2,0.4,0.5,0.7,0.7,1.1
			c0.2,0.1,0.4,0.3,0.6,0.4c0.1,0.1,0.1,0.1,0.2,0.1c0.2,0.2,0.4,0.4,0.6,0.6c2.2,1.3,4.6,1.3,6.8,0.7c3.7-1,5-2.1,5.5-5.6
			c-0.7,0.9-1.4,1.9-2.1,2.9h-9.5c-0.1,0.1-0.2,0.1-0.3,0.2c0.1-0.1,0.2-0.1,0.3-0.2c-0.2-0.6-0.5-1.2-0.5-1.5c0,0,0,0,0,0
			c0.1,0.2,0.3,0.8,0.5,1.4h9.5c0.8-1,1.4-2,2.1-2.9c0.2-0.4,0.5-0.8,0.4-1.1c0-0.6-0.3-1.2-0.5-1.8c-0.4-1.2-0.9-2.4-1.3-3.6
			c0,0,0,0,0,0h0c-0.2-0.8-0.4-1.6-0.6-2.4c-0.5,0.1-0.9,0.2-1.4,0.3c0.6,0.8,1.1,1.7,1.7,2.5c0,0,0,0,0,0c-0.6-0.8-1.1-1.7-1.7-2.5
			c0.5-0.1,0.9-0.2,1.4-0.3c0.4-0.6,0.9-1.1,1.3-1.6c1.1-1.5,2.3-3.1,3.4-4.6c1.4-2,3.6-3.4,3-6.6c-0.1-0.6,0.2-1.5,0.5-2.2
			c0.5-1.4,1.3-2.7,1.6-4.2c0.9-3.9,1.8-7.9,2.5-11.8c0.6-3.5,1-7.1,1.4-10.6c0.4-3.2,0.8-6.3,1.2-9.5c0.5-4.6,0.9-9.2,1.4-13.8
			c0.3-2.8,0.7-5.5,1-8.2c0.5-3.8,0.3-7.7,1.5-11.4c0.6-1.9,0.6-4.1,0.5-6.2c0-1.6-0.4-3.3-0.9-4.8c-0.8-2.5-1.8-4.9-2.7-7.3
			c-1.8,0.7-3.6,1.4-5.5,2c-2.4,0.8-4.8,1.5-7.1,2.3c-1,0.3-1.9,0.5-2.9,0.8c0,0,0,0,0,0c1-0.3,2-0.5,2.9-0.8
			c2.4-0.7,4.8-1.5,7.1-2.3c1.8-0.6,3.6-1.3,5.5-2v0h0c2.5-1.4,4.5-3.3,5.1-6.5c0.2-1.2,1-2.4-0.1-3.6c0,0,0,0,0,0
			c-0.3-3-1.3-5.8-2.9-8.2c0,0,0,0,0,0c0.1-0.4,0.2-0.8,0.2-1.2c0.4,0.3,0.8,0.6,1.2,0.9c1.1,0.6,2.1,1.3,3.2,1.9c0,0,0,0,0,0h0l0,0
			c0.2,0.1,0.4,0.2,0.6,0.3c0.8,0.4,1.7,0.8,2.5,1.2c0,0,0,0,0,0c1.2,0.5,2.4,1.2,3.6,1.3c1.7,0.2,3.7,0.5,5-0.3
			c3.9-2.7,6.1-6.7,6.1-11.9l0,0c0,0,0,0,0,0c0.1-0.9,0.2-1.7,0.4-2.6c0.3-1.5,0.6-3,0.9-4.4c-0.4,0.3-0.7,0.5-1.1,0.8
			c0.4-0.3,0.7-0.5,1.1-0.8h0C226.9,69.8,227.3,68.4,226.7,67.2z M224.8,66.4c-0.1,0-0.3,0-0.4,0h0c-0.2,0.1-0.4,0.2-0.6,0.3
			c0,0,0,0,0,0c0.2-0.1,0.4-0.2,0.6-0.3v0C224.5,66.4,224.6,66.4,224.8,66.4z M219.9,71.3C219.9,71.3,219.9,71.3,219.9,71.3
			c0.6,0,1.2,0,1.8,0c-0.1,0.5-0.3,1.1-0.5,1.7c0,0,0,0,0,0c0.2-0.6,0.3-1.2,0.5-1.7C221.1,71.3,220.5,71.3,219.9,71.3z M216.3,74.3
			C216.3,74.3,216.3,74.3,216.3,74.3C216.2,74.3,216.2,74.3,216.3,74.3c-0.8-1.7-2.6-3.1-4.1-3c0,0,0,0,0,0
			C213.6,71.1,215.5,72.6,216.3,74.3c0.6-0.2,1.1-0.4,1.7-0.7C217.4,73.9,216.8,74.1,216.3,74.3z M198.2,78.8c0,0.2,0,0.4,0.1,0.6
			C198.3,79.2,198.3,79,198.2,78.8c-0.2-1.3-0.5-2.6-0.7-4c0,0,0,0,0,0C197.8,76.1,198.1,77.5,198.2,78.8z M178.3,112.5
			c0,0-0.1,0-0.1,0C178.2,112.6,178.2,112.6,178.3,112.5C178.3,112.5,178.3,112.5,178.3,112.5C178.3,112.5,178.3,112.5,178.3,112.5z
			 M176.7,112.7C176.8,112.7,176.8,112.7,176.7,112.7C176.8,112.7,176.8,112.7,176.7,112.7C176.7,112.7,176.7,112.7,176.7,112.7z
			 M176.7,112.7c-2.3-0.1-2.7,0.5-2.1,2.9c0.7,0.1,1.4,0.2,2,0.3v0l0,0h0c-0.7-0.1-1.4-0.2-2-0.3C174,113.2,174.4,112.6,176.7,112.7
			z M175.3,207.2c-0.6,0.8-1,1.3-1.5,1.9v0c0,0,0,0,0,0v0C174.2,208.5,174.6,208,175.3,207.2C175.3,207.2,175.3,207.2,175.3,207.2z
			 M173.2,207.2C173.2,207.2,173.2,207.3,173.2,207.2c-0.2,0.2-0.6,0.4-0.6,0.6c-0.3,1.6-0.6,3.3-0.8,4.9c-0.3,0.3-0.5,0.8-0.5,1.3
			c0.1-0.5,0.2-0.9,0.5-1.3c0.3-1.6,0.5-3.3,0.8-4.9C172.6,207.6,173,207.4,173.2,207.2c0-0.1,0-0.2,0-0.3l0,0
			C173.2,207,173.2,207.1,173.2,207.2z M170.1,214c0-0.1,0-0.2-0.1-0.3C170.1,213.7,170.1,213.8,170.1,214
			C170.1,214,170.1,214,170.1,214z M169.6,206.9c0.1,0.5,0.2,0.9,0.3,1.4c0,0,0,0,0,0c0,0,0,0,0,0
			C169.7,207.9,169.7,207.4,169.6,206.9L169.6,206.9z M169.3,208.6C169.3,208.6,169.3,208.6,169.3,208.6L169.3,208.6
			c0,0,0,0.1,0,0.1C169.3,208.7,169.3,208.7,169.3,208.6z M171.3,48.2c0.8,0.3,1.5,0.6,2.2,0.9c0.9-0.8,1.8-1.6,2.7-2.4c0,0,0,0,0,0
			c0,0,0,0,0,0c-0.9,0.8-1.8,1.6-2.7,2.4c0,0,0,0,0,0C172.8,48.8,172.1,48.5,171.3,48.2C171.3,48.2,171.3,48.2,171.3,48.2z
			 M193.5,50.4C193.5,50.4,193.5,50.4,193.5,50.4C193.5,50.4,193.5,50.4,193.5,50.4z M187.3,59.6c0.1,0,0.2-0.1,0.3-0.1
			c0.1,0,0.2,0.2,0.3,0.3c0,0,0,0,0,0c-0.1-0.1-0.2-0.3-0.3-0.3C187.5,59.5,187.4,59.6,187.3,59.6C187.3,59.6,187.3,59.6,187.3,59.6
			z M184.6,61.5c-0.5-0.1-1-0.3-1.7-0.5c0,0,0,0,0,0C183.6,61.2,184.1,61.4,184.6,61.5C184.6,61.5,184.6,61.5,184.6,61.5z
			 M174.3,51.6c0.6,1.2,1.1,2.3,1.7,3.5c0.2,0.1,0.7,0.2,0.7,0.3c0.1,1.5,0.1,3,0.1,4.5c0,0,0,0,0,0c0,0,0,0,0,0
			c0-1.5-0.1-3-0.1-4.5c0-0.1-0.4-0.2-0.7-0.3C175.5,54,174.9,52.8,174.3,51.6c-0.2-0.4-0.5-0.9-0.8-1.3c0,0,0,0,0,0
			C173.8,50.8,174.1,51.2,174.3,51.6z M176.7,75.5c0.2-0.2,0.4-0.5,0.5-1v0c0,0,0,0,0,0C177.1,75,176.9,75.3,176.7,75.5z
			 M181.2,58.5c0,1.7,0.5,2.7,1.3,3.2C181.7,61.2,181.2,60.2,181.2,58.5C181.2,58.6,181.2,58.5,181.2,58.5z M187.4,61.2
			c-0.6-0.3-1.2-0.6-1.8-1C186.1,60.5,186.8,60.9,187.4,61.2z M192.1,62.5c0.1-0.3,0.2-0.7,0.3-1.2c0,0,0,0,0,0
			C192.4,61.8,192.3,62.2,192.1,62.5c-0.3,1.1-0.3,1.7,0.1,2.1C191.8,64.3,191.8,63.7,192.1,62.5z M203.7,59.4
			c0,0.5,0.1,1.1,0.5,1.7C203.8,60.5,203.7,60,203.7,59.4z M204.7,71.6C204.7,71.6,204.7,71.6,204.7,71.6c0.1-2.4-0.3-4.7-0.8-7
			C204.5,66.9,204.8,69.2,204.7,71.6z M202.9,62.7C202.9,62.7,202.9,62.7,202.9,62.7c0-0.1-0.4-0.1-0.6-0.2c0,0,0,0,0,0
			C202.5,62.5,202.9,62.5,202.9,62.7z M202.7,68.2C202.7,68.2,202.7,68.2,202.7,68.2c-0.2-1.4-0.3-2.8-0.5-4.2c0,0,0,0,0,0
			c0,0,0,0,0,0C202.4,65.4,202.5,66.8,202.7,68.2z M206.1,78.6C206.1,78.6,206.1,78.6,206.1,78.6L206.1,78.6L206.1,78.6z
			 M206.1,78.7c-0.1,0.4-0.2,0.8-0.3,1.1C206,79.5,206,79.1,206.1,78.7z M209.6,72c-0.2,0.1-0.3,0.1-0.5,0.2c0,0,0,0,0,0
			C209.3,72.1,209.5,72,209.6,72c1.1,1.9,2.2,3.9,3.3,5.8c0.2-0.1,0.3-0.2,0.5-0.3c0,0,0,0,0,0c-0.2,0.1-0.3,0.2-0.5,0.3
			C211.8,75.9,210.7,73.9,209.6,72z M210.5,80.7c-0.1,0.3-0.2,0.6-0.4,1c0,0,0,0,0,0C210.3,81.3,210.4,81,210.5,80.7
			C210.5,80.6,210.5,80.6,210.5,80.7z M207,74.3c1.7,0.5,1.7,2.2,2.3,3.5c0.2,0.5,0.4,1.1,0.6,1.6c0.1,0,0.2-0.1,0.4-0.1
			c0,0,0,0,0,0c-0.1,0-0.3,0.1-0.4,0.1c-0.2-0.5-0.3-1.1-0.6-1.6C208.7,76.6,208.7,74.8,207,74.3c-0.5,1.2-1.3,2.4-1.1,3.7
			C205.7,76.7,206.5,75.5,207,74.3c0.9-2.3,1.8-4.6,3-7.6c0,0,0,0,0,0C208.9,69.6,207.9,72,207,74.3z M207.2,64.7
			c0.5-1.5,0.9-3.1,1.5-4.7C208.2,61.6,207.8,63.2,207.2,64.7z M210.6,61.5C210.6,61.5,210.6,61.5,210.6,61.5c0,0.2,0,0.4,0,0.6
			c0,0,0,0,0,0C210.6,61.9,210.6,61.7,210.6,61.5z M212.7,69.6h1.2c0,0,0,0,0,0L212.7,69.6C212.7,69.6,212.7,69.6,212.7,69.6z
			 M214.7,60.8c-0.6,0.2-1.2,0.1-1.8,0.2v0C213.5,60.9,214.1,61,214.7,60.8z M210,63.9c-0.1-0.6-0.5-1.2,0-1.5
			C209.6,62.7,209.9,63.3,210,63.9c0.4,1.4,0.8,2.9,1.2,4.3c-0.1,0.1-0.2,0.2-0.3,0.3c0,0,0,0,0,0c0.1-0.1,0.2-0.2,0.3-0.3
			C210.8,66.8,210.4,65.4,210,63.9z M221.6,68.5c0-0.5,0.8-1,1.4-1.7c-0.2-0.4-0.5-1.1-0.8-1.9c0,0,0,0,0,0c0.3,0.8,0.6,1.5,0.8,1.9
			C222.4,67.5,221.6,68,221.6,68.5c0,0.4-0.1,0.8-0.2,1.1C221.5,69.3,221.6,68.9,221.6,68.5z M220.1,70.9c-0.1,0.1-0.1,0.3-0.2,0.4
			c0,0,0,0,0,0C219.9,71.2,220,71.1,220.1,70.9z M215.8,53c0.2,0.4,0.3,0.8,0.5,1.1c0,0,0,0,0,0C216.1,53.8,215.9,53.4,215.8,53
			C215.7,53,215.7,53,215.8,53z M213.5,54.6C213.5,54.6,213.5,54.6,213.5,54.6c-0.4,0-0.9-0.1-1.4-0.1c0,0,0,0,0,0
			C212.6,54.5,213.1,54.5,213.5,54.6C213.5,54.6,213.5,54.6,213.5,54.6z M212,48c0,0.4,0.1,1,0.1,1.4c0.5-0.1,0.9-0.2,1.4-0.3
			c0,0,0,0,0,0c-0.5,0.1-0.9,0.2-1.4,0.3c0,0,0,0,0,0C212,49,211.9,48.3,212,48z M210.9,45.5c0.1-0.1,0.1-0.3,0.2-0.5
			C211,45.3,211,45.4,210.9,45.5c-0.4,0.5-0.6,0.9-0.5,1.3C210.3,46.5,210.5,46,210.9,45.5z M211.1,47.9
			C211.1,47.9,211.1,47.9,211.1,47.9c-0.3,1-0.5,1.9-0.8,2.7c0,0,0,0,0,0C210.6,49.8,210.8,48.9,211.1,47.9z M210.9,53.9
			c0.3,0.3,0.5,0.5,0.8,0.8c0.4,0.3,0.7,0.7,1.1,1c0,0,0,0,0,0c-0.4-0.3-0.8-0.7-1.1-1C211.5,54.5,211.2,54.2,210.9,53.9
			C210.9,53.9,210.9,53.9,210.9,53.9c-0.3-0.6-0.7-1.2-1.1-1.7C210.3,52.7,210.6,53.3,210.9,53.9z M209.5,48.4
			c0,0.7-0.1,1.3-1.1,1.6l0,0C209.4,49.7,209.6,49.1,209.5,48.4z M209.1,58.7c0.2,0.2,0.3,0.5,0.4,0.7h0
			C209.3,59.2,209.2,58.9,209.1,58.7c-0.2-0.3-0.5-0.6-0.7-0.8C208.6,58.2,208.9,58.4,209.1,58.7z M204.7,56
			c-0.8,0.9-1.5,1.5-2.2,2.2v0C203.2,57.5,203.9,56.9,204.7,56z M203.6,52.7C203.6,52.7,203.6,52.7,203.6,52.7
			c-0.5,0.9-1,1.7-1.4,2.6c-0.3,0.7-0.5,1.5-0.8,2.2c-0.1,0.1-0.1,0.2-0.2,0.2c0.1-0.1,0.2-0.1,0.2-0.2c0.4-0.7,0.5-1.5,0.8-2.2
			C202.7,54.4,203.2,53.6,203.6,52.7z M201.7,47.5C201.7,47.5,201.7,47.5,201.7,47.5C201.7,47.5,201.7,47.5,201.7,47.5L201.7,47.5z
			 M176.8,46.6c1.5,0.8,3,1.6,4.6,2.5c0.3,0.2,0.5,0.6,0.8,0.9c0,0,0,0,0,0c-0.2-0.3-0.4-0.7-0.8-0.9
			C179.8,48.2,178.3,47.4,176.8,46.6c0,0-0.1,0-0.1,0C176.7,46.5,176.8,46.5,176.8,46.6z M173.2,45c1,0.5,2,1.1,3,1.7h0
			C175.2,46.2,174.2,45.6,173.2,45C173.2,45,173.2,45,173.2,45z M162.2,55.3c0.9-0.1,1.8-0.8,1.9-2.4c0,0,0,0,0,0
			C164,54.5,163.2,55.2,162.2,55.3z M161.5,93C161.5,92.9,161.5,92.9,161.5,93c0.2-0.2,0.4-0.4,0.4-0.6c0.1-0.7,0.1-1.4,0.2-2.2
			c-0.1,0.7-0.1,1.4-0.2,2.2C161.9,92.5,161.6,92.7,161.5,93z M162.5,85.7C162.5,85.7,162.5,85.7,162.5,85.7
			c-0.1,0.7-0.1,1.4-0.2,2.1C162.4,87.1,162.4,86.4,162.5,85.7z M162.6,84.7C162.6,84.7,162.6,84.7,162.6,84.7
			c0.2-0.9,0.4-1.8,0.5-2.7c0,0,0,0,0,0C163,82.9,162.8,83.8,162.6,84.7z M163.5,78.9C163.5,78.9,163.5,78.9,163.5,78.9
			c0-0.6,0.1-1.2,0.1-1.8c0,0,0,0,0,0C163.6,77.7,163.5,78.3,163.5,78.9z M164,49.5c-0.9,0.2-1.7,0.6-2.5,0.9c-0.4,0.1-0.8,0-1.3,0
			l0,0c0.4,0,0.9,0.1,1.2,0C162.3,50.1,163.2,49.7,164,49.5c0.5-0.1,1.1,0,1.6,0.3c0,0,0,0,0,0C165.2,49.6,164.5,49.4,164,49.5z
			 M161.6,44.7c-0.9,0.2-1.9,0.4-2.9,0.6C159.7,45.1,160.7,44.9,161.6,44.7z M158.3,44.6C158.3,44.6,158.3,44.6,158.3,44.6
			C158.3,44.6,158.3,44.6,158.3,44.6c-0.2,0-0.3,0.1-0.5,0.1C158,44.7,158.1,44.7,158.3,44.6z M157.1,44.9c-0.1,0-0.2,0.1-0.3,0.1
			c0,0,0,0,0,0.1c0,0,0,0,0-0.1C156.9,45,157,45,157.1,44.9z M142.1,79.8c0-2.5,0-5,0-7.4c0-0.4-0.3-0.9-0.5-1.3c0,0,0,0,0,0
			c-0.2-1.7-0.4-3.4-0.5-5.2c0,0,0,0,0,0c0.2,1.7,0.3,3.4,0.5,5.1c0.2,0.4,0.5,0.9,0.5,1.3C142.2,74.8,142.1,77.3,142.1,79.8
			c0,1,0.3,1.4,1.4,0.9c0.5-0.2,0.8-0.5,1-0.8c-0.2,0.3-0.6,0.6-1.1,0.8C142.4,81.3,142.1,80.9,142.1,79.8z M140.6,65.6
			c-0.1-0.1-0.3-0.3-0.4-0.4v0l0,0c0,0,0,0,0,0c0,0,0,0,0,0l0,0c-0.6-1-1.1-2-1.7-3c-1.1-0.6-2.1-1.2-2.3-2.7h-1.4c0,0,0,0,0,0
			c0-0.4,0-0.8-0.2-1.2c-0.4-1.2-0.8-2.5-1.3-3.7l0,0c0.4,1.2,0.9,2.4,1.3,3.7c0.1,0.4,0.1,0.8,0.2,1.2h1.4v-0.9c0,0,0,0,0,0v0.9
			c0.2,1.5,1.2,2.2,2.3,2.7c0.6,1,1.1,2,1.7,3C140.3,65.3,140.5,65.5,140.6,65.6C140.6,65.6,140.6,65.6,140.6,65.6z M139.7,65.1
			c-0.1,0-0.2-0.1-0.3-0.1C139.5,65,139.6,65.1,139.7,65.1z M133.8,63.9c-0.8-0.7-1.5-1.4-2.3-2c0,0,0,0,0,0c0,0,0,0,0,0
			C132.3,62.5,133,63.2,133.8,63.9C133.8,63.9,133.8,63.9,133.8,63.9z M133.5,64.2c-0.1,0.1-0.3,0.2-0.4,0.4
			C133.2,64.4,133.3,64.3,133.5,64.2z M134.6,76.2l-0.8,1.2c0.1,0,0.2,0,0.3,0c-0.1,0-0.2,0-0.3,0v0v0L134.6,76.2
			C134.6,76.2,134.6,76.2,134.6,76.2z M133.5,78C133.5,78,133.5,78,133.5,78c-0.6,0.3-1.1,0.5-1.7,0.8c0,0,0,0,0,0
			C132.3,78.5,132.9,78.3,133.5,78z M133.7,71.8c0.1,0,0.2,0,0.3,0.1c0.3,0.1,0.6,0.4,0.9,0.6c0,0,0,0,0,0c-0.3-0.2-0.6-0.5-0.9-0.6
			C133.9,71.9,133.8,71.8,133.7,71.8z M128.3,63.6c-1.1,1.3-0.9,3.8-2.7,4.3c0,0-0.1,0-0.1,0c0,0,0.1,0,0.1,0
			C127.5,67.4,127.3,65,128.3,63.6c0.2-0.3-0.3-1.2-0.5-1.8c1-0.6,1.9-1.2,2.8-1.7c0,0,0,0,0,0c-0.9,0.6-1.9,1.1-2.8,1.7
			C128.1,62.5,128.5,63.4,128.3,63.6z M131.5,63.4C131.5,63.4,131.5,63.4,131.5,63.4c-0.8,0.9-1.6,1.8-2.5,2.7l-0.1,0.1
			c0,0,0-0.1,0.1-0.1c0,0,0,0,0,0C129.9,65.2,130.7,64.3,131.5,63.4C131.5,63.4,131.5,63.4,131.5,63.4z M130.8,61.9
			c0.2,0,0.4,0,0.5,0C131.2,61.9,131,61.9,130.8,61.9z M128.2,60.1c-0.2,0.3-0.9,0.6-0.9,1.1C127.3,60.7,128,60.4,128.2,60.1
			c0.3-0.4,0.5-0.7,0.5-1C128.7,59.4,128.5,59.7,128.2,60.1z M125,68c-0.1,0-0.1,0-0.2,0C124.9,68,125,68,125,68z M124.3,67.9
			c0,0-0.1,0-0.1,0C124.2,67.8,124.2,67.8,124.3,67.9z M123.5,67.6C123.5,67.6,123.5,67.6,123.5,67.6
			C123.5,67.6,123.5,67.6,123.5,67.6z M124.1,75.5C124.1,75.5,124.2,75.5,124.1,75.5l0.8,1.3l-0.3,0.4c0,0,0,0,0,0l0.3-0.4
			L124.1,75.5z M124.8,69.2C124.8,69.2,124.8,69.2,124.8,69.2C124.8,69.2,124.8,69.2,124.8,69.2C124.8,69.2,124.8,69.2,124.8,69.2z
			 M126.5,69.2c-0.2-0.5-0.4-0.6-0.6-0.7C126.1,68.5,126.3,68.7,126.5,69.2C126.5,69.2,126.5,69.2,126.5,69.2
			C126.5,69.2,126.5,69.2,126.5,69.2z M131.5,56.8V61c0,0,0,0,0,0L131.5,56.8c-0.1-1,0.2-1.6,1.2-1.7h0c0,0,0,0,0,0
			C131.7,55.2,131.4,55.9,131.5,56.8z M134.9,62.1c0.8-0.5,0.9-1.1,0.7-1.7C135.9,61,135.7,61.6,134.9,62.1
			C134.9,62.1,134.9,62.1,134.9,62.1z M148,55.8c0-0.2,0.2-0.4,0.2-0.6C148.2,55.3,148.1,55.6,148,55.8c-1.4-0.3-2.7-0.6-3.8-0.8
			c0,0,0,0,0,0C145.3,55.1,146.7,55.5,148,55.8z M144.7,59.5c-0.9,1.4-0.7,2.6,0,3.9c0.3,0.5,0.5,0.8,0.8,0.9
			c-0.3,0-0.5-0.3-0.8-0.9C144,62.1,143.8,60.9,144.7,59.5c-1.3-1.3-2.5-2.5-3.8-3.8c0,0,0,0,0,0C142.2,56.9,143.4,58.2,144.7,59.5z
			 M143.7,67.4c-0.2,1.1-0.3,1.7-0.4,2.3c0,0,0,0,0,0C143.4,69.1,143.5,68.5,143.7,67.4C143.7,67.4,143.7,67.4,143.7,67.4z
			 M137.5,58.4c0.1-0.5,0.2-0.9,0.3-1.3c0,0,0,0,0,0C137.7,57.6,137.7,58,137.5,58.4C137.5,58.4,137.5,58.4,137.5,58.4z M147.2,61.6
			c0.3,0.7,0.5,1.2,0.7,1.6c0,0,0,0,0,0C147.8,62.8,147.6,62.4,147.2,61.6C147.2,61.6,147.2,61.6,147.2,61.6z M139.9,54.5
			c0.4-0.3,0.8-0.6,1.2-0.8c0.7-0.3,1.5-0.6,2.2-0.6c0,0,0.1,0,0.1,0.1c0,0-0.1,0-0.1,0c-0.7,0-1.5,0.3-2.2,0.6
			C140.7,53.9,140.3,54.3,139.9,54.5c0.1,0.4,0.1,0.9,0.1,1.5c0,0,0,0,0,0C140,55.4,140,55,139.9,54.5L139.9,54.5L139.9,54.5
			c-0.4-0.8-0.7-1.5-1-2.3c0,0,0,0,0-0.1C139.2,53,139.6,53.8,139.9,54.5z M139.1,56.7C139.1,56.7,139.1,56.7,139.1,56.7
			c-1.3-2.4-2.8-2.5-3.9-0.5c0,0,0,0,0,0C136.3,54.2,137.9,54.3,139.1,56.7z M137.6,54c0-0.1-0.1-0.2-0.1-0.2c-0.1,0-0.1,0-0.2,0.1
			c0,0,0,0,0,0c0.1,0,0.2-0.1,0.2-0.1C137.5,53.8,137.5,53.9,137.6,54C137.6,54,137.6,54,137.6,54z M136.5,49.7c0.3,1,0.6,2.1,1,3.1
			c0,0,0,0,0,0C137.2,51.8,136.9,50.7,136.5,49.7C136.5,49.7,136.5,49.7,136.5,49.7z M135.3,49.9c0,0.1,0,0.3,0,0.4
			C135.2,50.2,135.2,50.1,135.3,49.9z M135.7,51.5V51h0L135.7,51.5c-0.7,1-1.5,2-2.2,3c0,0,0,0,0,0C134.2,53.5,135,52.5,135.7,51.5z
			 M132.9,54.6L132.9,54.6C132.9,54.6,132.9,54.6,132.9,54.6c-0.6,0.1-1.2,0.2-1.8,0.4c-1.7,0.7-3.3,1.6-5,2.4
			c-0.2,0.1-0.3,0.1-0.4,0.1c0.1,0,0.3-0.1,0.4-0.1c1.7-0.7,3.3-1.6,5-2.4C131.7,54.7,132.3,54.7,132.9,54.6z M130,42.7
			c-0.4,0.1-0.9,0.1-1.3,0.1C129.1,42.7,129.6,42.7,130,42.7c0.3,0,0.6-0.5,0.9-0.7c-0.2-0.2-0.5-0.5-0.7-0.7
			c0.2,0.1,0.5,0.5,0.7,0.7C130.7,42.2,130.4,42.6,130,42.7z M130.9,49.4c0.3-0.3,0.6-0.6,1-0.9C131.6,48.8,131.3,49.1,130.9,49.4
			L130.9,49.4C131,49.4,131,49.4,130.9,49.4C131,49.4,131,49.4,130.9,49.4L130.9,49.4z M130.9,49.6
			C130.9,49.6,130.9,49.7,130.9,49.6c-0.7,0.4-1.4,0.7-2.4,1.2v0C129.5,50.3,130.2,50,130.9,49.6C130.9,49.6,130.9,49.6,130.9,49.6z
			 M129,43.7c0.2,0.2,0.4,0.5,0.6,0.8c0,0,0,0,0,0C129.4,44.3,129.2,43.9,129,43.7z M128.5,46.5L128.5,46.5c0.5,0.1,0.5,1.1,0.8,1.3
			C129,47.7,129.1,46.7,128.5,46.5z M130.1,41.2C130.1,41.2,130.1,41.2,130.1,41.2c0,0,0.1,0,0.1,0
			C130.1,41.2,130.1,41.2,130.1,41.2z M126.6,44.7c0.1,0.1,0.2,0.1,0.4,0.2C126.9,44.8,126.7,44.7,126.6,44.7
			C126.6,44.7,126.6,44.7,126.6,44.7z M129.6,45.1C129.6,45.1,129.6,45.1,129.6,45.1c-0.7,0.6-1.3,0.4-1.9,0.1
			C128.3,45.5,128.9,45.7,129.6,45.1z M131.6,46.2C131.6,46.3,131.6,46.3,131.6,46.2c-0.1-0.3-0.3-0.5-0.4-0.8
			c-0.2-0.4-0.4-0.8-0.6-1.2c0,0,0,0,0,0c0.2,0.4,0.4,0.8,0.6,1.2c0-0.5,0.1-1,0.1-1.4l0,0c0,0.5-0.1,1-0.1,1.5
			C131.4,45.7,131.5,46,131.6,46.2z M129.8,40.4c-0.4-0.1-0.8-0.8-1.1-1.3C129,39.6,129.4,40.2,129.8,40.4z M124.8,49
			c1,1.1,1.8,2.4,2.8,3.5c0,0,0.3,0.2,0.6,0.2c-0.4,0-0.7-0.2-0.7-0.2C126.6,51.4,125.7,50.1,124.8,49c-0.3-0.3-0.7-0.5-1.1-0.5
			C124.1,48.5,124.5,48.7,124.8,49z M118.4,64.6L118.4,64.6c0.7,2,1.8,3.3,3.4,3.9C120.2,67.8,119,66.6,118.4,64.6z M124.8,86.6
			c-0.4,0.5-0.9,0.7-1.5,0.6C123.9,87.3,124.4,87.1,124.8,86.6c0.7-1-0.4-1.1-0.9-1.6c-1.8-1.6-3-3.5-3.4-6.1
			c-0.2-1.8-0.9-3.4-1.4-5.2v0c-0.5-0.9-1-1.8-1.4-2.7c0,0,0,0,0,0c0.5,0.9,1,1.8,1.4,2.7v0c0.6,0,1.1,0.2,1.6,0.4
			c-0.5-0.2-1-0.4-1.6-0.4c0.5,1.7,1.1,3.4,1.4,5.2c0.4,2.6,1.6,4.5,3.4,6.1C124.5,85.5,125.6,85.6,124.8,86.6z M124.6,75.8
			C124.6,75.8,124.6,75.8,124.6,75.8c0.1-3.3,2.2-5.3,4-7.5c-0.1-0.1-0.2-0.2-0.3-0.2c0,0,0,0,0,0c0.1,0.1,0.2,0.2,0.3,0.3
			C126.8,70.5,124.8,72.5,124.6,75.8z M126.7,81.2C126.7,81.2,126.7,81.2,126.7,81.2c0.4-0.4,0.9-0.7,1.2-1.2
			c0.8-1.5,1.5-3.1,2.4-4.5c0.9-1.6,1.3-3.2,1.4-5.1c0-1.2,0.6-2.3,0.9-3.7c0,0,0,0,0,0c-0.4,1.4-0.9,2.5-0.9,3.7
			c0,1.9-0.4,3.5-1.4,5.1c-0.9,1.5-1.5,3.1-2.4,4.5C127.6,80.4,127.1,80.8,126.7,81.2z M128.8,87.3c-0.3,0.2-0.6,0.3-0.9,0.5l0,0
			C128.2,87.6,128.5,87.5,128.8,87.3c1.7-1.5,3.5-2.9,5.3-4.4c0,0,0,0,0,0l0,0l0,0c0,0,0,0,0,0C132.3,84.4,130.5,85.8,128.8,87.3z
			 M133.6,86.1C133.6,86.1,133.6,86.1,133.6,86.1c0.4-0.2,0.9-0.3,1.1-0.7c0.8-1.5,2.4-2.8,1.6-4.9c-0.1-0.2,0.2-0.4,0.3-0.7v0
			c0,0,0,0,0,0c-0.1,0.2-0.3,0.5-0.2,0.6c0.8,2.2-0.8,3.4-1.6,4.9C134.5,85.8,134,85.9,133.6,86.1z M136.1,77.4
			C136.1,77.4,136.1,77.4,136.1,77.4c-0.4,0.5-0.8,1.1-1.2,1.6c0.4,0.1,0.7,0.2,1.1,0.3c0,0,0,0,0,0c0,0,0,0,0,0
			c-0.4-0.1-0.7-0.2-1.1-0.3c0,0,0,0,0,0c0,0,0,0,0,0c0,0,0,0,0,0c0,0,0,0,0,0.1c-0.8,0.7-1.7,1.4-2.7,2.3c0,0,0,0,0,0
			c1-0.9,1.9-1.6,2.7-2.3C135.3,78.4,135.7,77.9,136.1,77.4z M138.2,72.5c-0.3,0.4-0.6,0.7-0.9,1.1
			C137.5,73.3,137.8,72.9,138.2,72.5z M140.9,75.1L140.9,75.1c0.1-0.1,0.2-0.2,0.3-0.3c-0.3-0.5-0.5-1.1-0.9-1.4
			c-1-0.9-1.6-1.9-1.5-3.3c0.1-0.4,0.3-0.8,0.4-1.2c-0.8-0.3-1.7-0.6-2.5-1c-0.3-0.2-0.5-0.7-0.7-1.1c-0.3-0.2-0.6-0.4-0.8-0.6
			c-0.7-0.4-1.4-0.9-2.2-1.4c0,0,0,0,0,0c0.8,0.5,1.5,1,2.2,1.4c0,0,0,0,0,0c0.3,0.2,0.6,0.4,0.8,0.6c0.4,0.2,0.7,0.4,1.1,0.6
			c0,0,0,0,0,0c-0.4-0.2-0.8-0.4-1.1-0.6l0,0c0.2,0.4,0.4,0.9,0.7,1.1c0.8,0.4,1.6,0.7,2.5,1c0.5-0.2,1-0.3,1.5-0.5
			c-0.5-1.1-1-2.2-1.5-3.4c0,0,0,0,0,0c0.6,1.3,1,2.3,1.5,3.4c-0.5,0.2-1,0.3-1.5,0.5c-0.1,0.4-0.3,0.8-0.4,1.2
			c-0.1,1.4,0.5,2.5,1.5,3.3c0.4,0.3,0.6,1,0.9,1.4C141.1,74.9,141,75,140.9,75.1z M142.1,97.4c-0.2-1.1-0.5-2.3-0.5-3.4
			c0-1.4,0.4-2.7,0.6-4.1c0-0.2-0.1-0.4-0.1-0.7c-0.7,1.3-1.5,2.5-2.2,3.8c-0.5,0.9-1,1.8-1.4,2.7c-0.2,0.5-0.4,1-0.6,1.5l-0.9-0.6
			c0,0,0,0,0,0l0.9,0.6c0.2-0.5,0.4-1,0.6-1.5c0.4-0.9,0.9-1.8,1.4-2.7c0.7-1.3,1.5-2.6,2.2-3.8c0.1-0.6,0.2-1.2,0.3-1.8
			c0,0,0,0,0,0c0.3-0.2,0.6-0.4,0.8-0.6c0.3-0.6,0.5-1.3,0.7-1.9c0.8-1.8,1.9-3.3,2.3-5.3c0.2-1.4,1.2-2.6,1.9-3.8
			c0.5-1,1.3-2,1.4-3c0.3-2.5,0.3-5.1,0.4-7.7c0-1.6-0.1-2.1-0.9-2.1c0.8-0.1,1,0.4,0.9,2.1c-0.1,2.6-0.1,5.2-0.4,7.7
			c-0.1,1.1-0.9,2-1.4,3c-0.6,1.3-1.6,2.5-1.9,3.8c-0.4,2.1-1.5,3.6-2.3,5.3c-0.3,0.6-0.4,1.3-0.7,1.9c-0.2,0.3-0.5,0.4-0.8,0.6
			c-0.1,0.6-0.2,1.2-0.3,1.8h0l0,0c0,0.2,0.2,0.4,0.1,0.7c-0.2,1.4-0.6,2.7-0.6,4.1C141.6,95.2,142,96.3,142.1,97.4
			c0.2,0.8,0.7,1.4,1.3,1.6C142.8,98.9,142.3,98.3,142.1,97.4z M151.7,86.3c-0.4,0-0.7-0.5-1.3-0.8c0,0,0,0,0,0
			C151,85.8,151.3,86.2,151.7,86.3C151.7,86.3,151.7,86.3,151.7,86.3z M153.1,85.3c-0.4-0.6-0.6-1.3-0.6-2.1
			C152.5,84,152.7,84.7,153.1,85.3c1.7-2,2.2-4.4,1.1-5.6C155.2,80.9,154.8,83.3,153.1,85.3z M154.6,55.1c-2,0.3-4,0-5.8,1.5
			c-0.2,0.2-0.4,0.2-0.6,0.2c0.2,0,0.4-0.1,0.6-0.2C150.5,55.1,152.6,55.3,154.6,55.1c1.3-0.2,2.6-1,3.6-1.9
			c0.4-0.3,0.6-0.4,0.8-0.4c-0.2,0-0.4,0.1-0.8,0.4C157.2,54.1,155.8,54.9,154.6,55.1z M158.1,108.8c0.1,0,0.3,0,0.4,0
			c0.5,0,0.9,0.1,1.4,0.1c-0.5,0-0.9-0.1-1.4-0.1C158.3,108.8,158.2,108.8,158.1,108.8z M163,109.2c0.4,0,0.9,0.1,1.3,0.1
			c0,0,0,0,0,0C163.9,109.3,163.4,109.3,163,109.2z M164.2,108.5C164.2,108.5,164.2,108.5,164.2,108.5L164.2,108.5
			c0.1,0.1,0.3,0.1,0.5,0.2C164.6,108.6,164.4,108.6,164.2,108.5z M167.6,52.4C167.6,52.4,167.6,52.5,167.6,52.4
			C167.6,52.4,167.6,52.4,167.6,52.4c1-0.8,1.4-1.9,1.2-3.3c0,0,0,0,0,0c0,0,0,0,0,0C169,50.5,168.6,51.6,167.6,52.4z M160.3,208
			C160.3,208,160.3,208,160.3,208L160.3,208c-0.1,0-0.3,0-0.5,0.1C159.9,208.1,160.1,208,160.3,208z M169.6,217.7
			c0.3,0.3-0.6,0.8-0.3,1C169,218.5,169.8,217.9,169.6,217.7z M169.9,216.7c-0.1,0.3-0.3,0.6-0.4,0.9l0,0
			C169.7,217.3,169.8,217,169.9,216.7C169.9,216.7,169.9,216.7,169.9,216.7c0.6-0.4,0.8-1,0.7-1.6
			C170.8,215.7,170.5,216.4,169.9,216.7z M173.3,214c-0.2-0.6-0.8-1.5-0.7-2.1C172.5,212.5,173.1,213.4,173.3,214
			c2.4-0.2,3.2-0.1,3.4,0.9C176.5,214,175.7,213.8,173.3,214z M176.8,215.8C176.8,215.8,176.8,215.8,176.8,215.8c0,0,0-0.1,0-0.1
			C176.8,215.7,176.8,215.7,176.8,215.8z M198.3,102.4c0,0.2-0.2,0.5-0.3,0.5c-1.5,0.2-2.4,2-4,2c-1,0-2.1,1-3.1,1
			c-2.5,0-4.7,1.2-7.1,1.8c-1,0.3-2.1,0.1-3.1,0.3c-0.5,0.1-1,0.6-1.4,0.9c0.6,0,1.3,0,1.9,0c0.2,0,0.4,0,0.6,0c0,0,0,0,0,0
			c0.8,0.1,1.6,0.2,2.4,0.3c0,0,0,0,0,0c-0.8-0.1-1.6-0.2-2.5-0.3c-0.2,0-0.4,0-0.6,0c0,0,0,0,0,0c-0.6,0-1.3,0-1.9,0
			c-0.4,0-0.7,0-1.1,0c-0.5,0.1-1,0.1-1.5,0.2c-0.6,0.2-1.2,0.5-1.9,0.7l0,0c0.3,0,0.6-0.1,0.9-0.1c-0.3,0-0.6,0.1-0.9,0.1
			c-0.2,0-0.4,0-0.6,0.1c-1.1,0.1-2.3,0.2-3.4,0.2c0,0,0,0,0,0c0,0,0,0,0,0c1.1-0.1,2.2-0.2,3.4-0.2c0,0,0,0,0,0
			c0.2,0,0.4,0,0.6-0.1c0.6-0.2,1.2-0.5,1.9-0.7c0.5-0.1,1-0.1,1.5-0.2c0-1-0.6-1-1.2-0.8c-1.1,0.2-2.2,0.4-3.3,0.6
			c-0.2,0.3-0.2,0.5-0.1,0.7c-0.1-0.1-0.1-0.3,0.1-0.7c1.1-0.2,2.2-0.4,3.3-0.6c0.6-0.1,1.2-0.2,1.2,0.8c0.4,0,0.7,0,1.1,0l0,0h0
			c0.5-0.3,0.9-0.8,1.4-0.9c1-0.2,2.1,0,3.1-0.3c2.3-0.6,4.6-1.7,7.1-1.8c1,0,2.1-1,3.1-1c1.7,0,2.5-1.8,4-2
			C198.1,102.9,198.3,102.6,198.3,102.4c0.3-1.4,0.8-2.8,0.8-4.2c0-2.7-0.3-5.4-0.5-8.1c0-0.2-0.1-0.5-0.3-0.7
			c-0.9-1.1-1.9-2.3-2.9-3.4c-1.2-1.3-1.9-2.9-2.1-4.7c-0.1-1.4,0-2.8-0.1-4.2c0-0.5-0.3-1.1-0.6-1.6c-0.9-1.4-1.8-2.8-2.7-4.2
			c-0.1-0.1-0.1-0.5,0-0.6c0.8-0.7,1.5-1.5,2.4-1.8c0.7-0.3,1.6-0.1,2.4-0.1c1.3,0,2.5-1.3,2.4-2.6c0-0.3-0.2-0.7-0.5-0.9
			c0.2,0.2,0.5,0.6,0.5,0.9c0.1,1.4-1.2,2.6-2.4,2.6c-0.8,0-1.7-0.2-2.4,0.1c-0.9,0.4-1.6,1.2-2.4,1.8c-0.1,0.1-0.1,0.4,0,0.6
			c0.9,1.4,1.8,2.8,2.7,4.2c0.3,0.5,0.5,1,0.6,1.6c0.1,1.4,0,2.8,0.1,4.2c0.1,1.8,0.9,3.4,2.1,4.7c1,1.1,1.9,2.2,2.9,3.4
			c0.2,0.2,0.3,0.4,0.3,0.7c0.2,2.7,0.5,5.4,0.5,8.1C199.1,99.6,198.6,101,198.3,102.4z M199.5,92.5
			C199.5,92.5,199.5,92.5,199.5,92.5c0.6-0.8,1.1-1.5,1.5-2.1c0,0,0,0,0,0C200.6,91,200.1,91.6,199.5,92.5z M202.2,79.7
			c0,0.3-0.1,0.5-0.2,0.7c-0.4,2.7-0.9,3.1-3.4,2.6c0-0.1,0-0.3,0-0.4c0,0.1,0,0.3,0,0.4c2.5,0.4,3,0.1,3.4-2.6
			C202,80.2,202.1,79.9,202.2,79.7c0-0.3,0.1-0.5,0.1-0.8C202.2,79.2,202.2,79.4,202.2,79.7z M205.2,84.5c0.1,0.1,0.1,0.2,0.2,0.3
			C205.3,84.7,205.2,84.6,205.2,84.5z M207.6,86.7c-0.5-1-1.1-1.9-1.6-2.9c-0.3,0.1-0.6,0.2-1,0.4c-0.2-0.2-0.5-0.6-0.5-0.7
			c0,0,0,0,0,0c0,0.1,0.3,0.4,0.5,0.7c0.3-0.1,0.7-0.2,1-0.4C206.6,84.7,207.1,85.7,207.6,86.7l0.5-0.3c0,0,0,0,0,0L207.6,86.7z
			 M210.5,88.1c-0.9-1-1.8-2-2.6-3.1c0,0,0,0,0-0.1l-0.1-0.1c-0.1-0.1-0.2-0.3-0.3-0.4c0,0-0.1,0.1-0.1,0.1l0,0c0,0,0.1-0.1,0.1-0.1
			c0.1,0.2,0.2,0.3,0.3,0.5C208.7,86,209.6,87.1,210.5,88.1C210.5,88.1,210.5,88.1,210.5,88.1z M213.3,83.5
			c-0.4-0.8-0.9-1.6-1.3-2.4c0,0,0,0,0,0C212.5,81.8,212.9,82.6,213.3,83.5C213.4,83.5,213.4,83.5,213.3,83.5z M216.6,82.8
			c0.3-0.4,0.3-0.9,0.1-1.4c-0.4-1.5-0.8-3.1-1.6-4.4c-1.3-2.1-2.9-4.1-4.3-6.1c-0.3-0.3-0.7-0.6-1-0.8c0,0,0,0,0,0
			c0.3,0.3,0.8,0.5,1,0.8c1.5,2,3.1,3.9,4.3,6.1c0.8,1.3,1.2,2.9,1.6,4.4C216.9,81.9,216.9,82.4,216.6,82.8z M223.4,72.5
			c-0.8,0.7-1.4,1.6-2.3,2.2c-0.9,0.6-2,1-2.9,1.5c0,0,0,0,0,0c1-0.5,2-0.9,2.9-1.5C222,74.1,222.6,73.2,223.4,72.5
			c0.4-0.3,0.8-0.6,1.2-0.9C224.2,71.8,223.8,72.1,223.4,72.5z M223.4,67.6C223.4,67.6,223.4,67.6,223.4,67.6
			c0.7,0.2,1.3,0.4,1.9,0.6c0,0,0,0,0,0C224.6,68.1,224.1,67.9,223.4,67.6z"/>
		<path class="st4" d="M206.7,87.2L206.7,87.2C206.7,87.2,206.7,87.2,206.7,87.2L206.7,87.2z"/>
		<path class="st4" d="M121.4,44.7c-0.5,0.9-1,1.9-1.5,2.8C121,47,121.4,46,121.4,44.7z"/>
		<path class="st4" d="M123.5,43.2c-0.7,0.5-1.4,1-2.1,1.6C122.7,45.2,122.9,43.8,123.5,43.2z"/>
		<path class="st4" d="M220.5,50.7c0,0.1,0.1,0.1,0.1,0.2h0C220.6,50.8,220.6,50.7,220.5,50.7C220.6,50.6,220.5,50.7,220.5,50.7z"/>
		<polygon class="st4" points="174.3,109.8 174.3,109.8 174.3,109.8 		"/>
		<path class="st4" d="M139.1,68.9C139.1,68.9,139.1,68.9,139.1,68.9C139.1,68.9,139.1,68.9,139.1,68.9L139.1,68.9z"/>
		<polygon class="st4" points="139.1,68.9 139.1,68.9 139.1,68.9 		"/>
		<path class="st4" d="M168.4,45.4c0.4-0.1,0.9-0.2,1.3-0.4c-0.4-0.3-0.9-0.6-1.3-0.9C168.4,44.6,168.4,45,168.4,45.4z"/>
	</g>
	<g>
		<path class="st5" d="M344.5,106.7c0.8,3.6,1.6,7.2,2.2,10.8c0.1,0.6-0.2,1.4-0.4,2.1c-1.7,5-1.2,10.3-1.5,15.5
			c-0.2,3.3-0.1,6.6-0.5,9.8c-0.4,3.8-1.3,7.6-1.9,11.4c0,0.2,0,0.3-0.1,0.5l-2.2,13.6c-0.4,2.6-0.7,5.1-1.2,7.7
			c-0.8,4-1.7,7.9-2.8,11.8c-0.5,1.6-0.8,3.2-0.9,4.9c-0.1,1.6-1,3.2-1.8,4.6c-1.1,2.1-2.4,4-3.7,6c-0.4,0.7-1,1.2-1.5,1.9
			c-0.4,0.1-0.8,0.1-1.2,0.2l-1.6-0.2c-1.2,0-2.4,0-3.6-0.1c-0.5,0-1,0-1.6,0c-0.3,0-0.6-0.1-0.9-0.1v-0.1c-0.2,0-0.4,0-0.7-0.1
			c-0.4,0-0.8,0.1-1.2,0.1c-0.9-0.3-2.1-0.4-2.6-1.1c-1.2-1.4-2.2-0.7-3.4-0.1c-0.3,0-0.6,0.1-0.9,0.1c-1.2,0.1-2.5,0.2-3.7,0.2
			c-0.3,0-0.6,0-0.9,0c-0.3,0-0.6,0.1-0.9,0.1c-0.5,0.1-1,0.2-1.5,0.3c-0.5,0-1.1-0.1-1.6-0.1v0c-0.2-0.2-0.4-0.4-0.6-0.6
			c-3.7-3.1-5.1-7.1-4.3-11.8c0.5-2.8-1.5-4.5-2.3-6.7c-0.6-1.7-1.6-3.3-2-5.1c-0.8-3.5-1.2-7.1-1.9-10.6c-0.7-3.7-1.4-7.5-2.5-11.1
			c-1.3-4.4-1.1-8.8-1.3-13.3c-0.3-6.2-0.8-12.4-1.4-18.6c-0.2-2.5-0.8-5-1.6-7.3c-0.8-2.4-0.2-4.6,0.2-6.9c0.2-1,0.7-1.9,1-2.8
			c0.2-0.4,0.3-0.9,0.4-1.3c0.5-1.8,1-3.6,1.4-5.4c1.2,0.1,2.5,0.2,3.7,0.3l0,0c0.5,1.2,1.4,1.7,2.5,1.9c0.8,0.2,1.6,0.4,2.4,0.6
			c0.9,0,1.9-0.1,2.8-0.1h0.9c1.3,0.4,2.7,0.8,4,1.2c0.4,0.1,0.8,0.2,1.2,0.3c0.3,0.1,0.6,0.4,1,0.4c2.3,0.1,4.6,0.1,6.9,0.2h1.8
			c1.8-0.2,3.6-0.4,5.4-0.6c0.2,0,0.4-0.1,0.6-0.2c1.4-0.2,2.8-0.4,4.2-0.6c0.6,0,1.2-0.2,1.7,0c2.1,1,4,0,5.9-0.7
			c0.6-0.3,1.2-0.5,1.8-0.8c1.2-0.7,2.3-1.3,3.5-2c0.5-0.2,1-0.3,1.4-0.5c1.1-0.2,2.3-0.3,3.4-0.5h0.6c0.2,0.1,0.4,0.3,0.5,0.4
			c0.1,0.3,0.1,0.5,0.2,0.8c0,0.1,0.1,0.3,0.1,0.4l0,0C344.1,105.9,344.3,106.3,344.5,106.7L344.5,106.7L344.5,106.7z M325.2,112.1
			c0-0.1,0-0.2-0.1-0.4c-1.3,0.1-2.5,0.1-3.8,0.2c-0.7,0.1-1.4,0.2-2,0.5c-0.4,0.2-0.5,0.8-0.7,1.3c0,0.1,0.2,0.4,0.4,0.6
			c0.3-0.2,0.7-0.5,1-0.7c0.7-0.4,1.3-0.9,2-1C323.1,112.3,324.1,112.3,325.2,112.1z"/>
		<path class="st5" d="M304.8,109.1c-0.4-0.1-0.8-0.2-1.2-0.3c-1-1.3-2.4-2.1-4-2.3c-0.8-0.4-1.5-1-2.3-1.1
			c-2.1-0.2-4.2-0.1-6.3-0.1l0,0c-0.6-0.6-1.1-1.3-1.5-1.7c0.5-0.5,0.8-0.8,1.2-1.2c0.3-0.3,0.6-0.5,0.9-0.8c0.5-0.5,1.4-1,1.5-1.6
			c0.3-2.5,2-4.8,1.1-7.5c-0.1-0.2,0.1-0.6,0.2-0.7c1.5-0.7,1-2.1,1.1-3.3c0-0.4,0.1-0.8,0.2-1.2c0.7-2.5,1.4-5,2.1-7.5
			c-1.3,0-1.8,0.4-1.8,1.7c0,0.9-0.5,1.8-0.9,3.1c-1.9-1.7-1.4-3.5-1.5-5.1c-0.8,1.6-1.5,3.1-2.2,4.7c-0.3,0.6-1,1.4-0.8,1.7
			c0.8,1.5,0.2,2.9-0.1,4.2c-0.3,1.3-0.7,2.6-1.4,3.7c-0.4,0.6-1.4,0.8-2.1,1.3c-0.4,0.2-0.7,0.5-1,0.8c-0.3,0.3-0.6,0.7-1.2,1.3
			c-0.2-0.7-0.4-1-0.4-1.4c0-1.5,0-3.1,0-4.6c0-0.5-0.4-0.9-0.6-1.4c-0.1-4.3-0.2-8.5-0.3-12.8c0.1-1.5,0.3-3,0.4-4.5
			c-0.1-0.1-0.3-0.2-0.4-0.2c-0.7,2.3-2.4,1.9-4,1.8c-1.3-0.5-2.6-0.5-3.8,0.9c0.9,0.2,1.6,0.1,2.2,0.4c0.5,0.2,0.9,0.8,1.3,1.2
			c-0.4,0.4-0.7,1-1.2,1.2c-1.7,0.5-3.5,0.9-5.3,1.3c-0.2,0-0.3,0.3-0.6,0.6h1.2c0.5,1.2,1,2.3,1.4,3.3c0.1,0.4,0.2,0.8,0.3,1.2
			c-1.2,0.2-2.6,0.1-3.6,0.7c-2.4,1.5-4.8,2.2-7.6,2.1c-0.4,0-0.7,0.1-1.4,0.2c1,1.5,1.7,2.9,2.7,4c1.1,1.4,1.2,2-0.3,2.9
			c-1.2,0.8-2.5,1.5-3.8,2.2c-1.4,0.8-2.8,1.7-4.3,2.6c0.1,0.3,0.4,0.9,0.7,1.5l-1,0.9c-0.3-0.1-0.7-0.2-0.9-0.4
			c-1.8-2-4.2-2.9-6.5-3.9c-0.6-0.2-1.2-0.2-1.9-0.3c0,0.1,0,0.2,0,0.2c1.2,0.7,2.3,1.3,3.5,2c-0.1,0.2-0.2,0.4-0.3,0.6
			c-1.1-0.3-2.2-0.6-3.2-0.9c0,0.1-0.1,0.2-0.1,0.3c1.4,1.1,2.9,2.2,4.4,3.4c-0.2,0.1-0.5,0.2-0.7,0.5c-0.8,1.2-2.3,0.4-3.2,1.4
			c-1.3,1.4-2.8,2.6-4.3,3.9c-1-0.6-2.1-1.2-3.1-1.7c-0.3-0.1-0.6-0.3-0.9-0.4l0,0c-1.4-1-0.9-1.9,0-2.9c2.1-2.5,2.3-3.3,1.1-5.2
			c1.3-0.7,1.9-1.4,1.9-2.2c0.3-0.2,0.7-0.3,1-0.5c0.8,0,2.2,0.2,2.4-0.2c0.8-1.5,2-1.6,3.3-1.2c1.1,0.3,1.4-0.1,1.3-1.1
			c0.1-0.2,0.4-0.5,0.4-0.7c-0.3-0.6-0.7-1.2-1-1.8c1.5-0.3,3-0.5,4.5-1c2.1-0.7,2.3-1.7,0.8-3.5c-0.3-0.3-0.3-0.9-0.4-1.4
			c0.4,0.2,0.9,0.4,1.7,0.8c-0.3-0.6-0.4-0.8-0.5-1h2.6c0.5-1.4,0-1.9-0.9-2.6c-1.2-0.8-2.7-1.7-2.6-3.6l0,0c0.9-0.4,1.8-1,2.7-1.2
			c2.1-0.5,4.4-0.7,6.5-1.4c0.8-0.2,1.8-1.5,1.7-2.2c-0.2-1.4,0.4-2,1.2-2.7c0.5-0.4,1-0.9,1.4-1.2c-0.6-0.7-1-1.1-1.4-1.6
			c0.5-0.3,1.1-0.5,1.7-0.9c0.2-1,0.4-2.2,0.7-3.8c-0.8,0.2-1.3,0.3-1.8,0.5c-0.5,0.2-1,0.4-1.6,0.5c0.5-1,0.9-2,1.4-2.9
			c0.7-1.2,1.5-2.4,2.5-3.4c1.5-1.4,3.3-2.6,4.9-3.9c0.1,0.6,0.2,1.3,0.4,1.9c0.1,0.4,0.4,0.9,0.6,1.3c0.2-0.1,0.3-0.1,0.5-0.2
			c0.1-0.7,0.2-1.4,0.3-2.2c1.7,0.2,2.7-0.4,3.2-2.1c0.3-1.1,0.8-1.5,1.9-1.4c0.2,1,0.5,2,0.7,3c0.2,0,0.4,0,0.5,0v-2.9l0.6-0.6
			c0.7-0.1,1.7,0.1,1.9-0.2c1-1.6,2.8-0.8,4.1-1.5c0.2-0.1,0.8,0.4,1,0.7c0.1,0.2-0.2,0.7-0.4,1c-0.3,0.3-0.7,0.5-1,0.8
			c0.4,0.3,0.8,0.5,1.2,0.8c0.4,0.2,0.8,0.5,1.3,0.4c0.5,0,1.2-0.2,1.4-0.5c0.4-0.8,0.7-0.9,1.5-0.5c0.4,0.2,1.1-0.2,1.6-0.4
			c0.3-0.1,0.4-0.4,0.7-0.5c1.1-0.4,2.3-0.8,3.4-1.1c0.8-0.2,1.6-0.4,2.3-0.2c1.7,0.6,3.3,1.9,5.2,0.5c0.1-0.1,0.4-0.1,0.6,0
			c0.9,0.3,1.7,0.7,2.6,1.1c0.1,0.5,0.1,0.9,0.2,1.4c0,0.2-0.1,0.4-0.1,0.7c0,0.1,0,0.2-0.1,0.4c0,0.3-0.1,0.6-0.1,0.9
			c-0.1,0.6-0.2,1.2-0.2,1.9c0,0.4-0.1,0.8-0.1,1.2c-0.3,0.2-0.7,0.4-0.7,0.7c-0.2,1-0.2,2-0.3,3.1c-0.1,3.7-0.2,7.4-0.5,11
			c-0.4,5.2-1.2,10.4-1.7,15.6c-0.4,3.8-0.5,7.6-0.8,11.5c-0.2,2.5-0.5,4.9,2.1,6.5l0.7,0.6c0.1,0.2,0.3,0.3,0.4,0.5
			c0.2,0.2,0.5,0.3,0.7,0.5c-0.6,0.3-1.3,0.8-1.9,0.8c-1.1,0-2.2-0.4-3.4-0.7L304.8,109.1L304.8,109.1L304.8,109.1z M258,87.3
			c-0.2-0.2-0.4-0.4-0.7-0.5c0,0.1-0.1,0.3-0.1,0.4C257.5,87.2,257.7,87.3,258,87.3c0.4,0.7,0.7,1.4,1.1,2.1
			c0.2-0.1,0.4-0.3,0.6-0.4C259.1,88.5,258.6,87.9,258,87.3L258,87.3L258,87.3z M279.9,66c0.5-2.8-3-6.9-5-6.4
			c0.4,0.3,0.9,0.6,1.2,1.1C277.3,62.3,278.5,64,279.9,66L279.9,66z M281.2,68.3c0.8,0.9,1.5,1.6,2.2,2.5c0.4-3,0-5.3-1.9-5.6
			C281,66.2,284.2,67.2,281.2,68.3L281.2,68.3L281.2,68.3z M257.1,86.1c-0.3-0.2-0.4-0.4-0.5-0.5c-0.1,0-0.3,0.2-0.4,0.3
			c0.1,0.1,0.2,0.3,0.3,0.4C256.7,86.4,256.9,86.2,257.1,86.1L257.1,86.1L257.1,86.1z"/>
		<path class="st5" d="M334,106.9c-0.6,0.3-1.2,0.5-1.8,0.8c-0.3-0.1-0.6-0.3-1-0.3c-3.4,0.1-6.8,0.2-10.2,0.3
			c-0.4,0-0.8,0.7-1.2,1.1c-0.3,0-0.6,0-0.9,0c-0.2-0.9-0.4-1.7-0.6-2.6c0.8-0.7,1.6-1.3,2.2-2.1c0.4-0.4,0.7-1,0.7-1.5
			c-0.3-12.9-0.7-25.8-1-38.7c0-0.2-0.1-0.4-0.2-0.6c-0.1-0.7-0.1-1.4-0.2-2.1c0-1.6-0.1-3.2-0.2-4.8c0.1-1.4,0.2-2.8,0.4-4.2
			c0-0.5,0.1-1.3,0.4-1.4c1-0.2,1.2,0.6,1.2,1.3c0,1.4,0,2.9,0,4.3c0,0.4,0.2,0.7,0.3,1.1c0.1,0,0.2,0,0.4,0.1c0.2-1.7,1.1-2,2.5-2
			c1.2,0,2.5-0.6,3.4,1c0-0.6-0.2-1-0.4-1.5c-0.4-1.1,0.1-2.1,1-1.8c2,0.5,4,1.1,6.2,0.9c0.3,0,0.7,0.3,1.2,0.5
			c0.3-1.5,1-1.2,1.9-0.6c0.3,0.2,0.6,0.4,0.9,0.6c1.2,0.7,3.2,0.4,4.2-0.6c0.4-0.4,1-0.6,1.6-0.9c0.3,0.5,0.8,1.1,0.7,1.3
			c-0.8,1.1-0.1,2,0.1,3.1c0.3,1.9,0.4,3.8,0.7,5.8c0.1,0.4,0.6,0.7,0.9,1c0.1,2,0.2,4,0.4,5.9c0,0.5,0.6,0.9,0.9,1.4
			c0,0.1,0,0.2,0,0.3v1c0.1,1.1,0.1,2.2,0.2,3.3c0,0-0.1,0.1-0.1,0.1c0,0.1,0.1,0.2,0.1,0.2c0.3,0.2,0.6,0.4,1,0.6
			c-0.3,0.2-0.8,0.5-0.8,0.7c-0.1,3.3-0.1,6.5-0.1,9.8c0,2.7,0.3,5.4,0.2,8.1c0,2.5-1.4,4.5-3.3,6.1c-0.7,0.6-1.5,1.2-2.3,1.7
			c-0.2,0.1-0.4,0.2-0.5,0.3h-0.6c-0.8-0.6-2.5-0.4-3.4,0.5c-0.5,0.2-1,0.3-1.4,0.5C335.8,104.7,334.9,105.8,334,106.9L334,106.9
			L334,106.9z M336.2,55.4l-0.5-0.4c-0.3,0.3-0.5,0.6-0.8,0.9c0.1,0.1,0.3,0.2,0.4,0.3C335.7,56,335.9,55.7,336.2,55.4L336.2,55.4z"
			/>
		<path class="st5" d="M347.2,64.3c-0.3-0.3-0.8-0.6-0.9-1c-0.3-1.9-0.4-3.8-0.7-5.8c-0.2-1-0.9-2-0.1-3.1c0.1-0.1-0.4-0.7-0.7-1.3
			c-0.6,0.3-1.2,0.5-1.6,0.9c-1,1-3,1.3-4.2,0.6c-0.3-0.2-0.6-0.4-0.9-0.6c-0.8-0.7-1.6-0.9-1.9,0.6c-0.4-0.2-0.8-0.6-1.2-0.5
			c-2.1,0.2-4.2-0.4-6.2-0.9c-0.9-0.2-1.4,0.7-1,1.8c0.1,0.4,0.4,0.8,0.4,1.5c-0.9-1.6-2.2-0.9-3.4-1c-1.4,0-2.4,0.3-2.5,2
			c-0.1,0-0.2,0-0.4-0.1c-0.1-0.3-0.3-0.7-0.3-1.1c0-1.4,0-2.9,0-4.3c0-0.8-0.2-1.5-1.2-1.3c-0.2,0-0.3,0.9-0.4,1.4
			c-0.1,1.4-0.2,2.8-0.4,4.2c-0.2,0-0.4-0.1-0.6-0.1c0-0.3-0.1-0.6-0.1-0.9c-0.1-0.3-0.1-0.6-0.2-0.9c0-0.3-0.1-0.6-0.2-0.9
			c-0.4-0.6-0.7-1.2-1.1-1.8c-0.2-0.3-0.4-0.7-0.6-1c-0.1-0.1-0.2-0.2-0.3-0.3c-0.1-0.3-0.2-0.6-0.3-0.9c1.2-0.3,2.5-0.4,3.7-0.9
			c1.2-0.5,2.2-0.6,3.3,0.2c0.4,0.3,1.2,0.2,1.8,0.3c0-0.2,0.1-0.3,0.1-0.5c-0.9-0.3-1.9-0.7-2.8-1c-0.4-0.1-0.7-0.2-1.1-0.3l0,0
			c-0.8-0.5-1.6-1.1-2.3-1.6c-1-0.5-2.1-1-3.1-1.6l0-0.1c-0.1-0.2-0.1-0.3-0.2-0.5c0.2-0.2,0.3-0.3,0.5-0.5c0.4-0.2,0.8-0.5,1.1-0.7
			l0,0c0.9-0.6,1.8-1.2,2.8-1.8c1.3-0.3,1.6,0.7,1.8,1.5c-0.3,0.7-0.7,1.7-0.4,2.1c1,1.2,1.1-0.6,1.9-0.7c0.6,0.4,1.3,0.9,2,1.4
			c1.6-1,2.5-0.9,3.3,0.2c0.3,0.4,0.8,0.8,1.3,0.9c0.9,0.2,1.8,0.4,2.7,0.4c0.4,0,0.7-0.3,1.1-0.5c-0.2-0.3-0.3-0.8-0.5-0.9
			c-1.6-0.5-3.3-0.9-5-1.4c0.2-0.2,0.3-0.4,0.4-0.6c1.8,0.3,3.7,0.6,5.5,0.9c1.3,0.3,2.6,0.6,3.8,0.9c3.8,1.2,7.9,1.5,10.9,4.8
			c1.2,1.3,2.9,2,4.2,3.2c2.3,2.1,4.6,4.4,6.8,6.7c0.7,0.7,1.2,1.5,1.8,2.2c-2.1,0.3-4.2,0.6-6.3,1c-0.7,0.1-1.5,0.3-2.2,0.2
			c-1.3-0.1-2.1-0.9-2.3-2.3c-0.3,1-0.6,1.9-0.5,2.8c0.1,1.2,0.5,2.3,0.9,3.5c0.3,0.9,0.7,1.8,1.1,2.7c0.6,1.2,1.3,2.4,1.9,3.7
			c-0.5,0-1,0-1.6,0l-2.1-0.1v-6.9c-1,0.1-1.8,0.1-2.9,0.2c1.5-2.3,2.4-4.6,2.2-7.1C349,60.9,348.1,62.6,347.2,64.3L347.2,64.3z
			 M352.3,60.2c0.2,0.9,0.2,1.7,1.4,1.5c0.7-0.1,1.6-0.2,2.1-0.7c0.5-0.4,0.6-1.3,0.9-1.9c-1.2-0.3-2.4-0.7-3.6-0.8
			C352.9,58.4,352.6,59.6,352.3,60.2L352.3,60.2L352.3,60.2z M351.2,58.7c0.2,0.1,0.3,0.2,0.5,0.3l0.6-1.2c-0.2-0.1-0.4-0.2-0.6-0.2
			C351.6,57.9,351.4,58.3,351.2,58.7L351.2,58.7L351.2,58.7z"/>
		<path class="st5" d="M354.3,73.2c-0.6-1.2-1.3-2.4-1.9-3.7c-0.4-0.9-0.8-1.8-1.1-2.7c-0.4-1.1-0.8-2.3-0.9-3.5
			c-0.1-0.9,0.2-1.8,0.5-2.8c0.2,1.5,1,2.2,2.3,2.3c0.7,0.1,1.5-0.1,2.2-0.2c2.1-0.3,4.2-0.6,6.3-1c1,0.9,1.9,1.7,2.9,2.6
			c2.4,2.4,4.8,4.7,7.2,7.1c0.2,0.2,0.3,0.6,0.4,0.9c-0.4,0.2-0.8,0.4-1.2,0.7c1,2-1.5,2.4-1.9,4c2.1,0.2,4.1,0.4,6.1,0.7
			c1,0.1,1.3-0.4,1.2-1.2c0.1,0,0.3,0,0.3,0.1c0.4,1.7,1.8,2.5,3.2,3.3c0.1,0.1,0.2,0.2,0.2,0.4c-3.6,0.2-7.2,0.3-10.8,0.7
			c-1.6,0.2-3.2,0.7-4.8,1.1c-0.4,0.1-1,0.1-1.1-0.1c-0.7-1.3-1.9-0.9-3-1.1c-1.4-0.2-2.9-0.5-4.3-1c-0.6-0.2-1-1.1-1.5-1.7
			c0.4-0.2,0.8-0.4,1.3-0.6c-1.3-0.6-2.4-1.1-3.5-1.6c0.4-0.2,0.9-0.5,1.4-0.6c2-0.3,4-0.6,6.1-0.9C358,74,356.2,73.6,354.3,73.2
			L354.3,73.2L354.3,73.2z"/>
		<path class="st5" d="M381.5,81.8c1.2,1.6,2.4,3.2,3.5,4.9c1.5,2.4,3.8,3.9,6.1,5.4c0.5,0.3,1.1,0.8,1.2,1.3
			c0.6,2.6,2.5,4.3,4.1,6.2c0.2,0.2,0.3,0.5,0.4,0.8c-0.4,0.1-0.9,0.1-1.3,0.3c-1.4,0.7-2.8,1.4-4.2,2.1c-1.8-1.6-3.5-3.2-5.5-5.1
			c-0.7,0.6-1.7,1.5-2.7,2.5c-0.6-2.5-1.2-5,0.7-7.5c-1.8,0-3.1-0.2-4.3,0.1c-1,0.2-1.9,0.9-2.8,1.5c-0.7,0.5-1.3,0.8-2.1,0.1
			c-1.7-1.4-3.4-2.7-4.9-3.9c0.2-1.5,3.3-2.8-0.2-3.6c0,0,0-0.1-0.1-0.1c-1.3-1-2.7-2.1-4-3.1c-0.1,0.1-0.2,0.2-0.3,0.3
			c0.3,1.1,0.6,2.2,0.9,3.2c-0.3,0.5-0.7,1.1-0.9,1.7c-0.4,1.2-1,1.7-2.2,1.4h0c-0.1-0.1-0.2-0.2-0.3-0.3v0
			c-0.1-0.8-0.1-1.7-0.3-2.5c-0.4-1.3-0.5-2.5,0.8-3.4c1-0.7,2-1.7,3.1-2c2-0.5,4.1-0.6,6.1-0.8c2.6-0.2,5.2-0.9,7.6,0.7
			C380.3,82.2,380.9,81.8,381.5,81.8L381.5,81.8L381.5,81.8z"/>
		<path class="st5" d="M316.2,43.1c-0.2,0.2-0.3,0.3-0.5,0.5c-1.1-0.1-2.3,0.4-2.8-1c0.6-1.2,2.6,0.3,3-1.8
			c-1.4,0.1-2.6,0.3-3.8,0.4c0,0.4,0,0.7-0.1,1.1c-0.5,0.1-1,0.1-1.4,0.2l0,0c-0.1-0.6,0.1-1.4-0.2-1.7c-1.9-1.6-4.4-1.9-6.8-2.4
			c-0.1-0.7-0.2-1.5-0.3-2.2c-0.2-1,0.6-2.2-0.6-3c-0.2-0.9-0.4-1.9-0.6-2.8c0-0.3,0.1-0.6,0-0.8c-0.7-1.3-2.2-2.1-1.6-3.9
			c0-0.1-0.1-0.2-0.1-0.3c-1.4-0.7-0.6-1.7-0.5-2.6c0.4,0.4,0.9,0.7,1.6,1.4c0.2-0.7,0.4-1.2,0.5-1.8c0.2-1.2-0.1-2.5,0.4-3.4
			c1.1-1.7,1.6-3.4,1.2-5.4c-0.1-0.4,0.2-1.1,0.5-1.4c1.4-1.2,2.7-2.5,4.7-2.6c-0.3,0.2-0.7,0.4-1,0.7c-0.4,0.4-1,0.8-1.1,1.3
			c-0.1,1.5,0,3.1,0,4.8h3.6c0,0.2,0,0.3,0,0.5c-1.1,0.2-2.1,0.5-3.5,0.8c0.8,0.4,1.7,0.9,1.8,0.8c0.8-1.3,2-0.5,2.9-0.4
			c1.2,0.1,2,1.7,1.1,2.5c-0.7,0.6-2.2,1.4-2.7,1c-1.3-0.9-2.2-0.1-3.3,0.2c-1.2,0.3-1.9,0.3-1.9-1.2c0-0.2-0.4-0.7-0.6-0.7
			c-0.3,0.1-0.8,0.4-0.9,0.6c-0.1,0.8,0,1.6,0.1,2.4c0,0.7,0.1,1.5,0.2,2.2c0.2,2.2,0.7,4.3,2.7,5.7c0.6-0.5,1.1-1,1.6-1.5
			c0.1,0.9,0.1,1.8,0.2,2.7c0.1,0.1,0.3,0.2,0.4,0.3c1.1-1.2,2.4-2.4,3.3-3.8c0.7-0.9,1.4-1.7,2.4-1.3c0.9,0.3,2.4,0.5,1.7,2.2
			c1.8,0.5,2.5,1.2,2.7,2.7c0,0.4,0.3,0.8,0.5,1.1c0.3-0.3,0.6-0.5,0.9-0.8c0.2-0.1,0.3-0.3,0.5-0.4l2.4,0.6c0,0.2-0.1,0.4-0.1,0.6
			c-0.1,0.3-0.2,0.6-0.2,0.8c0,0.2,0,0.3,0,0.5c-0.3,0.3-0.6,0.5-0.8,0.8c-0.2,0.4,0,1-0.3,1.3c-1,1.3-2.4,2.3-3.3,3.8
			c-0.4,0.7-0.7,1.2-0.7,1.9l0,0C317,42.7,316.6,42.9,316.2,43.1L316.2,43.1L316.2,43.1z M307.4,38.5c0-0.1,0-0.2-0.1-0.2
			c-0.1,0-0.2,0.1-0.3,0.1c0,0.1,0,0.2,0.1,0.2C307.2,38.6,307.3,38.5,307.4,38.5z"/>
		<path class="st5" d="M322.9,32.6c-0.8-0.2-1.6-0.4-2.4-0.6c0-0.5,0-1,0-1.5c-0.2-0.2-0.4-0.4-0.6-0.7c0-0.2,0-0.4,0-0.6
			c-0.2-0.3-0.4-0.6-0.6-0.9c-0.2-0.4-0.4-0.8-0.7-1.2c-1.1-1.1-2.1-2.1-3.2-3.2c0.3-1.6-0.4-2.6-1.4-3.5l-0.5,0
			c-0.1,1.1-0.3,2.2-0.4,3.3c-1.5,0.3-2.1,1.5-2.5,2.8c-0.2,0.1-0.4,0.2-0.6,0.3c-0.3,0.2-0.6,0.4-0.9,0.6c0,0.1,0,0.2,0,0.3
			c-0.4,0.3-0.8,0.6-1.2,1v0.6c-0.5,0.5-1.1,0.9-1.6,1.5c-2-1.4-2.5-3.4-2.7-5.7c-0.1-0.7-0.1-1.5-0.2-2.2c0-0.8-0.2-1.6-0.1-2.4
			c0-0.3,0.5-0.5,0.9-0.6c0.1,0,0.6,0.4,0.6,0.7c0,1.5,0.7,1.5,1.9,1.2c1-0.3,2-1.1,3.3-0.2c0.5,0.3,2-0.4,2.7-1
			c0.8-0.7,0.1-2.4-1.1-2.5c-1-0.1-2.1-0.8-2.9,0.4c0,0.1-1-0.5-1.8-0.8c1.3-0.3,2.4-0.5,3.5-0.8c0-0.2,0-0.3,0-0.5h-3.6
			c0-1.7-0.1-3.2,0-4.8c0-0.5,0.7-0.9,1.1-1.3c0.3-0.3,0.7-0.5,1-0.7c0.2,0,0.4,0,0.6,0c0.3-0.2,0.6-0.4,1-0.6c0.4,0,0.8,0,1.2,0
			c1.3,1.1,2.9,0.6,4.3,0.6c5.9,2.3,6.7,7.9,8.6,13v-5.3c0.2,0.5,0.5,0.9,0.6,1.4c0.2,2.1,0.5,4.2,0.5,6.4c0,1.1-0.5,2.2-0.9,3.3
			C324.1,29.7,323.5,31.1,322.9,32.6L322.9,32.6L322.9,32.6z M317.6,15.8c0,0.2-0.1,0.4-0.1,0.6c0.7,0.2,1.4,0.3,2.1,0.6
			c0.4,0.2,0.5,0.7,0.8,1c-0.3,0.2-0.6,0.6-0.9,0.6c-1,0-2.1,0-3-0.4c-0.9-0.3-1.5-0.5-1.8,0.4c-0.3,0.9,0,1.9,1.3,1.9
			c1.7,0,3.4,0,5.2-0.1c0.2,0,0.6-0.4,0.5-0.6c-0.1-1.1,0-2.6-0.6-3.3C320.3,16,318.8,16,317.6,15.8
			C317.7,15.8,317.6,15.8,317.6,15.8z M311.6,14.7c0.1,0.6,0.1,1.4,0.5,1.9c0.4,0.5,1.3,1.2,1.5,1.1c1.1-0.6,2.4-1.1,2.5-2.7
			C314.6,14.9,313.2,14.8,311.6,14.7L311.6,14.7z"/>
		<path class="st5" d="M239.8,106.5c1,0.6,2.1,1.2,3.1,1.7c0.6,0.7,1.2,1.5,1.9,2.2c-0.3,0.4-0.8,0.8-0.9,1.3
			c-0.3,1.7-1.2,2.8-2.2,4.1c-0.4,0.5-0.8,1.4-0.7,1.9c0.4,1.8-1,2.4-1.9,3.2c-0.5,0.4-1.6,0.1-2.4,0.1c0,0-0.1-0.1-0.1-0.1
			c-2.6,0.1-4.7-0.8-6.5-2.7c-0.2-0.2-1.1,0.3-1.6,0.6c-2.2,1.4-4.5,2.9-6.7,4.4c-1.1,0.7-1.6,0.2-2.7-1.3c1.9-1.6,3.9-3.2,5.8-4.9
			c0.8-0.7,1.6-1.6,2.1-2.5c0.7-1.4,1.6-2.4,2.8-3.3c2.2-1.7,4.3-3.6,6.5-5.4c0.9,0.1,1.8,0.2,2.8,0.3l0,0
			C239.2,106.3,239.5,106.4,239.8,106.5L239.8,106.5L239.8,106.5z M235.4,114.6c-0.9-0.2-1.6-0.4-2.3-0.5c0.5,0.7,0.8,1.3,1.4,2.1
			C234.8,115.6,235.1,115.2,235.4,114.6L235.4,114.6L235.4,114.6z"/>
		<path class="st5" d="M283.6,89.8c0.2,0.5,0.6,0.9,0.6,1.4c0.1,1.5,0,3.1,0,4.6c0,0.4,0.2,0.7,0.4,1.4c0.5-0.6,0.8-1,1.2-1.3
			c0.3-0.3,0.6-0.6,1-0.8c0.7-0.4,1.7-0.7,2.1-1.3c0.7-1.1,1.1-2.4,1.4-3.7c0.4-1.4,1-2.7,0.1-4.2c-0.2-0.3,0.6-1.1,0.8-1.7
			c0.7-1.6,1.4-3.1,2.2-4.7c0.1,1.7-0.4,3.5,1.5,5.1c0.4-1.2,0.8-2.2,0.9-3.1c0-1.3,0.5-1.7,1.8-1.7c-0.7,2.6-1.4,5-2.1,7.5
			c-0.1,0.4-0.1,0.8-0.2,1.2c-0.1,1.2,0.4,2.6-1.1,3.3c-0.1,0.1-0.3,0.5-0.2,0.7c1,2.7-0.7,5-1.1,7.5c-0.1,0.6-1,1.1-1.5,1.6
			c-0.3,0.3-0.6,0.5-0.9,0.8c-0.4,0.4-0.7,0.7-1.2,1.2c0.3,0.4,0.9,1,1.5,1.7c-1.2-0.1-2.5-0.2-3.7-0.3c-1.8-0.6-3.6-1.3-5.4-1.9
			c-1.5-0.5-1.4-1.5-1-2.7C281.7,96.8,282.6,93.3,283.6,89.8L283.6,89.8L283.6,89.8z"/>
		<path class="st5" d="M310.6,51c-0.9-0.4-1.7-0.7-2.6-1.1c-0.2-0.1-0.4,0-0.6,0c-1.9,1.4-3.5,0.1-5.2-0.5c-0.7-0.2-1.6,0-2.3,0.2
			c-1.2,0.3-2.3,0.7-3.4,1.1c-0.3,0.1-0.4,0.4-0.7,0.5c-0.5,0.2-1.2,0.6-1.6,0.4c-0.8-0.4-1.1-0.3-1.5,0.5c-0.2,0.3-0.9,0.5-1.4,0.5
			c-0.4,0-0.9-0.2-1.3-0.4c-0.4-0.2-0.8-0.5-1.2-0.8c0.3-0.3,0.7-0.5,1-0.8c0.2-0.3,0.5-0.8,0.4-1c-0.2-0.3-0.8-0.8-1-0.7
			c-1.3,0.7-3.1-0.1-4.1,1.5c-0.2,0.3-1.2,0.2-1.9,0.2c0.4-1.2-0.7-1.7-1.2-2.4c4.6-1.3,9.3-2.6,13.9-4c1.6-0.5,3.2-1.2,4.8-1.9
			c-0.3,0.4-0.5,1.1-0.8,1.3c-1.9,0.8-3.8,1.5-5.7,2.2c1.5,0.3,3,0.2,4.4,0.4c1.5,0.2,2.9,0.5,4.8,0.9c-0.2-0.5-0.3-1-0.6-1.4
			c-0.7-0.7-1.2-1.3-0.4-2.3c0.7-0.8,1.3-1.7,2.1-2.8c0.5,0.1,1.3,0.2,2.1,0.2c1.3,0.5,2.6,1.1,3.9,1.6l0,0c0.7,0.6,1.5,1.2,2.2,1.7
			c-0.9,0.5-1.8,1-2.8,1.6c-1,0.7-2.1,1.4-3.1,2.1c-0.8,0.3-1.7,0.6-2.5,0.9c0.1,0.2,0.2,0.3,0.3,0.5c0.8-0.5,1.5-1,2.3-1.4h0.9
			c0.1,0.1,0.2,0.3,0.4,0.2c1.3-0.1,2.4,0,2.8,1.5c0.1,0.2,0.7,0.3,1,0.5c-0.1,0.2-0.2,0.5-0.3,0.7C311.3,50.9,311,51,310.6,51
			L310.6,51L310.6,51z"/>
		<path class="st5" d="M311.5,8.9c-0.4,0-0.8,0-1.2,0c-0.3,0.2-0.6,0.4-1,0.6c-0.2,0-0.4,0-0.6,0c-2,0.1-3.4,1.4-4.7,2.6
			c-0.3,0.3-0.6,1-0.5,1.4c0.4,2-0.1,3.7-1.2,5.4c-0.6,0.9-0.3,2.3-0.4,3.4c-0.1,0.6-0.3,1.1-0.5,1.8c-0.7-0.6-1.2-1-1.6-1.4
			c-0.2-0.1-0.3-0.2-0.5-0.3c0-0.2,0-0.5-0.1-0.7c-0.2-0.6-0.4-1.2-0.6-1.7c-0.1-1.9-0.4-3.8-0.2-5.6c0.2-2.2,1.6-3.8,3.2-5.3
			c4-3.8,8.8-4.8,13.9-3.7c3.8,0.9,6.8,3.5,8.3,7.3c0.5,1.4,0.5,3,0.7,4.5v5.3c-1.9-5.1-2.7-10.7-8.6-13
			C314.4,9.3,313,9.1,311.5,8.9L311.5,8.9L311.5,8.9z"/>
		<path class="st5" d="M362.9,90.1c1.2,0.4,1.9-0.2,2.2-1.4c0.2-0.6,0.6-1.1,0.9-1.7c-0.3-1-0.6-2.1-0.9-3.2
			c0.1-0.1,0.2-0.2,0.3-0.3c1.3,1,2.7,2.1,4,3.1c0,0,0,0.1,0.1,0.1c3.5,0.8,0.4,2.1,0.2,3.6c1.5,1.2,3.2,2.5,4.9,3.9
			c0.8,0.6,1.4,0.3,2.1-0.1c0.9-0.6,1.8-1.3,2.8-1.5c1.2-0.3,2.6-0.1,4.3-0.1c-1.9,2.5-1.3,5-0.7,7.5c1-1,2-1.9,2.7-2.5
			c2,1.9,3.8,3.5,5.5,5.1c-0.4,0.5-0.9,1-1.3,1.5c-0.7-0.3-1.3-0.7-1.8-0.9c-2.2,0-3.2-1.6-4.6-2.9c-0.7,0.9-1.4,1.8-2.1,2.7
			c0.1-1.2,0.1-2.3,0.2-3.4c-0.2,0-0.4-0.1-0.6-0.1c-0.4,1-0.7,2-1.2,3c-0.7-0.1-1.4-0.2-2.1-0.2l0,0c-0.1-0.4-0.1-0.9-0.4-1.1
			c-0.4-0.4-0.9-1.1-1.5-0.2c-0.4-0.3-0.9-0.5-1.3-0.8c2-1.6,5.2-1.7,6.4-4.9c-0.6,0.1-0.9,0.1-1.2,0.3c-1.6,0.8-3.2,1.6-4.7,2.5
			c-0.7,0.4-1.3,1.1-2,1.7c-1.4-0.3-2.2-1.4-2.9-2.6c0.9-0.3,1.9-0.7,3.1-1.1c-2.2-1.6-4.4-2.8-6.8-3.5L362.9,90.1L362.9,90.1z"/>
		<path class="st5" d="M325.4,207.1l1.6,0.2c0,0.1,0,0.2,0,0.3c0.4,0.2,0.8,0.5,1.2,0.7c1.3,1.4,2.8,2.6,2.9,4.7
			c0,0.2-0.1,0.5-0.1,0.7c-0.7,1.5-1.5,2.9-2.2,4.4c-0.7,0-1.3,0.1-2,0.1c-2.3,0.1-4.6,0.1-6.9,0.1c-0.2-0.2-0.4-0.3-0.7-0.5l0,0
			c0-0.5,0.1-0.9,0.1-1.5c1.7,1,2.3-0.1,2.8-1.3c-0.7-1.2-1.8-1.3-3.1-1.5c-0.6-0.1-1.6-1.1-1.5-1.6c0.2-1.6,0.7-3.2,1.1-4.9
			c0.2-0.1,0.5-0.1,0.7-0.2v0.1c-0.2,0.6-0.4,1.1-0.6,1.8c1.7,0.3,1.4-0.8,1.5-1.7c0.5,0,1,0,1.6,0
			C323,207.1,324.2,207.1,325.4,207.1L325.4,207.1L325.4,207.1z M319.1,210.6c-0.1,0-0.2-0.1-0.3-0.1c0,0.1-0.1,0.2-0.1,0.3
			c0,0.1,0.2,0.1,0.2,0.1C319.1,210.9,319.1,210.7,319.1,210.6L319.1,210.6L319.1,210.6z"/>
		<path class="st5" d="M390,104.2c0.4-0.5,0.9-1,1.3-1.5c1.4-0.7,2.8-1.4,4.2-2.1c0.4-0.2,0.9-0.2,1.3-0.3c0.5,0.6,1.1,1.2,1.6,1.8
			c-1.7-0.6-3.4-0.8-5,0.2c-0.3,0.2-0.4,1-0.3,1.1c1.5,1.2,1.9,2.8,1.8,4.6c0,1.7,0.8,2.3,2.8,1.8c-0.7-0.5-1.3-1-1.9-1.4
			c0.8-0.5,1.5-1,2.2-1.6c-0.4-0.6-0.6-1-1.1-1.7c1.7-0.2,3.1-0.3,4.4-0.4c-0.1-0.4-0.1-0.9-0.2-1.4c2.9,1,5.2,2.9,6.8,5.5
			c-0.5-0.1-1.1-0.1-1.5-0.4c-0.9-0.7-1.7-1.6-2.6-2.2c-1.9-1.3-4-0.6-4.9,1.6c0.9-0.2,1.9-0.3,2.9-0.5c-0.2,1.1-0.3,1.9-0.5,2.9
			c-0.8-0.3-1.7-0.7-2.8-1.1c0.1,0.8-0.1,2,0.4,2.4c0.6,0.5,1.8,0.8,2.7,0.6c0.5-0.1,0.8-1.3,1.3-2.1c0.3,0.1,1.4-0.7,1.5,0.7
			c-0.3,0.3-0.5,0.8-0.9,1c-1.1,0.8-2.1,1.6-3.3,2.2c-0.5,0.3-1.1,0.2-1.6,0.4c-3.2,1.2-4.5,0.6-5.5-2.6c0-0.1-0.1-0.2-0.2-0.2
			c0.2-2.4-0.9-4.6-3-5.6c-0.1-0.1-0.4,0.1-0.6,0.2c-0.2,0-0.3-0.1-0.5-0.1C389.3,105.4,389.6,104.8,390,104.2L390,104.2L390,104.2z
			 M398.5,112.7c-0.1-0.2-0.2-0.3-0.4-0.5l-2.8,0.2c-0.1,0.1-0.2,0.3-0.3,0.4c0.5,0.4,1,1.3,1.4,1.2
			C397.3,113.8,397.9,113.2,398.5,112.7L398.5,112.7L398.5,112.7z"/>
		<path class="st5" d="M319.9,218.3c2.3,0,4.6-0.1,6.9-0.1c0.7,0,1.3-0.1,2-0.1c0.4,0.3,0.8,0.6,1.2,0.9c-1.2,1.3-2.7,2.1-4.5,2.2
			c-1.1,0-2.3-0.1-3.4,0c-2.1,0.2-3.5-0.9-4.7-2.3c-0.8-0.9-1.2-0.9-1.9,0c-1.4,1.7-3.3,2.2-5.4,2.2c-1,0-1.9,0-2.9,0
			c-2.5-0.1-4.5-1.1-5.7-3.3c0-0.1,0-0.2,0-0.2c-0.1-0.6-0.1-1.2-0.2-1.9c0.3,0,0.6,0,1,0c0.2,0.4,0.4,0.9,0.6,1.3
			c-0.3,1.5,1,2.4,2.7,1.9c1.1,0,2.2-0.2,3.2,0c1.9,0.5,3.5-0.1,5.1-0.7c0.3-0.2,0.6-0.4,0.9-0.6c0.1-0.2,0.2-0.4,0.3-0.6
			c1.2-1,1.1-4.4,0-5.5l0-0.6c-0.5-1.7-1-3.4-1.4-5h-2c1.1-0.6,2.2-1.3,3.4,0.1c0.5,0.6,1.7,0.7,2.6,1.1c-0.1,0.8-0.2,1.7-0.4,2.5
			c-0.1,0.4-0.7,0.8-0.7,1.2c0,1,0,2.1,0.2,3.2c0.2,1.7,0.9,3.3,2.7,4l0,0C319.5,218,319.7,218.2,319.9,218.3L319.9,218.3
			L319.9,218.3z"/>
		<path class="st5" d="M244.8,110.5c-0.6-0.7-1.2-1.5-1.9-2.2c1.4-1.3,3-2.4,4.3-3.9c0.9-1,2.5-0.3,3.2-1.4c0.1-0.2,0.5-0.3,0.7-0.5
			c-1.5-1.2-3-2.3-4.4-3.4c0-0.1,0.1-0.2,0.1-0.3c1.1,0.3,2.2,0.6,3.2,0.9c0.1-0.2,0.2-0.4,0.3-0.6c-1.2-0.7-2.3-1.3-3.5-2
			c0-0.1,0-0.2,0-0.2c0.6,0.1,1.3,0,1.9,0.3c2.3,1,4.7,1.9,6.5,3.9c0.2,0.2,0.6,0.3,0.9,0.4c0.8,0.6,1.5,1.3,2.3,1.9
			c-1.7,2.3-3.9,3.7-6.7,4.2c-0.5-0.4-1.1-0.7-1.5-1.2c-0.4-0.4-0.6-0.9-1-1.5c-0.5,0.8-0.9,1.3-1.2,1.7c0.4,0.3,0.8,0.6,1.1,0.9
			c-1,0.7-1.9,1.5-2.9,2.2C245.8,110.1,245.3,110.2,244.8,110.5L244.8,110.5L244.8,110.5z"/>
		<path class="st5" d="M265.7,64.3c0.5-0.2,1-0.4,1.6-0.5c0.5-0.2,1.1-0.3,1.8-0.5c-0.3,1.6-0.5,2.7-0.7,3.8
			c-0.7,0.3-1.2,0.6-1.7,0.9c0.4,0.5,0.8,0.9,1.4,1.6c-0.4,0.3-0.9,0.8-1.4,1.2c-0.9,0.7-1.4,1.3-1.2,2.7c0.1,0.7-0.9,1.9-1.7,2.2
			c-2.1,0.7-4.3,0.9-6.5,1.4c-0.9,0.2-1.8,0.8-2.7,1.2c1.4-1.7,2.9-3.3,4.3-5c0.4-0.5,0.6-1.1,1-1.6c0.7-0.9,1.4-1.7,2.1-2.5
			C263.2,67.4,264.5,65.8,265.7,64.3L265.7,64.3L265.7,64.3z"/>
		<path class="st5" d="M404.5,110.7c-0.1-1.5-1.2-0.6-1.5-0.7c-0.5,0.8-0.8,2-1.3,2.1c-0.8,0.2-2,0-2.7-0.6
			c-0.5-0.4-0.3-1.5-0.4-2.4c1.1,0.4,2,0.8,2.8,1.1c0.2-1.1,0.3-1.9,0.5-2.9c-1.1,0.2-2,0.4-2.9,0.5c0.9-2.2,3-2.9,4.9-1.6
			c0.9,0.7,1.7,1.6,2.6,2.2c0.4,0.3,1,0.3,1.5,0.4c0.3,0.3,0.6,0.7,0.9,1c-0.2,0.1-0.3,0.3-0.5,0.4c0.3,0.1,0.5,0.1,0.8,0.2l0,0
			c0.1,0,0.2,0.1,0.3,0.2c0.5,0.6,1.1,1.2,1.6,1.7c0.9,0.8,1.8,1.6,2.7,2.5c0.3,0.3,0.5,0.9,0.4,1.3c-0.1,0.2-0.8,0.5-1.2,0.5
			c-0.8-0.2-1.7-0.5-2.3-1C408.5,113.9,406.5,112.3,404.5,110.7L404.5,110.7L404.5,110.7z"/>
		<path class="st5" d="M257.1,100.6c-0.3-0.6-0.6-1.2-0.7-1.5c1.5-0.9,2.9-1.8,4.3-2.6c1.3-0.7,2.6-1.4,3.8-2.2
			c1.4-0.9,1.4-1.5,0.3-2.9c-0.9-1.2-1.7-2.6-2.7-4c0.6-0.1,1-0.2,1.4-0.2c2.8,0.1,5.2-0.5,7.6-2.1c0.9-0.6,2.4-0.5,3.6-0.7
			c0.1,0,0.2,0,0.4,0.1c-1.1,0.8-2.1,1.6-3.2,2.4c-1.2,0.7-2.6,1.2-3.7,2c-1,0.7-1.8,1.6-0.4,2.8c0.2,0.2,0.1,0.8,0.2,1.2
			c-0.3,0.3-0.5,0.6-0.8,0.8c-1.9,1.1-3.2,2.7-4.2,4.7c-0.3,0.6-1,1.1-1.4,1.7C260,100.2,258.5,100.4,257.1,100.6L257.1,100.6
			L257.1,100.6z"/>
		<path class="st5" d="M381.5,81.8c-0.5,0.1-1.2,0.4-1.5,0.2c-2.4-1.6-5-1-7.6-0.7c-2.1,0.2-4.1,0.3-6.1,0.8c-1.1,0.3-2.1,1.3-3.1,2
			c-1.3,0.9-1.2,2.1-0.8,3.4c0.2,0.8,0.2,1.7,0.3,2.5c-0.4-0.3-0.9-0.6-1.2-1c-0.9-1-1.7-2-2.5-3c1.3-0.4,1-1.4,0.9-2.2
			c-1-0.4-1.8-0.8-2.6-1.1c-0.1,0-0.3,0.3-0.4,0.4c-0.4-0.6-0.8-1.2-1.3-1.7c-0.9-0.9-1.8-1.8-2.7-2.7c0.6-0.2,1.3-0.3,1.9-0.4
			c0.5,0.6,0.9,1.4,1.5,1.7c1.4,0.5,2.8,0.8,4.3,1c1.1,0.2,2.3-0.2,3,1.1c0.1,0.2,0.8,0.2,1.1,0.1c1.6-0.3,3.2-0.9,4.8-1.1
			c3.6-0.3,7.2-0.5,10.8-0.7C380.6,80.8,381,81.3,381.5,81.8L381.5,81.8L381.5,81.8z"/>
		<path class="st5" d="M254.3,84.6c0.1,0.5,0.1,1.1,0.4,1.4c1.5,1.7,1.3,2.8-0.8,3.5c-1.4,0.5-3,0.7-4.5,1c-0.5-0.1-1-0.2-1.5-0.3
			c0.6-1.1,1.3-2.2,1.9-3.4c0.7-1.2,1.3-2.5,1.9-3.7C252.5,83.5,253.4,84.1,254.3,84.6L254.3,84.6L254.3,84.6z"/>
		<path class="st5" d="M328.8,43c-0.1,0.2-0.2,0.3-0.4,0.6c1.7,0.4,3.4,0.9,5,1.4c0.2,0.1,0.4,0.6,0.5,0.9c-0.4,0.2-0.7,0.6-1.1,0.5
			c-0.9,0-1.8-0.2-2.7-0.4c-0.5-0.1-1-0.5-1.3-0.9c-0.8-1.1-1.7-1.2-3.3-0.2c-0.7-0.5-1.4-0.9-2-1.4c-0.8,0.1-0.9,2-1.9,0.7
			c-0.3-0.4,0.1-1.4,0.4-2.1c-0.2-0.8-0.5-1.9-1.8-1.5c0.8-0.7,1.5-1.5,2.3-2.2C323.7,41.1,326.2,42.1,328.8,43L328.8,43L328.8,43z"
			/>
		<path class="st5" d="M275,84.3c-0.1,0-0.2,0-0.4-0.1c-0.1-0.4-0.1-0.8-0.3-1.2c-0.4-1-0.9-2.1-1.4-3.3h-1.2
			c0.3-0.3,0.4-0.6,0.6-0.6c1.8-0.5,3.6-0.8,5.3-1.3c0.5-0.1,0.8-0.8,1.2-1.2c-0.4-0.4-0.8-1-1.3-1.2c-0.6-0.3-1.2-0.2-2.2-0.4
			c1.2-1.5,2.5-1.4,3.8-0.9c-0.5,0.8-0.2,1.3,0.7,1.6c0.6,0.2,1.2,0.4,1.9,0.6c-0.7,1.4-1.9,1.6-3,2.1c-1,0.4-1.5,1.8-2.3,2.9
			c0.3,0.3,0.6,0.7,0.9,1C276.6,82.9,275.8,83.6,275,84.3L275,84.3L275,84.3z"/>
		<path class="st5" d="M401.1,103.3c0.1,0.5,0.1,1,0.2,1.4c-1.3,0.1-2.7,0.3-4.4,0.4c0.5,0.7,0.7,1.1,1.1,1.7
			c-0.7,0.5-1.4,1-2.2,1.6c0.6,0.4,1.2,0.9,1.9,1.4c-2,0.5-2.9-0.1-2.8-1.8c0-1.8-0.3-3.4-1.8-4.6c-0.1-0.1,0-0.9,0.3-1.1
			c1.6-1,3.3-0.8,5-0.2h0c-0.1,1.4,0.9,0.9,1.6,0.9c0.1,0,0.2,0,0.3,0C400.5,103.1,400.8,103.2,401.1,103.3L401.1,103.3L401.1,103.3
			L401.1,103.3z"/>
		<path class="st5" d="M306.6,40.9c-0.8-0.1-1.7-0.2-2.1-0.2c-0.8,1.1-1.4,2-2.1,2.8c-0.8,1-0.3,1.6,0.4,2.3
			c0.3,0.3,0.4,0.8,0.6,1.4c-1.9-0.4-3.4-0.8-4.8-0.9c-1.5-0.1-3,0-4.4-0.4c1.9-0.7,3.8-1.4,5.7-2.2c0.4-0.2,0.6-0.8,0.8-1.3
			c1-0.8,1.7-1.8,1.9-3.1c0-0.2,0.5-0.4,0.7-0.6C304.5,39.4,305.6,40.1,306.6,40.9L306.6,40.9L306.6,40.9z"/>
		<path class="st5" d="M390,104.2c-0.4,0.6-0.7,1.2-1.1,1.7c-1-0.6-1.9-1.2-3-1.7c-0.7-0.3-1.7-0.7-2.3-0.5
			c-2.4,0.9-4.1-0.2-5.9-1.4c0.7,0.1,1.5,0.2,2.1,0.2c0.4-1.1,0.8-2.1,1.2-3c0.2,0,0.4,0.1,0.6,0.1c-0.1,1.1-0.1,2.2-0.2,3.4
			c0.7-0.9,1.4-1.8,2.1-2.7c1.4,1.4,2.4,3,4.6,2.9C388.6,103.6,389.3,103.9,390,104.2L390,104.2L390,104.2z"/>
		<path class="st5" d="M376.5,76.6c0.1,0.9-0.2,1.4-1.2,1.2c-2-0.2-4-0.4-6.1-0.7c0.4-1.6,2.9-2,1.9-4c0.4-0.2,0.8-0.5,1.2-0.7
			C373.8,73.7,375.6,74.6,376.5,76.6L376.5,76.6L376.5,76.6z"/>
		<path class="st5" d="M282,48.3c0.5,0.8,1.7,1.2,1.2,2.4c-0.2,0.2-0.4,0.4-0.6,0.6c0-0.2,0.1-0.5,0-0.7c-0.2-0.3-0.4-0.5-0.7-0.8
			c-0.2,0.3-0.4,0.5-0.5,0.8c-0.1,0.2,0,0.5,0,0.7c-1.1-0.1-1.6,0.3-1.9,1.4c-0.4,1.7-1.5,2.3-3.2,2.1c-0.1,0.7-0.2,1.4-0.3,2.2
			c-0.2,0.1-0.3,0.1-0.5,0.2c-0.2-0.4-0.5-0.8-0.6-1.3c-0.2-0.6-0.2-1.2-0.4-1.9c1.7-1.4,3.4-2.8,5.1-4.2
			C280.5,49.3,281.3,48.8,282,48.3L282,48.3L282,48.3z"/>
		<path class="st5" d="M254.6,78.1c-0.1,1.9,1.3,2.8,2.6,3.6c1,0.6,1.4,1.2,0.9,2.6h-2.6c-0.4-0.3-0.8-0.6-1.2-0.9
			c-0.9-0.5-1.8-1-2.7-1.6C251.9,80,253.3,79.1,254.6,78.1L254.6,78.1z"/>
		<path class="st5" d="M277.4,82.2c-0.3-0.3-0.6-0.6-0.9-1c0.8-1,1.3-2.4,2.3-2.9c1.1-0.5,2.2-0.7,3-2.1c-0.7-0.2-1.3-0.4-1.9-0.6
			c-0.9-0.2-1.2-0.7-0.7-1.6c1.6,0,3.3,0.4,4-1.8c0.1,0.1,0.3,0.2,0.4,0.2c-0.1,1.5-0.3,3-0.4,4.5c-2.4,0.1-2.7,2.5-4.2,3.7
			C278.5,81.2,278,81.7,277.4,82.2L277.4,82.2L277.4,82.2z"/>
		<path class="st5" d="M354.6,78.1c-0.6,0.2-1.3,0.3-1.9,0.4c-1-0.5-2-0.9-3.1-1.4c-0.3-0.2-0.6-0.4-1-0.6c0-0.1,0-0.2,0-0.4
			c-0.1-1.1-0.1-2.2-0.2-3.3c0.7,0.1,1.4,0.2,2.1,0.2c0.7,0,1.4,0.1,2.1,0.1c-0.3,0.3-0.5,0.7-0.9,0.8c-0.6,0.2-1.3,0.3-1.9,0.4
			c0,0.2,0,0.3-0.1,0.5c0.9,0.3,1.8,0.7,2.7,1c1.1,0.5,2.1,1,3.5,1.6C355.4,77.8,355,78,354.6,78.1L354.6,78.1z"/>
		<path class="st5" d="M238.9,106.1c-0.9-0.1-1.8-0.2-2.8-0.3c0.8-1.3,1.6-2.6,2.4-4c0.3-0.6,0.7-1.3,0.6-1.9
			c-0.3-2.6,0.2-3.3,2.8-4.1c0,0.8-0.6,1.5-1.9,2.2c1.2,1.9,1,2.6-1.1,5.2C238.1,104.2,237.6,105.2,238.9,106.1L238.9,106.1
			L238.9,106.1z"/>
		<path class="st5" d="M250,92.9c0,1-0.2,1.4-1.3,1.1c-1.3-0.4-2.5-0.3-3.3,1.2c-0.2,0.4-1.6,0.2-2.4,0.2c1.2-1.4,2.4-2.9,3.6-4.3
			C247.7,91.6,248.9,92.2,250,92.9L250,92.9L250,92.9z"/>
		<path class="st5" d="M366.6,92.6c2.4,0.7,4.6,1.9,6.8,3.5c-1.2,0.4-2.2,0.8-3.1,1.1c-1.1-1-2.1-1.9-3.1-3
			C366.8,93.8,366.8,93.1,366.6,92.6L366.6,92.6L366.6,92.6z"/>
		<path class="st5" d="M267.9,92.7c-0.1-0.4,0-1-0.2-1.2c-1.4-1.2-0.6-2.1,0.4-2.8c1.2-0.8,2.5-1.4,3.7-2
			C271.1,89.2,270.2,91.4,267.9,92.7L267.9,92.7z"/>
		<path class="st5" d="M322.5,38.4c-0.8,0.7-1.5,1.5-2.3,2.2c-0.9,0.6-1.8,1.2-2.8,1.8c0-0.7,0.4-1.3,0.7-1.9
			c0.9-1.6,2.3-2.5,3.3-3.8c0.2-0.3,0.1-0.9,0.3-1.3c0.1-0.3,0.5-0.6,0.8-0.8C322.5,35.8,322.5,37.1,322.5,38.4
			C322.5,38.4,322.5,38.4,322.5,38.4z"/>
		<path class="st5" d="M373.1,99.9c0.7-0.6,1.3-1.3,2-1.7c1.5-0.9,3.1-1.7,4.7-2.5c0.2-0.1,0.5-0.1,1.2-0.3
			c-1.2,3.2-4.4,3.3-6.4,4.9C374.1,100.2,373.6,100,373.1,99.9z"/>
		<path class="st5" d="M299.4,22.4c0.2,0.1,0.3,0.2,0.5,0.3c-0.1,0.9-0.9,2,0.5,2.6c0.1,0,0.1,0.2,0.1,0.3c-0.6,1.8,0.9,2.7,1.6,3.9
			c0.1,0.2,0,0.5,0,0.8c-1-0.9-2.2-1.8-3.1-2.9C297.9,26.2,298.2,23.4,299.4,22.4L299.4,22.4L299.4,22.4z"/>
		<path class="st5" d="M306.6,40.9c-1.1-0.7-2.2-1.4-3.3-2.2c0.1-0.1,0.1-0.2,0.2-0.3c2.4,0.5,4.8,0.8,6.8,2.4
			c0.3,0.3,0.1,1.1,0.2,1.7C309.2,42,307.9,41.4,306.6,40.9L306.6,40.9L306.6,40.9z"/>
		<path class="st5" d="M302.1,215.6c-0.3,0-0.6,0-1,0c-0.6-2.5-0.5-5,0.4-7.4c0.2-0.5,0.6-0.8,0.8-1.2c0.4-0.1,0.8-0.2,1.2-0.2
			c0,0.4,0,0.7,0,1.1c-0.4,0.6-0.8,1.2-1.1,1.8c-0.4,1-1.6,2.1-0.3,3.3C300.6,213.8,301.8,214.7,302.1,215.6L302.1,215.6
			L302.1,215.6z"/>
		<path class="st5" d="M389.4,106.1c0.2-0.1,0.5-0.3,0.6-0.2c2,1,3.2,3.2,3,5.6C391.2,110.1,389.4,108.7,389.4,106.1L389.4,106.1z"
			/>
		<path class="st5" d="M257.1,100.6c1.4-0.2,2.9-0.4,4.3-0.6c-1,1.1-2,2.3-3,3.4c-0.8-0.6-1.5-1.3-2.3-1.9
			C256.4,101.2,256.8,100.9,257.1,100.6L257.1,100.6z"/>
		<path class="st5" d="M356.8,83c0.1-0.2,0.3-0.5,0.4-0.4c0.8,0.3,1.6,0.7,2.6,1.1c0.1,0.8,0.3,1.7-0.9,2.2
			C358.2,84.9,357.5,84,356.8,83C356.8,83,356.8,83,356.8,83z"/>
		<path class="st5" d="M330,219c-0.4-0.3-0.8-0.6-1.2-0.9c0.7-1.5,1.5-2.9,2.2-4.4c0,1.6,0,3.1-0.1,4.6
			C330.8,218.6,330.3,218.8,330,219L330,219L330,219z"/>
		<path class="st5" d="M250,92.9c-1.1-0.6-2.3-1.2-3.4-1.9h0c0.2-0.2,0.4-0.3,0.7-0.5c0.2-0.1,0.4-0.3,0.6-0.4
			c0.5,0.1,1,0.2,1.5,0.3c0.4,0.6,0.7,1.2,1,1.8C250.5,92.3,250.2,92.6,250,92.9L250,92.9L250,92.9z"/>
		<path class="st5" d="M249.1,107.6c-0.4-0.3-0.7-0.6-1.1-0.9c0.3-0.5,0.7-0.9,1.2-1.7c0.4,0.6,0.6,1.1,1,1.5c0.4,0.5,1,0.8,1.5,1.2
			C250.8,107.6,250,107.6,249.1,107.6L249.1,107.6L249.1,107.6z"/>
		<path class="st5" d="M251.6,81.8c0.9,0.5,1.8,1,2.7,1.6c0.4,0.3,0.8,0.6,1.2,0.9c0.1,0.2,0.2,0.4,0.5,1c-0.8-0.4-1.2-0.6-1.7-0.8
			c-0.9-0.5-1.8-1-2.7-1.5C251.6,82.6,251.6,82.2,251.6,81.8C251.6,81.8,251.6,81.8,251.6,81.8z"/>
		<path class="st5" d="M375.9,101.1c0.6-1,1.1-0.3,1.5,0.2c0.2,0.3,0.2,0.8,0.4,1.2C377.1,102,376.5,101.6,375.9,101.1L375.9,101.1
			L375.9,101.1z"/>
		<path class="st5" d="M302.7,33.2c1.2,0.8,0.4,2,0.6,3C303.1,35.2,302.9,34.2,302.7,33.2z"/>
		<path class="st5" d="M298.7,20c0.2,0.6,0.4,1.2,0.6,1.7C299.1,21.1,298.9,20.5,298.7,20z"/>
		<path class="st5" d="M399.9,103c-0.7-0.1-1.7,0.4-1.6-0.9C398.9,102.4,399.4,102.7,399.9,103z"/>
		<path class="st5" d="M328.2,208.3c-0.4-0.2-0.8-0.5-1.2-0.7c0.4,0,0.8,0.1,1.2,0.1C328.2,207.9,328.2,208.1,328.2,208.3
			L328.2,208.3z"/>
		<path class="st5" d="M303.6,206.8c-0.4,0.1-0.8,0.2-1.2,0.2c-0.1-0.2-0.2-0.4-0.3-0.6c0.5,0,1.1,0.1,1.6,0.1
			C303.6,206.6,303.6,206.7,303.6,206.8z"/>
		<path class="st5" d="M344.5,106.7c-0.2-0.4-0.4-0.8-0.7-1.2C344.1,105.9,344.3,106.3,344.5,106.7z"/>
		<path class="st5" d="M328.2,207.7c-0.4,0-0.8-0.1-1.2-0.1c0-0.1,0-0.2,0-0.3c0.4-0.1,0.8-0.1,1.2-0.2
			C328.2,207.3,328.2,207.5,328.2,207.7L328.2,207.7L328.2,207.7z"/>
		<path class="st5" d="M409.2,110.4c-0.3-0.1-0.5-0.1-0.8-0.2c0.2-0.1,0.3-0.3,0.5-0.4C408.9,110,409,110.2,409.2,110.4L409.2,110.4
			L409.2,110.4z"/>
		<path class="st5" d="M247.3,90.5c-0.2,0.2-0.4,0.3-0.7,0.5C246.8,90.8,247.1,90.7,247.3,90.5z"/>
		<path class="st5" d="M322.6,34c0.1-0.3,0.2-0.6,0.2-0.8C322.7,33.5,322.6,33.7,322.6,34z"/>
		<path class="st5" d="M301.4,205.8c0.2,0.2,0.4,0.4,0.6,0.6C301.8,206.2,301.6,206,301.4,205.8z"/>
		<path class="st5" d="M343,103.9c0.2-0.1,0.4-0.2,0.5-0.3v0.7C343.3,104.2,343.1,104,343,103.9z"/>
		<path class="st5" d="M401.1,103.3c-0.3-0.1-0.6-0.2-0.9-0.3C400.5,103.1,400.8,103.2,401.1,103.3z"/>
		<path class="st5" d="M343.8,105.5c0-0.1-0.1-0.3-0.1-0.4C343.7,105.3,343.8,105.4,343.8,105.5z"/>
		<path class="st5" d="M301.3,217.5c0.1,0.1,0.1,0.1,0,0.2C301.4,217.7,301.3,217.6,301.3,217.5
			C301.3,217.6,301.3,217.5,301.3,217.5L301.3,217.5z"/>
		<path class="st5" d="M362.6,89.8c0.1,0.1,0.2,0.2,0.3,0.3C362.8,90,362.7,89.9,362.6,89.8z"/>
		<path class="st5" d="M409.4,110.5c-0.1,0-0.2-0.1-0.3-0.2C409.2,110.4,409.3,110.5,409.4,110.5z"/>
		<path class="st5" d="M311.8,50.8c0.1-0.2,0.2-0.5,0.3-0.7c0.1,0,0.1,0,0.1-0.1c0.2-0.5,0.4-1,0.6-1.5c0.5,0,1.4-0.1,1.4,0.1
			c0.4,0.9,0.7,1.9,0.9,2.9c0.4,1.9,0.6,3.7,0.9,5.6c0.4,2.3,2.2,4.4,1.2,7c-0.1,0.2,0.4,0.6,0.6,0.9c0.3-0.2,0.7-0.5,0.8-0.7
			c0.1-1,0.8-1.1,1.5-1c0.1,0.2,0.2,0.4,0.2,0.6c0.4,12.9,0.7,25.8,1,38.7c0,0.5-0.4,1.1-0.7,1.5c-0.7,0.7-1.5,1.4-2.2,2.1
			c-1,0.9-2.1,1.8-3.1,2.7c-0.3,0.3-0.5,0.5-0.8,0.8h-1.8c-0.8-0.8-1.7-1.6-2.5-2.4c-0.2-0.2-0.5-0.3-0.7-0.5
			c-0.1-0.2-0.3-0.3-0.4-0.5c-0.3-0.2-0.5-0.4-0.7-0.6c-2.5-1.6-2.3-4-2.1-6.5c0.4-3.8,0.5-7.7,0.8-11.5c0.5-5.2,1.2-10.4,1.7-15.6
			c0.3-3.7,0.3-7.3,0.5-11c0.3-0.3,0.8-0.5,0.8-0.8c0.2-1,0.2-2,0.3-2.9c0-0.4,0.1-0.8,0.1-1.2c0.1-0.6,0.2-1.2,0.2-1.9
			c0-0.3,0.1-0.6,0.1-0.9c0.1,0,0.3-0.1,0.4-0.1c-0.1-0.1-0.2-0.2-0.3-0.2c0-0.2,0.1-0.4,0.1-0.7C311.2,51.9,311.5,51.4,311.8,50.8
			L311.8,50.8L311.8,50.8z"/>
		<path class="st5" d="M303.6,206.8c0-0.1,0-0.2,0-0.3c0.5-0.1,1-0.2,1.5-0.3c0.3,0,0.6-0.1,0.9-0.1c0.3,0,0.6,0,0.9,0
			c1.2-0.1,2.5-0.2,3.7-0.2c0.3,0,0.6-0.1,0.9-0.1h2c0.5,1.6,1,3.3,1.4,5c-0.7-0.2-1.3-0.5-2-0.7c0-0.3-0.1-0.8-0.2-1.2
			c-2.2-0.1-4.5,0.4-6.1-2.1c-0.2,0.8-0.3,1.2-0.4,1.6c-0.7-1.8-1.7-0.8-2.6-0.4C303.6,207.5,303.6,207.2,303.6,206.8L303.6,206.8
			L303.6,206.8z"/>
		<path class="st5" d="M319.2,217.8c-1.8-0.7-2.4-2.3-2.7-4c-0.1-1-0.2-2.1-0.2-3.2c0-0.4,0.6-0.8,0.7-1.2c0.2-0.8,0.3-1.7,0.4-2.5
			c0.4,0,0.8-0.1,1.2-0.1c0,0.1,0,0.2,0,0.3c-0.4,1.6-0.9,3.2-1.1,4.9c0,0.5,0.9,1.5,1.5,1.6c1.3,0.2,2.4,0.2,3.1,1.5
			c-0.5,1.2-1.1,2.4-2.8,1.3C319.3,216.9,319.2,217.4,319.2,217.8L319.2,217.8L319.2,217.8z"/>
		<path class="st5" d="M290.9,105.2c2.1,0,4.2,0,6.3,0.1c0.8,0.1,1.6,0.7,2.3,1.1v1.2h-0.9c-0.9,0-1.9,0.1-2.8,0.1
			c-0.8-0.2-1.6-0.5-2.4-0.6C292.3,106.9,291.4,106.4,290.9,105.2L290.9,105.2L290.9,105.2z"/>
		<path class="st5" d="M310.1,107.3c0.8,0.8,1.7,1.6,2.5,2.4c-2.3-0.1-4.6-0.1-6.9-0.2c-0.3,0-0.6-0.2-1-0.4v-1.8
			c1.2,0.3,2.3,0.6,3.4,0.7C308.8,108.1,309.5,107.5,310.1,107.3L310.1,107.3z"/>
		<path class="st5" d="M319.8,108.8c0.4-0.4,0.8-1.1,1.2-1.1c3.4-0.2,6.8-0.3,10.2-0.3c0.3,0,0.6,0.2,1,0.3
			c-1.9,0.7-3.8,1.7-5.9,0.7c-0.4-0.2-1.1,0-1.7,0c-1.4,0.2-2.8,0.4-4.2,0.6c-0.2,0-0.4,0.1-0.6,0.2
			C319.9,109,319.9,108.9,319.8,108.8L319.8,108.8L319.8,108.8z"/>
		<path class="st5" d="M325.2,112.1c-1,0.1-2.1,0.2-3.1,0.5c-0.7,0.2-1.4,0.7-2,1c-0.4,0.2-0.7,0.5-1,0.7c-0.1-0.2-0.4-0.4-0.4-0.6
			c0.2-0.5,0.3-1.1,0.7-1.3c0.6-0.3,1.3-0.4,2-0.5c1.2-0.1,2.5-0.2,3.8-0.2C325.1,111.9,325.1,112,325.2,112.1z"/>
		<path class="st5" d="M299.6,107.6v-1.2c1.6,0.3,3,1,4,2.3C302.2,108.4,300.9,108,299.6,107.6L299.6,107.6z"/>
		<path class="st5" d="M319.8,108.8c0,0.1,0,0.2,0,0.3c-1.8,0.2-3.6,0.4-5.4,0.6c0.3-0.3,0.5-0.5,0.8-0.8c1.2,0,2.5,0,3.7-0.1
			C319.3,108.8,319.6,108.8,319.8,108.8L319.8,108.8L319.8,108.8z"/>
		<path class="st5" d="M334,106.9c0.9-1.1,1.9-2.1,3.5-2C336.3,105.6,335.1,106.2,334,106.9z"/>
		<path class="st5" d="M338.9,104.4c1-0.9,2.6-1.1,3.4-0.5C341.2,104.1,340,104.2,338.9,104.4z"/>
		<path class="st5" d="M320.4,108.9c1.4-0.2,2.8-0.4,4.2-0.6C323.2,108.5,321.8,108.7,320.4,108.9z"/>
		<path class="st5" d="M325.4,207.1c-1.2,0-2.4,0-3.6-0.1C322.9,207.1,324.2,207.1,325.4,207.1z"/>
		<path class="st5" d="M310.6,205.8c-1.2,0.1-2.5,0.2-3.7,0.2C308.2,206,309.4,205.9,310.6,205.8z"/>
		<path class="st5" d="M320.2,207c0,0.9,0.2,2-1.5,1.7c0.2-0.7,0.4-1.2,0.6-1.8C319.6,207,319.9,207,320.2,207z"/>
		<path class="st5" d="M295.8,107.7c0.9,0,1.9-0.1,2.8-0.1C297.7,107.7,296.8,107.7,295.8,107.7z"/>
		<path class="st5" d="M306,206.1c-0.3,0-0.6,0.1-0.9,0.1C305.4,206.2,305.7,206.1,306,206.1z"/>
		<path class="st5" d="M318.6,207.1c0-0.1,0-0.2,0-0.3c0.2,0,0.5,0,0.7,0.1C319.1,206.9,318.9,207,318.6,207.1z"/>
		<path class="st5" d="M279.9,65.9c-1.4-1.9-2.6-3.6-3.8-5.3c-0.3-0.4-0.8-0.7-1.2-1.1C276.9,59,280.4,63.2,279.9,65.9L279.9,65.9z"
			/>
		<path class="st5" d="M281.2,68.3c3.1-1.1-0.2-2.1,0.3-3.1c1.9,0.3,2.3,2.7,1.9,5.6C282.6,69.9,282,69.2,281.2,68.3L281.2,68.3
			L281.2,68.3z"/>
		<path class="st5" d="M281.4,51.3c0-0.2-0.1-0.5,0-0.7c0.1-0.3,0.3-0.5,0.5-0.8c0.2,0.3,0.5,0.5,0.7,0.8c0.1,0.2,0,0.5,0,0.7v2.9
			c-0.2,0-0.4,0-0.5,0C281.9,53.3,281.6,52.3,281.4,51.3L281.4,51.3L281.4,51.3z"/>
		<path class="st5" d="M310.2,57.5c-0.1,1-0.1,2-0.3,2.9c-0.1,0.3-0.5,0.5-0.8,0.8c0.1-1,0.2-2.1,0.3-3.1
			C309.5,57.9,309.9,57.7,310.2,57.5z"/>
		<path class="st5" d="M258,87.3c0.6,0.6,1.1,1.1,1.7,1.7c-0.2,0.1-0.4,0.3-0.6,0.4C258.7,88.8,258.4,88.1,258,87.3L258,87.3
			L258,87.3z"/>
		<path class="st5" d="M311.8,50.8c-0.3,0.5-0.6,1.1-0.9,1.6c-0.1-0.5-0.1-0.9-0.2-1.4C311,51,311.4,50.9,311.8,50.8L311.8,50.8
			L311.8,50.8z"/>
		<path class="st5" d="M310.5,54.4c-0.1,0.6-0.2,1.2-0.2,1.9C310.4,55.6,310.5,55,310.5,54.4z"/>
		<path class="st5" d="M257.1,86.1c-0.3,0.1-0.5,0.3-0.6,0.2c-0.1-0.1-0.2-0.3-0.3-0.4c0.1-0.1,0.3-0.3,0.4-0.3
			C256.8,85.7,256.9,85.9,257.1,86.1L257.1,86.1L257.1,86.1z"/>
		<path class="st5" d="M258,87.3c-0.3-0.1-0.5-0.1-0.8-0.2c0-0.1,0.1-0.3,0.1-0.4C257.6,87,257.8,87.2,258,87.3L258,87.3z"/>
		<path class="st5" d="M309.4,106.8c0.2,0.2,0.5,0.3,0.7,0.5C309.8,107.1,309.6,107,309.4,106.8z"/>
		<path class="st5" d="M308.2,105.7c0.3,0.2,0.5,0.4,0.7,0.6C308.7,106.1,308.4,105.9,308.2,105.7z"/>
		<path class="st5" d="M239.8,106.5c-0.3-0.1-0.6-0.3-0.9-0.4C239.2,106.3,239.5,106.4,239.8,106.5z"/>
		<path class="st5" d="M310.7,53.1c0.1,0.1,0.2,0.2,0.3,0.2c-0.1,0-0.3,0.1-0.4,0.1C310.6,53.4,310.7,53.2,310.7,53.1z"/>
		<path class="st5" d="M320.1,63.3c-0.8-0.1-1.4,0-1.5,1c0,0.3-0.5,0.5-0.8,0.7c-0.2-0.3-0.7-0.7-0.6-0.9c1-2.6-0.8-4.7-1.2-7
			c-0.3-1.9-0.6-3.8-0.9-5.6c-0.2-1-0.5-2-0.9-2.9c-0.1-0.2-0.9,0-1.4-0.1c-0.4-0.2-0.8-0.3-1.2-0.4l0,0c-0.2-0.2-0.5-0.3-0.7-0.5
			c0-0.1-0.1-0.1-0.2-0.1c-0.2-0.6-0.5-1.2-0.7-1.8c0.9-0.5,1.8-1,2.8-1.6c1.1-0.1,2.1-0.1,3.1-0.2l0,0.1c-0.5,1-1,2.1-1.5,3.1
			c0.8,0.4,1.4,0.7,1.9,1c0,0.4,0.1,0.8,0.1,1.2c0.1,0.3,0.2,0.6,0.3,0.9c0.1,0.1,0.2,0.2,0.3,0.3c0.2,0.3,0.4,0.7,0.6,1
			c0.4,0.6,0.7,1.2,1.1,1.8c0,0.3,0.1,0.6,0.2,0.9c0.1,0.3,0.1,0.6,0.2,0.9c0,0.3,0.1,0.6,0.1,0.9c0,1.5,0.1,3.1,0.1,4.6
			c0,0.1,0.4,0.2,0.6,0.4C320,61.9,320.1,62.6,320.1,63.3L320.1,63.3L320.1,63.3z"/>
		<path class="st5" d="M350.7,73.1c-0.7-0.1-1.4-0.2-2.1-0.2v-1c1.3-0.5,1.8-2.2,1-4.3c-0.4,0.8-0.9,1.3-1,1.9c-0.1,0.7,0,1.4,0,2.1
			c-0.3-0.5-0.8-0.9-0.9-1.4c-0.2-2-0.3-4-0.4-5.9c0.9-1.7,1.8-3.3,2.7-5c0.2,2.6-0.7,4.8-2.2,7.1c1-0.1,1.8-0.1,2.9-0.2V73.1z"/>
		<path class="st5" d="M319,108.8c-1.2,0-2.5,0-3.7,0.1c1-0.9,2.1-1.8,3.1-2.7C318.5,107.1,318.7,107.9,319,108.8z"/>
		<path class="st5" d="M348.5,71.6c0-0.7-0.1-1.5,0-2.1c0.1-0.6,0.6-1.1,1-1.9c0.8,2.1,0.3,3.8-1,4.3
			C348.5,71.8,348.5,71.7,348.5,71.6L348.5,71.6z"/>
		<path class="st5" d="M319.9,61.2c-0.2-0.1-0.6-0.2-0.6-0.4c-0.1-1.5-0.1-3.1-0.1-4.6c0.2,0,0.4,0.1,0.6,0.1
			C319.8,58,319.9,59.6,319.9,61.2L319.9,61.2L319.9,61.2z"/>
		<path class="st5" d="M336.2,55.4c-0.3,0.3-0.6,0.6-0.8,0.9c-0.1-0.1-0.3-0.2-0.4-0.3c0.3-0.3,0.5-0.6,0.8-0.9L336.2,55.4
			L336.2,55.4z"/>
		<path class="st5" d="M348.7,76.2c0,0.1,0,0.2,0,0.4c0-0.1-0.1-0.2-0.1-0.2C348.6,76.3,348.7,76.3,348.7,76.2L348.7,76.2
			L348.7,76.2z"/>
		<path class="st5" d="M352.5,75.9c-0.9-0.3-1.8-0.7-2.7-1c0-0.2,0-0.3,0.1-0.5c0.7-0.1,1.3-0.2,1.9-0.4c0.4-0.1,0.6-0.5,0.9-0.8
			c0.5,0,1,0,1.6,0c1.8,0.4,3.7,0.8,5.7,1.3c-2.2,0.3-4.2,0.5-6.1,0.9C353.4,75.4,352.9,75.7,352.5,75.9L352.5,75.9L352.5,75.9z"/>
		<path class="st5" d="M352.3,60.2c0.3-0.6,0.6-1.8,0.8-1.8c1.2,0.1,2.4,0.5,3.6,0.8c-0.3,0.7-0.4,1.5-0.9,1.9
			c-0.5,0.4-1.4,0.5-2.1,0.7C352.5,62,352.5,61.1,352.3,60.2L352.3,60.2L352.3,60.2z"/>
		<path class="st5" d="M316.4,48.3c-0.5-0.3-1.1-0.5-1.9-1c0.5-1,1-2.1,1.5-3.1c1,0.5,2.1,1,3.1,1.6c-0.5,0.6-1,1.1-1.6,1.7
			C317.2,47.7,316.8,48,316.4,48.3L316.4,48.3z"/>
		<path class="st5" d="M316.4,48.3c0.4-0.3,0.7-0.6,1.1-0.9c1.3,0,2.6,0,3.9-0.1l0,0c0.4,0.1,0.7,0.2,1.1,0.3c0.9,0.3,1.9,0.7,2.8,1
			c0,0.2-0.1,0.3-0.1,0.5c-0.6-0.1-1.3,0-1.8-0.3c-1.1-0.8-2.1-0.7-3.3-0.2c-1.2,0.5-2.5,0.6-3.7,0.9
			C316.5,49.1,316.4,48.7,316.4,48.3L316.4,48.3z"/>
		<path class="st5" d="M315.9,44.1c-1.1,0.1-2.1,0.1-3.1,0.2c-0.7-0.6-1.5-1.2-2.2-1.7c0.4-0.1,0.9-0.1,1.4-0.2c0-0.3,0-0.7,0.1-1.1
			c1.2-0.1,2.5-0.3,3.8-0.4c-0.4,2.1-2.4,0.5-3,1.8c0.5,1.4,1.8,0.9,2.8,1C315.8,43.8,315.9,43.9,315.9,44.1L315.9,44.1z"/>
		<path class="st5" d="M321.4,47.3c-1.3,0-2.6,0-3.9,0.1c0.5-0.6,1-1.1,1.6-1.7C319.8,46.3,320.6,46.8,321.4,47.3L321.4,47.3z"/>
		<path class="st5" d="M351.2,58.7c0.2-0.4,0.4-0.8,0.6-1.2c0.2,0.1,0.4,0.2,0.6,0.2l-0.6,1.2C351.5,58.9,351.4,58.8,351.2,58.7
			L351.2,58.7L351.2,58.7z"/>
		<path class="st5" d="M318.7,53.5c-0.4-0.6-0.7-1.2-1.1-1.8C318,52.3,318.4,52.9,318.7,53.5z"/>
		<path class="st5" d="M316.2,43.1c0.4-0.2,0.8-0.5,1.1-0.7C317,42.6,316.6,42.9,316.2,43.1z"/>
		<path class="st5" d="M319.1,55.4c-0.1-0.3-0.1-0.6-0.2-0.9C319,54.7,319,55.1,319.1,55.4z"/>
		<path class="st5" d="M322.5,47.6c-0.4-0.1-0.7-0.2-1.1-0.3C321.8,47.4,322.1,47.5,322.5,47.6z"/>
		<path class="st5" d="M317.1,50.7c-0.1-0.1-0.2-0.2-0.3-0.3C316.9,50.5,317,50.6,317.1,50.7z"/>
		<path class="st5" d="M318.6,27c0.2,0.4,0.4,0.8,0.7,1.2c0.2,0.3,0.4,0.6,0.6,0.9c0,0.2,0,0.4,0,0.6c0.2,0.2,0.4,0.4,0.6,0.7
			c0,0.5,0,1,0,1.5c-0.2,0.1-0.3,0.2-0.5,0.4c-0.3,0.3-0.6,0.5-0.9,0.8c-0.2-0.4-0.4-0.7-0.5-1.1c-0.2-1.5-0.9-2.3-2.7-2.7
			c0.7-1.7-0.8-1.9-1.7-2.2c-1.1-0.4-1.8,0.4-2.4,1.3c-1,1.4-2.2,2.5-3.3,3.8c-0.1-0.1-0.3-0.2-0.4-0.3c-0.1-0.9-0.1-1.8-0.2-2.7
			v-0.6c0.6,0,1.3,0,1.2-1c0-0.1,0-0.2,0-0.3c0.3-0.2,0.6-0.4,0.9-0.6c0.2-0.1,0.4-0.2,0.6-0.3c1.1-0.1,1.8-1,3.1-0.9
			c1.5,0.2,2.9,0.2,4,1.4C317.9,27.1,318.3,27,318.6,27L318.6,27L318.6,27z"/>
		<path class="st5" d="M307.4,38.5c-0.1,0-0.2,0.1-0.3,0.1c-0.1,0-0.1-0.2-0.1-0.2c0.1,0,0.2-0.1,0.3-0.1
			C307.4,38.3,307.4,38.4,307.4,38.5z"/>
		<path class="st5" d="M317.7,15.8c1.2,0.2,2.7,0.1,3.4,0.9c0.7,0.6,0.5,2.2,0.6,3.3c0,0.2-0.3,0.6-0.5,0.6
			c-1.7,0.1-3.4,0.1-5.2,0.1c-1.3,0-1.5-1-1.3-1.9c0.3-0.9,0.9-0.8,1.8-0.4c0.9,0.4,2,0.3,3,0.4c0.3,0,0.6-0.4,0.9-0.6
			c-0.3-0.3-0.5-0.8-0.8-1c-0.7-0.3-1.4-0.4-2.1-0.6C317.6,16.2,317.6,16,317.7,15.8C317.6,15.8,317.7,15.8,317.7,15.8z"/>
		<path class="st5" d="M318.6,27c-0.3,0-0.7,0.1-0.9-0.1c-1.1-1.2-2.4-1.3-4-1.4c-1.4-0.2-2.1,0.8-3.1,0.9c0.4-1.3,1-2.4,2.5-2.8
			c0.7,1.1,1.6,0.5,2.4,0.2C316.5,24.9,317.6,26,318.6,27L318.6,27L318.6,27z"/>
		<path class="st5" d="M311.6,14.7c1.6,0.1,3.1,0.2,4.6,0.3c-0.2,1.5-1.5,2.1-2.5,2.7c-0.2,0.1-1.2-0.6-1.5-1.1
			C311.7,16,311.7,15.3,311.6,14.7L311.6,14.7z"/>
		<path class="st5" d="M315.5,23.8c-0.8,0.3-1.7,0.9-2.4-0.2c0.1-1.1,0.3-2.2,0.4-3.3l0.5,0C315,21.3,315.8,22.3,315.5,23.8
			L315.5,23.8z"/>
		<path class="st5" d="M311.5,8.9c1.4,0.2,2.9,0.4,4.3,0.6C314.4,9.5,312.9,10,311.5,8.9z"/>
		<path class="st5" d="M309.1,27.7c0.1,1-0.6,0.9-1.2,1C308.3,28.3,308.7,28,309.1,27.7z"/>
		<path class="st5" d="M319.9,29.2c-0.2-0.3-0.4-0.6-0.6-0.9C319.5,28.5,319.7,28.9,319.9,29.2z"/>
		<path class="st5" d="M309.4,9.5c0.3-0.2,0.6-0.4,1-0.6C310,9.1,309.7,9.3,309.4,9.5z"/>
		<path class="st5" d="M310,26.8c-0.3,0.2-0.6,0.4-0.9,0.6C309.4,27.2,309.7,27,310,26.8z"/>
		<path class="st5" d="M320.5,30.4c-0.2-0.2-0.4-0.4-0.6-0.7C320.1,30,320.3,30.2,320.5,30.4z"/>
		<path class="st5" d="M235.5,114.6c-0.4,0.6-0.6,1-0.9,1.6c-0.5-0.8-0.9-1.4-1.4-2.1C233.8,114.2,234.5,114.4,235.5,114.6
			L235.5,114.6L235.5,114.6z"/>
		<path class="st5" d="M310.7,47.6c0.1,0,0.1,0.1,0.2,0.1c0.2,0.2,0.5,0.3,0.7,0.5l0,0c0.2,0.6,0.4,1.3,0.6,1.9
			c0,0.1-0.1,0.1-0.1,0.1c-0.3-0.2-0.9-0.2-1-0.5c-0.4-1.6-1.5-1.6-2.8-1.5c-0.1,0-0.2-0.2-0.4-0.2
			C308.8,47.8,309.8,47.7,310.7,47.6L310.7,47.6L310.7,47.6z"/>
		<path class="st5" d="M310.7,47.6c-1,0.1-1.9,0.2-2.9,0.4h-0.9c1-0.7,2.1-1.4,3.1-2.1C310.3,46.4,310.5,47,310.7,47.6L310.7,47.6
			L310.7,47.6z"/>
		<path class="st5" d="M306.9,48c-0.8,0.5-1.5,1-2.3,1.4c-0.1-0.2-0.2-0.3-0.3-0.5C305.2,48.6,306.1,48.3,306.9,48L306.9,48
			L306.9,48z"/>
		<path class="st5" d="M319.9,218.3c-0.2-0.2-0.4-0.3-0.7-0.5C319.4,218,319.7,218.2,319.9,218.3z"/>
		<path class="st5" d="M319.1,210.6c0,0.1-0.1,0.2-0.1,0.2c-0.1,0-0.2,0-0.2-0.1c0-0.1,0.1-0.2,0.1-0.3
			C319,210.6,319,210.6,319.1,210.6L319.1,210.6L319.1,210.6z"/>
		<path class="st5" d="M398.5,112.7c-0.7,0.5-1.3,1.1-2,1.3c-0.4,0.1-0.9-0.8-1.4-1.2c0.1-0.1,0.2-0.3,0.3-0.4l2.8-0.2
			C398.3,112.4,398.4,112.5,398.5,112.7L398.5,112.7L398.5,112.7z"/>
		<path class="st5" d="M303.6,207.9c0.9-0.4,1.9-1.4,2.6,0.4c0.1-0.5,0.2-0.8,0.4-1.6c1.6,2.5,3.9,2,6.1,2.1
			c0.1,0.4,0.1,0.9,0.2,1.2c0.7,0.3,1.4,0.5,2,0.7c0,0.2,0,0.4,0,0.6c-0.6,0.1-1.1,0.2-1.7,0.3c0.1,0.1,0.2,0.1,0.3,0.2
			c-0.8,1.2-1.7,2.5-2.5,3.7c1.4,0.5,2.6,1,3.8,1.4c-0.1,0.2-0.2,0.4-0.3,0.6c-0.3,0.2-0.6,0.4-0.9,0.6c-1.7,0.6-3.3,1.2-5.1,0.7
			c-1-0.3-2.1,0-3.2,0c-0.2-1.6-1.7-1.4-2.7-1.9c-0.2-0.4-0.4-0.9-0.6-1.3c-0.3-0.9-1.4-1.8,0.2-2.5c-1.3-1.3-0.2-2.3,0.3-3.3
			C302.8,209.1,303.2,208.5,303.6,207.9L303.6,207.9L303.6,207.9z M309.1,211.5h2.1c-0.7-0.8-1-1.5-1.6-1.7
			c-0.4-0.1-1.5,0.5-1.5,0.6c0.1,1,0.5,1.9,0.8,2.9c0.1,0,0.3-0.1,0.4-0.1C309.3,212.7,309.2,212.2,309.1,211.5L309.1,211.5z
			 M305.7,208.9c-0.2,0.1-0.3,0.2-0.4,0.2c0.1,0.1,0.2,0.3,0.3,0.3c0.1,0,0.2-0.1,0.4-0.2C305.8,209.1,305.7,209,305.7,208.9
			L305.7,208.9z M310.2,212.4c-0.1,0-0.2,0.1-0.2,0.1c0,0,0,0.1,0.1,0.2c0.1,0,0.2-0.1,0.2-0.1C310.3,212.6,310.2,212.5,310.2,212.4
			L310.2,212.4L310.2,212.4z"/>
		<path class="st5" d="M315,216.9c-1.2-0.5-2.4-0.9-3.8-1.4c0.8-1.2,1.6-2.4,2.5-3.7c-0.1-0.1-0.2-0.1-0.3-0.2
			c0.6-0.1,1.1-0.2,1.7-0.3C316.1,212.5,316.1,215.9,315,216.9L315,216.9z"/>
		<path class="st5" d="M302.7,216.9c1,0.4,2.5,0.3,2.7,1.9C303.6,219.3,302.3,218.4,302.7,216.9z"/>
		<path class="st5" d="M313.7,218.1c0.3-0.2,0.6-0.4,0.9-0.6C314.3,217.7,314,217.9,313.7,218.1z"/>
		<path class="st5" d="M312.2,50.1c-0.2-0.6-0.4-1.3-0.6-1.9c0.4,0.1,0.8,0.3,1.2,0.4C312.6,49.1,312.4,49.6,312.2,50.1z"/>
		<path class="st5" d="M311.6,48.2c-0.2-0.2-0.5-0.3-0.7-0.5C311.1,47.9,311.4,48.1,311.6,48.2z"/>
		<path class="st5" d="M309.1,211.5c0.1,0.6,0.2,1.2,0.2,1.7c-0.1,0-0.3,0.1-0.4,0.1c-0.3-1-0.7-1.9-0.8-2.9c0-0.1,1.1-0.7,1.5-0.6
			c0.5,0.2,0.9,0.9,1.6,1.7H309.1L309.1,211.5z"/>
		<path class="st5" d="M305.6,208.9c0.1,0.2,0.2,0.3,0.2,0.4c-0.1,0.1-0.3,0.2-0.4,0.2c-0.1,0-0.2-0.2-0.3-0.3
			C305.4,209,305.5,209,305.6,208.9L305.6,208.9z"/>
		<path class="st5" d="M310.2,212.4c0,0.1,0.1,0.2,0.1,0.2c0,0.1-0.1,0.1-0.2,0.1c0-0.1-0.1-0.2-0.1-0.2
			C310,212.5,310.1,212.5,310.2,212.4L310.2,212.4L310.2,212.4z"/>
	</g>
	<text transform="matrix(1.107 0 0 1 37.78 69.7461)"><tspan x="0" y="0" class="st2 st6">Levantar los antebrazos </tspan><tspan x="17.6" y="7.5" class="st2 st6">en conjunto de los</tspan><tspan x="28.3" y="14.9" class="st2 st6"> dedos indices</tspan></text>
	<text transform="matrix(1.107 0 0 1 191.8876 209.8625)"><tspan x="0" y="0" class="st2 st6">Mantener los </tspan><tspan x="0" y="7.5" class="st2 st6">pies juntos</tspan></text>
	<text transform="matrix(1.107 0 0 1 337.4742 209.9383)"><tspan x="0" y="0" class="st2 st6">Mantener los </tspan><tspan x="0" y="7.5" class="st2 st6">pies juntos</tspan></text>
	<text transform="matrix(1.0417 0 0 1 377.6973 60.8848)"><tspan x="0" y="0" class="st2 st7">Indicar con los dedos indices </tspan><tspan x="0" y="7.5" class="st2 st7">la ubicaciรณn de los </tspan><tspan x="0" y="14.9" class="st2 st7">competidores</tspan></text>
</g>
</svg>
