<?xml version="1.0" encoding="utf-8"?>
<!-- Generator: Adobe Illustrator 27.0.0, SVG Export Plug-In . SVG Version: 6.00 Build 0)  -->
<svg version="1.1" id="Capa_1" xmlns="http://www.w3.org/2000/svg" xmlns:xlink="http://www.w3.org/1999/xlink" x="0px" y="0px"
	 viewBox="0 0 489.34 229.77" style="enable-background:new 0 0 489.34 229.77;" xml:space="preserve">
<style type="text/css">
	.st0{fill:#3B54A1;}
	.st1{fill:#9AABB4;stroke:#99AAB3;stroke-miterlimit:10;}
	.st2{fill:#FFFFFF;stroke:#FFFFFF;stroke-miterlimit:10;}
	.st3{fill:none;stroke:#FFFFFF;stroke-miterlimit:10;}
	.st4{fill:#020203;}
	.st5{font-family:'ArialUnicodeMS';}
	.st6{font-size:6.2186px;}
</style>
<path class="st0" d="M489.37,160.39c-163.1-5.86-326.21-11.72-489.31-17.57c-0.03-14.96-0.07-29.92-0.1-44.89
	C163.04,92.5,326.12,87.08,489.2,81.65C489.26,107.9,489.31,134.14,489.37,160.39z"/>
<path class="st1" d="M242.36,88.43c-0.07,0.05-0.14,0.1-0.21,0.15C242.22,88.54,242.29,88.49,242.36,88.43
	c-0.02-0.84-0.03-1.67-0.05-2.51c-0.08-0.7-0.11-1.4-0.25-2.08c-0.06-0.32-0.44-0.59-0.51-0.91c-0.77-3.5-1.3-7.04-2.32-10.49
	c-0.65-2.18-2.87-4.09-1.51-6.58c0.07-0.13,0-0.4-0.13-0.51c-1.29-1.02-1.28-2.3-1.4-3.64c-0.16-1.85-0.74-3.68-1.14-5.52l0,0
	c-0.29-0.67-0.83-1.34-0.84-2.02c-0.08-3.66-1.56-6.85-4.58-9.59c-0.09-0.6,0.1-1.47-0.33-1.76c-2.57-1.78-5.12-3.68-8.73-4.05
	c-0.6-1.71-2.42-1.65-4.1-1.8c0.37,0.87,0.78,1.73,1.14,2.6c-0.36-0.87-0.77-1.73-1.14-2.6c-1.67-0.48-3.34-0.96-5.01-1.43
	c-0.7-0.15-1.5-0.17-2.09-0.46c-2.11-1.02-4.16-2.12-6.22-3.2c-0.52,0.02-1.04,0.04-1.55,0.07l-0.04,0.02
	c-1.09,0.28-2.17,0.56-3.26,0.84c0.2,0.07,0.4,0.16,0.6,0.25c-0.2-0.09-0.4-0.18-0.6-0.25l-0.09,0c0.04,0,0.09,0,0.09,0
	c1.09-0.28,2.17-0.56,3.26-0.84c0,0,0.04-0.02,0.04-0.02c0.52-0.02,1.04-0.04,1.55-0.07c-0.02-0.2-0.04-0.41-0.06-0.61
	c-0.19-0.25-0.38-0.51-0.57-0.76c0.49-2.6,3.05-4.91,1.67-7.81c-0.2-0.41,0.31-1.02,0.39-1.55c0.09-0.64,0.13-1.29,0.1-1.93
	c-0.05-1.11-0.29-2.22-0.25-3.33c0.08-2.09,0.23-4.17-2.07-5.7c0,0-0.04-0.03-0.04-0.03c-0.28-0.36-0.56-0.72-0.84-1.08
	c0,0-0.03-0.02-0.03-0.02c-0.64-0.48-1.27-0.95-1.91-1.43c0.64,0.48,1.27,0.95,1.91,1.43c-0.61-0.59-1.21-1.18-1.82-1.77
	c-4.58-2.73-9.39-4.28-14.98-1.9c-4.21,1.41-7.25,4.94-7.21,8.36c-0.26,0.66-0.81,1.34-0.75,1.98c0.31,3.23,0.78,6.46,1.2,9.69
	c0.08,0.58,0.17,1.16,0.32,1.73c0.37,1.4,0.77,2.79,1.16,4.18c0,0-0.01,0-0.02,0.01c0.01,0,0.02-0.01,0.02-0.01
	c-0.81-0.06-1.64-0.21-2.43-0.15c-2.24,0.17-4.47,0.43-6.71,0.65c-0.63-0.21-1.26-0.42-1.9-0.63c-0.44,0.35-0.88,0.7-1.32,1.05
	c-1.49,0.03-3.5-0.76-3.63,1.45c-3.58,1.93-5.4,4.69-5.83,8.07c-0.06,0.45,0.01,1.1,0.36,1.35c1.4,1.01,0.83,2.15,0.71,3.33
	c-0.06,0.58,0.4,1.2,0.63,1.8c0.1,2.99,2.29,5.72,1.62,8.84c-0.12,0.58,1.03,1.33,1.6,1.99c0.15-0.48,0.3-0.96,0.45-1.45
	c0.8-0.2,1.86-0.69,2.55-0.79c-0.69,0.1-1.76,0.58-2.55,0.79l0,0c-0.15,0.48-0.3,0.96-0.45,1.45c0.15,0.81,0.67,1.72,0.37,2.4
	c-1,2.28,0.64,3.87,1.89,5.59c0.45,0,0.91,0,1.36,0c0-0.24,0-0.48,0-0.72c-0.29-0.27-0.57-0.54-0.86-0.82
	c0.29,0.27,0.57,0.54,0.86,0.82c0,0.24,0,0.48,0,0.72c-0.45,0-0.91,0-1.36,0c-0.15,1.99-0.37,3.98-0.39,5.98
	c-0.01,0.67,0.5,1.34,0.77,2.02c0,0,0,0,0,0c0.01,1.55,0.02,3.1,0.03,4.65c-0.27,1.35-0.54,2.71-0.81,4.06
	c0.29,0.33,0.59,0.65,0.86,0.99c-0.27-0.34-0.57-0.66-0.86-0.99c-0.02,1.69-0.03,3.37-0.04,5.06c-1.4,0.97-1.46,1.94,0,2.9
	c0.87,0.49,1.73,0.98,2.6,1.46c0.69,0.31,1.38,0.61,2.07,0.92c1.86,0.69,3.72,1.38,5.63,2.08c-1.91-0.71-3.77-1.39-5.63-2.08
	c-0.69-0.31-1.38-0.61-2.07-0.92c-0.05,0.24-0.1,0.48-0.15,0.72c-0.13,0.51-0.26,1.02-0.39,1.53c0.01,0.69,0.01,1.38,0.02,2.06
	c-0.13-0.07-0.26-0.07-0.39-0.01c-0.25,0.19-0.62,0.35-0.72,0.58c-0.47,1.12-0.88,2.25-1.27,3.39c-0.38,1.1-0.7,2.21-1.05,3.31
	c-0.44,0.61-0.89,1.22-1.33,1.83c-0.02,2-0.3,3.99,1.24,5.85c0.6,0.72,0.33,1.87,0.6,2.79c0.12,0.41,0.57,0.76,0.87,1.14
	c0.01,2.89,0.02,5.78,0.03,8.68c0.3,0.73,0.6,1.46,0.9,2.2c0.75,3.23,1.57,6.46,2.24,9.7c0.68,3.29,1.23,6.6,1.84,9.9
	c0.31,0.85,0.62,1.7,0.93,2.55c-0.31-0.85-0.62-1.7-0.93-2.55c0.02,1.8,0.03,3.6,0.05,5.39c0.14,0.62,0.28,1.25,0.42,1.87
	c0.44,0.23,0.89,0.47,1.33,0.7c0.3,0,0.6,0,0.9,0c-0.3,0-0.6,0-0.9,0c0.29,0.49,0.59,0.99,0.88,1.48c0,0,0,0,0,0
	c0,0.47-0.01,0.95-0.01,1.42c0-0.47,0-0.94,0.01-1.42c-0.29-0.49-0.59-0.99-0.88-1.48c-0.44-0.23-0.89-0.47-1.33-0.7
	c0.15,2.28,0.31,4.56,0.46,6.84c0.27,0.87,0.54,1.73,0.82,2.6c0.12-0.2,0.23-0.41,0.35-0.61c-0.12,0.2-0.23,0.41-0.35,0.61
	c0.03,1.55,0.06,3.11,0.09,4.67c0.3,0.73,0.59,1.47,0.89,2.2c0.14,0.24,0.28,0.48,0.42,0.73c0,0,0,0,0,0
	c0.15,1.45,0.3,2.91,0.45,4.36c0.31,0.78,0.79,1.54,0.89,2.33c0.26,2.15,0.16,4.34,0.56,6.47c0.51,2.7,2.54,5.18,1.85,8.07
	c-0.03,0.14,0.49,0.37,0.75,0.55c0,0,0,0,0,0c0.01,1.62-0.05,3.24,0.03,4.85c0.08,1.52,0.29,3.05,0.45,4.57
	c0.31,1.62,0.58,3.25,0.96,4.86c0.05,0.23,0.56,0.39,0.86,0.58c0,0,0,0,0,0c0,0.11,0.01,0.22,0.02,0.33
	c0.23,2.08,1.19,2.85,4.09,3.27c0.3,0.24,0.6,0.49,0.9,0.73c0.04-0.57,0.17-0.93,0.37-1.15c-0.2,0.22-0.33,0.58-0.37,1.15
	c-0.44,1.09-0.88,2.18-1.33,3.26c-0.63,1.07-1.27,2.14-1.9,3.2c-1.27,1.15-1.22,2.76,0.12,3.67c1.09,0,2.18,0.07,3.27,0
	c3.31-0.21,6.63-0.41,9.91-0.79c0.51-0.06,1.03-0.96,1.26-1.55c0.39-1.02,0.55-2.09,0.81-3.14c0-0.26,0-0.51,0-0.77
	c0,0.26,0,0.51,0,0.77c0.11,0.83,0.22,1.66,0.33,2.5c0.2,0.02,0.41,0.04,0.61,0.06c0.25-0.5,0.51-1,0.76-1.5
	c0.23,0.26,0.45,0.53,0.68,0.79c-0.15,0.36-0.29,0.73-0.44,1.09l-0.01,0c0.14,0.23,0.29,0.47,0.43,0.7c0,0.5,0.01,0.99,0.01,1.49
	c0.3,0.37,0.59,0.73,0.89,1.1c-0.01,0.09-0.01,0.17,0.02,0.26c0.09,0.09,0.18,0.27,0.27,0.27c3.17,0,6.42,0.86,9.44-0.66
	c0.34-0.17,0.94-0.26,1.27-0.14c1.43,0.55,2.95,0.24,3.24-0.76c0.34-1.17-0.28-2.52-0.48-3.79c0,0-0.06,0.04-0.09,0.06
	c0.03-0.02,0.09-0.06,0.09-0.06c-0.64-1.18-1.27-2.37-1.91-3.55c-0.12-1.26-0.07-2.46,1.22-3.43c0.37-0.28,0.4-0.84,0.59-1.28
	c0.58-1.44,1.23-2.88,1.72-4.34c0.41-1.21,0.65-2.45,0.96-3.68c0.27-0.16,0.76-0.29,0.79-0.48c0.49-2.73,0.92-5.48,1.37-8.21
	c0.05-2.64,0.09-5.29,0.14-7.93c0.28-0.41,0.79-0.82,0.81-1.24c0.1-1.53,0.03-3.07,0.03-4.6c0.01-1.93,0.03-3.86,0.04-5.78
	c0.29-0.72,0.58-1.45,0.87-2.17c0,0,0,0,0,0c0.01-0.24,0.02-0.49,0.03-0.73c-0.45-1.09-0.91-2.18-1.36-3.27c0,0,0,0,0,0
	c0.45,1.09,0.91,2.18,1.36,3.27c0.26-2.8,0.51-5.6,0.77-8.4c-0.19-0.27-0.45-0.54-0.61-0.81c0.16,0.28,0.42,0.54,0.61,0.81
	c0.02-5.18,0.04-10.35,0.06-15.53c0.19-0.31,0.51-0.61,0.55-0.93c0.46-4.29,0.87-8.58,1.29-12.87c0.15-0.24,0.31-0.48,0.46-0.71
	c0-0.13-0.01-0.25-0.01-0.38c0.35-2.28,0.69-4.55,1.04-6.83c0.12-0.14,0.25-0.29,0.37-0.43c3.89,0.33,6.52-1.64,8.77-3.59
	c1.07-0.93,0.76-2.87,1.06-4.36c0.27-1.32,0.51-2.65,0.77-3.97c0.54-1.35,1.08-2.69,1.63-4.04c0,0,0,0,0,0
	c0.02-1.07,0.04-2.14,0.05-3.21c0.26-0.26,0.52-0.52,0.78-0.78c0.02-0.35,0.05-0.7,0.07-1.05c1.95-2.17,3.09-4.56,3.2-7.25
	c-0.3,0-0.6,0-0.9,0c-0.3,0.12-0.6,0.24-0.91,0.36c-0.76,0.36-1.51,0.72-2.27,1.09l0,0c0.76-0.36,1.51-0.72,2.27-1.09
	c-0.45,0-0.91,0-1.36,0c-0.06-0.41-0.14-0.82-0.22-1.23c-0.08-0.41-0.16-0.82-0.24-1.23c0.07,0.41,0.16,0.82,0.24,1.23
	c0.08,0.41,0.16,0.82,0.22,1.23c0.45,0,0.91,0,1.36,0c0.3-0.12,0.6-0.24,0.91-0.36c0.3,0,0.6,0,0.9,0c0.29-0.37,0.58-0.74,0.87-1.11
	c0.03-1.56,0.05-3.12,0.08-4.67C243.39,90.09,242.84,89.26,242.36,88.43z M239.6,87.38c0.46-0.27,0.9-0.56,1.38-0.81
	C240.5,86.82,240.06,87.11,239.6,87.38c0,0.24,0,0.48,0,0.72c0.04,0.09,0.09,0.17,0.13,0.24c0.13,0.23,0.28,0.4,0.43,0.52
	c-0.15-0.12-0.3-0.29-0.43-0.52c-0.04-0.08-0.09-0.16-0.13-0.24c-0.3,0-0.6,0-0.91,0c0.3,0,0.6,0,0.91,0
	C239.6,87.86,239.6,87.62,239.6,87.38c-0.3,0-0.61,0-0.91,0c0-0.42,0-0.85,0-1.27c0,0.42,0,0.85,0,1.27
	C238.99,87.38,239.29,87.38,239.6,87.38z M242.02,88.67c-0.02,0.02-0.05,0.03-0.07,0.05C241.98,88.71,242,88.69,242.02,88.67z
	 M235.67,98.93c-0.09,0.18-0.15,0.37-0.18,0.57C235.52,99.3,235.58,99.11,235.67,98.93z M212.36,203.42
	c0.09,0.13,0.23,0.29,0.35,0.45C212.59,203.72,212.46,203.56,212.36,203.42L212.36,203.42z M199.26,205.58
	c-0.32,0.37-0.64,0.75-0.96,1.12c0.15,0.72,0.31,1.45,0.46,2.17c-0.15-0.72-0.31-1.45-0.46-2.17h0
	C198.62,206.33,198.94,205.95,199.26,205.58c0.72,0,1.45,0,2.17,0c0.64-0.2,1.26-0.51,1.91-0.63c-0.65,0.12-1.27,0.43-1.91,0.63
	C200.7,205.58,199.98,205.58,199.26,205.58z M181.05,208.15c-0.04-0.13-0.09-0.24-0.14-0.34
	C180.97,207.91,181.01,208.02,181.05,208.15L181.05,208.15z M175.84,171.14c0.29,0.22,0.52,0.57,0.68,1.1c0.07,0,0.15,0,0.22,0
	c-0.07,0-0.15,0-0.22,0C176.36,171.72,176.13,171.37,175.84,171.14z M167.44,90.28c-0.45-0.36-0.9-0.73-1.36-1.09
	C166.54,89.56,166.99,89.92,167.44,90.28c0,0.24,0,0.48,0,0.72C167.44,90.76,167.44,90.52,167.44,90.28z M220.62,45.36
	c-0.25,0.24-0.58,0.46-0.99,0.67l0,0C220.04,45.83,220.37,45.6,220.62,45.36z M221.19,44.61c-0.05,0.11-0.12,0.23-0.2,0.34
	c-0.06,0.08-0.12,0.16-0.19,0.23c0.07-0.08,0.13-0.15,0.19-0.23C221.07,44.84,221.13,44.73,221.19,44.61z M221.41,43.72
	c-0.01,0.12-0.02,0.24-0.05,0.36C221.39,43.97,221.4,43.84,221.41,43.72z M224.62,112.05c-0.16-0.14-0.36-0.28-0.5-0.42c0,0,0,0,0,0
	C224.26,111.77,224.46,111.91,224.62,112.05z M219.18,125.82L219.18,125.82C219.17,125.82,219.18,125.82,219.18,125.82
	L219.18,125.82z M189.69,204.9c-1.18,0-2.36,0.03-3.54,0C187.33,204.93,188.51,204.89,189.69,204.9
	C189.69,204.9,189.69,204.9,189.69,204.9z M181.54,97.27c0.3,0.13,0.54,0.49,0.81,0.72c0,0,0,0,0,0
	C182.08,97.76,181.84,97.4,181.54,97.27z M192.56,15.67c-0.64,0.58-0.77,1.43-0.63,2.43c-0.01,1.2-0.02,2.39-0.03,3.59
	c0,0,0.01,0.01,0.03,0.02c-0.02-0.01-0.03-0.02-0.03-0.02c-0.97,0.02-2.16-0.2-2.93,0.04c0.77-0.23,1.96-0.02,2.93-0.04
	c0.01-1.2,0.02-2.39,0.03-3.59C191.78,17.11,191.92,16.26,192.56,15.67z M219.18,117.13c0,2.17,0,4.34,0,6.52
	c0,0.48,0.01,0.96,0.01,1.44c0,0,0,0,0,0c0,0.24-0.01,0.49-0.01,0.73c0-0.24,0.01-0.49,0.01-0.73c0-0.48-0.01-0.96-0.01-1.44
	C219.18,121.47,219.18,119.3,219.18,117.13C219.18,117.13,219.19,117.12,219.18,117.13L219.18,117.13z M204.06,197.25
	c0.36,0.1,0.75,0.12,1.16,0.1C204.81,197.37,204.42,197.35,204.06,197.25c-0.72-0.2-1.32-0.7-1.68-1.79c-0.3,0-0.6,0-0.9,0
	c-0.61,0.24-1.21,0.48-1.82,0.72c-0.45,0.6-0.9,1.21-1.35,1.81c0.44,0.37,0.89,0.75,1.33,1.12c0,0.95,0,1.91,0,2.86l0,0
	c0-0.95,0-1.91,0-2.86c-0.45-0.13-0.89-0.26-1.34-0.39c0.45,0.13,0.89,0.26,1.34,0.39c-0.44-0.37-0.88-0.75-1.33-1.12
	c0.45-0.6,0.9-1.21,1.35-1.81c0.61-0.24,1.21-0.48,1.82-0.72c0.3,0,0.6,0,0.9,0C202.74,196.56,203.34,197.06,204.06,197.25z
	 M184.68,199.09c-0.3-0.12-0.6-0.24-0.9-0.37c-0.3-0.24-0.6-0.49-0.9-0.73c0-0.12,0-0.24,0-0.36c0,0.12,0,0.24,0,0.36
	c0.15,0,0.3,0,0.45,0c-0.15,0-0.3,0-0.45,0c0.3,0.24,0.6,0.49,0.9,0.73C184.08,198.84,184.38,198.97,184.68,199.09
	c-0.05,0.76,0.11,1.37,0.66,1.76C184.78,200.46,184.62,199.85,184.68,199.09z M177.71,100.48
	C177.71,100.48,177.71,100.48,177.71,100.48c-0.09,0.27-0.19,0.49-0.32,0.67C177.52,100.97,177.63,100.74,177.71,100.48z
	 M184.67,102.66c0.27,0.03,0.54,0.05,0.81,0.08C185.21,102.72,184.94,102.69,184.67,102.66c-1.19-0.17-2.39-0.33-3.58-0.5
	C182.29,102.33,183.48,102.5,184.67,102.66z M193.74,23.15c0,0.1,0.01,0.2,0.01,0.3C193.75,23.36,193.75,23.25,193.74,23.15
	C193.74,23.15,193.74,23.15,193.74,23.15z M198.86,15.54c-0.33-0.11-0.73-0.23-1.01-0.34c-0.33-0.09-0.66-0.17-0.99-0.26
	c0.33,0.09,0.66,0.17,0.99,0.26C198.13,15.31,198.53,15.43,198.86,15.54z M193.3,25.35c0.11-0.32,0.21-0.65,0.32-0.97
	C193.51,24.71,193.41,25.03,193.3,25.35c-1.67-0.02-3.26,0.17-4.73,0.64C190.04,25.52,191.63,25.34,193.3,25.35z M226.22,58.13
	c0.19,0.32,0.48,0.64,0.67,0.96c0,0-0.01,0.01-0.01,0.01c0,0,0.01-0.01,0.01-0.01C226.7,58.77,226.41,58.45,226.22,58.13z
	 M208.29,169.71c0.09-0.06,0.17-0.13,0.26-0.21C208.46,169.57,208.38,169.65,208.29,169.71L208.29,169.71z M186.07,27.64
	c-0.03,0.4-0.19,0.72-0.46,0.97C185.88,28.36,186.05,28.04,186.07,27.64z M186.05,27.19C186.05,27.19,186.05,27.19,186.05,27.19
	c0.27,0.57,0.55,1.14,0.8,1.66C186.6,28.33,186.32,27.76,186.05,27.19z M191.37,32c0.4-0.13,0.83-0.23,1.22-0.37
	C192.2,31.77,191.77,31.87,191.37,32C191.37,32,191.37,32,191.37,32z M187.84,41.97c0-0.01,0-0.02,0-0.02
	C187.83,41.95,187.84,41.96,187.84,41.97z M216.62,115.62c-0.08-0.04-0.19-0.07-0.29-0.1C216.44,115.55,216.54,115.58,216.62,115.62
	c0.19,0.09,0.32,0.2,0.39,0.35C216.94,115.82,216.81,115.71,216.62,115.62z M195.6,184.58c0,0-0.08-0.04-0.08-0.04
	c0.02,0.26,0.04,0.52,0.06,0.78c0,0,0,0,0,0c-0.02-0.26-0.04-0.52-0.06-0.78c-0.28,0.03-0.56,0.06-0.85,0.09
	c-1.06-0.38-2.12-0.76-3.18-1.14l0,0c1.06,0.38,2.12,0.76,3.18,1.14c0.28-0.03,0.56-0.06,0.85-0.09L195.6,184.58
	C195.6,184.58,195.6,184.58,195.6,184.58z M190.76,91.36L190.76,91.36c-0.15,0.13-0.28,0.26-0.38,0.38
	c-0.07,0.08-0.13,0.17-0.18,0.25c0.05-0.08,0.11-0.16,0.18-0.25C190.48,91.61,190.61,91.49,190.76,91.36
	c-0.1-1.92-0.2-3.83-0.3-5.75c-0.15-0.2-0.39-0.4-0.54-0.61c0.16,0.2,0.39,0.4,0.55,0.61c0.06-3.52,0.12-7.03,0.17-10.55
	c0.18,0,0.36,0,0.54,0c-0.18,0-0.36,0-0.54,0c-0.06,3.52-0.12,7.03-0.17,10.55C190.56,87.52,190.66,89.44,190.76,91.36z
	 M190.62,93.01c-0.03-0.02-0.05-0.03-0.08-0.05C190.56,92.98,190.59,92.99,190.62,93.01z M190.3,92.79
	c-0.15-0.14-0.21-0.29-0.21-0.45C190.09,92.5,190.15,92.65,190.3,92.79z M199.66,52.2C199.66,52.2,199.66,52.2,199.66,52.2
	C199.66,52.2,199.66,52.2,199.66,52.2L199.66,52.2z M216.91,54.37c0.01,0.08,0.01,0.16,0.01,0.23
	C216.92,54.53,216.92,54.45,216.91,54.37L216.91,54.37z M223.06,76.23c-0.23-0.15-0.47-0.3-0.7-0.45c0,0,0,0,0,0
	C222.59,75.93,222.83,76.08,223.06,76.23z M225.12,79.01C225.12,79.01,225.12,79.01,225.12,79.01c-0.02,0.24-0.03,0.47-0.05,0.71
	C225.09,79.48,225.11,79.25,225.12,79.01z M225.98,77.58c-0.29-0.97-0.59-1.94-0.89-2.91c0.03,1,0.05,2,0.08,3l0,0
	c-0.03-1-0.05-2-0.08-3c0,0,0,0,0,0c0,0,0,0,0,0C225.39,75.64,225.68,76.61,225.98,77.58L225.98,77.58z M218.35,95.42
	c0.1,0,0.19,0,0.28,0C218.54,95.42,218.44,95.42,218.35,95.42c-0.19,0-0.39-0.02-0.58-0.03C217.96,95.4,218.16,95.41,218.35,95.42z
	 M195.59,141.13c0.03,0.58,0.05,1.16,0.08,1.74c0,0,0,0,0,0C195.64,142.29,195.62,141.71,195.59,141.13z M193.78,155.19
	C193.78,155.19,193.78,155.19,193.78,155.19c-0.01,1.45-0.02,2.9-0.02,4.36c-0.89,0.44-1.1,1.01-1.08,1.61
	c-0.02-0.6,0.19-1.17,1.08-1.61C193.76,158.09,193.77,156.64,193.78,155.19c-0.01-2.29-0.02-4.59-0.03-6.88
	c-0.56,1.05-1.32,2.07-1.8,3.13c0.48-1.06,1.23-2.08,1.8-3.13c0.02-0.97,0.03-1.93,0.05-2.9c0.26-0.02,0.52-0.04,0.78-0.06
	c0.04-1.79,0.08-3.57,0.12-5.36c0,0,0,0,0,0l0,0l0,0c-0.04,1.79-0.08,3.57-0.12,5.36c-0.26,0.02-0.52,0.04-0.79,0.06
	c-0.02,0.97-0.03,1.93-0.05,2.9C193.76,150.6,193.77,152.89,193.78,155.19z M191.95,194.73c-0.45,0.24-0.91,0.49-1.36,0.73l0,0
	C191.05,195.22,191.5,194.98,191.95,194.73c0.25-0.01,0.53,0.02,0.8,0.04C192.48,194.75,192.2,194.73,191.95,194.73z M191.7,197.11
	c-0.12-0.07-0.24-0.16-0.37-0.27C191.46,196.95,191.58,197.04,191.7,197.11z M191.03,196.57c-0.08-0.07-0.15-0.14-0.23-0.21
	C190.88,196.43,190.96,196.5,191.03,196.57z M194.45,191.28c0.07,0.05,0.11,0.14,0.14,0.27
	C194.56,191.42,194.51,191.33,194.45,191.28z M193.54,191.39c-0.07,0.02-0.15,0.05-0.23,0.08c-0.45,0.85-0.91,1.69-1.36,2.54l0,0
	l0,0c0.45-0.85,0.91-1.69,1.36-2.54c0,0,0,0,0,0c0,0,0,0,0,0C193.39,191.44,193.47,191.41,193.54,191.39
	c0.21-0.07,0.38-0.12,0.52-0.15C193.92,191.27,193.75,191.32,193.54,191.39z M187.89,55.49c0.14,0,0.28-0.02,0.42-0.03l0,0
	C188.17,55.48,188.03,55.49,187.89,55.49c-0.01,0.48-0.01,0.95-0.02,1.43c0,0,0,0,0,0.01c0,0,0,0,0-0.01
	C187.87,56.45,187.88,55.97,187.89,55.49z M187.86,58.73c0,0.48,0,0.97,0,1.45c0,0.42,0,0.85-0.01,1.27
	c0.01-0.42,0.01-0.85,0.01-1.27l0,0C187.86,59.7,187.86,59.21,187.86,58.73c-0.45-0.36-0.9-0.72-1.35-1.09
	C186.95,58,187.41,58.37,187.86,58.73z M202.27,80.53c0.09,1.05,0.17,2.11,0.26,3.16C202.44,82.64,202.35,81.59,202.27,80.53
	c-0.27-1.83-0.53-3.65-0.8-5.48C201.73,76.88,202,78.71,202.27,80.53z M199.67,131.98c-0.01,0.01-0.02,0.01-0.03,0.02
	C199.65,132,199.66,131.99,199.67,131.98L199.67,131.98z M199.09,132.32c-0.11,0.06-0.22,0.12-0.33,0.18
	C198.87,132.44,198.98,132.38,199.09,132.32z M197.85,129.09c-0.46,0.48-0.91,0.96-1.37,1.45c-0.45,0.46-0.9,0.93-1.35,1.39
	c0.45-0.46,0.9-0.93,1.35-1.39c-0.14-0.48-0.28-0.95-0.43-1.43c-0.18-0.5-0.36-1.01-0.54-1.51c-1.54,0.39-1.48,1.2-1.29,2.02
	c-0.19-0.82-0.24-1.63,1.29-2.02c0.32-0.58,0.63-1.17,0.95-1.75c-0.32,0.58-0.63,1.17-0.95,1.75c0.18,0.5,0.36,1.01,0.54,1.51
	c0,0,0,0,0,0c0.14,0.48,0.28,0.95,0.43,1.43C196.94,130.05,197.4,129.57,197.85,129.09c0.41,0,0.82,0,1.29,0
	C198.68,129.09,198.26,129.09,197.85,129.09z M192.68,161.17c0.01,0.15,0.02,0.29,0.05,0.44c0.03,0.15,0.06,0.3,0.09,0.45
	c-0.03-0.15-0.06-0.3-0.09-0.45C192.7,161.46,192.68,161.31,192.68,161.17z M195.41,123.17c-0.09-0.2-0.19-0.37-0.33-0.51
	C195.21,122.8,195.32,122.97,195.41,123.17c0.07,0.15,0.12,0.31,0.17,0.48c0.3,0,0.6,0,0.91,0v0c-0.3,0-0.6,0-0.91,0
	C195.53,123.48,195.47,123.31,195.41,123.17z M189.46,166.9c-0.02-0.06-0.04-0.11-0.05-0.16
	C189.42,166.78,189.44,166.84,189.46,166.9z M189.73,167.58c-0.02-0.06-0.04-0.12-0.07-0.19
	C189.69,167.45,189.71,167.52,189.73,167.58z M189.79,167.85c0,0.03,0,0.05,0,0.08c0,0,0,0,0,0
	C189.79,167.91,189.79,167.88,189.79,167.85z M189.4,166.3c-0.02,0.05-0.03,0.11-0.03,0.16C189.37,166.41,189.38,166.35,189.4,166.3
	z M189.68,168.25C189.68,168.25,189.68,168.25,189.68,168.25C189.68,168.25,189.68,168.25,189.68,168.25c-0.12,0-0.24,0-0.36,0
	C189.44,168.25,189.56,168.25,189.68,168.25z M198.79,127.99c-0.03-0.23-0.06-0.46-0.08-0.69c-0.45-0.23-0.89-0.46-1.34-0.7
	c-0.3-0.25-0.6-0.51-0.9-0.76l0,0c0.3,0.25,0.6,0.51,0.9,0.76c0.45,0.23,0.89,0.47,1.34,0.7
	C198.73,127.53,198.76,127.76,198.79,127.99c0.29,0,0.58,0.01,0.88,0.01C199.37,128,199.08,127.99,198.79,127.99z M199.21,123.65
	C199.21,123.65,199.21,123.65,199.21,123.65C199.21,123.65,199.21,123.65,199.21,123.65c0.25-0.41,0.53-0.82,0.8-1.22
	C199.74,122.83,199.46,123.24,199.21,123.65z M204.26,90.27c1.36,0.72,1.37,1.7,1.29,2.7C205.63,91.97,205.62,90.99,204.26,90.27
	c-0.05-0.6-0.1-1.19-0.14-1.79C204.17,89.08,204.22,89.68,204.26,90.27z M210.46,99.31c0-0.48,0.04-0.96,0.05-1.44c0,0,0,0,0,0
	C210.5,98.35,210.46,98.83,210.46,99.31z M205.54,95.37C205.54,95.37,205.54,95.37,205.54,95.37c0.41-0.02,0.87,0.01,1.28-0.01
	C206.41,95.39,205.95,95.35,205.54,95.37z M204.89,96.72c0.09-0.01,0.17-0.03,0.24-0.06C205.06,96.7,204.98,96.72,204.89,96.72z
	 M203.75,96.45c-0.75,0.8-1.5,1.6-2.24,2.39l0,0C202.26,98.04,203,97.24,203.75,96.45L203.75,96.45z M204.64,98.7
	c1.01,0,2.01,0,3.08,0C206.65,98.7,205.64,98.7,204.64,98.7c-0.59,0.03-1.18,0.05-1.77,0.08C203.46,98.75,204.05,98.72,204.64,98.7z
	 M207.42,102.31c0.01,0,0.01,0,0.02-0.01C207.43,102.3,207.43,102.31,207.42,102.31c-0.3,0.11-0.6,0.22-0.9,0.33
	C206.82,102.53,207.12,102.42,207.42,102.31z M207.96,102.12c0.32-0.18,0.64-0.36,0.97-0.54c0.06,0,0.11,0,0.17,0.01
	c-0.06-0.01-0.11-0.01-0.17-0.01C208.6,101.76,208.28,101.94,207.96,102.12L207.96,102.12z M206.31,94.42
	c0.26-0.07,0.5-0.14,0.67-0.23C206.81,94.28,206.56,94.35,206.31,94.42z M205.77,94.56c0.16-0.05,0.34-0.09,0.52-0.14
	C206.11,94.47,205.93,94.52,205.77,94.56z M203.61,96.06c0.04-0.24,0.07-0.47,0.11-0.71c0.11-0.73,0.22-1.47,0.33-2.2
	c-0.01-0.55-0.03-1.1-0.04-1.65c0.01,0.55,0.03,1.1,0.04,1.65c0.49,0.39,0.97,0.78,1.46,1.17c0,0.11,0.01,0.21,0.02,0.32
	c0.01,0,0.03-0.01,0.04-0.01c-0.01,0-0.03,0.01-0.04,0.01l0,0c-0.02-0.11-0.03-0.21-0.03-0.32c-0.48-0.39-0.97-0.78-1.46-1.17
	c-0.11,0.73-0.22,1.47-0.33,2.2C203.69,95.59,203.65,95.82,203.61,96.06c-1.28,0.26-2.06,0.83-2.5,1.6
	C201.56,96.89,202.33,96.32,203.61,96.06z M201.48,108.78c0.02,0.11,0.04,0.22,0.05,0.34C201.52,109,201.5,108.89,201.48,108.78
	C201.48,108.78,201.48,108.78,201.48,108.78C201.48,108.78,201.48,108.78,201.48,108.78z M205.79,85.81
	c-0.32,0.04-0.73,0.08-1.14,0.13c0,0,0,0,0,0C205.06,85.89,205.47,85.85,205.79,85.81z M201.34,75.09c0.01,0,0.03-0.01,0.05-0.01
	L201.34,75.09z M201.32,75.09c-0.13-0.05-0.3-0.11-0.47-0.17c-0.17-0.06-0.35-0.12-0.51-0.17c0.16,0.06,0.34,0.12,0.51,0.17
	C201.02,74.98,201.18,75.04,201.32,75.09L201.32,75.09z M193.52,63.8c0.11,0.73,0.52,1.06,1.07,1.16
	C194.04,64.86,193.63,64.53,193.52,63.8c-0.16-0.15-0.32-0.31-0.48-0.46C193.2,63.49,193.36,63.65,193.52,63.8z M194.59,64.96
	c0.07,0.01,0.14,0.02,0.21,0.02C194.73,64.98,194.66,64.97,194.59,64.96z M189.27,56.91c-0.02-0.28-0.05-0.56-0.07-0.84
	C189.22,56.35,189.24,56.63,189.27,56.91C189.27,56.91,189.27,56.91,189.27,56.91z M191.45,73.32c0.01,0.58,0.14,1.18,0.05,1.73
	c0.15,0.6,0.3,1.21,0.45,1.81c-0.06,0.27-0.19,0.56-0.26,0.84c0.06-0.28,0.2-0.56,0.26-0.84c-0.15-0.6-0.3-1.21-0.45-1.81
	c0,0,0,0,0,0C191.59,74.5,191.46,73.9,191.45,73.32z M200.65,99.23C200.65,99.23,200.65,99.23,200.65,99.23
	c-1.61,1.47-3.67,1.61-5.79,1.59C196.98,100.84,199.04,100.7,200.65,99.23z M187.68,177.58c0.15,0.04,0.31,0.05,0.47,0.06
	C187.99,177.63,187.83,177.62,187.68,177.58z M189.7,182.39c0.05,0.21,0.14,0.41,0.3,0.57C189.84,182.8,189.75,182.6,189.7,182.39
	c-0.03-0.14-0.04-0.29-0.04-0.44C189.66,182.11,189.67,182.25,189.7,182.39z M188.77,186.02c0.4,0.41,0.81,0.81,1.21,1.22
	C189.58,186.84,189.18,186.43,188.77,186.02L188.77,186.02z M191.04,176.95c-0.15,0.49-0.3,0.97-0.45,1.46c0,0,0,0,0,0
	C190.73,177.92,190.89,177.44,191.04,176.95c-0.3,0.12-0.6,0.25-0.9,0.37c0,0.36,0,0.73,0,1.09c-0.15,0.72-0.3,1.45-0.45,2.17
	c0.15-0.72,0.3-1.45,0.45-2.17c0-0.36,0-0.73,0-1.09c-0.68,0.16-1.36,0.33-1.96,0.32c0.6,0.01,1.28-0.16,1.96-0.32
	C190.43,177.2,190.74,177.07,191.04,176.95c0.45-0.48,0.9-0.97,1.35-1.45c-0.35-0.62-0.68-1.24-1.03-1.85
	c0.35,0.62,0.68,1.24,1.03,1.85C191.94,175.99,191.49,176.47,191.04,176.95z M201.48,116.03L201.48,116.03c0-0.12,0-0.24,0-0.37
	c-1.07,0.47-2.16,0.93-3.23,1.39c1.08-0.47,2.16-0.93,3.23-1.39c0-0.24,0-0.48,0-0.72c0,0,0,0,0,0l0,0l0,0c0,0.24,0,0.48,0,0.72
	C201.48,115.79,201.48,115.91,201.48,116.03z M211.36,97.6c0.66-0.25,1.33-0.49,1.99-0.74c0.54-0.13,1.08-0.26,1.63-0.4
	c-0.54,0.13-1.08,0.26-1.63,0.4C212.69,97.11,212.02,97.35,211.36,97.6z M201.54,71.78c-0.03-2.1,0.05-4.21-0.11-6.31
	C201.59,67.56,201.52,69.67,201.54,71.78c0.72,0,1.45,0.05,2.13-0.01C202.99,71.83,202.26,71.78,201.54,71.78z M199.18,61.1
	c0.43,2.48,0.83,4.96,1.25,7.44c0.08,1.19,0.15,2.39,0.23,3.58c0.23,0.06,0.47,0.11,0.7,0.17c-0.23-0.06-0.47-0.11-0.7-0.17
	c-0.07-1.19-0.15-2.39-0.23-3.58c-0.55,0.12-1.1,0.24-1.66,0.35c0,0.32,0,0.63,0,0.95c0-0.32,0-0.63,0-0.95
	c-1,0.42-2.01,0.84-3.01,1.25c1-0.42,2.01-0.83,3.01-1.25c0.55-0.12,1.1-0.24,1.66-0.35C200.01,66.06,199.61,63.58,199.18,61.1z
	 M194.68,55.12c-0.23,0.71-0.4,1.44-0.66,2.14C194.28,56.55,194.45,55.82,194.68,55.12c0.01-0.48,0.03-0.96,0.04-1.43l0,0
	C194.7,54.16,194.69,54.64,194.68,55.12z M189.64,55.09c-0.14-0.61-0.27-1.21-0.41-1.82c-0.18-0.34-0.35-0.69-0.53-1.03
	c-0.87-0.26-1.74-0.52-2.61-0.78c-0.95,0-1.9,0-2.64,0c0.74,0,1.69,0,2.64,0c0,0,0,0,0,0c0.87,0.26,1.74,0.52,2.61,0.78
	c0.03-1.34,0.06-2.68,0.1-4.03c-0.03,1.34-0.06,2.68-0.1,4.03c0.18,0.34,0.35,0.69,0.53,1.03c0.6-0.3,1.23-0.56,1.82-0.87
	c-0.59,0.31-1.22,0.57-1.82,0.87C189.36,53.88,189.5,54.48,189.64,55.09z M185.71,53.44c-0.25,0-0.51,0.02-0.77,0.04
	C185.2,53.45,185.46,53.44,185.71,53.44z M186.44,48.56c0.07-0.1,0.14-0.21,0.23-0.31c0.13-0.15,0.3-0.29,0.49-0.42
	c-0.19,0.13-0.35,0.27-0.49,0.42C186.58,48.36,186.5,48.46,186.44,48.56z M188.81,47.49c-0.01-0.32-0.03-0.64-0.04-0.96
	C188.78,46.85,188.8,47.17,188.81,47.49C188.81,47.49,188.81,47.49,188.81,47.49z M184.91,56.58c-0.28,0.02-0.56,0.05-0.82,0.1
	C184.36,56.63,184.63,56.6,184.91,56.58z M187.87,88.83c0.15-0.97,0.3-1.93,0.46-2.9c0.13-0.5,0.4-1,0.42-1.49
	c-0.02,0.49-0.29,0.99-0.42,1.49C188.17,86.9,188.02,87.86,187.87,88.83c0.54,1.32,1.07,2.64,1.59,3.91
	C188.94,91.46,188.4,90.15,187.87,88.83z M188.64,56.21c0.18-0.14,0.35-0.29,0.53-0.43l0,0C189,55.92,188.82,56.07,188.64,56.21
	C188.64,56.21,188.64,56.21,188.64,56.21z M192.88,100.15C192.88,100.15,192.88,100.15,192.88,100.15
	c-0.17-0.15-0.34-0.29-0.51-0.44C192.54,99.86,192.71,100,192.88,100.15z M188.77,154.83c0-0.24,0-0.48,0.01-0.72
	c0-0.31,0-0.62,0-0.94c0,0.31,0,0.63,0,0.94l0,0C188.77,154.35,188.77,154.59,188.77,154.83c-0.45,0.12-0.91,0.21-1.37,0.32
	C187.86,155.05,188.32,154.95,188.77,154.83z M187.13,168.08c-0.07-0.31-0.15-0.63-0.18-0.91c-0.35-0.06-0.69-0.15-1.03-0.26
	c0.34,0.11,0.69,0.2,1.03,0.26C186.98,167.44,187.06,167.76,187.13,168.08z M183.98,165.98c0.3,0.19,0.62,0.37,0.94,0.52
	C184.6,166.35,184.28,166.18,183.98,165.98z M195.53,148.64c0.03-0.24,0.05-0.48,0.08-0.72c0.01-0.33,0.01-0.65,0.02-0.98
	c-0.01,0.33-0.01,0.65-0.02,0.98c0.22,0.4,0.56,0.8,0.73,1.2c-0.17-0.4-0.51-0.8-0.73-1.2C195.58,148.16,195.56,148.4,195.53,148.64
	C195.53,148.64,195.53,148.64,195.53,148.64z M214.64,115.31C214.64,115.31,214.64,115.3,214.64,115.31
	C214.64,115.3,214.64,115.31,214.64,115.31L214.64,115.31z M221.76,96.76c0-0.23,0-0.46,0.01-0.68c0,0,0,0,0,0
	C221.76,96.3,221.76,96.53,221.76,96.76z M226.8,78.57C226.8,78.57,226.8,78.57,226.8,78.57C226.8,78.57,226.8,78.57,226.8,78.57z
	 M220.86,76.4c-0.19-0.06-0.34-0.16-0.45-0.27C220.52,76.24,220.67,76.34,220.86,76.4c0.19,0.06,0.42,0.1,0.71,0.11
	C221.28,76.5,221.05,76.46,220.86,76.4z M217.38,67.08L217.38,67.08l-0.01-0.01c0-0.24,0-0.48,0-0.72c0,0,0,0,0,0l0,0
	c0,0.24,0,0.48,0,0.72C217.36,67.07,217.38,67.08,217.38,67.08z M203.08,53.37c0.2-0.08,0.4-0.17,0.59-0.29
	C203.49,53.2,203.29,53.29,203.08,53.37z M199.65,53.66C199.65,53.66,199.65,53.66,199.65,53.66c0.83,0.02,1.65,0.06,2.41-0.04
	C201.3,53.71,200.48,53.68,199.65,53.66z M199.66,52.19C199.66,52.19,199.66,52.2,199.66,52.19
	C199.66,52.2,199.66,52.19,199.66,52.19c0.35-0.71,1.24-1.3,2.34-1.74c0.37-0.14,0.76-0.27,1.16-0.38c-0.4,0.11-0.79,0.24-1.16,0.38
	C200.91,50.89,200.01,51.48,199.66,52.19z M198.74,52.2c0,0-0.01,0-0.01,0C198.73,52.2,198.74,52.2,198.74,52.2
	C198.74,52.2,198.74,52.2,198.74,52.2z M198.08,52.34L198.08,52.34c-0.08,0.43-0.17,0.87-0.25,1.3c-0.11,0-0.22,0-0.33,0
	c0.11,0,0.22,0,0.33,0C197.92,53.21,198,52.78,198.08,52.34z M191.94,42.68c-0.66,0.07-1.31,0.15-1.97,0.22
	C190.62,42.83,191.28,42.76,191.94,42.68c0.42-0.22,0.82-0.51,1.23-0.75C192.75,42.17,192.35,42.46,191.94,42.68z M181.96,57.64
	L181.96,57.64c0.24-0.27,0.61-0.49,1.04-0.66c0.22-0.09,0.45-0.16,0.71-0.22c-0.25,0.06-0.49,0.13-0.71,0.22
	C182.57,57.15,182.21,57.37,181.96,57.64C181.96,57.64,181.96,57.64,181.96,57.64c-0.94-0.03-1.83,0.04-2.69,0.2
	C180.13,57.68,181.03,57.61,181.96,57.64z M190.96,96.8c0.16,0,0.32,0.01,0.49,0.01c-0.14-1.21-0.28-2.41-0.42-3.62c0,0,0,0,0,0
	c0.14,1.21,0.28,2.41,0.42,3.62C191.28,96.8,191.12,96.8,190.96,96.8C190.96,96.8,190.96,96.8,190.96,96.8z M190.84,96.78
	c-0.11-0.01-0.24-0.02-0.35-0.02C190.6,96.77,190.73,96.77,190.84,96.78z M191.97,99.37L191.97,99.37c-0.77,0-1.54,0.02-2.3,0.02
	C190.44,99.39,191.21,99.37,191.97,99.37z M188.6,99.37c0.35,0.01,0.69,0.02,1.04,0.02C189.29,99.39,188.94,99.38,188.6,99.37z
	 M187.87,134.52L187.87,134.52c-1.17,0.58-2.81,0.49-4.2-0.13C185.07,135.01,186.7,135.1,187.87,134.52z M188.92,199.91
	c0.25,0.08,0.51,0.17,0.76,0.26c0,0,0,0,0,0C189.43,200.08,189.18,199.99,188.92,199.91c-0.51-0.17-1.02-0.33-1.51-0.53
	C187.9,199.58,188.42,199.74,188.92,199.91z M197.05,172.23c0.13,2.06,0.25,4.12,0.38,6.17c0.26,0.16,0.53,0.31,0.79,0.47
	c-0.26-0.16-0.53-0.31-0.79-0.47c0,0.37-0.01,0.73-0.01,1.1c-0.31,3.02-0.62,6.03-0.94,9.05c0,0.09-0.01,0.18-0.01,0.27
	c0-0.09,0.01-0.18,0.01-0.27c0,0,0,0,0,0c0.31-3.02,0.62-6.03,0.94-9.05c0-0.37,0.01-0.73,0.01-1.1
	C197.3,176.34,197.17,174.28,197.05,172.23c-0.04-2.41-0.08-4.82-0.12-7.23c-0.3,0-0.59-0.01-0.89-0.01c0,0.12-0.01,0.24-0.01,0.36
	c0.13,1.83,0.34,3.65,0.36,5.48c0.04,4.57,0,9.14-0.01,13.71c-0.26,0.01-0.52,0.02-0.78,0.04c-0.04-0.57-0.07-1.14-0.11-1.71
	c-0.24-0.89-0.48-1.77-0.73-2.66c-0.05-1.68-0.11-3.36-0.16-5.04c-0.21,0.35-0.54,0.7-0.7,1.06c0.16-0.36,0.49-0.71,0.7-1.06
	c0.28-1.83,0.57-3.65,0.85-5.48c-0.44,0.31-0.88,0.63-1.28,0.91c0.4-0.29,0.84-0.6,1.28-0.91c0.06-1.44,0.12-2.88,0.18-4.32
	c0,0,0,0,0,0c0.13-0.01,0.26-0.01,0.39-0.02c0-0.12,0.01-0.24,0.01-0.36l0,0l0,0c0.3,0,0.59,0.01,0.89,0.01
	c-0.29-0.25-0.58-0.5-0.87-0.75c0.15-2.05,0.3-4.1,0.45-6.15c0.75,0,1.49,0,2.24,0c-0.75,0-1.49,0-2.24,0
	c-0.15,2.05-0.3,4.1-0.45,6.15c0.29,0.25,0.58,0.5,0.87,0.75C196.97,167.41,197.01,169.82,197.05,172.23
	c1.71-0.69,3.51-1.11,5.34-1.42C200.56,171.11,198.76,171.53,197.05,172.23z M205.41,170.39c-0.89,0.1-1.77,0.22-2.65,0.36
	C203.64,170.61,204.52,170.5,205.41,170.39z M206.46,131.25c0.61-0.72,1.21-1.44,1.82-2.16c-0.98,0.05-1.95,0.06-2.9-0.01
	c0.95,0.07,1.92,0.06,2.9,0.01c0,0,0.01-0.01,0.01-0.01s-0.01,0.01-0.01,0.01C207.68,129.81,207.07,130.53,206.46,131.25z
	 M205.56,125.82C205.56,125.82,205.56,125.82,205.56,125.82c0.56,0.02,1.13,0.04,1.68,0.04
	C206.69,125.86,206.12,125.84,205.56,125.82z M215.45,115.37c0.17,0.02,0.32,0.04,0.47,0.06
	C215.78,115.41,215.63,115.39,215.45,115.37z M223.26,99.34c0.29-0.03,0.62-0.15,1-0.38c-0.65-0.97-1.3-1.95-1.96-2.92
	c-0.33-0.58-0.66-1.17-0.99-1.75c-0.11,0.04-0.22,0.03-0.32-0.02c-0.11,0.04-0.22,0.05-0.34,0.04c-0.4,0.28-0.79,0.56-1.19,0.84
	c0.4-0.28,0.79-0.56,1.19-0.84c0.12,0.01,0.23,0,0.34-0.04c0.55-0.36,1.09-1,1.66-1.03c1.33-0.06,1.84-0.56,1.97-1.5
	c0-0.12,0-0.25-0.01-0.37l0,0c-0.45-0.73-0.91-1.45-1.36-2.18c0.01-1.27,0.11-2.54-0.01-3.8c-0.05-0.49-0.58-0.95-0.89-1.42
	c0-0.4,0-0.8,0-1.2c0.02-0.52,0.04-1.04,0.07-1.56h0c3.31-0.02,1.01,1.34,0.84,2.18c0.44,0.6,0.88,1.2,1.32,1.8
	c0.33,0.74,0.66,1.49,1,2.22c0.27,0.59,0.57,1.18,0.85,1.76c0,0.61,0.01,1.22,0.01,1.83c0.3,0.12,0.59,0.24,0.89,0.35
	c0.15,1.54,0.35,3.08,0.41,4.62c0.03,0.63-0.26,1.27-0.41,1.91c-0.31,0.61-0.62,1.22-0.93,1.84c0,0.11,0.01,0.22,0.01,0.33
	c-0.48,0.09-0.97,0.18-1.33,0.25c-0.3-0.49-0.57-0.92-0.83-1.34C223.88,99.19,223.55,99.31,223.26,99.34z M226.43,100.07
	L226.43,100.07L226.43,100.07C226.44,100.07,226.44,100.07,226.43,100.07z M227.23,100.11c-0.15-0.01-0.29-0.01-0.43-0.02
	C226.94,100.1,227.08,100.11,227.23,100.11z M224.18,65.25c0.19,0.43,0.44,0.85,0.63,1.27C224.62,66.1,224.36,65.68,224.18,65.25
	c0.29-0.73,0.57-1.45,0.86-2.18C224.75,63.8,224.46,64.53,224.18,65.25z M223.3,68.51c0.27,0.21,0.53,0.42,0.8,0.62
	C223.83,68.93,223.56,68.72,223.3,68.51c-0.28-0.21-0.57-0.43-0.85-0.64C222.73,68.08,223.01,68.3,223.3,68.51z M221.85,69.62
	C221.85,69.62,221.85,69.62,221.85,69.62c0.01-0.27-0.01-0.54,0.02-0.8C221.84,69.08,221.87,69.35,221.85,69.62z M218.29,65.64
	c-0.01,0.18-0.01,0.35-0.02,0.53C218.28,65.99,218.28,65.81,218.29,65.64C218.29,65.64,218.29,65.64,218.29,65.64
	c1.75-0.03,2.59-0.7,2.94-1.72C220.88,64.93,220.04,65.6,218.29,65.64L218.29,65.64z M214.62,52.15c-0.33-0.01-0.66-0.01-0.99-0.02
	C213.96,52.13,214.29,52.14,214.62,52.15L214.62,52.15z M211.01,52.92c-0.07-0.03-0.13-0.07-0.2-0.1
	C210.88,52.85,210.94,52.89,211.01,52.92c0.77,0.24,1.53,0.47,2.3,0.71C212.54,53.39,211.78,53.16,211.01,52.92z M209.8,52.2
	c-0.07,0-0.14,0.01-0.21,0.01c0,0,0,0,0,0C209.66,52.21,209.73,52.21,209.8,52.2z M203.77,49.93c0.41-0.09,0.82-0.16,1.22-0.21
	C204.59,49.76,204.18,49.84,203.77,49.93z M201.54,49.47c0.43-0.14,0.89-0.26,1.37-0.34C202.43,49.22,201.97,49.33,201.54,49.47z
	 M195.44,42.82c0.2-0.24,0.31-0.47,0.34-0.66c0.01-0.05,0.01-0.09,0.01-0.14c0,0.04,0,0.09-0.01,0.14
	C195.75,42.35,195.64,42.57,195.44,42.82L195.44,42.82z M191.3,33.77c-0.11,0.07-0.21,0.14-0.32,0.18
	C191.09,33.9,191.2,33.84,191.3,33.77c0.21-0.14,0.43-0.32,0.64-0.44c0,0,0,0,0,0C191.73,33.45,191.52,33.63,191.3,33.77z
	 M184.6,16.33c-0.32-0.02-0.64-0.03-1.02-0.05C183.96,16.3,184.28,16.32,184.6,16.33c0.03,0.15,0.06,0.31,0.09,0.46
	C184.66,16.64,184.63,16.49,184.6,16.33z M185.41,28.78c-0.11,0.08-0.23,0.15-0.36,0.21C185.18,28.93,185.3,28.86,185.41,28.78z
	 M182.88,42.05c-0.6,0-1.21,0-1.82,0l0,0C181.67,42.05,182.27,42.05,182.88,42.05c0.65,0.15,1.29,0.34,1.93,0.49
	C184.17,42.39,183.53,42.2,182.88,42.05z M181.06,42.05C181.06,42.05,181.06,42.05,181.06,42.05c0,0.24,0,0.48,0,0.72c0,0,0,0,0,0
	l0,0l0,0C181.06,42.53,181.06,42.29,181.06,42.05C181.06,42.05,181.06,42.05,181.06,42.05z M182.87,179.86c0,0.12,0,0.24,0,0.36
	C182.87,180.1,182.87,179.98,182.87,179.86c-0.3-0.48-0.6-0.97-0.91-1.45C182.27,178.89,182.57,179.38,182.87,179.86z
	 M185.94,201.15c-0.16-0.05-0.3-0.12-0.43-0.19C185.64,201.04,185.78,201.1,185.94,201.15z M187.87,202.7
	C187.87,202.7,187.87,202.7,187.87,202.7c2.11,0,4.23,0.01,6.34,0.01c0.11,0.17,0.22,0.34,0.33,0.52c-0.11-0.17-0.22-0.34-0.33-0.52
	C192.1,202.71,189.98,202.71,187.87,202.7z M209.77,125.79c-0.83,0.06-1.66,0.08-2.51,0.07
	C208.11,125.87,208.94,125.85,209.77,125.79c0.55-0.04,1.1-0.09,1.64-0.16C210.87,125.71,210.32,125.76,209.77,125.79z
	 M225.08,105.52C225.08,105.52,225.08,105.51,225.08,105.52c0.1-0.15,0.22-0.3,0.34-0.44C225.3,105.22,225.18,105.37,225.08,105.52
	L225.08,105.52c0.14,0.25,0.27,0.51,0.42,0.78C225.35,106.02,225.21,105.77,225.08,105.52z M227.78,107.68
	c0.2,0.4,0.39,0.81,0.63,1.3C228.17,108.49,227.98,108.09,227.78,107.68C227.78,107.68,227.78,107.68,227.78,107.68z M230.98,75.41
	L230.98,75.41c-0.06,0.19-0.12,0.39-0.18,0.58C230.86,75.8,230.92,75.6,230.98,75.41z M227.81,59.23c0.14-0.53,0.3-1.06,0.44-1.59
	c0,0,0,0,0,0C228.11,58.17,227.95,58.7,227.81,59.23z M227.99,57.63c0,0,0.01,0,0.01,0C228,57.63,228,57.63,227.99,57.63z
	 M213.3,52.12L213.3,52.12c-0.01,0-0.01,0-0.02,0C213.29,52.12,213.29,52.12,213.3,52.12z M197.34,49.27
	C197.34,49.27,197.34,49.27,197.34,49.27c1.41-0.34,2.81-0.7,4.21-1.04C200.15,48.57,198.75,48.93,197.34,49.27z M197.25,47.84
	c-0.22-0.39-0.43-0.78-0.65-1.17C196.82,47.06,197.04,47.45,197.25,47.84c0.02,0.39,0.05,0.79,0.07,1.18
	C197.3,48.63,197.28,48.24,197.25,47.84z M196.49,45.31c-0.23-0.55-0.46-1.1-0.7-1.65C196.03,44.21,196.26,44.76,196.49,45.31
	L196.49,45.31z M198.26,9.8c-0.27-0.26-0.55-0.52-0.83-0.79c0,0,0,0,0,0C197.71,9.28,197.98,9.54,198.26,9.8L198.26,9.8z
	 M196.95,8.31c-0.91,0.1-1.82,0.21-2.73,0.31c0.76,0.14,1.51,0.29,2.27,0.43c0,0.64,0,1.29,0,1.93c0-0.64,0-1.29,0-1.93
	c-0.76-0.14-1.51-0.29-2.27-0.43c-0.44-0.01-0.88-0.03-1.32-0.04c0.44,0.01,0.88,0.03,1.32,0.04
	C195.12,8.52,196.04,8.42,196.95,8.31c0,0,0.03-0.03,0.05-0.05C196.98,8.28,196.95,8.31,196.95,8.31c0.16,0.23,0.32,0.47,0.47,0.7
	C197.26,8.78,197.1,8.55,196.95,8.31z M175.85,41.23c-0.49-0.03-0.98-0.07-1.47-0.13C174.87,41.16,175.36,41.2,175.85,41.23
	c0.74,0.05,1.48,0.06,2.23,0.07C177.34,41.3,176.59,41.28,175.85,41.23z M180.31,41.32c0.01,0,0.01,0,0.02,0
	C180.32,41.32,180.31,41.32,180.31,41.32z M169.32,39.71c0.48,0.23,0.96,0.42,1.44,0.59C170.27,40.13,169.79,39.94,169.32,39.71z
	 M171.9,50.09c-0.86,0.71-1.73,1.43-2.59,2.14c-0.32,0.47-0.63,0.94-0.95,1.41c0.32-0.47,0.63-0.94,0.95-1.42
	C170.17,51.52,171.04,50.81,171.9,50.09z M167.41,53.62c-0.27,0.01-0.55,0.02-0.82,0.03C166.87,53.64,167.14,53.63,167.41,53.62
	c-0.01-0.77,0.31-1.25,1.03-1.38C167.72,52.37,167.4,52.85,167.41,53.62z M176.62,111.22c0.27,0.15,0.54,0.31,0.81,0.46
	c1.44,0.51,2.89,1.03,4.33,1.54c-1.44-0.51-2.89-1.03-4.33-1.54C177.16,111.52,176.89,111.37,176.62,111.22
	c-0.54-0.31-1.08-0.61-1.62-0.91C175.55,110.61,176.08,110.91,176.62,111.22z M175.28,126.81c0.09,0.02,0.19,0.04,0.29,0.06
	C175.47,126.86,175.37,126.84,175.28,126.81c-0.16-0.04-0.31-0.1-0.45-0.17C174.97,126.72,175.12,126.77,175.28,126.81z
	 M181.97,171.52L181.97,171.52c-0.66-0.13-1.33-0.25-1.99-0.39C180.64,171.26,181.3,171.39,181.97,171.52z M201.49,203.73
	c-0.52,0.18-1.03,0.37-1.55,0.56C200.45,204.1,200.97,203.91,201.49,203.73z M205.72,197.32c0.17-0.02,0.34-0.04,0.51-0.06
	C206.06,197.28,205.89,197.3,205.72,197.32z M215.75,171.27c-0.05,0.08-0.1,0.15-0.16,0.21c-0.09,0.09-0.19,0.15-0.3,0.2
	c0.11-0.05,0.21-0.11,0.3-0.2C215.64,171.42,215.7,171.35,215.75,171.27z M212.36,168.97C212.36,168.97,212.36,168.97,212.36,168.97
	c0.75,0.16,1.78-0.11,2.55,0.01C214.14,168.85,213.11,169.13,212.36,168.97z M217.36,164.26
	C217.36,164.26,217.36,164.26,217.36,164.26c-1.03,0.87-2.07,1.74-3.1,2.61C215.29,166.01,216.32,165.14,217.36,164.26z
	 M225.96,109.88c-0.38,0.07-0.81,0.09-1.21,0.14C225.15,109.97,225.58,109.94,225.96,109.88c0.01-0.37,0.02-0.73,0.03-1.1
	c0.06-0.03,0.11-0.07,0.17-0.1c-0.06,0.03-0.11,0.07-0.17,0.1C225.98,109.14,225.97,109.51,225.96,109.88
	c0.32,0.34,0.64,0.68,0.95,1.02l0,0C226.59,110.56,226.28,110.22,225.96,109.88z M232.85,109.24c0.04-0.18,0.09-0.35,0.11-0.53
	C232.94,108.88,232.89,109.06,232.85,109.24c-0.02,0.09-0.04,0.18-0.06,0.26c0.4,0.23,0.8,0.45,1.29,0.73
	c-0.5-0.28-0.89-0.51-1.29-0.73C232.81,109.41,232.83,109.32,232.85,109.24z M233.69,69.97C233.69,69.97,233.69,69.97,233.69,69.97
	c0,0.36,0.01,0.73,0.01,1.09C233.7,70.69,233.69,70.33,233.69,69.97z M222.36,56.19c-0.07-0.06-0.15-0.11-0.22-0.17
	C222.21,56.07,222.28,56.13,222.36,56.19c0.6,0,1.21,0,1.81,0C223.57,56.19,222.96,56.19,222.36,56.19z M221.91,55.84
	C221.91,55.84,221.91,55.84,221.91,55.84c0-0.73,0-1.46,0-2.2c0.07-0.22,0.14-0.45,0.21-0.67c-0.07,0.22-0.14,0.45-0.21,0.67
	C221.91,54.37,221.91,55.1,221.91,55.84z M202.31,42.82L202.31,42.82c0.62,0.7,1.23,1.4,1.85,2.11c-2.36,0.12-4.73,0.23-7.09,0.35
	c2.36-0.12,4.73-0.24,7.09-0.35C203.54,44.22,202.93,43.52,202.31,42.82z M196.48,27.18c-0.23-0.26-0.46-0.52-0.72-0.8
	C196.02,26.67,196.25,26.92,196.48,27.18C196.48,27.18,196.48,27.18,196.48,27.18L196.48,27.18z M202.16,26
	c-0.24,0.23-0.49,0.46-0.75,0.68C201.68,26.45,201.92,26.23,202.16,26z M201.48,17.38c0-0.05,0-0.11,0-0.16
	C201.48,17.27,201.48,17.32,201.48,17.38c0.45,0.62,0.89,1.24,1.34,1.86C202.38,18.62,201.93,18,201.48,17.38z M198.28,9.79
	c0.05-0.04,0.11-0.08,0.17-0.11c0,0,0,0,0,0C198.39,9.71,198.33,9.75,198.28,9.79z M191.19,7.73c-0.03,0.16-0.06,0.32-0.09,0.47
	c0.24,0.04,0.48,0.07,0.71,0.11c-0.24-0.04-0.48-0.07-0.71-0.11C191.13,8.05,191.15,7.89,191.19,7.73
	c-0.68,0.01-1.37,0.02-2.06,0.03C189.81,7.75,190.5,7.74,191.19,7.73c1.71,0.07,3.53-0.62,5.16,0.1
	C194.72,7.11,192.9,7.8,191.19,7.73z M182.49,17.69c-0.3,0.27-0.5,0.65-0.56,1.17c0,0,0,0,0,0
	C181.99,18.34,182.18,17.96,182.49,17.69z M179.68,19.2c0.04-0.01,0.07-0.01,0.11-0.02C179.75,19.19,179.72,19.19,179.68,19.2
	L179.68,19.2z M169.02,58.98c-0.21,0.01-0.42,0.03-0.62,0.08C168.6,59.01,168.81,58.99,169.02,58.98z M169.26,72.15
	c0.11-0.53,0.24-1.06,0.37-1.59C169.5,71.09,169.37,71.62,169.26,72.15c-0.31,0.38-0.62,0.76-0.92,1.14
	C168.64,72.91,168.95,72.53,169.26,72.15z M175.73,99L175.73,99c0.13-0.35,0.25-0.7,0.38-1.05C175.98,98.3,175.85,98.65,175.73,99z
	 M169.27,99.06c-0.04-0.01-0.09-0.03-0.13-0.04C169.18,99.03,169.22,99.04,169.27,99.06c0.23,0.25,0.42,0.59,0.67,0.8
	C169.69,99.65,169.5,99.3,169.27,99.06z M167.9,98.26c0.17,0.18,0.34,0.37,0.52,0.55l0,0C168.25,98.62,168.08,98.44,167.9,98.26
	L167.9,98.26z M178.67,170.84c-0.43-0.1-0.87-0.21-1.29-0.32C177.8,170.63,178.23,170.74,178.67,170.84z M197.41,205.24
	C197.41,205.24,197.41,205.24,197.41,205.24c-0.61,0-1.22,0-1.83,0C196.19,205.24,196.8,205.24,197.41,205.24z M196.49,206.7
	L196.49,206.7c-0.08,0.08-0.18,0.16-0.28,0.24C196.31,206.86,196.4,206.78,196.49,206.7z M204.2,210.32
	c0.61-0.06,1.21-0.12,1.82-0.18C205.41,210.2,204.81,210.26,204.2,210.32L204.2,210.32z M206.47,211.05c0,0.75-0.07,1.5-0.1,2.24
	C206.4,212.55,206.46,211.8,206.47,211.05c-0.3,0-0.6,0-0.91,0C205.86,211.05,206.16,211.05,206.47,211.05z M206.36,213.33
	c-0.03,0.75-0.04,1.5,0.09,2.23C206.32,214.83,206.33,214.08,206.36,213.33z M210.09,212.86c-0.41,0.07-0.83,0.15-1.27,0.22
	C209.26,213.01,209.68,212.94,210.09,212.86L210.09,212.86z M211.84,208.03c-0.2-0.14-0.44-0.25-0.74-0.34
	c-0.39-0.12-0.88-0.21-1.46-0.26v0c-0.15,0-0.3-0.01-0.44-0.01c0.01-0.53,0.05-0.94,0.45-1.15c-0.4,0.21-0.44,0.62-0.45,1.15
	c0.15,0,0.3,0,0.44,0.01c0.58,0.05,1.06,0.13,1.46,0.26C211.4,207.77,211.64,207.89,211.84,208.03c0.13,0.09,0.24,0.19,0.33,0.31
	C212.08,208.22,211.97,208.12,211.84,208.03z M215.93,170.83c0.03-0.12,0.06-0.25,0.07-0.4c0,0,0,0,0,0l0,0l0,0
	C215.98,170.58,215.96,170.71,215.93,170.83z M224.19,115.66C224.19,115.66,224.19,115.66,224.19,115.66
	c-0.88,0.84-1.77,1.68-2.65,2.52C222.42,117.35,223.31,116.51,224.19,115.66z M222.8,52.89c-0.15-0.23-0.3-0.46-0.45-0.69
	c0,0,0,0,0,0C222.5,52.43,222.65,52.66,222.8,52.89z M201.51,34.81c1.65,0.36,3.31,0.73,4.96,1.09c0.59,0,1.19-0.01,1.78-0.01
	c0.46,0.23,0.92,0.46,1.38,0.69c0.29,0.02,0.58,0.04,0.87,0.06c0,0,0,0,0,0c0.81,0.41,1.56,1.01,2.45,1.21
	c3.22,0.7,4.09,2.68,4.52,4.95c0.22-0.48,0.69-1.02,0.71-1.46c-0.02,0.45-0.49,0.98-0.71,1.46c0,0.23,0.01,0.46,0.01,0.69
	c-0.33,0.1-0.67,0.21-1,0.31c0,0,0,0,0,0c-0.3,0.15-0.6,0.29-0.9,0.44c-1.1,0.28-2.23,0.82-3.28,0.74
	c-0.57-0.04-1.02-1.14-1.26-1.44c1.05-0.69,1.67-1.1,2.29-1.51l-0.08,0.01c-0.31-0.23-0.61-0.46-0.92-0.69c-0.58,0-1.15,0-1.73,0.01
	c-1.36,0.98-5.16,0.97-6.42-0.01c0,0-0.03-0.02-0.03-0.02c-0.9-0.49-1.8-0.99-2.7-1.48c0.08,0.27,0.16,0.54,0.24,0.82
	c-0.08-0.27-0.16-0.54-0.24-0.82c-0.03-0.61-0.06-1.22-0.09-1.84c-0.35,0.11-0.91,0.2-1.18,0.32c0.28-0.12,0.83-0.21,1.18-0.32
	c0.05-0.23,0.09-0.46,0.14-0.69C201.5,36.5,201.51,35.65,201.51,34.81c0.04-0.55-0.03-1-0.4-1.26
	C201.48,33.81,201.55,34.26,201.51,34.81z M200.97,33.47c-0.06-0.03-0.13-0.06-0.21-0.08C200.83,33.41,200.9,33.44,200.97,33.47z
	 M201.43,13.82C201.43,13.82,201.43,13.82,201.43,13.82c0.12-0.02,0.25-0.03,0.37-0.03C201.67,13.79,201.55,13.8,201.43,13.82z
	 M181.01,10.43c0.02-0.07,0.03-0.13,0.05-0.2C181.04,10.3,181.03,10.36,181.01,10.43c-0.57,0.79-1.16,1.57-1.72,2.36
	C179.85,12,180.44,11.22,181.01,10.43z M180.33,31.51c-0.34-0.06-0.68-0.11-1.02-0.17c0,0,0,0,0,0
	C179.65,31.4,179.99,31.45,180.33,31.51z M164.63,33.19c-0.03,0.02-0.06,0.06-0.09,0.09C164.57,33.24,164.6,33.21,164.63,33.19z
	 M164.49,33.32c-0.09,0.11-0.18,0.24-0.25,0.41c0,0,0,0,0,0C164.31,33.57,164.4,33.43,164.49,33.32z M163.61,57.62
	c0.08,0,0.15,0,0.23,0.01c0.15,0.01,0.29,0.02,0.42,0.04c0.66,0.11,1.1,0.46,0.92,1.42l0,0c0.3,0.36,0.6,0.73,0.9,1.09l0,0
	c0.3,0,0.6,0,0.9,0l0,0c0.2-0.47,0.5-0.76,0.85-0.94c-0.35,0.18-0.64,0.46-0.85,0.94c0,0,0,0,0,0c-0.3,0-0.6,0-0.9,0c0,0,0,0,0,0
	c-0.3-0.36-0.6-0.73-0.9-1.09c0,0,0,0,0,0c0.18-0.96-0.26-1.31-0.92-1.42c-0.13-0.02-0.28-0.04-0.42-0.04
	C163.76,57.62,163.69,57.62,163.61,57.62z M166.53,64.17c-0.33-0.01-0.65-0.03-1.02-0.05C165.87,64.14,166.2,64.16,166.53,64.17
	c0,0.24,0,0.48,0,0.72C166.53,64.65,166.53,64.41,166.53,64.17z M166.51,78.68C166.51,78.68,166.51,78.68,166.51,78.68
	c0.16-1.21,0.32-2.42,0.47-3.63c-0.16-0.63-0.38-1.26-0.54-1.9c0.16,0.63,0.38,1.26,0.54,1.9
	C166.83,76.26,166.67,77.47,166.51,78.68c0,0.6,0,1.2-0.01,1.8c0,0,0,0,0,0C166.51,79.88,166.51,79.28,166.51,78.68z M166.06,86.63
	c-0.01-0.23-0.02-0.46-0.02-0.68c0,0,0,0,0,0c0.23-0.48,0.56-0.96,0.76-1.44c-0.19,0.49-0.52,0.96-0.76,1.44
	C166.04,86.17,166.05,86.4,166.06,86.63c-0.29,0.34-0.59,0.68-0.87,1.03C165.47,87.31,165.77,86.97,166.06,86.63z M170.58,147.25
	c0.02,0.72,0.03,1.44,0.05,2.15c0,0,0,0,0,0C170.61,148.69,170.6,147.97,170.58,147.25z M171.06,149.76
	c0.01,0.01,0.02,0.02,0.03,0.03C171.08,149.78,171.07,149.77,171.06,149.76z M177.9,193.27c0.25,0.19,0.62,0.37,0.87,0.57
	C178.52,193.65,178.15,193.46,177.9,193.27c-0.1-0.03-0.2-0.07-0.3-0.1C177.7,193.21,177.8,193.24,177.9,193.27z M182.85,218.29
	C182.85,218.29,182.85,218.29,182.85,218.29c0.32-0.48,0.63-0.96,0.94-1.43c0.16-0.07,0.39-0.13,0.55-0.2
	c-0.16,0.07-0.4,0.13-0.55,0.2C183.48,217.33,183.17,217.81,182.85,218.29c0.35,0.91,1.12,1.64,2.08,2.11
	C183.97,219.93,183.2,219.2,182.85,218.29z M185.53,220.65c0.56,0.2,1.17,0.32,1.78,0.34C186.7,220.97,186.09,220.85,185.53,220.65z
	 M198.33,216.49c0-0.24,0-0.48,0-0.72c0.47-0.24,0.96-0.45,1.44-0.68c-0.48,0.23-0.98,0.44-1.44,0.68
	C198.33,216.01,198.33,216.25,198.33,216.49c0.24,0.12,0.48,0.23,0.71,0.35C198.8,216.72,198.57,216.6,198.33,216.49z
	 M201.48,220.84c0.39,0,0.79,0.02,1.18,0.03c0.26,0.01,0.52,0.01,0.78,0c0.25,0,0.49-0.02,0.73-0.04c-0.24,0.02-0.49,0.03-0.73,0.04
	c-0.26,0-0.52,0-0.78,0C202.27,220.86,201.87,220.84,201.48,220.84c-0.3-0.24-0.61-0.48-0.91-0.73
	C200.88,220.35,201.18,220.6,201.48,220.84z M211.24,216.81c-0.42-0.62-0.61-1.35-0.67-2.14c0,0,0,0,0,0
	C210.63,215.46,210.82,216.19,211.24,216.81z M212.82,201.98L212.82,201.98c-1.52,0.11-3.04,0.23-4.55,0.34
	c-0.25,0.01-0.5,0.02-0.74,0.03c0.24-0.02,0.49-0.03,0.74-0.03c0,0,0,0,0,0C209.79,202.21,211.3,202.1,212.82,201.98
	c0.33-0.08,0.66-0.19,0.98-0.28C213.48,201.8,213.15,201.9,212.82,201.98z M216.91,170.43c-0.3,0-0.6,0-0.9,0
	C216.3,170.43,216.61,170.43,216.91,170.43c0.3,0.6,0.61,1.21,0.91,1.81C217.51,171.64,217.21,171.04,216.91,170.43z M219.21,149.44
	c0.01,0.46,0.02,0.93,0.03,1.39c0,0,0,0,0,0c-0.32,0.45-0.74,0.87-0.95,1.35c0.21-0.48,0.63-0.9,0.95-1.35
	C219.23,150.37,219.22,149.9,219.21,149.44c0.29-0.46,0.58-0.91,0.87-1.37C219.79,148.52,219.5,148.98,219.21,149.44z
	 M221.61,133.13c0.19-0.39,0.55-0.77,0.78-1.16c0,0,0,0,0,0C222.15,132.37,221.79,132.74,221.61,133.13z M220.99,123.29
	L220.99,123.29c0.75,0.12,1.5,0.25,2.25,0.37c0,0,0,0,0,0c0,0,0,0,0,0C222.49,123.53,221.74,123.41,220.99,123.29z M223.96,119.52
	c0.35-1.16,0.76-2.31,1.13-3.46c0.74-0.09,1.49-0.18,2.34-0.28c-0.85,0.1-1.59,0.19-2.34,0.28
	C224.72,117.21,224.31,118.36,223.96,119.52z M230.99,112.05c0,2.06,0.02,4.12-0.02,6.18C231,116.17,230.98,114.11,230.99,112.05
	c0.59,0,1.18-0.01,1.77-0.01C232.17,112.04,231.58,112.05,230.99,112.05z M235.2,108c0.02,0.1,0.07,0.19,0.14,0.26
	C235.26,108.18,235.21,108.1,235.2,108z M236.86,103.69C236.86,103.69,236.86,103.69,236.86,103.69c0-0.48,0.01-0.96,0.01-1.44
	c-0.93-0.69-1.4-1.61-1.4-2.44c0,0.83,0.46,1.75,1.4,2.44v0C236.87,102.73,236.87,103.21,236.86,103.69L236.86,103.69L236.86,103.69
	z M237.45,90.97c0.1-0.11,0.22-0.21,0.35-0.29C237.67,90.76,237.55,90.86,237.45,90.97z M240.5,90.28c-0.4-0.02-0.81-0.02-1.19,0
	c-0.19,0.01-0.38,0.03-0.56,0.07c-0.18,0.03-0.35,0.07-0.51,0.13c0.16-0.05,0.33-0.1,0.51-0.13c0.18-0.03,0.37-0.05,0.56-0.07
	C239.7,90.26,240.1,90.26,240.5,90.28c0.33-0.19,0.66-0.38,0.99-0.57C241.16,89.9,240.83,90.09,240.5,90.28z"/>
<path class="st1" d="M323.48,59.78c0.23-0.38,0.35-0.82,0.53-1.23c0.63-2.19,1.25-4.37,1.88-6.56c-0.58-0.01-1.16-0.01-1.74-0.02
	c-0.01,0.25-0.02,0.5-0.04,0.75c-0.14,0.78-0.28,1.57-0.43,2.35c0.14-0.78,0.28-1.57,0.43-2.35c0.01-0.25,0.02-0.5,0.04-0.75
	c-0.16-1.31-0.31-2.62-0.47-3.93c0,0,0.01,0.01,0.01,0.01c0.35-0.4,0.69-0.79,1.03-1.19c-0.34,0.4-0.69,0.79-1.03,1.19l-0.01-0.01
	c0.16,1.31,0.31,2.62,0.47,3.93c0.58,0.01,1.16,0.01,1.74,0.02c0.81-1.22,2.37-2.2,1.54-3.95c0.67-2.12-1.17-3.61-1.63-5.45
	c-0.7-0.52-1.39-1.05-2.09-1.57c-1.3-1.9-3.43-1.95-5.53-2.03c-0.22-0.22-0.41-0.59-0.67-0.63c-1.91-0.31-3.82-0.58-5.75-0.79
	c-0.42-0.05-0.89,0.22-1.34,0.34c-0.43-0.25-0.86-0.49-1.28-0.74c-0.56,0.12-1.12,0.23-1.67,0.35c-0.01,0-0.03,0-0.04,0
	c0.01,0,0.03,0,0.04,0c0-0.14,0.01-0.27,0.01-0.41c0.06-0.43-0.03-0.95,0.21-1.26c2.19-2.82,4.43-5.61,6.66-8.41
	c-0.16-0.01-0.32-0.02-0.47-0.03c-0.99,0.94-1.98,1.88-2.98,2.81c1-0.93,1.99-1.87,2.98-2.81c0.16,0.01,0.32,0.02,0.47,0.03
	c1.25-1.21,2.5-2.43,3.75-3.64c0.25-0.28,0.78-0.68,0.71-0.81c-0.25-0.47-1-1.25-1.05-1.22c-1,0.6-2.87-0.01-3.05,1.73
	c-0.77,0.28-1.62,0.45-2.3,0.84c-3.16,1.83-6.28,3.72-9.4,5.62c-0.31,0.19-0.46,0.61-0.68,0.92c0.44,0,0.87,0,1.31,0.01
	c0.27,0,0.54,0,0.8,0.01c-0.27,0-0.54,0-0.81-0.01c-0.44,0-0.87,0-1.31-0.01c-0.14,0-0.28,0.03-0.41,0.09
	c-0.27-0.03-0.55-0.05-0.82-0.08c-0.28,0.02-0.56,0.03-0.85,0.05c0.28-0.02,0.56-0.03,0.85-0.05c-0.04-0.26-0.08-0.52-0.11-0.78
	c-0.03-2.16,2.05-3.75,1.33-6.33c-0.65-2.35,0.46-5.06,0.45-7.61c0-2.08-0.45-4.18-2.49-5.59c-0.48-0.5-0.95-0.99-1.43-1.49
	c-0.26-0.17-0.52-0.33-0.78-0.5c-0.28-0.24-0.56-0.48-0.85-0.72c0,0,0,0,0,0c-0.31-0.2-0.62-0.4-0.92-0.6
	c-2.52-1.37-5.16-1.94-8.18-1.86c-3.99,0.11-8.15,2.04-9.89,5.28c-0.22,0.25-0.43,0.51-0.65,0.76c0,0,0,0,0,0c0,0,0,0,0,0v0
	c-0.26,0.5-0.52,1-0.78,1.5c-0.05,0.25-0.09,0.5-0.14,0.75c-0.26,0.69-0.78,1.4-0.73,2.07c0.18,2.19,0.57,4.36,0.87,6.54
	c-0.01,1.43-0.03,2.86-0.04,4.28c0.41,1.58,0.82,3.16,1.24,4.73c-1.03-0.5-2.06-0.99-3.09-1.49c0,0,0,0,0,0c0,0,0,0,0,0
	c-1.67-1.75-3.33-3.5-5-5.26c-0.13-0.03-0.26-0.06-0.39-0.09c0.02-0.08,0-0.15-0.05-0.21c-1.21-0.91-2.4-1.86-3.68-2.68
	c-0.09-0.06-1.21,0.76-1.3,1.25c-0.26,1.52,2.41,5.17,4.11,5.89c0.56,0.99,1.11,1.99,1.67,2.98c0,0,0,0,0,0
	c0.32,0.77,0.64,1.53,0.96,2.3c0.4-0.02,0.81-0.03,1.22-0.05c0,0,0,0,0,0c-0.41,0.02-0.81,0.03-1.22,0.05
	c0.55,0.78,1.07,1.58,1.67,2.33c0.33,0.41,0.79,0.75,1.19,1.11c-0.71,0.22-1.46,0.36-2.13,0.66c-1.74,0.79-3.32,1.93-5.47,0.74
	c-0.59-0.33-1.71,0.13-2.58,0.23c0.15,0.26,0.29,0.51,0.44,0.77c0,0,0,0,0,0c-0.15-0.26-0.29-0.51-0.44-0.77
	c-1.04,0.35-2.26,0.49-3.09,1.09c-1.01,0.73-3.23,0.33-2.91,2.4c0,0,0,0,0,0c-0.28,0.26-0.57,0.52-0.85,0.78
	c-0.14,0.39-0.29,0.77-0.43,1.16c-2.6,1.72-2.9,4.08-0.88,7.03c0.01,0.71-0.14,1.45,0.07,2.11c0.45,1.44,1.09,2.83,1.65,4.24
	c-0.03,0.09-0.02,0.18,0.01,0.27c0.99,1.18,1.98,2.35,2.98,3.53c0.06,0.65,0.11,1.31,0.16,1.96c0.02,0.5,0.04,1,0.06,1.49
	c0.2,0.3,0.4,0.6,0.6,0.9c-0.14,2.12,0.75,3.79,2.58,5.06c0.02-0.27,0.03-0.54,0.05-0.81c-0.02,0.27-0.03,0.54-0.05,0.81
	c0,0.87,0.01,1.74,0.01,2.61c-1.65,1.51-0.54,3.29-0.57,4.96c0.22,0.84,0.44,1.68,0.66,2.52c0,0,0,0,0,0
	c-0.22-0.84-0.44-1.68-0.65-2.52c-0.11,3.93-0.21,7.86-0.31,11.79c-0.13,0.81-0.25,1.61-0.38,2.42c0.02,0.12,0.03,0.25,0.04,0.37
	c0.56,0.4,1.13,0.81,1.69,1.21c-0.56-0.4-1.13-0.81-1.69-1.21c-0.82,1.34,0.12,1.51,1.24,1.56c0.27,1.02,0.55,2.05,0.82,3.07
	c0.16,0.41,0.31,0.81,0.47,1.22c-0.16-0.41-0.31-0.81-0.47-1.22c-1.52,2.69-3.17,5.33-4.52,8.1c-1.11,2.26-0.65,4.49,1.12,6.43
	c1.21,2.38,1.49,4.88,1.38,7.48c-0.06,1.53,0.11,3.09,0.4,4.6c0.18,0.95,0.78,1.84,1.19,2.75c0.16-0.67,0.31-1.34,0.47-2.01
	c-0.01-0.64-0.01-1.28-0.02-1.92c-0.21-0.17-0.43-0.34-0.64-0.51c0.21,0.17,0.43,0.34,0.64,0.51c0.01,0.64,0.01,1.28,0.02,1.92
	c-0.16,0.67-0.31,1.34-0.47,2.01c-0.46,3.34-0.2,6.6,1.37,9.7c-0.1,1.09-0.39,2.2-0.26,3.26c0.74,5.78,1.59,11.56,2.42,17.33
	c0.04,0.3,0.26,0.58,0.36,0.89c0.34,1.05,0.62,2.11,1.01,3.14c0.48,1.28,1.04,2.54,1.57,3.81c0.28,0,0.56,0,0.85,0
	c-0.28,0-0.56,0-0.85,0c-0.02,0.12-0.04,0.24-0.06,0.36c-0.1,2.04-0.44,4.11-0.24,6.12c0.34,3.45,1.02,6.87,1.56,10.3
	c0.18,0.91,0.36,1.83,0.54,2.74c0,0,0,0,0,0c0.1,1.69,0.19,3.38,0.29,5.07c0.29,0.4,0.57,0.8,0.86,1.2
	c0.01-0.41,0.02-0.82,0.03-1.22c0.16-0.11,0.31-0.21,0.44-0.33c0.13-0.11,0.24-0.23,0.34-0.35c0.1-0.12,0.18-0.24,0.25-0.37
	c-0.07,0.13-0.15,0.25-0.25,0.37c-0.1,0.12-0.21,0.23-0.34,0.35c-0.13,0.11-0.28,0.22-0.44,0.33c-0.01,0.41-0.02,0.82-0.03,1.22
	c0.2,1.7,0.38,3.41,0.63,5.1c0.04,0.25,0.45,0.46,0.69,0.68c0.43,0.79,0.86,1.57,1.29,2.36c0,0,0,0,0,0
	c0.13,0.26,0.26,0.52,0.38,0.78c0,0.12,0,0.24,0,0.36c0.16,0.48,0.34,0.95,0.49,1.44c0.58,1.93,1.94,3.74,0.13,5.84
	c-1.16,1.34-0.25,2.79,0.71,4.04c0.14,0.01,0.27,0.01,0.41,0.01c0.14,0.39,0.28,0.79,0.42,1.18c0.59,0.09,1.18,0.18,1.77,0.27
	c0.54,0.03,1.09,0.07,1.63,0.1c0.01-0.14,0.02-0.28,0.02-0.42c-0.01,0.14-0.02,0.28-0.02,0.42v0c-0.54-0.03-1.09-0.06-1.63-0.1
	c-0.78,1.72-1.61,3.43-2.32,5.18c-0.35,0.87-0.49,1.82-0.72,2.73c-0.08,1.24-0.34,2.72,1.54,2.9c3,0.29,6.03,0.43,9.05,0.44
	c4.02,0.01,8.04-0.08,12.05-0.27c2.69-0.13,5.36-0.52,8.04-0.8c0.26-0.32,0.69-0.62,0.74-0.96c0.07-0.53-0.12-1.09-0.2-1.64
	c-0.02-0.89,0.2-1.87-0.12-2.66c-0.52-1.28-1.39-2.44-2.11-3.65c0,0,0,0,0,0c0.03-0.23,0.05-0.47,0.08-0.7
	c0.43-0.4,0.86-0.8,1.3-1.2c0.72-0.77,1.43-1.55,2.15-2.32c0.53-0.8,1.05-1.61,1.57-2.41c0.99-2.53,2.83-4.98,0.84-7.77
	c-0.11-0.01-0.24,0.02-0.33,0c0.1,0.02,0.23-0.01,0.33,0c-0.03-1.42-0.07-2.85-0.1-4.27c-0.2-0.3-0.4-0.6-0.6-0.91
	c-0.05-1.13-0.09-2.27-0.14-3.4c0.3-1.43,0.6-2.87,0.9-4.3c0.7-2.6,1.41-5.21,2.11-7.81c-0.21-0.36-0.52-0.72-0.69-1.09
	c0.16,0.37,0.48,0.73,0.69,1.09c0.13-1.81,0.27-3.62,0.4-5.43c0.08-2.43,0.15-4.85,0.23-7.28c-0.2-0.83-0.4-1.65-0.6-2.48
	c0,0,0,0,0,0c0.2,0.83,0.4,1.65,0.6,2.48c0.23-2.89,0.48-5.78,0.69-8.67c0.16-2.21,0.26-4.43,0.38-6.64
	c0.17-0.52,0.33-1.03,0.5-1.55c0.4-1.07,0.96-2.12,1.17-3.23c0.49-2.51,0.82-5.05,1.19-7.57c0.66-4.58,1.31-9.15,1.96-13.73
	c1.26-1.22,1.25-2.43-0.01-3.64c0-0.22,0-0.43,0.01-0.65c0.24-0.42,0.47-0.84,0.71-1.26c0.02-0.7,0.02-1.41,0.08-2.11
	c0.11-1.31-0.15-2.83,0.49-3.89c0.95-1.59,1.34-3.15,1.27-4.88c0.81-2.38,0.18-4.55-1.13-6.63c-0.32-0.51-0.38-1.15-0.72-1.64
	c-1-1.44-2.07-2.82-3.11-4.23c0.02,0.25,0.04,0.49,0.06,0.74c0.19,0.54,0.38,1.08,0.57,1.62v0c-0.38,0.05-0.76,0.1-1.14,0.14
	c0.38-0.05,0.76-0.1,1.14-0.14c-0.19-0.54-0.38-1.08-0.57-1.62c-0.02-0.25-0.04-0.49-0.06-0.74c-0.05-0.51-0.09-1.03-0.14-1.54
	c0.13-0.25,0.25-0.49,0.38-0.74c-0.22-0.19-0.44-0.38-0.66-0.57c0,0,0,0,0,0c0.22,0.19,0.44,0.38,0.66,0.57
	c3.36-0.65,3.93-1.8,2.21-4.5c-0.14-0.22-0.32-0.41-0.48-0.61c-0.33-3.37-0.74-6.74-0.97-10.12c-0.15-2.22-0.24-4.47-0.02-6.67
	c0.28-2.86,0.9-5.69,1.38-8.53c-0.29,0.13-0.57,0.26-0.86,0.39c0.29-0.13,0.57-0.26,0.86-0.39
	C321.91,62.36,322.72,61.08,323.48,59.78z M316.42,90.93c-0.14,0-0.28,0-0.43,0C316.13,90.93,316.27,90.93,316.42,90.93
	c0.34-0.34,0.68-0.68,1.01-1.02C317.09,90.25,316.75,90.59,316.42,90.93z M310.01,102.24c0.59-0.15,1.18-0.3,1.77-0.45
	C311.19,101.94,310.6,102.09,310.01,102.24c-0.08,0.89-0.82,2.01-1.74,2.89C309.19,104.25,309.93,103.13,310.01,102.24
	c-0.35-0.04-0.7-0.08-1.05-0.12c0,0,0,0,0,0C309.31,102.16,309.66,102.2,310.01,102.24z M266.86,98.81
	c0.01,0.24,0.01,0.48,0.02,0.72c0.57,0.16,1.13,0.32,1.7,0.48c0.56,1.09,1.11,2.15,2.42,2.31c-1.31-0.16-1.86-1.22-2.42-2.31
	c-0.57-0.16-1.13-0.32-1.7-0.48l0,0C266.87,99.29,266.87,99.05,266.86,98.81z M275.82,37.91C275.82,37.91,275.82,37.91,275.82,37.91
	c0.01-1.17,0.02-2.35,0.03-3.52c-0.38-0.44-0.79-0.86-1.16-1.3c0.37,0.44,0.78,0.87,1.16,1.3c0.96,0.81,1.96,1.58,2.9,2.41
	c-0.94-0.83-1.94-1.6-2.9-2.41C275.84,35.57,275.83,36.74,275.82,37.91c0,0.39,0,0.79,0.01,1.18c0.02,0.77,0.05,1.54,0.07,2.31
	c0.15,0.08,0.3,0.16,0.45,0.24c-0.15-0.08-0.3-0.16-0.45-0.24c-0.03,0.26-0.05,0.52-0.08,0.78c-0.94,0.1-1.47,0.47-1.64,1.15
	c0.17-0.68,0.7-1.04,1.64-1.15c0.03-0.26,0.05-0.52,0.08-0.78c-0.02-0.77-0.05-1.54-0.07-2.31c0,0,0,0,0,0
	C275.82,38.7,275.82,38.31,275.82,37.91z M273.28,30.12L273.28,30.12c0,0.26,0,0.52-0.01,0.77
	C273.28,30.64,273.28,30.38,273.28,30.12z M283.48,8.94c-0.59,0.37-1.18,0.74-1.77,1.11c0.61,0.05,1.21,0.11,1.82,0.16
	c1.71-0.4,3.43-0.79,5.14-1.19c-0.16-0.16-0.32-0.32-0.48-0.48c-0.97,0.02-1.94,0.04-2.91,0.06c0.97-0.02,1.94-0.04,2.91-0.06
	c0.57-0.81,1.11-0.81,1.64-0.43c0.09,0.06,0.18,0.14,0.26,0.22c-0.09-0.08-0.17-0.16-0.26-0.22c-0.53-0.38-1.07-0.38-1.64,0.43
	c0.16,0.16,0.32,0.32,0.48,0.48c0.55-0.01,1.11-0.01,1.66-0.02c0,0,0,0,0,0c1.02,0.39,2.05,0.79,3.07,1.18
	c-1.02-0.39-2.05-0.79-3.07-1.18c-0.55,0.01-1.11,0.01-1.66,0.02c-1.71,0.4-3.43,0.79-5.14,1.19c-0.61-0.05-1.21-0.11-1.82-0.16
	C282.3,9.69,282.89,9.31,283.48,8.94c0.39-0.7,0.74-1.55,1.46-0.77C284.22,7.4,283.87,8.24,283.48,8.94z M317.3,115.84
	c0.01-0.05,0.01-0.11,0.01-0.16C317.31,115.74,317.31,115.79,317.3,115.84z M314.61,127.57c0.64-0.08,1.1-0.4,0.96-1.55
	c0.28,0,0.56-0.01,0.84-0.01c-0.28,0-0.56,0.01-0.84,0.01C315.71,127.18,315.25,127.5,314.61,127.57z M303.99,208.26
	c0.13,0.01,0.27,0.01,0.41,0.01C304.26,208.27,304.12,208.27,303.99,208.26z M266.62,125.73c0.09,0.04,0.19,0.1,0.27,0.12
	C266.81,125.84,266.71,125.77,266.62,125.73C266.62,125.73,266.62,125.73,266.62,125.73z M267.73,88.59c0,0.13,0,0.26,0,0.39
	c0.02,0.09,0.04,0.19,0.05,0.28c-0.02-0.09-0.03-0.19-0.05-0.28C267.73,88.85,267.73,88.72,267.73,88.59
	c-0.6-0.13-0.99-0.36-1.24-0.65C266.74,88.23,267.13,88.46,267.73,88.59z M271.56,49.12c-0.15-0.12-0.29-0.34-0.41-0.68l0,0
	C271.27,48.78,271.41,49,271.56,49.12z M292.49,15.67c0.84,0.03,1.68,0.06,2.53,0.08c0.73-0.02,1.46-0.03,2.19-0.05
	c0.29-0.66,0.57-1.31,0.86-1.97l0,0c-0.29,0.66-0.57,1.31-0.86,1.97c0,0,0,0,0,0c-0.73,0.02-1.46,0.03-2.19,0.05c0,0,0,0,0,0
	C294.17,15.73,293.33,15.7,292.49,15.67C292.49,15.67,292.49,15.67,292.49,15.67z M310.01,43.37c0.36-0.12,0.71-0.22,1.03-0.25
	c0.06-0.01,0.13-0.01,0.19-0.01c-0.06,0-0.13,0-0.19,0.01C310.72,43.15,310.37,43.24,310.01,43.37
	C310.01,43.37,310.01,43.37,310.01,43.37z M301.47,110.03c-0.38,0.15-0.75,0.3-1.12,0.45C300.72,110.33,301.09,110.18,301.47,110.03
	c0.43-0.39,0.86-0.78,1.28-1.17C302.32,109.25,301.89,109.64,301.47,110.03z M312.58,127.58c0,0.26,0,0.52-0.01,0.77
	C312.58,128.1,312.58,127.84,312.58,127.58c0.14,0,0.28,0,0.42-0.01C312.86,127.58,312.72,127.58,312.58,127.58z M297.2,204.39
	c-0.28,0.51-0.57,1.02-0.85,1.54C296.64,205.41,296.92,204.9,297.2,204.39c0.33,0,0.65-0.01,0.98-0.01
	C297.86,204.38,297.53,204.39,297.2,204.39z M279.67,43.38c2.85-0.12,5.51,1.55,5.55,3.48c-1.27,0.01-2.55,0.02-3.82,0.03
	c1.27-0.01,2.54-0.02,3.82-0.03C285.17,44.92,282.52,43.26,279.67,43.38C279.67,43.38,279.67,43.38,279.67,43.38z M294.63,26.36
	c-0.01-0.17-0.02-0.35-0.03-0.52c-0.36,0-0.72-0.01-1.09-0.01c0.36,0,0.72,0.01,1.09,0.01C294.62,26.01,294.63,26.18,294.63,26.36z
	 M292.88,21.59c-0.36,0.34-0.45,0.91-0.4,1.53c0,0,0,0,0,0C292.43,22.5,292.53,21.93,292.88,21.59z M293.38,21.31
	c0.12-0.03,0.25-0.05,0.39-0.06C293.63,21.26,293.5,21.28,293.38,21.31z M293.01,21.49c0.06-0.04,0.13-0.08,0.2-0.12
	C293.14,21.4,293.07,21.44,293.01,21.49z M289.69,26.35c0.09,0.11,0.2,0.21,0.31,0.31C289.89,26.56,289.78,26.46,289.69,26.35z
	 M290.15,26.79c0.05,0.04,0.09,0.08,0.14,0.13C290.24,26.87,290.19,26.83,290.15,26.79z M289.62,26.26
	c-0.09-0.14-0.14-0.28-0.1-0.43c0.05,0,0.09,0,0.14-0.01c-0.05,0-0.09,0-0.14,0.01C289.48,25.98,289.53,26.13,289.62,26.26z
	 M289.87,23.94c0.05,0,0.11-0.01,0.16-0.02C289.97,23.93,289.92,23.93,289.87,23.94z M286.11,23.11c0.28,0,0.56,0,0.84-0.01l0,0
	C286.67,23.1,286.39,23.1,286.11,23.11z M282.58,23.92c-0.05-0.12-0.1-0.24-0.15-0.36C282.48,23.68,282.53,23.8,282.58,23.92z
	 M295.49,19.99c0.3,0.16,0.6,0.41,0.9,0.57C296.09,20.41,295.79,20.15,295.49,19.99c-0.73-0.37-1.46-0.75-2.19-1.12
	c-0.43-0.02-0.87-0.04-1.3-0.06c0.43,0.02,0.87,0.04,1.3,0.06C294.03,19.25,294.76,19.62,295.49,19.99z M289.94,22.32
	c0.59,0.25,1.17,0.51,1.76,0.76c0,0,0,0,0,0c-0.36,0.36-0.77,0.61-1.22,0.75c0.45-0.14,0.86-0.38,1.22-0.75
	C291.12,22.83,290.53,22.57,289.94,22.32c0-0.16,0-0.32,0-0.49C289.94,22,289.94,22.16,289.94,22.32z M286.97,22.35
	c-0.01,0.12-0.02,0.24-0.03,0.36C286.95,22.59,286.96,22.47,286.97,22.35c0.22,0,0.44,0,0.66,0.01
	C287.41,22.35,287.19,22.35,286.97,22.35z M286.1,22.32C286.1,22.32,286.1,22.32,286.1,22.32c0-0.65,0-1.3,0-1.96
	C286.1,21.02,286.1,21.67,286.1,22.32z M281.4,27.39c0.29,0,0.57,0,0.86,0c0.5-0.26,0.99-0.53,1.49-0.79c0.5-0.26,1-0.51,1.5-0.77
	c0,0,0,0,0,0c-0.5,0.26-1,0.51-1.5,0.77c-0.5,0.26-1,0.53-1.49,0.79C281.97,27.39,281.68,27.39,281.4,27.39L281.4,27.39
	c-0.07-0.21-0.14-0.42-0.21-0.64C281.26,26.97,281.32,27.18,281.4,27.39z M295.49,42.59L295.49,42.59L295.49,42.59
	C295.5,42.59,295.49,42.59,295.49,42.59z M295.92,42.54c0.14,0.02,0.28,0.04,0.43,0.07c0.45,0.02,0.91,0.03,1.36,0.05
	c0.68-0.36,1.36-0.73,2.04-1.09c-0.68,0.36-1.36,0.73-2.04,1.09c-0.17,0.22-0.34,0.43-0.51,0.65l0,0c0.17-0.22,0.34-0.43,0.51-0.65
	c-0.45-0.02-0.91-0.03-1.36-0.05c0.18,0.24,0.36,0.48,0.54,0.72l0,0c-0.18-0.24-0.36-0.48-0.54-0.72
	C296.2,42.58,296.06,42.56,295.92,42.54C295.92,42.54,295.92,42.54,295.92,42.54z M299.77,44.15c1,0.26,1.99,0.52,2.99,0.78
	c0.05-0.01,0.11-0.01,0.17-0.02c-0.06,0-0.12,0.01-0.17,0.02C301.76,44.67,300.76,44.41,299.77,44.15c-0.85-0.13-1.71-0.27-2.56-0.4
	C298.06,43.88,298.91,44.02,299.77,44.15z M311.71,76.5c0-0.39,0.01-0.78,0.01-1.17l0,0C311.72,75.73,311.71,76.12,311.71,76.5z
	 M299.76,121.73c0.57-0.26,1.14-0.52,1.71-0.78c1.57-0.65,3.13-1.3,4.7-1.95l0,0c0.29-0.25,0.57-0.51,0.86-0.76
	c-0.29,0.25-0.57,0.51-0.86,0.76c0,0,0,0,0,0c-1.57,0.65-3.13,1.3-4.7,1.95C300.9,121.21,300.33,121.47,299.76,121.73
	c-0.28,0.65-0.57,1.3-0.85,1.95c0.85-0.13,1.71-0.26,2.56-0.39c0.85-0.26,1.71-0.52,2.56-0.78c-0.85,0.26-1.71,0.52-2.56,0.78
	c-0.85,0.13-1.71,0.26-2.56,0.39C299.19,123.03,299.48,122.38,299.76,121.73z M275,72.61c0.3,0.12,0.58,0.2,0.86,0.24
	C275.58,72.81,275.29,72.74,275,72.61c0,0.13,0,0.26,0,0.39C274.99,72.87,275,72.74,275,72.61z M287.79,46.88
	C287.79,46.88,287.79,46.88,287.79,46.88c-0.29,0.26-0.58,0.51-0.87,0.77c0.58,0,1.15,0.01,1.73,0.01c0.36,0.56,0.72,1.13,1.09,1.69
	c-0.37-0.56-0.73-1.13-1.09-1.69c-0.58,0-1.15-0.01-1.73-0.01C287.21,47.39,287.5,47.13,287.79,46.88z M282.34,55.5
	c0.67,0.24,1.34,0.49,2.01,0.73c-0.01,0.39-0.01,0.77-0.02,1.16c0,0,0,0,0,0c0.01-0.39,0.01-0.77,0.02-1.16
	C283.68,55.99,283.01,55.75,282.34,55.5z M308.3,60.13c-0.43,0-0.85,0-1.28,0c0.14-0.78,0.29-1.56,0.43-2.34v0
	c-0.14,0.78-0.29,1.56-0.43,2.34C307.45,60.13,307.88,60.13,308.3,60.13z M310.89,69.29c0.01-0.08,0.01-0.16,0.01-0.23
	C310.9,69.13,310.9,69.21,310.89,69.29z M301.47,70.27L301.47,70.27c0-0.26,0-0.52,0-0.78C301.47,69.75,301.47,70.01,301.47,70.27z
	 M281.63,94.45c0.5,0,1.01-0.01,1.51-0.01C282.64,94.44,282.13,94.45,281.63,94.45z M282.44,97.9c-0.1-0.11-0.21-0.21-0.32-0.3
	C282.23,97.69,282.33,97.79,282.44,97.9z M294.29,57.78c2.47-0.03,4.01,0.42,4.99,1.65c0.2,0.25,0.37,0.52,0.53,0.83
	c-0.16-0.31-0.33-0.59-0.53-0.83C298.3,58.2,296.76,57.75,294.29,57.78c-0.27-0.43-0.53-0.85-0.8-1.28c0.05-0.23,0.1-0.46,0.15-0.69
	c-0.05,0.23-0.1,0.46-0.15,0.69C293.76,56.93,294.03,57.35,294.29,57.78z M298.75,67.78c0.88-0.17,1.74-0.26,2.31,0.92
	c1.14,0.26,2.27,0.52,3.41,0.79l0,0c-1.14-0.26-2.27-0.52-3.41-0.79C300.49,67.53,299.63,67.61,298.75,67.78z M294.65,76.12
	c-0.01,1.03-0.01,2.07-0.02,3.1l0,0C294.64,78.18,294.65,77.15,294.65,76.12c0.06-1.2,0.12-2.41,0.18-3.61
	c-0.03-1.14-0.06-2.27-0.09-3.41c-0.46,0.26-0.92,0.53-1.38,0.79c0,1.3,0,2.59,0,3.89c0-1.3,0-2.59,0-3.89
	c0.46-0.26,0.92-0.53,1.38-0.79c0-0.66-0.01-1.31-0.01-1.97c0,0.66,0.01,1.31,0.01,1.97c0.03,1.14,0.06,2.27,0.09,3.41
	C294.77,73.71,294.71,74.91,294.65,76.12z M285.56,64.24c0.18,0.32,0.37,0.64,0.54,0.97c0,0,0,0,0,0c-0.29,1.82-0.59,3.65-0.88,5.47
	c0,0,0,0,0,0c0.29-1.82,0.59-3.65,0.88-5.47C285.94,64.88,285.75,64.56,285.56,64.24z M295.89,69.16c-0.02-0.19-0.03-0.38,0.01-0.54
	C295.86,68.78,295.87,68.97,295.89,69.16c0.04,0.38,0.13,0.79,0.03,1.11c0,0.03,0,0.05-0.01,0.08c0-0.03,0-0.05,0.01-0.08
	C296.01,69.95,295.93,69.54,295.89,69.16z M297.32,65.67c-0.73-0.39-1.16-1.08-1.4-2.01c-0.15-0.28-0.29-0.55-0.44-0.83c0,0,0,0,0,0
	c0.15,0.28,0.29,0.55,0.44,0.83C296.16,64.58,296.58,65.27,297.32,65.67z M285.23,86.64c0,1.3,0,2.6,0,3.91
	c0.07,0.12,0.16,0.25,0.24,0.37c-0.09-0.12-0.17-0.24-0.24-0.37c-0.26,0.27-0.53,0.53-0.79,0.8l0,0c0.26-0.27,0.53-0.53,0.79-0.8
	C285.23,89.24,285.23,87.94,285.23,86.64C285.23,86.64,285.23,86.64,285.23,86.64c0.62-0.53,0.93-1.44,0.93-2.34
	C286.16,85.2,285.85,86.11,285.23,86.64z M285.85,91.47c-0.07-0.12-0.16-0.25-0.24-0.37C285.69,91.22,285.77,91.34,285.85,91.47z
	 M289.08,65.19c-0.01,0.07-0.01,0.13-0.03,0.2c-0.02,0.14-0.05,0.28-0.08,0.43c0.03-0.14,0.06-0.29,0.08-0.43
	C289.06,65.33,289.07,65.26,289.08,65.19c-0.99,0-1.98,0.01-2.97,0.01C287.1,65.2,288.09,65.19,289.08,65.19
	c0.83,0.02,1.66,0.04,2.49,0.07C290.74,65.24,289.91,65.21,289.08,65.19z M285.21,81.97c0-0.27,0.01-0.53,0.01-0.8
	c0.27-0.27,0.54-0.54,0.81-0.82c0.01-0.25,0.02-0.5,0.03-0.74c-0.14-2.33-0.29-4.66-0.43-6.99c-0.13-0.65-0.27-1.3-0.4-1.95l0,0
	c0.09-0.13,0.19-0.26,0.3-0.38c-0.1,0.13-0.2,0.25-0.3,0.38c0.13,0.65,0.27,1.3,0.4,1.95c0.14,2.33,0.29,4.66,0.43,6.99
	c-0.01,0.25-0.02,0.5-0.03,0.74c-0.27,0.27-0.54,0.55-0.81,0.82C285.22,81.44,285.22,81.71,285.21,81.97
	c-0.24,0.14-0.49,0.28-0.73,0.42C284.73,82.25,284.97,82.11,285.21,81.97z M287.51,100.61c-0.04,0.01-0.07,0.02-0.11,0.05
	C287.43,100.64,287.47,100.62,287.51,100.61z M288.68,98.45C288.68,98.45,288.68,98.45,288.68,98.45
	C288.68,98.45,288.68,98.45,288.68,98.45z M280.63,64.46c-0.11,0.02-0.22,0.05-0.33,0.08C280.41,64.5,280.52,64.48,280.63,64.46z
	 M283.62,65.14C283.62,65.14,283.62,65.14,283.62,65.14c-0.86,0.21-1.72,0.48-2.58,0.66C281.9,65.62,282.76,65.34,283.62,65.14z
	 M284.27,68c-0.27-0.41-0.54-0.81-0.8-1.22c0,0,0,0,0,0c0.07-0.55,0.15-1.1,0.22-1.65c-0.07,0.55-0.15,1.1-0.22,1.65
	C283.74,67.19,284,67.59,284.27,68c0.05,0.76,0.1,1.51,0.15,2.27c0,0,0,0,0,0c-0.05,0.53-0.09,1.05-0.14,1.58
	c0,2.84-0.01,5.69-0.01,8.53c-0.2,0.54-0.53,1.08-0.62,1.62c0.09-0.54,0.42-1.08,0.62-1.62c0-2.84,0.01-5.69,0.01-8.53c0,0,0,0,0,0
	c0.05-0.53,0.09-1.05,0.14-1.58C284.37,69.51,284.32,68.76,284.27,68z M287.62,100.62c-0.02-0.13,0.02-0.33-0.06-0.37
	C287.64,100.29,287.61,100.49,287.62,100.62C287.62,100.62,287.62,100.62,287.62,100.62z M294.51,96.11
	c-0.06,0.19-0.13,0.37-0.22,0.55C294.38,96.48,294.45,96.29,294.51,96.11c0.23-0.75,0.2-1.59,0.14-2.44c0,0,0,0,0,0
	C294.71,94.52,294.74,95.35,294.51,96.11z M295.62,79.18c0.1,0.93,0.21,1.86,0.31,2.79v0C295.83,81.04,295.72,80.11,295.62,79.18z
	 M310.71,68.33c-0.01-0.02-0.02-0.04-0.04-0.06C310.68,68.29,310.69,68.31,310.71,68.33z M311.72,63.65L311.72,63.65L311.72,63.65
	L311.72,63.65z M304.46,57.01c-0.57-0.26-1.14-0.52-1.7-0.78C303.33,56.49,303.9,56.75,304.46,57.01c1,0.26,1.99,0.52,2.99,0.78
	C306.46,57.53,305.46,57.27,304.46,57.01z M280.74,67.14c-0.73,0.1-1.46,0.19-2.18,0.3C279.28,67.33,280.01,67.23,280.74,67.14z
	 M275.98,72.87c0.46,0.05,0.89,0,1.33-0.12C276.88,72.88,276.44,72.93,275.98,72.87z M275.85,94.83L275.85,94.83
	C275.85,94.83,275.85,94.83,275.85,94.83L275.85,94.83z M283.01,98.59c-0.14-0.18-0.28-0.36-0.42-0.53
	C282.73,98.23,282.87,98.41,283.01,98.59c0.05,0.06,0.09,0.12,0.14,0.18c0.12-1.44,0.24-2.88,0.36-4.33c0,0,0,0,0,0
	c0.02-3.05,0.03-6.11,0.07-9.16c-0.04,3.05-0.05,6.11-0.07,9.16c-0.12,1.44-0.24,2.88-0.36,4.33
	C283.1,98.71,283.05,98.65,283.01,98.59z M292.49,196.19c0,0.26,0,0.52,0,0.78c0,0,0,0,0,0
	C292.49,196.7,292.49,196.45,292.49,196.19c-0.52,0.12-1.04,0.24-1.56,0.36C291.45,196.43,291.97,196.31,292.49,196.19
	c0.29-0.38,0.58-0.77,0.87-1.15c-0.22-2.5-0.42-5.01-0.66-7.51c0.23,2.5,0.44,5.01,0.66,7.51v0
	C293.07,195.42,292.78,195.8,292.49,196.19z M295.06,128.75c-0.08,0.11-0.16,0.22-0.23,0.32
	C294.91,128.96,294.98,128.85,295.06,128.75c0-0.39,0-0.77-0.01-1.16l0,0C295.06,127.97,295.06,128.36,295.06,128.75z
	 M293.34,137.72c-0.01,2.73-0.01,5.46-0.02,8.19c-0.28,1.17-0.56,2.35-0.84,3.52c-0.01,1.17-0.02,2.33-0.02,3.5
	c0.02,0.64,0.04,1.29,0.06,1.93c0.28,0,0.55-0.01,0.83-0.01l0,0c-0.28,0-0.55,0.01-0.83,0.01c-0.02-0.64-0.04-1.29-0.06-1.93
	c0,0,0,0,0,0c0.01-1.17,0.02-2.33,0.02-3.5c0,0,0,0,0,0c0.28-1.17,0.56-2.35,0.84-3.52C293.33,143.18,293.34,140.45,293.34,137.72
	C293.34,137.72,293.34,137.72,293.34,137.72c0-0.22,0.01-0.43,0.01-0.65C293.35,137.29,293.35,137.51,293.34,137.72z M292.05,163.71
	c-0.11-1.39-0.26-2.77-0.39-4.16c0,0,0,0,0,0C291.79,160.94,291.93,162.32,292.05,163.71z M291.51,153.05
	c0.06-0.03,0.13-0.06,0.2-0.07C291.64,153,291.58,153.02,291.51,153.05z M292.95,131.47C292.95,131.47,292.95,131.47,292.95,131.47
	c-0.15,0.53-0.28,1.07-0.45,1.6C292.67,132.55,292.8,132.01,292.95,131.47z M291.43,153.08c-0.25,0.13-0.42,0.34-0.53,0.63
	C291.01,153.43,291.18,153.21,291.43,153.08z M292.94,130.71c0,0.12,0,0.24,0,0.36C292.94,130.95,292.94,130.83,292.94,130.71
	c0.3-0.19,0.6-0.37,0.9-0.56C293.54,130.34,293.24,130.53,292.94,130.71z M286.77,127.55c-0.42,0-0.83-0.01-1.25-0.01
	C285.94,127.54,286.35,127.54,286.77,127.55z M285.24,129.14C285.24,129.14,285.24,129.14,285.24,129.14c0.53,0,1.06-0.02,1.59-0.02
	C286.29,129.13,285.77,129.14,285.24,129.14z M294.27,164.27c-0.02-0.15-0.06-0.3-0.12-0.44
	C294.22,163.97,294.25,164.12,294.27,164.27c0.02,0.15,0.02,0.31,0.01,0.46C294.29,164.58,294.29,164.42,294.27,164.27z
	 M293.37,161.88c-0.01,0.14-0.03,0.28-0.04,0.42c0.01,0.25,0.02,0.5,0.03,0.76c0.32,0.17,0.53,0.36,0.67,0.57
	c-0.14-0.2-0.36-0.4-0.67-0.57c-0.01-0.25-0.02-0.5-0.03-0.76C293.34,162.16,293.35,162.02,293.37,161.88
	c0.32-0.04,0.79-0.09,1.17-0.13C294.15,161.8,293.69,161.84,293.37,161.88z M295.19,159.41c-0.03-0.74-0.08-1.47-0.12-2.21
	c0,0,0,0,0,0C295.11,157.94,295.16,158.67,295.19,159.41z M294.92,161.7c-0.07,0.01-0.16,0.02-0.25,0.03
	C294.76,161.73,294.85,161.71,294.92,161.7z M288.66,122.12C288.66,122.12,288.66,122.12,288.66,122.12L288.66,122.12
	c0.21-0.24,0.43-0.43,0.66-0.57C289.09,121.69,288.86,121.88,288.66,122.12z M279.28,127.59c0.06,0.07,0.12,0.15,0.18,0.22
	C279.4,127.74,279.34,127.66,279.28,127.59L279.28,127.59z M282.62,130.18c0,0.05,0.01,0.1,0.02,0.15
	C282.63,130.28,282.62,130.23,282.62,130.18z M282.69,130.49c0.04,0.11,0.08,0.22,0.12,0.33
	C282.77,130.7,282.72,130.59,282.69,130.49z M282.87,130.98c0.04,0.11,0.07,0.21,0.08,0.31
	C282.94,131.19,282.91,131.08,282.87,130.98z M282.62,130.17c0-0.09,0.01-0.18,0.06-0.25l-0.14,0c0.06,0,0.14,0,0.14,0
	C282.63,129.99,282.62,130.08,282.62,130.17z M290.74,175.13c-0.01-1.29-0.01-2.58-0.02-3.87c-0.97,0.04-1.15-0.41-1.18-0.97
	c0.04,0.56,0.21,1.01,1.19,0.97C290.72,172.55,290.73,173.84,290.74,175.13c0.02,0.26,0.03,0.53,0.05,0.79
	c-0.03,0.14-0.08,0.28-0.12,0.42c0.04-0.14,0.09-0.28,0.12-0.42C290.77,175.65,290.75,175.39,290.74,175.13
	c-1.44-0.08-2.78,0.11-3.34,1.21C287.95,175.24,289.3,175.05,290.74,175.13z M296.56,169.97c0.08,0.15,0.15,0.31,0.21,0.46
	C296.71,170.27,296.64,170.12,296.56,169.97c-0.38-0.75-0.9-1.4-2.03-1.46C295.66,168.56,296.19,169.21,296.56,169.97z
	 M290.65,197.8c-0.08,0.1-0.14,0.22-0.19,0.34C290.5,198.02,290.57,197.91,290.65,197.8c0.08-0.1,0.17-0.2,0.28-0.28
	c0.38-0.29,0.92-0.47,1.56-0.56c0,0,0,0,0,0c-0.64,0.09-1.18,0.27-1.56,0.56C290.82,197.61,290.73,197.7,290.65,197.8z
	 M302.16,170.86c-0.23-0.01-0.46-0.01-0.69-0.01v0C301.7,170.85,301.93,170.85,302.16,170.86z M301.9,128.75
	c0.1,0.02,0.2,0.04,0.31,0.06C302.1,128.79,302,128.77,301.9,128.75C301.9,128.75,301.9,128.75,301.9,128.75z M296.36,94.82
	c0-0.11-0.01-0.21-0.01-0.32C296.35,94.61,296.36,94.72,296.36,94.82c0.5,1.04,0.52,1.89,0.09,2.58
	C296.88,96.72,296.86,95.86,296.36,94.82z M296.45,89.72c-0.03,0.74-0.05,1.48-0.08,2.22C296.4,91.2,296.43,90.46,296.45,89.72
	c-0.05-0.5-0.11-1.01-0.16-1.51c-0.16-0.77-0.31-1.55-0.47-2.32c0.16,0.77,0.31,1.55,0.47,2.32c0.02-0.91,0.04-1.82,0.06-2.73
	c-0.22-0.06-0.43-0.12-0.65-0.19l0,0c0.22,0.06,0.43,0.12,0.65,0.19c0.51-0.45,0.76-0.94,0.77-1.46c0-0.2-0.04-0.41-0.11-0.62
	c0.07,0.21,0.11,0.42,0.11,0.62c-0.01,0.51-0.26,1.01-0.77,1.46c-0.02,0.91-0.04,1.82-0.06,2.73
	C296.35,88.71,296.4,89.21,296.45,89.72c0.25,0.02,0.49,0.04,0.74,0.06C296.94,89.76,296.7,89.74,296.45,89.72z M296.83,83.01
	c0.05,0.08,0.09,0.16,0.12,0.24C296.92,83.17,296.88,83.09,296.83,83.01z M308.3,70.27C308.3,70.27,308.3,70.27,308.3,70.27
	c0.85,0.13,1.71,0.26,2.56,0.39C310.01,70.53,309.15,70.4,308.3,70.27z M313.43,62.86C313.43,62.86,313.43,62.86,313.43,62.86
	c0.1,0,0.19,0,0.29,0C313.62,62.86,313.52,62.86,313.43,62.86z M298.91,54.28c0-0.1,0-0.21,0-0.31
	C298.91,54.07,298.91,54.18,298.91,54.28c0.28,0,0.57,0,0.85,0.01C299.48,54.28,299.2,54.28,298.91,54.28z M305.14,50.04
	c0.25-0.05,0.49-0.17,0.71-0.39C305.63,49.87,305.4,49.99,305.14,50.04z M304.76,50.07c0.07,0,0.13,0,0.2,0
	C304.89,50.07,304.82,50.07,304.76,50.07z M282.29,51.6C282.29,51.6,282.29,51.6,282.29,51.6c0.7-0.76,1.39-1.53,2.09-2.29
	C283.68,50.07,282.99,50.83,282.29,51.6c-0.28,0.13-0.56,0.26-0.83,0.39c-0.3,0.25-0.6,0.5-0.9,0.75l0,0
	c-0.29,0.26-0.57,0.51-0.86,0.77c0.29-0.26,0.57-0.51,0.86-0.77c0,0,0,0,0,0c0.3-0.25,0.6-0.5,0.9-0.75
	C281.73,51.85,282.01,51.72,282.29,51.6z M275.42,57.38c0-0.26,0-0.52,0-0.78c0,0,0,0,0,0C275.42,56.86,275.42,57.12,275.42,57.38z
	 M274.15,56.25c-0.45,0.93-0.93,1.71-1.77,2.04C273.22,57.95,273.7,57.18,274.15,56.25c0.14,0.04,0.27,0.08,0.41,0.11
	C274.42,56.32,274.28,56.29,274.15,56.25z M272.11,58.37c-0.18,0.05-0.39,0.08-0.61,0.09C271.72,58.45,271.92,58.42,272.11,58.37z
	 M270.46,62.72c-0.16,0.16-0.3,0.34-0.43,0.53C270.16,63.05,270.31,62.88,270.46,62.72z M274.11,60.89c0.15-0.25,0.3-0.49,0.45-0.74
	C274.41,60.4,274.26,60.65,274.11,60.89c-1.29,0.34-2.5,0.77-3.41,1.59C271.61,61.67,272.82,61.23,274.11,60.89z M274.38,61.83
	c-0.07-0.06-0.12-0.13-0.17-0.22C274.25,61.7,274.31,61.77,274.38,61.83z M278.84,69.49c0.14-0.14,0.3-0.26,0.47-0.37
	c0.13-0.08,0.26-0.15,0.4-0.21c-0.14,0.06-0.27,0.13-0.4,0.21C279.14,69.23,278.98,69.35,278.84,69.49
	C278.84,69.49,278.84,69.49,278.84,69.49L278.84,69.49z M275.85,94.83L275.85,94.83c0,0.39,0,0.78,0,1.17h0
	C275.85,95.61,275.85,95.22,275.85,94.83z M275.85,111.59C275.85,111.59,275.85,111.59,275.85,111.59c-0.3-0.19-0.6-0.4-0.89-0.61
	C275.25,111.19,275.55,111.4,275.85,111.59z M275.58,129.32c0.09-0.06,0.19-0.13,0.27-0.18v0
	C275.76,129.18,275.67,129.26,275.58,129.32z M280.12,178.26L280.12,178.26c-0.33-0.73-0.64-1.48-0.96-2.22
	C279.48,176.78,279.79,177.52,280.12,178.26z M282.54,182.57c0.1,0.01,0.2,0.02,0.29,0.03
	C282.74,182.59,282.63,182.58,282.54,182.57c-0.1-0.01-0.2-0.02-0.28-0.02c-0.05,0.03-0.1,0.06-0.15,0.09
	c0.05-0.03,0.1-0.06,0.15-0.09C282.34,182.55,282.44,182.55,282.54,182.57z M288.65,199.7c0.36-0.52,0.71-1.04,1.07-1.56
	C289.37,198.66,289.01,199.18,288.65,199.7c-0.54,0.13-1.07,0.26-1.61,0.38C287.58,199.96,288.12,199.82,288.65,199.7z
	 M294.17,197.38c0.03-0.14,0.05-0.28,0.08-0.43c0,0,0,0,0,0C294.22,197.1,294.2,197.24,294.17,197.38z M296.35,202.82
	c0.45-0.05,0.89-0.11,1.31-0.19c0.28-0.05,0.56-0.11,0.84-0.18c-0.27,0.07-0.55,0.13-0.84,0.18
	C297.24,202.71,296.8,202.77,296.35,202.82L296.35,202.82z M300.69,201.43c-0.21,0.17-0.43,0.32-0.67,0.44
	C300.26,201.74,300.48,201.6,300.69,201.43z M308.3,128.75c-0.35-0.03-0.7-0.07-1.05-0.1C307.6,128.68,307.95,128.72,308.3,128.75
	c0.85,0,1.7,0,2.56,0.01C310.01,128.75,309.15,128.75,308.3,128.75z M292.56,105.92c-0.53,0.55-1.04,0.79-1.54,0.56
	C291.51,106.71,292.03,106.47,292.56,105.92c2.9-0.07,5.6-0.78,8.26-1.65C298.16,105.14,295.45,105.84,292.56,105.92z M301.06,99.83
	c0.28-0.06,0.56-0.13,0.84-0.2C301.63,99.7,301.35,99.77,301.06,99.83z M298.92,100.23c-2.71,0.8-5.42,1.6-8.13,2.39
	c-0.29,1.03-0.58,2.06-0.87,3.09c0.29-1.03,0.58-2.06,0.87-3.09C293.5,101.83,296.21,101.03,298.92,100.23
	c-1.5,0.14-3,0.27-4.5,0.41C295.93,100.51,297.42,100.37,298.92,100.23c0.57-0.12,1.14-0.21,1.71-0.32
	C300.07,100.02,299.49,100.11,298.92,100.23z M298.42,99.27c0.23,0,0.52-0.04,0.88-0.11C298.94,99.23,298.65,99.27,298.42,99.27z
	 M297.97,94.18c-0.25-0.43-0.51-0.87-0.76-1.3C297.47,93.31,297.72,93.75,297.97,94.18c0,0.22,0.01,0.44,0.01,0.67
	c-0.1,0.67-0.2,1.35-0.3,2.02c0.1-0.67,0.2-1.35,0.3-2.02C297.98,94.63,297.98,94.4,297.97,94.18z M308.3,72.22L308.3,72.22
	C308.3,72.22,308.3,72.22,308.3,72.22C308.3,72.22,308.3,72.22,308.3,72.22z M306.01,49.45c0.05-0.07,0.1-0.15,0.15-0.23
	c-0.63-0.26-1.25-0.52-1.88-0.77c0.63,0.26,1.25,0.51,1.88,0.77C306.12,49.31,306.07,49.38,306.01,49.45z M293.36,46.5L293.36,46.5
	c0.06-0.31,0.09-0.62,0.18-0.92C293.45,45.88,293.41,46.19,293.36,46.5z M278.88,53.54C278.88,53.54,278.88,53.54,278.88,53.54
	c-2.58,0.56-5.15,1.13-7.74,1.66C273.73,54.67,276.3,54.09,278.88,53.54z M273.27,68.7c0.32-0.24,0.68-0.46,0.99-0.71
	C273.95,68.24,273.6,68.46,273.27,68.7c-0.14,0.26-0.28,0.52-0.42,0.77C272.99,69.22,273.13,68.96,273.27,68.7z M274.99,71.83
	C274.99,71.83,274.99,71.83,274.99,71.83c-0.28,0.39-0.57,0.78-0.85,1.17c0,0,0,0,0,0c0,0,0,0,0,0
	C274.42,72.61,274.71,72.22,274.99,71.83L274.99,71.83c0.24-0.62,0.57-1.12,0.99-1.5C275.56,70.7,275.23,71.2,274.99,71.83z
	 M274.14,73c-0.57,0-1.14,0-1.71,0c-0.43,0-0.86,0-1.28,0c-0.17,0.11-0.43,0.23-0.59,0.34c0.17-0.11,0.43-0.23,0.59-0.34
	c0.43,0,0.86,0,1.28,0C273,73,273.57,73,274.14,73L274.14,73z M270.71,77.98c-0.14,0.13-0.29,0.24-0.46,0.35
	C270.42,78.22,270.57,78.1,270.71,77.98z M277.57,99.09c0.01,0,0.03,0,0.04,0.01C277.59,99.09,277.58,99.09,277.57,99.09
	c-0.43-0.16-0.86-0.32-1.3-0.48C276.7,98.77,277.13,98.93,277.57,99.09z M278.96,175.58c-0.2-0.47-0.4-0.93-0.61-1.4
	C278.56,174.65,278.76,175.11,278.96,175.58z M278.62,180.45c-0.11,0-0.2,0.01-0.27,0.04C278.42,180.46,278.51,180.44,278.62,180.45
	z M285.24,203.6L285.24,203.6c-0.49,0.01-0.96-0.01-1.37-0.1C284.28,203.58,284.75,203.6,285.24,203.6z M292.51,200.88
	C292.51,200.88,292.51,200.88,292.51,200.88c-0.29,0.26-0.58,0.52-0.86,0.78C291.94,201.39,292.23,201.13,292.51,200.88z
	 M293.36,204.25c0,0.04,0,0.09,0,0.13l0,0C293.36,204.33,293.36,204.29,293.36,204.25z M293.37,204.37c0.56,0,1.12,0,1.69,0
	C294.49,204.37,293.93,204.37,293.37,204.37C293.37,204.37,293.37,204.37,293.37,204.37C293.37,204.37,293.37,204.37,293.37,204.37z
	 M295.06,204.38C295.06,204.38,295.06,204.38,295.06,204.38c0.29-0.39,0.57-0.78,0.86-1.17c0.09-0.08,0.17-0.16,0.26-0.23
	c-0.09,0.08-0.17,0.16-0.26,0.23c0,0.39,0,0.78,0,1.17c0-0.39,0-0.78,0-1.17C295.63,203.6,295.35,203.99,295.06,204.38z
	 M306.18,199.32c0.24-0.37,0.49-0.74,0.73-1.12C306.67,198.57,306.43,198.94,306.18,199.32c-0.01,0.23-0.01,0.45-0.02,0.68
	C306.17,199.77,306.18,199.54,306.18,199.32z M310.86,131.08C310.86,131.08,310.86,131.08,310.86,131.08
	c0.55,0.35,1.1,0.7,1.65,1.06C311.96,131.78,311.41,131.43,310.86,131.08z M298.05,115.1c-0.29,0.26-0.57,0.52-0.86,0.78
	C297.48,115.62,297.77,115.36,298.05,115.1c0.14,0,0.28,0,0.43,0C298.34,115.1,298.2,115.1,298.05,115.1z M308.45,76.42
	c-0.28-0.64-0.12-1.49-0.14-2.25c0,0,0,0,0,0C308.33,74.93,308.17,75.78,308.45,76.42z M302.75,46.49L302.75,46.49
	c2.28,0.65,4.55,1.31,6.83,1.96C307.3,47.8,305.03,47.14,302.75,46.49z M304.07,44.07c0.16-0.11,0.31-0.18,0.47-0.22
	C304.38,43.89,304.22,43.96,304.07,44.07z M294.21,41.42c0,0.12,0,0.25,0,0.37c-0.49,0-0.99,0-1.48,0c0.49,0,0.99,0,1.48,0
	C294.22,41.67,294.22,41.54,294.21,41.42c-0.16-0.07-0.33-0.15-0.49-0.22C293.89,41.27,294.05,41.35,294.21,41.42
	c1.28-0.52,2.57-1.03,3.85-1.55C296.78,40.39,295.5,40.91,294.21,41.42z M290.78,39.88c-0.53-0.04-1.06-0.09-1.59-0.13
	c-0.16,0.3-0.32,0.6-0.48,0.89c0.68,0.38,1.36,0.77,2.04,1.15l0,0c-0.68-0.38-1.36-0.77-2.04-1.15c-1.15-0.53-2.3-1.06-3.45-1.59
	c-0.09-0.29-0.18-0.59-0.27-0.88c0.09,0.29,0.18,0.59,0.27,0.88c1.15,0.53,2.3,1.06,3.45,1.59c0.16-0.3,0.32-0.6,0.48-0.89
	c-0.67-0.42-1.34-0.85-2.01-1.27c0.67,0.42,1.34,0.85,2.01,1.27C289.72,39.79,290.25,39.84,290.78,39.88
	c0.1-0.11,0.2-0.23,0.29-0.35C290.97,39.65,290.88,39.77,290.78,39.88L290.78,39.88z M291.43,39.1c-0.07,0.08-0.14,0.16-0.21,0.24
	C291.29,39.26,291.36,39.18,291.43,39.1z M295.04,36.72c0.58-0.45,1.18-0.88,1.74-1.34C296.22,35.84,295.62,36.27,295.04,36.72
	c-1.01,0.32-2.01,0.7-3.03,0.99C293.03,37.42,294.03,37.04,295.04,36.72z M294.98,15.94c0.01,0,0.02-0.02,0.02-0.03
	C294.99,15.92,294.99,15.94,294.98,15.94z M280.57,19.55c-0.02,0.15-0.04,0.3-0.04,0.44c0,0,0,0,0,0
	C280.54,19.85,280.56,19.7,280.57,19.55z M279.19,46.14c0.14,0.01,0.28,0.01,0.41,0.01C279.46,46.16,279.33,46.15,279.19,46.14
	c-2.47-0.62-3.09-0.78-3.27-2.13C276.1,45.36,276.72,45.52,279.19,46.14z M271.94,49.25C271.94,49.25,271.94,49.25,271.94,49.25
	C271.94,49.25,271.94,49.25,271.94,49.25z M271.68,49.2c0.02,0.01,0.04,0.02,0.06,0.02C271.72,49.22,271.7,49.21,271.68,49.2z
	 M264,59.42c-0.11-0.04-0.21-0.09-0.32-0.17C263.78,59.33,263.89,59.38,264,59.42z M275.84,68.71
	C275.84,68.71,275.84,68.71,275.84,68.71c-0.74,0.49-1.48,0.99-2.22,1.48C274.36,69.7,275.1,69.2,275.84,68.71z M280.4,197.08
	c0.29,0.23,0.72,0.44,1,0.67c-0.14,0.78-0.28,1.56-0.43,2.34c0.14-0.78,0.28-1.56,0.43-2.34
	C281.11,197.53,280.68,197.31,280.4,197.08z M282.98,203.14c-0.13-0.09-0.24-0.19-0.35-0.31
	C282.74,202.95,282.86,203.06,282.98,203.14z M286.42,221.15c0.32,0,0.64,0,0.96,0c0,0,0,0,0,0
	C287.06,221.14,286.74,221.15,286.42,221.15z M296.7,213.39c0-0.12-0.03-0.22-0.07-0.32c-0.04-0.1-0.11-0.19-0.19-0.27
	c-0.28-0.28-0.78-0.48-1.37-0.63c-0.13-0.89-0.26-1.78-0.38-2.68c0.12,0.89,0.26,1.78,0.38,2.68c0.59,0.16,1.09,0.35,1.37,0.63
	c0.08,0.08,0.14,0.17,0.19,0.27C296.67,213.16,296.7,213.27,296.7,213.39z M295.49,205.94c-0.14,0-0.28,0-0.42-0.01
	c-0.09,0.11-0.22,0.22-0.34,0.33c0.12-0.11,0.25-0.22,0.34-0.33l0,0C295.21,205.94,295.35,205.94,295.49,205.94
	c0.31,0.13,0.61,0.3,0.91,0.44C296.1,206.24,295.8,206.07,295.49,205.94z M307.45,201.65c-0.43-0.26-0.85-0.52-1.28-0.78
	c-0.28,0-0.57,0-0.85,0c0.28,0,0.57,0,0.85,0C306.6,201.13,307.02,201.39,307.45,201.65c0.07,0.73,0.27,1.27,0.59,1.61
	C307.72,202.92,307.52,202.38,307.45,201.65z M308.29,201.64c0.28-0.03,0.55-0.08,0.83-0.11
	C308.85,201.56,308.57,201.61,308.29,201.64C308.29,201.64,308.29,201.64,308.29,201.64z M316.42,125.24
	c-0.6,0.06-1.19,0.12-1.79,0.18C315.22,125.36,315.82,125.3,316.42,125.24c0.28-0.13,0.57-0.26,0.85-0.39
	C316.99,124.98,316.7,125.11,316.42,125.24z M317.09,116.34c-0.07,0.11-0.17,0.23-0.28,0.35
	C316.92,116.57,317.02,116.45,317.09,116.34z M305.32,109.26c-0.85,0.78-1.71,1.56-2.56,2.34l0,0c-0.43,0.26-0.85,0.52-1.28,0.78
	c-0.28,0.26-0.57,0.52-0.85,0.78c0.01,0.49-0.09,0.9-0.29,1.2c0.2-0.31,0.29-0.71,0.29-1.2c0.28-0.26,0.57-0.52,0.85-0.78
	c0.43-0.26,0.85-0.52,1.28-0.78c0,0,0,0,0,0C303.61,110.82,304.46,110.04,305.32,109.26c0.14,0,0.28,0,0.43,0
	c-0.43-0.52-0.86-1.04-1.28-1.56l0,0c0.43,0.52,0.86,1.04,1.28,1.56C305.6,109.26,305.46,109.26,305.32,109.26z M306.22,102.7
	c-0.31,0.45-0.62,0.9-0.93,1.35c-0.56,0.62-1.04,1.35-1.68,1.88c0.64-0.53,1.11-1.26,1.67-1.88c0,0,0,0,0,0
	C305.6,103.59,305.91,103.15,306.22,102.7c0.41-0.03,0.81-0.07,1.22-0.1C307.03,102.63,306.62,102.66,306.22,102.7z M307.46,102.14
	C307.46,102.14,307.46,102.14,307.46,102.14c0.28,0.03,0.56,0.06,0.84,0.09C308.02,102.2,307.74,102.17,307.46,102.14z M317.7,76.12
	c0,0.13,0,0.26,0,0.39C317.7,76.38,317.7,76.25,317.7,76.12c0.05-0.14,0.11-0.28,0.18-0.42C317.81,75.84,317.75,75.98,317.7,76.12z
	 M313.86,44.93c-0.05-0.03-0.11-0.05-0.16-0.08C313.76,44.88,313.81,44.9,313.86,44.93L313.86,44.93z M313.26,44.67
	c0.08,0.03,0.15,0.06,0.23,0.09C313.41,44.73,313.34,44.7,313.26,44.67z M311.59,43.14c0.11,0.02,0.22,0.06,0.33,0.12
	C311.81,43.21,311.7,43.17,311.59,43.14z M310.86,41.42c0.14-0.04,0.27-0.07,0.4-0.11C311.14,41.35,311,41.38,310.86,41.42
	L310.86,41.42z M307.03,44.92C307.03,44.92,307.03,44.92,307.03,44.92c-0.6-0.43-1.2-0.91-1.8-1.06c-0.15-0.04-0.31-0.05-0.46-0.04
	c0.15-0.01,0.31,0,0.46,0.04C305.83,44.01,306.43,44.49,307.03,44.92z M293.24,38.09c0.46-0.19,0.94-0.37,1.4-0.57
	c0.14-0.26,0.29-0.52,0.43-0.77c0,0-0.01-0.01-0.01-0.01c0.01,0.01,0.01,0.01,0.01,0.01l0,0c-0.14,0.26-0.29,0.52-0.43,0.77
	C294.17,37.72,293.7,37.9,293.24,38.09z M279.7,12.19c0.18,0,0.36,0,0.55-0.01C280.07,12.19,279.89,12.19,279.7,12.19L279.7,12.19
	c-0.24,0.28-0.48,0.56-0.71,0.84l0,0C279.23,12.75,279.46,12.47,279.7,12.19C279.7,12.19,279.7,12.19,279.7,12.19z M273.45,38.94
	c0.01,0,0.02,0,0.03,0C273.47,38.94,273.46,38.94,273.45,38.94z M264.75,74.95c0.28-0.13,0.57-0.26,0.85-0.39
	c0.01-0.21,0-0.43,0-0.64c0-0.1,0.01-0.2,0.03-0.28c-0.02,0.09-0.02,0.18-0.03,0.28c-0.01,0.2,0,0.43,0,0.64
	C265.31,74.69,265.03,74.82,264.75,74.95L264.75,74.95z M266.36,87.76c-0.08-0.13-0.14-0.26-0.18-0.4
	C266.22,87.5,266.28,87.63,266.36,87.76z M266.12,87.14c-0.03-0.15-0.05-0.3-0.06-0.46C266.07,86.83,266.09,86.99,266.12,87.14z
	 M265.56,94.54C265.56,94.54,265.56,94.54,265.56,94.54c0.01-0.45,0.03-0.91,0.04-1.36C265.59,93.63,265.58,94.09,265.56,94.54z
	 M272.8,170.46c0.02-0.13,0.03-0.26,0.05-0.38l0,0C272.83,170.2,272.82,170.33,272.8,170.46z M276.15,183.34
	c0.16-0.07,0.31-0.16,0.45-0.26c0.14-0.1,0.28-0.21,0.41-0.33c-0.13,0.12-0.27,0.23-0.41,0.33
	C276.46,183.18,276.31,183.26,276.15,183.34c-0.31,0.15-0.66,0.23-1.05,0.21C275.49,183.56,275.84,183.48,276.15,183.34z
	 M278.85,202.39c0.64,1.35,1.12,2.74,0.86,4.31c0.76,0.35,1.52,0.71,2.28,1.06c-0.76-0.35-1.52-0.71-2.28-1.06
	C279.97,205.13,279.49,203.74,278.85,202.39c-0.13-0.27-0.26-0.54-0.4-0.8C278.59,201.85,278.72,202.12,278.85,202.39z
	 M282.26,207.89L282.26,207.89c-0.29,0.25-0.57,0.51-0.86,0.76C281.68,208.4,281.97,208.15,282.26,207.89z M282.25,207.89
	L282.25,207.89C282.26,207.89,282.25,207.89,282.25,207.89c0.21,0,0.43,0,0.64,0C282.68,207.89,282.47,207.89,282.25,207.89z
	 M282.6,210.47c-0.03,0.02-0.06,0.06-0.08,0.08C282.54,210.52,282.57,210.49,282.6,210.47z M281.07,221.43
	c-0.29-0.12-0.54-0.3-0.75-0.54C280.52,221.13,280.77,221.31,281.07,221.43z M292.35,217.64c0.22-0.95,0.42-1.91,0.67-2.86
	C292.76,215.73,292.57,216.69,292.35,217.64C292.35,217.64,292.35,217.64,292.35,217.64z M303.13,207.95
	c0.18,0.17,0.41,0.26,0.67,0.29C303.54,208.2,303.31,208.12,303.13,207.95c-0.18-0.17-0.32-0.44-0.38-0.84l0,0
	c-0.45-0.03-0.9-0.06-1.35-0.09c0.45,0.03,0.9,0.06,1.35,0.09c0,0,0,0,0,0C302.81,207.51,302.95,207.77,303.13,207.95z M316.42,119
	c0-0.65,0-1.3,0-1.95C316.42,117.7,316.42,118.35,316.42,119c1.42,0.13,2.83,0.26,4.25,0.39l0,0
	C319.25,119.26,317.83,119.13,316.42,119z M307.48,98.37L307.48,98.37c0.5-0.2,1-0.39,1.5-0.59c1.35-0.7,2.69-1.41,4.04-2.12
	c0.28-0.05,0.55-0.09,0.83-0.14c-0.28,0.05-0.55,0.09-0.83,0.14c-1.35,0.71-2.69,1.41-4.04,2.12
	C308.48,97.98,307.98,98.18,307.48,98.37z M317.7,80.4c0.14-0.52,0.28-1.04,0.42-1.55C317.98,79.36,317.84,79.88,317.7,80.4
	c0.28,1.04,0.56,2.08,0.85,3.13c0.14,1.17,0.29,2.34,0.43,3.51c0.13,0.26,0.26,0.52,0.39,0.79c-0.13-0.26-0.26-0.52-0.39-0.79
	c-0.14-1.17-0.29-2.34-0.43-3.51C318.27,82.48,317.98,81.44,317.7,80.4z M320.81,40.67c0.67,0.13,1.34,0.24,2.01,0.37
	c0.42,0.64,0.93,1.25,1.15,1.94c-0.22-0.69-0.73-1.29-1.15-1.93C322.15,40.91,321.47,40.8,320.81,40.67
	c-0.67-0.13-1.33-0.27-1.98-0.46C319.48,40.41,320.14,40.55,320.81,40.67z M315.57,44.94c-0.29,0.52-0.58,1.03-0.86,1.55l0,0
	C314.99,45.97,315.28,45.45,315.57,44.94c0.42,0,0.85-0.01,1.27-0.01C316.41,44.93,315.99,44.93,315.57,44.94z M312.32,41.24
	c-0.1-0.03-0.21-0.04-0.32-0.04C312.12,41.21,312.22,41.22,312.32,41.24z M306.84,42.71c0.11-0.21,0.3-0.37,0.59-0.49
	C307.14,42.35,306.96,42.51,306.84,42.71z M310.01,30.9c-0.28,0.13-0.57,0.27-0.85,0.4c0.01,0.12,0.01,0.24,0.01,0.36
	c0.03,0.47,0.35,1.05,0.2,1.45c0.15-0.4-0.17-0.98-0.2-1.45c0-0.12,0-0.24-0.01-0.36C309.44,31.17,309.73,31.03,310.01,30.9
	c0.15-0.11,0.3-0.23,0.45-0.34C310.31,30.67,310.16,30.78,310.01,30.9z M309.24,33.31c0.04-0.04,0.07-0.08,0.1-0.13
	C309.31,33.23,309.28,33.27,309.24,33.31z M305.03,29.74c-0.31,0.11-0.53,0.45-0.58,1.16c0,0,0,0,0,0
	C304.5,30.19,304.71,29.85,305.03,29.74z M301.9,32.46c0,0-0.01-0.01-0.02-0.02C301.9,32.45,301.9,32.46,301.9,32.46L301.9,32.46z
	 M301.89,32.44c-0.01-0.01-0.02-0.01-0.02-0.01l0,0C301.87,32.43,301.88,32.44,301.89,32.44z M278.82,12.56
	c0.02-0.11,0.04-0.23,0.05-0.34C278.86,12.34,278.84,12.45,278.82,12.56c-0.43,0.13-0.86,0.26-1.28,0.4
	C277.96,12.83,278.39,12.69,278.82,12.56z M273.25,34.8c-0.26-0.26-0.52-0.52-0.78-0.78C272.73,34.28,272.99,34.54,273.25,34.8
	c0.72,1.04,1.44,2.08,2.15,3.12c0,0,0,0,0,0C274.68,36.88,273.96,35.84,273.25,34.8z M272.96,39c-0.11,0.02-0.22,0.05-0.33,0.08
	C272.74,39.04,272.85,39.02,272.96,39z M266.54,40.32c-0.05-0.01-0.1-0.02-0.16-0.03C266.43,40.3,266.48,40.31,266.54,40.32z
	 M268.03,40.55c-0.2-0.02-0.41-0.05-0.61-0.08C267.63,40.5,267.83,40.53,268.03,40.55z M257.91,43.76c0.08,0.02,0.18,0.04,0.28,0.06
	C258.09,43.8,257.99,43.78,257.91,43.76c0-0.13-0.01-0.26-0.01-0.39C257.91,43.5,257.91,43.63,257.91,43.76z M256.62,51.56
	C256.62,51.56,256.62,51.56,256.62,51.56c-0.14-0.52-0.27-1.04-0.41-1.57c0.99,0.26,1.99,0.52,2.98,0.78
	c0.03-0.02,0.07-0.04,0.11-0.07c-0.04,0.02-0.08,0.04-0.11,0.07c-0.99-0.26-1.99-0.52-2.98-0.78
	C256.35,50.52,256.49,51.04,256.62,51.56c0.57,1.17,1.13,2.35,1.7,3.52c0.01,0.34,0.01,0.68,0.02,1.02
	c-0.01-0.34-0.01-0.68-0.02-1.02C257.75,53.91,257.19,52.74,256.62,51.56z M259.78,59.21c0.55,0.63,1.08,1.27,1.61,1.91
	c0.26,0.32,0.53,0.64,0.79,0.96l0,0c-0.27-0.32-0.53-0.64-0.79-0.96C260.86,60.48,260.33,59.84,259.78,59.21z M264.3,75
	c-0.23,0-0.34-0.08-0.39-0.2C263.96,74.92,264.07,75,264.3,75z M266.02,84.31c0,0.39,0,0.78,0,1.17
	C266.03,85.08,266.02,84.7,266.02,84.31c-0.7-0.13-1.4-0.26-2.1-0.4l0,0C264.62,84.04,265.32,84.17,266.02,84.31z M264.72,122.48
	c0-0.24,0-0.49,0.01-0.73c-0.28-0.53-0.55-1.06-0.83-1.58c0.28,0.53,0.55,1.05,0.83,1.58C264.73,121.99,264.73,122.24,264.72,122.48
	z M267.69,140.04c0.33,4.29,0.61,8.58,0.91,12.88c0,0,0,0,0,0C268.3,148.62,268.02,144.33,267.69,140.04z M269.39,152.61
	c-0.24,0.08-0.47,0.17-0.7,0.27C268.92,152.78,269.16,152.69,269.39,152.61z M274.13,183.33
	C274.13,183.33,274.13,183.33,274.13,183.33c-0.07,0.06-0.13,0.13-0.2,0.19C274,183.46,274.06,183.39,274.13,183.33z M274.6,186.39
	c0.09-0.23,0.28-0.5,0.37-0.73c-0.28-0.78-0.56-1.56-0.84-2.34l0,0c0.28,0.78,0.56,1.56,0.84,2.34
	C274.88,185.89,274.7,186.16,274.6,186.39z M277.18,199.65c0.09,0.04,0.17,0.08,0.24,0.12
	C277.36,199.73,277.27,199.69,277.18,199.65z M282.23,211.81c-0.07-0.57,0.02-0.94,0.21-1.18
	C282.25,210.87,282.16,211.24,282.23,211.81C282.23,211.81,282.23,211.81,282.23,211.81z M279.67,219.17L279.67,219.17
	c-0.43,0.66-0.86,1.32-1.28,1.98h0C278.81,220.49,279.24,219.83,279.67,219.17z M289.19,223.08c0.23-0.01,0.45-0.02,0.64-0.03
	C289.64,223.06,289.43,223.07,289.19,223.08z M291.66,221.83c-0.01,0.12-0.03,0.22-0.06,0.32
	C291.63,222.06,291.65,221.95,291.66,221.83c0.02-0.17,0.03-0.37,0.02-0.6c0-0.15,0-0.31-0.01-0.49c-0.01-0.35-0.02-0.75-0.03-1.21
	c0,0.46,0.02,0.86,0.03,1.21c0.01,0.17,0.01,0.34,0.01,0.49C291.68,221.46,291.68,221.66,291.66,221.83z M291.65,218.8
	c-0.01,0.26-0.01,0.51-0.01,0.74C291.64,219.31,291.64,219.06,291.65,218.8c0.23-0.02,0.46-0.04,0.69-0.06
	C292.11,218.76,291.88,218.78,291.65,218.8z M311.72,184.1C311.72,184.1,311.72,184.1,311.72,184.1c0.21,0.4,0.48,0.78,0.67,1.18
	C312.19,184.88,311.93,184.5,311.72,184.1z M314.72,156.44c0,0.13-0.01,0.25-0.01,0.38c-0.09,0.43-0.22,0.86-0.33,1.29
	c-0.08,0.29-0.15,0.57-0.21,0.86c-0.09,0.43-0.15,0.86-0.15,1.29c0-0.43,0.06-0.86,0.15-1.29c0.06-0.29,0.14-0.57,0.21-0.86
	c0.12-0.43,0.24-0.86,0.33-1.29C314.72,156.69,314.72,156.57,314.72,156.44c0.28-0.62,0.62-1.22,0.82-1.86
	C315.34,155.22,315,155.82,314.72,156.44z M319.34,127.72c0.65-1.82,1.46-3.61,0.9-5.62c0,0,0,0,0,0
	C320.8,124.11,319.99,125.9,319.34,127.72z M321.12,103.01c1.26,1.09,1.75,2.33,1.47,3.4C322.87,105.33,322.38,104.1,321.12,103.01
	c-0.34-0.68-0.57-1.44-1.05-2.03C320.55,101.56,320.78,102.32,321.12,103.01z M317.31,98.38c-0.06,0.21-0.12,0.42-0.18,0.64l0,0
	c-0.6,0.07-1.2,0.14-1.79,0.21c-0.49,0.22-0.98,0.43-1.48,0.65c-0.23,0.04-0.47,0.07-0.7,0.11c-0.34,0.19-0.69,0.38-1.03,0.57
	c0.34-0.19,0.69-0.38,1.03-0.57c0.23-0.04,0.47-0.07,0.7-0.11c0.49-0.22,0.98-0.44,1.48-0.65c0.6-0.07,1.2-0.14,1.79-0.2
	C317.19,98.8,317.25,98.59,317.31,98.38c0.06-0.68,0.02-1.25-0.28-1.63C317.32,97.13,317.37,97.7,317.31,98.38
	C317.31,98.38,317.31,98.38,317.31,98.38z M316.44,94.1c-0.16,0.48-0.32,0.97-0.48,1.45l0,0C316.12,95.07,316.28,94.58,316.44,94.1
	c0.12-0.04,0.25-0.08,0.37-0.12C316.69,94.02,316.56,94.06,316.44,94.1z M319.41,92.5c-0.28,0-0.56,0-0.85,0
	C318.85,92.5,319.13,92.5,319.41,92.5c-0.29-0.26-0.57-0.53-0.85-0.79c0-0.13,0-0.26,0-0.39c0,0.13,0,0.26,0,0.39
	C318.84,91.97,319.13,92.24,319.41,92.5c0.96-0.18,1.63-0.46,1.68-0.99C321.04,92.04,320.37,92.32,319.41,92.5z"/>
<path class="st1" d="M277.83,211.44c0.27,0.4,0.55,0.79,0.82,1.19c-0.14-0.39-0.28-0.79-0.42-1.18
	C278.1,211.45,277.97,211.45,277.83,211.44z"/>
<path class="st1" d="M308.96,36.82c-0.55-0.02-1.11-0.04-1.67-0.07c0,0.14-0.01,0.27-0.01,0.41
	C307.85,37.05,308.4,36.94,308.96,36.82z"/>
<path class="st2" d="M265.53,71.23c7.48-3.91,13.69-9.64,13.38-10.21c-0.53-0.98-21.19,12.27-20.79,13.25
	C258.31,74.72,262.96,72.58,265.53,71.23z"/>
<path class="st2" d="M309.94,60.81c7.7,3.46,16.04,4.8,16.3,4.21c0.44-1.02-22.75-9.07-23.27-8.15
	C302.73,57.29,307.29,59.62,309.94,60.81z"/>
<path class="st2" d="M322.88,62.69c3.41-1.45,6.62-4.06,6.59-4.42c-0.05-0.61-9.85,4.79-9.85,5.38
	C319.63,63.93,321.7,63.19,322.88,62.69z"/>
<path class="st2" d="M258.65,68.34c2.81,0.87,5.14,2.14,5.03,2.26c-0.2,0.22-7.96-2.72-7.81-2.93
	C255.94,67.57,257.69,68.04,258.65,68.34z"/>
<path class="st2" d="M216.49,42.9c0.57,0.58,0.02,1.23-0.22,4.4c-0.21,2.85,0.09,4.23-0.77,4.73c-0.28,0.17-0.37,0.05-1.87,0.09
	c-2.02,0.05-2.22,0.26-2.53,0.02c-0.66-0.51-0.04-1.67,0.11-4.73c0.11-2.17-0.16-2.5,0.25-3.2
	C212.45,42.52,215.49,41.88,216.49,42.9z"/>
<path class="st1" d="M211.54,51.82"/>
<line class="st3" x1="271.94" y1="36.96" x2="308.3" y2="60.13"/>
<line class="st3" x1="311.27" y1="34.01" x2="301.48" y2="42.98"/>
<text transform="matrix(1.107 0 0 1 69.8413 70.3471)"><tspan x="0" y="0" class="st4 st5 st6">Levantar horizontalmente a la</tspan><tspan x="-5.53" y="7.46" class="st4 st5 st6"> altura del mentn el antebrazo </tspan><tspan x="18.32" y="14.92" class="st4 st5 st6">con la targeta en mano</tspan></text>
<text transform="matrix(1.107 0 0 1 222.0143 214.6711)"><tspan x="0" y="0" class="st4 st5 st6">Mantener los </tspan><tspan x="3.97" y="7.46" class="st4 st5 st6">pies juntos</tspan></text>
<text transform="matrix(1.107 0 0 1 324.0201 68.5771)"><tspan x="0" y="0" class="st4 st5 st6">Levantar los brazos en </tspan><tspan x="0" y="7.46" class="st4 st5 st6">forma de X con las manos</tspan><tspan x="0" y="14.92" class="st4 st5 st6">bajo el mentn</tspan></text>
</svg>
