<?xml version="1.0" encoding="utf-8"?>
<!-- Generator: Adobe Illustrator 22.0.1, SVG Export Plug-In . SVG Version: 6.00 Build 0)  -->
<svg version="1.1" id="Capa_1" xmlns="http://www.w3.org/2000/svg" xmlns:xlink="http://www.w3.org/1999/xlink" x="0px" y="0px"
	 viewBox="0 0 600 300" style="enable-background:new 0 0 600 300;" xml:space="preserve">
<style type="text/css">
	.st0{fill:#1F2C51;}
	.st1{fill:#E83B44;}
	.st2{fill:#3C55A2;}
	.st3{fill:#E23247;}
	.st4{fill:#FFFFFF;}
</style>
<g id="Capa_4">
	<g>
		<path class="st0" d="M256.3,59.7c0.1,1,1.4,2.2-0.4,3c-1.5,0.7-3.4,0.2-4.6-1.1c0.2-0.4-0.1-1,0.4-1.4
			C253.3,60.6,254.8,60.2,256.3,59.7z"/>
		<path class="st0" d="M256.3,59.7c-1.5,0.4-3,0.9-4.6,0.5c0-0.3,0.1-0.5,0.1-0.8c0.2,0,0.3-0.1,0.3-0.3c0.5,0,0.5-0.2,0.6-0.6
			c0.2-2,1.2-2.5,3.5-1.9C256.6,57.7,256.3,58.7,256.3,59.7z"/>
		<path class="st0" d="M256.2,56.7c-2.3-0.6-3.3-0.1-3.5,1.9c0,0.4-0.1,0.6-0.6,0.6c-0.3-0.1-0.7-0.2-1-0.3l0,0
			c-0.1-1.7,0.8-3.3,0.6-4.9c0.5,0,0.8,0.2,1.1,0.5c0.4,0.3,0,1.2,0.9,1.1c0.8-0.1,1.6-0.1,2.2-0.7
			C256.5,55.4,256.3,56.1,256.2,56.7z"/>
		<path class="st0" d="M251.8,59.5c0,0.3-0.1,0.5-0.1,0.8c-0.5,0.4-0.1,0.9-0.4,1.4c-1.3-0.2-1.3-1.2-1.6-2
			c-0.2-0.6,0.9-0.5,1.3-0.8l0,0C251,59.3,251.3,59.4,251.8,59.5z"/>
		<path class="st0" d="M251.8,59.5c-0.5,0-0.8-0.2-0.7-0.6c0.3,0.1,0.7,0.2,1,0.3C252.1,59.3,252,59.4,251.8,59.5z"/>
		<path class="st0" d="M268.9,34.9c0.4-1.2,0-2.4-0.1-3.6c0,0,0,0,0,0c-0.7-1.1-0.3-2.2,0.1-3.4c0.8-2.5,0.7-5.1,0.6-7.7
			c-0.1-1.5-0.7-3-3-3.1c0.1,0.7,0.2,1.4,0.3,2.1c-1.1,0.4-2.2-0.2-3.3,0c1.1-0.2,2.2,0.4,3.3,0c-0.1-0.7-0.2-1.4-0.3-2.1
			c-0.8-0.2-1.6-0.4-2.4-0.7l0,0c-0.5-0.3-1-0.6-1.4-0.9c0,0,0,0,0,0c-0.1-0.2-0.2-0.5-0.6-0.6c0,0,0,0,0,0
			c-0.1-0.8,0.4-1.5,0.8-2.2c0.7-1.2,0-4-1.1-5c-0.1,1.8-0.6,2.2-3,2.8l0,0c0,0,0,0,0,0c2.4-0.6,3-1.1,3-2.8
			c-0.1-0.1-0.2-0.2-0.3-0.2c0,0,0,0,0,0c-1.5-1.3-3-1.3-4.4,0c0,0,0,0-0.1,0c-0.7,0.1-0.8,0.6-0.9,1c-0.2,0.6-0.2,1.3-0.6,1.8
			c-0.8,1.1-0.3,1.9,0.8,2.5c0.1,0.9,0.3,1.7,0.1,2.6c1.2,1.3,2.8,1.1,4.4,0.6c0.2-0.2,0.4-0.3,0.7-0.5c-0.2,0.2-0.5,0.3-0.7,0.5
			c-1.6,0.5-3.1,0.7-4.4-0.6c-0.1,0.1-0.2,0.2-0.3,0.3c0,0,0,0,0,0c-0.5,0.3-0.9,0.5-1.4,0.8c0.4,0.3,0.9,0.7,0.5,1.1
			c-0.6,0.8-0.2,1.6-0.2,2.3c0,0.6,0.2,0.9,0.4,0.9c-0.2,0-0.4-0.3-0.4-0.9c0-0.8-0.5-1.5,0.2-2.3c0.4-0.4-0.1-0.8-0.5-1.1
			c-0.7,0-1.4,0.2-2,0.5c-1,0.3-2.3,0.2-2.7,1.2c-1,2.3-1,4.7-1.5,7.1c0,0,0,0,0,0c-0.1,0.5-0.5,0.9-0.1,1.4
			c1.4-0.5,2.9-0.5,4.3,0.1c1.2,0.5,2.2,0.6,3.4,0.2c0.6-0.2,1.1,0,1.4,0.4c-0.3-0.4-0.9-0.5-1.4-0.4c-1.3,0.4-2.3,0.3-3.4-0.2
			c-1.4-0.6-2.8-0.6-4.3-0.1c-0.1,2.4,0.1,2.6,3.3,3.6c0.5-1.5,2.2-0.8,3.3-1.1c0.1,0,0.3-0.1,0.4-0.1c-0.2,0-0.3,0-0.5,0.1
			c-1.1,0.3-2.8-0.4-3.3,1.1c0,0.1,0,0.1,0.1,0.2c0,0,0,0.1,0,0.1c0,0.1,0.1,0.1,0.1,0.2c0.6,0.2,1.1,0.5,0.4,1.1
			c-0.6,0.5-1.9,1.4-0.3,1.3c-1.6,0.1-0.3-0.8,0.3-1.3c0.6-0.6,0.2-0.9-0.4-1.1c-1.8,1.3-3,2.9-3.1,4.9c0,0,0,0,0,0
			c-0.8,0-1.6,0.1-2,0.8c-0.1,0.4,0.3,0.5,0.7,0.5l0,0c-0.4,0-0.7-0.1-0.7-0.5c-1.6,0.2-2.8,1.1-4.3,1.4c-2.5,0.5-2.5,0.7-1.4,2.2
			c0.1,0.2,0.2,0.3,0.4,0.5c0,0,0,0,0,0c1,1.5,1.4,1.7,2.7,1.1c0,0,0,0-0.1,0c0,0,0,0,0,0c1.2-0.9,2.5-1.8,3.7-2.7c0,0,0,0,0,0
			c0.8,0,1.4-0.4,2-0.7c0-0.7-0.5-1.7,1.2-1.6c0,0,0,0,0.1,0c0,0,0,0-0.1,0c-1.7-0.1-1.2,0.9-1.2,1.6c0.4,0.1,0.3,0.5,0.5,0.7
			c0,0,0,0,0,0c-0.1,0.4-0.1,0.8-0.2,1.1c0.2,0.1,0.3,0.3,0.3,0.4c0-0.1-0.1-0.3-0.3-0.4c-0.3,0-0.7,0.1-0.7,0.4
			c0,0.3,0.4,0.3,0.7,0.4c-0.5,4,0.9,8,0.9,12c0,0.4,0.1,0.7,0.7,0.7c0.5,0,0.8,0.2,1.1,0.5c0.4,0.3,0,1.2,0.9,1.1
			c0.8-0.1,1.6-0.1,2.2-0.7c-0.2-0.4-0.5-0.8-0.5-1.1c0.7-2.5,0.2-4.9,0.3-7.4c0,0,0,0,0,0c2.2-0.2,4.5-0.4,6.7,0
			c0.1,0,0.2-0.1,0.2-0.2c0,0.1-0.1,0.2-0.2,0.2c1.2,0.5,1.5,1.3,1.6,2.3c0.8-1.2,0.1-2.1-0.7-3c-0.4-0.1-0.5,0-0.6,0.2
			c0.1-0.2,0.2-0.3,0.6-0.2c0.1-0.2,0.2-0.3,0.3-0.5c-0.8-0.5-1.7-0.3-2.6-0.2c0,0,0,0,0,0c-0.3-0.1-0.5-0.1-0.7,0.2c0,0,0,0,0,0
			c0.1-0.2,0.4-0.2,0.7-0.2c0.9-0.1,1.8-0.3,2.6,0.2c0.1,0,0.3,0,0.4-0.1c0-0.6-0.1-1.2-0.1-1.8c0-0.3,0-0.6-0.1-0.7
			c0.1,0.2,0.2,0.4,0.1,0.7c-0.1,0.6,0,1.2,0.1,1.8c-0.1,0-0.3,0-0.4,0.1c-0.1,0.2-0.2,0.3-0.3,0.5c0.8,0.9,1.5,1.8,0.7,3
			c0.2,1.5,0.9,2.9,1,4.4c0.1,1.7,0.6,3.2,1.2,4.8c0.2,0.5,0.5,0.7,1.1,0.6c0.8-0.1,0.3-0.6,0.2-0.9c-0.2-0.7-0.5-1.3-0.6-2
			c-0.6-2.8-0.8-5.7-1.1-8.6c-0.1,0-0.1,0-0.2,0c0,0,0.1,0,0.2,0c-0.1-0.7-0.1-1.5-0.2-2.2c-0.3-1.8-0.4-3.4,2.4-3.9
			c-0.6-0.5-1.1-0.8-1.5-1.1l-0.2,0l0,0l0.2,0c-0.1-0.3-0.2-0.6-0.3-0.9c0.3-0.1,0.8-0.1,0.9-0.2C267.9,37.4,269.3,36.4,268.9,34.9
			c-0.2,0.1-0.4,0.2-0.5,0.3C268.5,35.1,268.7,35,268.9,34.9z M255.7,44.7C255.7,44.7,255.7,44.7,255.7,44.7
			C255.7,44.7,255.7,44.7,255.7,44.7c0.9,0.2,1.8-0.1,2.6,0.3c0,0,0,0,0,0C257.5,44.7,256.6,44.9,255.7,44.7z M256.1,42.5
			c0-0.4,0-0.9,0-1.3c0,0,0,0,0,0c0,0,0,0,0,0c0-0.1,0-0.2,0-0.3c-0.1,0-0.2,0.1-0.2,0.1c0,0,0.1-0.1,0.2-0.1
			c0.1-0.1,0.2-0.2,0.2-0.3c0,0.1-0.1,0.2-0.2,0.3c0,0.1,0,0.2,0,0.3C256.1,41.7,256.1,42.1,256.1,42.5
			C256.1,42.5,256.1,42.5,256.1,42.5z M252.6,34.5c0.2-0.2,0.3-0.5,0.5-0.7c-0.1-0.1-0.2-0.4-0.3-0.4c0,0,0,0,0,0
			c0.1,0,0.2,0.3,0.3,0.4C253,34,252.8,34.3,252.6,34.5l0.1,0.1l0,0C252.7,34.6,252.6,34.5,252.6,34.5c-0.1,0.1-0.3,0.1-0.4,0.2
			c0,0,0.1,0.1,0.1,0.1c0,0,0,0,0,0c0,0-0.1-0.1-0.1-0.1C252.3,34.6,252.5,34.6,252.6,34.5z M255.8,30.7c-0.2,0-0.5,0-0.7,0
			C255.3,30.7,255.6,30.7,255.8,30.7z M256,31.5c0-0.3,0-0.5,0-0.8c0,0,0,0,0,0c0-0.1,0-0.2,0-0.3c0,0,0,0,0,0c0,0.1,0,0.2,0,0.3
			C256.1,31,256.1,31.3,256,31.5c0.1,0,0.2,0,0.3,0C256.2,31.6,256.1,31.6,256,31.5L256,31.5z M256.7,24.9c-0.4,0.6-0.9,0.3-1.3,0
			c-0.9,0-1.6-0.4-2-1.1c-0.3,0-0.6,0-0.8,0c0,0,0,0,0,0l0,0c0.3,0,0.5,0,0.8,0c0.4,0.7,1.1,1,2,1.1c0.1-0.5-0.1-0.8-0.4-1
			c0.3,0.2,0.5,0.5,0.4,1C255.8,25.2,256.3,25.5,256.7,24.9c0-0.4,0-0.8,0-1.1c0,0,0,0,0,0c-0.1-1.1,0.3-2.2-0.3-3.3c0,0,0,0,0,0
			c0.6,1.1,0.2,2.2,0.3,3.3C256.7,24.2,256.7,24.5,256.7,24.9c0.5,0.3,0.3,0.7,0.4,1.1c0,0,0,0,0,0c0,0,0,0,0,0
			C257,25.6,257.2,25.2,256.7,24.9z M251.7,19.9c0.3,1.3,0.6,2.5,0.9,3.8l0,0C252.3,22.5,252,21.2,251.7,19.9
			c-0.2-0.1-0.2-0.1-0.1-0.2C251.5,19.8,251.5,19.9,251.7,19.9z M253.3,23.3c0,0.1,0,0.2,0.1,0.3C253.3,23.5,253.3,23.4,253.3,23.3
			c0-0.1,0-0.1,0-0.2C253.2,23.2,253.2,23.2,253.3,23.3z M250.7,23.7C250.7,23.7,250.7,23.7,250.7,23.7c-0.2,0.1-0.5,0.1-0.7,0.2
			C250.2,23.8,250.5,23.7,250.7,23.7z M264.4,23.3C264.4,23.3,264.4,23.3,264.4,23.3c0.4,0.7-0.7,1.4,0,2.2l0,0
			C263.7,24.7,264.8,24,264.4,23.3C264.4,23.3,264.4,23.3,264.4,23.3z M259,34.6L259,34.6c0-0.2,0.1-0.3,0.2-0.4
			C259.1,34.3,259.1,34.4,259,34.6c0.2,0.8,1.6,0.8,1.7,1.7c0,0,0,0,0,0C260.7,35.3,259.2,35.4,259,34.6z M254.2,36.8
			c0.1,0,0.3,0,0.4,0c0.2,0,0.4,0.1,0.6,0.3c0,0,0,0,0,0c0,0,0,0,0,0c-0.2-0.2-0.4-0.3-0.6-0.3C254.5,36.8,254.4,36.8,254.2,36.8
			c-0.2,0-0.4,0-0.6-0.1l0,0C253.8,36.8,254,36.8,254.2,36.8z M259.5,28.2c-0.1-0.5,0.1-1.1,0.2-1.6c0-0.5-0.5-0.6-1-0.6
			c0,0,0,0,0,0c0.5,0,0.9,0,1,0.6c0,0,0,0,0,0C259.6,27.1,259.4,27.7,259.5,28.2c0.3,1.2-0.4,1.2-1.4,1.1v0
			C259.1,29.3,259.8,29.3,259.5,28.2z M257.5,21.8c0.1,0.1,0.1,0.1,0.1,0.2C257.7,21.9,257.6,21.9,257.5,21.8z M257.5,20.7
			c-0.1,0-0.1-0.1-0.1-0.1C257.4,20.6,257.5,20.7,257.5,20.7c0.7,0.4,0.9,1.2,1.8,1.4c0,0,0,0,0,0C258.5,22,258.2,21.2,257.5,20.7z
			 M260,26.6C260,26.6,260,26.6,260,26.6c0.1-0.2,0.1-0.4,0.2-0.6c0-0.1,0.1-0.2,0.1-0.3c0,0.1-0.1,0.2-0.1,0.3c0,0,0,0,0,0
			C260.1,26.2,260,26.4,260,26.6C260,26.6,260,26.6,260,26.6z M261.2,24.9c-0.1-0.1-0.2-0.1-0.3-0.2c-0.1-0.2-0.2-0.4-0.4-0.5
			c0.1,0.1,0.3,0.2,0.4,0.5C261,24.8,261,24.9,261.2,24.9z M259.9,33.6C259.9,33.6,259.9,33.6,259.9,33.6
			C259.9,33.6,259.9,33.6,259.9,33.6z M259.7,34C259.7,34,259.7,34,259.7,34C259.7,34,259.7,34,259.7,34C259.7,34,259.7,34,259.7,34
			z M257.9,31.5c0.4,0,0.7,0.2,0.9,0.6c0,0,0,0,0,0C258.5,31.7,258.2,31.5,257.9,31.5z M258,34.3c-0.4,0-0.8,0-1,0.3c0,0,0,0,0,0
			c0,0.1,0,0.2,0,0.3c0,0,0,0,0,0c0-0.1,0-0.2,0-0.3C257.3,34.3,257.7,34.3,258,34.3C258,34.3,258.1,34.3,258,34.3
			c0,0.1,0,0.2,0,0.3c-0.1,0.2-0.2,0.4-0.4,0.5c0.1-0.2,0.2-0.4,0.4-0.5C258.1,34.5,258.1,34.4,258,34.3z M260.2,33.4
			C260.2,33.4,260.2,33.3,260.2,33.4C260.2,33.3,260.2,33.4,260.2,33.4z M260.6,33.1c0.1-0.1,0.2-0.1,0.3-0.2
			C260.9,33,260.8,33.1,260.6,33.1z M263,32.1C263,32.1,263,32.1,263,32.1C263,32.1,263,32.1,263,32.1c0.1-0.3,0.3-0.5,0.4-0.7
			C263.3,31.5,263.1,31.8,263,32.1C263,32.1,263,32.1,263,32.1z M263.7,29.6c-0.1,0.1-0.1,0.1-0.2,0.2
			C263.5,29.8,263.6,29.7,263.7,29.6z M263.1,29.9c0.1,0,0.2,0,0.3,0C263.3,29.9,263.2,29.9,263.1,29.9z M262,27.7
			c-0.7-0.1-1.6,0.1-1.9-0.4C260.5,27.8,261.4,27.6,262,27.7C262,27.7,262,27.7,262,27.7z M264.4,26.2c0-0.2-0.1-0.4-0.1-0.6
			C264.4,25.9,264.4,26,264.4,26.2z M265.1,24.8c0,0.1,0,0.1,0,0.2C265.1,24.9,265.1,24.8,265.1,24.8z M261.1,17.2
			c0,0.1,0,0.2,0,0.3C261,17.4,261,17.3,261.1,17.2L261.1,17.2z M261,17.1C261,17.1,261,17.1,261,17.1L261,17.1
			C261,17.1,261,17.1,261,17.1z M260.8,18.5c0.2-0.2,0.3-0.4,0.3-0.6C261.1,18.1,261,18.3,260.8,18.5
			C260.8,18.5,260.8,18.5,260.8,18.5c-0.6-0.2-0.7-0.6-1.1-1c0,0,0,0,0,0C260,17.8,260.2,18.3,260.8,18.5z M252.8,30.8
			c0,0,0.1,0.1,0.1,0.2C252.9,30.9,252.9,30.8,252.8,30.8z M253.7,37.4C253.7,37.4,253.7,37.4,253.7,37.4L253.7,37.4
			C253.7,37.4,253.7,37.4,253.7,37.4z M256.4,38.7c0.1-0.6-0.7-0.5-1-0.8C255.6,38.2,256.4,38.1,256.4,38.7z M256.4,40.4
			C256.4,40.4,256.4,40.4,256.4,40.4C256.4,40.4,256.4,40.4,256.4,40.4C256.4,40.4,256.4,40.4,256.4,40.4z M256.4,40.5
			C256.4,40.6,256.4,40.6,256.4,40.5C256.4,40.6,256.4,40.6,256.4,40.5z M265.1,37.1c0.7-0.9,0.9-1.9,1.5-2.7
			c0.5-0.7,0.2-1.5-0.2-1.6c-0.1,0-0.2-0.1-0.3-0.1c0.1,0,0.2,0,0.3,0.1c0.4,0.2,0.6,1,0.2,1.6C266,35.3,265.8,36.3,265.1,37.1
			c-0.9,1.1,0.1,1.3,1.2,1.3C265.2,38.5,264.2,38.2,265.1,37.1z M266.3,38.4C266.3,38.4,266.3,38.4,266.3,38.4
			C266.3,38.4,266.3,38.4,266.3,38.4C266.3,38.4,266.3,38.4,266.3,38.4z M266.9,28.8c0.1,0.3-0.7-0.2-1.2-0.1c0,0.9,1,1.6,1,2.5
			c0,0,0,0,0,0c0-0.9-1-1.5-1-2.5c-0.3,0.1-0.6,0.2-1,0.3c-0.2-0.3-0.4-0.8-1-0.8c-0.1,0.2-0.1,0.4-0.3,0.5c0.2,0,0.2-0.2,0.3-0.5
			c-0.3,0-0.5,0-0.7,0.3c0,0,0,0,0,0c-0.2,0-0.4,0-0.7,0c0.2,0.3,0.5,0.5,0.7,0.8c-0.3,0-0.7,0-1,0l0,0c0.2,0.4,0.5,0.5,1,0.5
			c0,0,0,0,0,0c0,0,0,0,0,0c-0.5,0-0.8-0.2-1-0.5c-0.8-0.1-1.1-0.3-1.2-0.4c0.1,0.1,0.5,0.3,1.2,0.4l0,0c0,0,0,0,0,0
			c0.3,0,0.7,0,1,0c-0.2-0.3-0.5-0.5-0.7-0.8c-0.3,0.1-0.3,0.4-0.3,0.6c0-0.2,0-0.5,0.3-0.6c0.2,0,0.4,0,0.7,0
			c0.1-0.2,0.4-0.3,0.7-0.3c0.6,0,0.8,0.5,1,0.8c0.3-0.1,0.6-0.2,1-0.3C266.1,28.7,266.9,29.1,266.9,28.8c-0.2-0.7,0.6-1.5,0.4-2
			C267.5,27.3,266.7,28.1,266.9,28.8z M265.7,27.2c0-0.1,0.2-0.2,0.4-0.2C265.9,27,265.7,27.1,265.7,27.2z M266.2,27.1
			c-0.1,0.1-0.2,0.2-0.2,0.3C266.1,27.3,266.2,27.2,266.2,27.1z M266.7,21.2c-0.2,0.4-0.4,0.8-0.6,1.3c0.5,0.6-0.1,0.7-0.6,0.8
			c0,0.4,0,0.7,0,1.1c0,0,0,0.1,0,0.1c0,0,0-0.1-0.1-0.1c0,0,0,0,0,0c0-0.4,0-0.7,0-1.1c0,0,0,0,0,0c0.6-0.1,1.1-0.2,0.6-0.8
			c0,0,0,0,0,0C266.3,22,266.5,21.6,266.7,21.2c0.1-0.2,0.3-0.5,0.3-0.7C267,20.7,266.8,21,266.7,21.2z M264.5,19.8
			c-0.1,0-0.2,0-0.2-0.1c0,0,0,0.1,0,0.1c0,0,0-0.1,0-0.1C264.4,19.8,264.4,19.8,264.5,19.8z M261.7,11.1
			C261.7,11.2,261.7,11.2,261.7,11.1C261.7,11.2,261.7,11.2,261.7,11.1C261.7,11.2,261.7,11.2,261.7,11.1
			C261.7,11.2,261.7,11.2,261.7,11.1z M260.7,10.8c0.1,0,0.2,0,0.3-0.1C261,10.7,260.9,10.7,260.7,10.8c-0.2,0-0.3-0.1-0.5-0.1
			C260.4,10.7,260.6,10.7,260.7,10.8z M258.4,10.4c0.1-0.1,0.2-0.1,0.2,0C258.5,10.4,258.5,10.4,258.4,10.4c-0.8,0-1.9-0.1-1.5,1.1
			C256.5,10.3,257.5,10.5,258.4,10.4z M259.8,11.1C259.8,11.2,259.8,11.2,259.8,11.1C259.8,11.2,259.8,11.2,259.8,11.1L259.8,11.1z
			 M260.6,12c-0.1,0-0.3-0.1-0.4-0.1C260.4,12,260.5,12,260.6,12c0.1,0,0.3,0,0.4-0.1C260.9,12,260.8,12,260.6,12z M260.3,16.7
			c-0.2,0-0.4,0.1-0.6,0.4c0,0,0,0,0,0h0C259.8,16.8,260.1,16.7,260.3,16.7z M259.3,17.1c-0.4,0-0.8,0.1-1.2,0.4c0,0,0,0,0,0
			C258.4,17.2,258.8,17.1,259.3,17.1z M258.1,17.5c-0.3,0-0.6,0-0.9,0c0,0,0,0,0,0c-0.1,0-0.3-0.1-0.4-0.1c0.1,0,0.2,0.1,0.4,0.1
			C257.4,17.5,257.7,17.5,258.1,17.5z M251.4,18.8C251.4,18.8,251.4,18.8,251.4,18.8c0.1,0,0.2,0,0.3,0c0,0,0,0,0,0
			c0,0.3,0,0.5,0,0.8c0,0,0,0,0,0l0,0c0-0.3,0-0.5,0-0.8C251.6,18.8,251.5,18.8,251.4,18.8c-0.1,0-0.2,0-0.3,0c0,0,0,0,0,0
			C251.2,18.9,251.3,18.9,251.4,18.8z M250.5,19c-0.2,0.2-0.2,0.4-0.2,0.7c0.2,0,0.3,0,0.4-0.1c-0.1,0-0.2,0.1-0.4,0.1c0,0,0,0,0,0
			C250.4,19.4,250.4,19.1,250.5,19z M250,21.4c0-0.1,0-0.2,0-0.3C250,21.2,250,21.3,250,21.4c0.1,0.8-0.1,1.7-0.3,2.5c0,0,0,0,0,0
			C250,23.1,250.1,22.2,250,21.4z M251.2,25.9c-0.8,0-1.3-0.4-1.5-1c0,0,0,0,0,0c-0.1-0.1-0.1-0.2-0.1-0.3c0,0.1,0,0.2,0.1,0.2
			C249.9,25.6,250.4,25.9,251.2,25.9c1,0,1.9,0,2.8,0.1c0,0,0,0,0,0c0,0,0,0,0,0C253.1,26,252.1,26,251.2,25.9z M253.7,30.6
			c0,0.2,0,0.4,0,0.7c0.2,0,0.4,0,0.7,0c0.6,0.3,0.5,1.1,1.3,1.1c0.4-0.2,0.3-0.5,0.3-0.8c0,0.3,0.1,0.6-0.3,0.8c0,0,0,0,0,0
			c-0.9,0-0.8-0.9-1.3-1.1c-0.2,0-0.4,0-0.7,0c0,0,0,0,0,0C253.6,31,253.6,30.7,253.7,30.6z M252.7,30.6
			C252.7,30.6,252.6,30.6,252.7,30.6C252.6,30.6,252.7,30.6,252.7,30.6z M250.4,36.1c0.4-0.1,0.7-0.2,1.1-0.4c0,0,0,0,0,0
			C251.2,35.8,250.8,36,250.4,36.1z M251.8,36.1L251.8,36.1c-0.1,0.2-0.2,0.4-0.3,0.6C251.6,36.5,251.7,36.3,251.8,36.1z M253,38.6
			c1.1,0.4,2.3-0.5,3.4,0.2l0,0c0,0.5,0,1.1,0,1.6c0,0,0,0,0,0c0-0.5,0-1.1,0-1.6C255.3,38.1,254.1,38.9,253,38.6
			c-0.9-0.3-1.3,0.1-1.6,0.7c0,0,0,0,0,0C251.7,38.7,252.1,38.2,253,38.6z M253.6,40.1c0,0,0.1-0.1,0.1-0.1
			C253.7,40,253.6,40,253.6,40.1z M253.8,39.9c0.1-0.1,0.1-0.1,0.2-0.2c0,0,0,0,0,0C254,39.7,253.9,39.8,253.8,39.9z M261,45.1
			C261,45.1,261,45.1,261,45.1C261,45.1,261,45.1,261,45.1z M265,45.7c0.2,0.2,0.4,0.5,0.5,0.8C265.3,46.2,265.2,45.9,265,45.7z
			 M265.8,40.3c-0.6,0.4-1.2,0.6-2,0.7c-1.9,0.2-3.9,0.4-5.8,0.6c0.3,0.7,1.5,0.2,1.7,0.9h0c-0.2-0.8-1.4-0.2-1.7-0.9
			c1.9-0.2,3.9-0.4,5.8-0.6C264.6,40.9,265.2,40.7,265.8,40.3c0.2-0.1,0.4-0.3,0.5-0.4c-0.3,0-0.6,0-0.9,0c0,0,0,0,0,0
			c-1.5-1-2.7-2.1-2.7-3.9c0,0,0,0,0,0c0,1.7,1.2,2.9,2.7,3.9c0.3,0,0.6,0,0.9,0l0,0C266.2,40,266,40.2,265.8,40.3z"/>
	</g>
	<g>
		<path class="st0" d="M293,59c0.1,1,1.4,2.2-0.4,3c-1.5,0.7-3.4,0.2-4.6-1.1c0.2-0.4-0.1-1,0.4-1.4C290,59.9,291.5,59.4,293,59z"/>
		<path class="st0" d="M293,59c-1.5,0.4-3,0.9-4.6,0.5c0-0.3,0.1-0.5,0.1-0.8c0.2,0,0.3-0.1,0.3-0.3c0.5,0,0.5-0.2,0.6-0.6
			c0.2-2,1.2-2.5,3.5-1.9C293.3,57,293,58,293,59z"/>
		<path class="st0" d="M292.8,56c-2.3-0.6-3.3-0.1-3.5,1.9c0,0.4-0.1,0.6-0.6,0.6c-0.3-0.1-0.7-0.2-1-0.3l0,0
			c-0.1-1.7,0.8-3.3,0.6-4.9c0.5,0,0.8,0.2,1.1,0.5c0.4,0.3,0,1.2,0.9,1.1c0.8-0.1,1.6-0.1,2.2-0.7C293.1,54.7,293,55.3,292.8,56z"
			/>
		<path class="st0" d="M288.4,58.7c0,0.3-0.1,0.5-0.1,0.8c-0.5,0.4-0.1,0.9-0.4,1.4c-1.3-0.2-1.3-1.2-1.6-2
			c-0.2-0.6,0.9-0.5,1.3-0.8l0,0C287.7,58.5,288,58.7,288.4,58.7z"/>
		<path class="st0" d="M288.4,58.7c-0.5,0-0.8-0.2-0.7-0.6c0.3,0.1,0.7,0.2,1,0.3C288.7,58.6,288.6,58.7,288.4,58.7z"/>
		<g>
			<path class="st0" d="M305.5,34.1c0.4-1.2,0-2.4-0.1-3.6c0,0,0,0,0,0c-0.7-1.1-0.3-2.2,0.1-3.4c0.9-2.5,0.7-5.1,0.6-7.7
				c-0.1-1.5-0.7-2.9-3-3.1c0,0,0,0,0,0c-0.8-0.2-1.6-0.4-2.4-0.7c0,0,0,0,0,0c-0.5-0.3-0.9-0.6-1.4-0.9c-0.1-0.2-0.2-0.5-0.6-0.6
				c0,0,0,0,0,0c-0.1-0.8,0.4-1.5,0.8-2.2c0.7-1.2,0-4-1.1-5c-0.1,1.8-0.6,2.2-3,2.8l0,0c0,0,0,0,0,0c2.4-0.6,3-1.1,3-2.8
				c-0.1-0.1-0.2-0.2-0.3-0.2c0,0,0,0,0,0c-1.5-1.3-3-1.3-4.4,0c0,0-0.1,0-0.1,0c-0.7,0.1-0.8,0.6-0.9,1c-0.2,0.6-0.2,1.3-0.6,1.8
				c-0.8,1.1-0.3,1.9,0.8,2.5c0.2-0.4,0.4-0.9,0.5-1.3c-0.3-1.2,0.7-1.1,1.5-1.1c0.2-0.1,0.2-0.1,0.3,0.1c-0.1-0.1-0.1-0.1-0.3,0
				c-0.9,0-1.9-0.1-1.6,1.1c-0.2,0.4-0.4,0.9-0.5,1.3c0.1,0.9,0.3,1.7,0.1,2.6c1.2,1.3,2.8,1,4.4,0.6c0.2-0.2,0.4-0.3,0.7-0.5
				c-0.2,0.2-0.5,0.3-0.7,0.5c0,0,0,0,0,0c-1.6,0.5-3.1,0.7-4.3-0.6c-0.1,0.1-0.2,0.2-0.3,0.3c0,0,0,0,0,0c-0.5,0.3-0.9,0.5-1.4,0.8
				c0,0,0,0,0,0c-0.7,0-1.4,0.2-2,0.5c0,0.5-0.5,0.7-0.9,1c0.4-0.3,1-0.5,0.9-1c-1,0.3-2.3,0.2-2.7,1.2c-1,2.3-1,4.7-1.5,7.1
				c0,0,0,0,0,0c-0.1,0.5-0.5,0.9-0.1,1.4c1.4-0.5,2.9-0.5,4.3,0.1c1.2,0.5,2.2,0.5,3.4,0.2c0.6-0.2,1.1,0,1.4,0.4
				c-0.3-0.4-0.9-0.5-1.4-0.4c-1.3,0.4-2.3,0.3-3.4-0.2c-1.4-0.6-2.8-0.6-4.3-0.1c-0.1,2.4,0.1,2.6,3.3,3.6c0.5-1.5,2.2-0.8,3.3-1.1
				c0.1,0,0.3-0.1,0.4-0.1c-0.2,0-0.3,0-0.5,0.1c-1.1,0.3-2.8-0.4-3.3,1.1c0,0.1,0,0.2,0.1,0.2c0,0,0,0,0,0c0,0,0,0.1,0,0.1
				c0,0.1,0.1,0.1,0.1,0.2c0.6,0.2,1,0.5,0.4,1.1c-0.6,0.5-1.9,1.4-0.4,1.3c-1.6,0.1-0.3-0.8,0.3-1.3c0.6-0.6,0.2-0.9-0.4-1.1
				c-1.8,1.3-3,2.9-3.1,4.9c0,0,0,0,0,0c-0.8,0-1.6,0.2-2,0.8c-0.1,0.4,0.3,0.5,0.7,0.5l0,0c-0.4,0-0.7-0.1-0.7-0.5
				c-1.6,0.2-2.8,1.1-4.3,1.4c-0.1,0.9-1.1,1.4-1.4,2.2c0.1,0.2,0.2,0.4,0.4,0.5c0,0,0,0,0,0c1,1.5,1.4,1.7,2.7,1.1c0,0,0,0-0.1,0
				c0,0,0,0,0,0c1.2-0.9,2.5-1.8,3.7-2.7c0,0,0,0,0,0c0.8,0,1.4-0.4,2-0.7c0-0.7-0.5-1.7,1.2-1.6c0.6,0,0.7-0.5,0.9-0.9
				c0.2,0.1,0.3,0.2,0.5,0.3c-0.1-0.1-0.3-0.2-0.5-0.3c-0.3,0.4-0.3,0.9-0.9,0.9c-1.7-0.1-1.2,0.9-1.2,1.6c0.4,0.1,0.3,0.4,0.5,0.7
				c0,0,0,0,0,0c-0.1,0.4-0.1,0.7-0.2,1.1c0.2,0.1,0.3,0.3,0.3,0.4c0-0.1-0.1-0.3-0.3-0.4c-0.3,0-0.7,0.1-0.7,0.4
				c0,0.3,0.4,0.3,0.7,0.4c-0.5,4,0.9,8,0.9,12c0,0.4,0.1,0.7,0.7,0.7c0.5,0,0.8,0.2,1.1,0.5c0.4,0.3,0,1.2,0.9,1.1
				c0.8-0.1,1.6-0.1,2.2-0.7c-0.2-0.4-0.5-0.8-0.5-1.1c0.7-2.5,0.2-4.9,0.3-7.4c0-0.2,0-0.5,0-0.7c0,0,0,0,0,0c0,0.2,0,0.4,0,0.7
				c2.2-0.2,4.5-0.4,6.7,0c0.1,0,0.2-0.1,0.2-0.2c0,0.1-0.1,0.2-0.2,0.2c1.1,0.5,1.5,1.3,1.6,2.3c0,0,0,0,0,0c0.2,1.5,0.9,2.9,1,4.4
				c0.1,1.7,0.6,3.2,1.2,4.8c0.2,0.5,0.5,0.7,1.1,0.6c0.8-0.1,0.3-0.6,0.2-0.9c-0.2-0.7-0.5-1.3-0.6-2c-0.6-2.8-0.8-5.7-1.1-8.6
				c-0.1,0-0.1,0-0.2,0c0,0,0.1,0,0.2,0c-0.1-0.7-0.1-1.5-0.2-2.2c-0.3-1.8-0.4-3.4,2.4-3.9c-0.6-0.5-1.1-0.8-1.5-1.1l-0.2,0l0,0
				l0.2,0c-0.1-0.3-0.2-0.6-0.3-0.9c0.3-0.1,0.8-0.1,0.9-0.2C304.5,36.7,305.9,35.7,305.5,34.1c-0.2,0.1-0.4,0.2-0.5,0.3
				C305.1,34.3,305.3,34.2,305.5,34.1z M287,35.3c0.4-0.1,0.7-0.2,1.1-0.4c0,0,0,0,0,0C287.8,35.1,287.4,35.2,287,35.3z M300.3,44.4
				L300.3,44.4C300.3,44.4,300.3,44.4,300.3,44.4c0.1,0,0.3,0,0.4-0.1c0-0.6-0.1-1.2-0.1-1.8c0.1-0.7-0.2-1-0.7-1
				c0.6,0,0.8,0.3,0.7,1c-0.1,0.6,0,1.2,0.1,1.8C300.6,44.3,300.5,44.4,300.3,44.4z M297.1,44.3C297,44.3,297,44.3,297.1,44.3
				C297,44.3,297,44.3,297.1,44.3c0.1-0.2,0.4-0.2,0.7-0.2c0,0,0,0,0,0c0,0.1-0.1,0.2-0.1,0.2c0-0.1,0.1-0.1,0.1-0.2
				C297.4,44.1,297.2,44.1,297.1,44.3z M292.3,31.9C292.3,31.9,292.3,31.9,292.3,31.9C292.3,31.9,292.3,31.9,292.3,31.9
				c0.5,0,1-0.1,1.3,0.3c0,0,0,0,0,0c0,0,0,0,0,0C293.3,31.8,292.8,31.9,292.3,31.9z M287.4,22.9C287.4,22.9,287.4,22.9,287.4,22.9
				c0.2-0.1,0.3-0.1,0.5-0.1C287.7,22.8,287.5,22.8,287.4,22.9c-0.2,0.1-0.5,0.1-0.7,0.2C286.9,23,287.1,23,287.4,22.9z M288.3,19.2
				C288.3,19.2,288.3,19.2,288.3,19.2c0.3,1.3,0.6,2.5,0.9,3.8l0,0C289,21.7,288.6,20.4,288.3,19.2c-0.2-0.1-0.2-0.1-0.1-0.2
				C288.1,19,288.2,19.1,288.3,19.2z M292.9,19.2c0,0,0,0.1,0,0.1C292.9,19.3,292.9,19.2,292.9,19.2z M297.7,16.4L297.7,16.4
				c0,0.1,0,0.2,0,0.3C297.7,16.6,297.7,16.5,297.7,16.4z M300.1,29c0.1,0,0.1-0.1,0.1-0.1C300.2,29,300.2,29,300.1,29z M294.7,33.8
				C294.7,33.8,294.7,33.8,294.7,33.8c-0.1,0.2-0.2,0.4-0.4,0.5c-0.3,0-0.5-0.1-0.7-0.3c0.2,0.2,0.4,0.3,0.7,0.3
				C294.5,34.2,294.6,34,294.7,33.8C294.7,33.8,294.7,33.8,294.7,33.8z M296.3,41.7c0.2,0,0.5,0,0.7,0
				C296.8,41.8,296.6,41.8,296.3,41.7C296.3,41.7,296.3,41.7,296.3,41.7c-0.2-0.8-1.4-0.2-1.7-0.9h0C295,41.5,296.2,41,296.3,41.7z
				 M292.7,41.8C292.7,41.8,292.7,41.8,292.7,41.8c0-0.4,0-0.9,0-1.3c0,0,0,0,0,0v0C292.7,40.9,292.7,41.3,292.7,41.8
				C292.7,41.8,292.7,41.8,292.7,41.8z M291.9,36.4c-0.1,0.1-0.3,0.1-0.4,0.2C291.6,36.5,291.8,36.4,291.9,36.4
				c-0.5-0.6-1.1-0.2-1.7-0.5c1.1-0.8,2-1.6,3.4-1.8c0-0.1,0-0.2,0-0.3c0.2-0.3,0.6-0.3,1-0.3c-0.4,0-0.7,0-1,0.3
				c0.1,0,0.2,0.1,0.2,0.1c0,0-0.1-0.1-0.2-0.1c0,0.1,0,0.2,0,0.3c-1.4,0.3-2.4,1.1-3.4,1.8C290.8,36.2,291.4,35.8,291.9,36.4z
				 M292.1,37.2c0.2,0.2,0.6,0.2,0.8,0.4C292.7,37.4,292.3,37.4,292.1,37.2z M293,38c0,0.5,0,1.1,0,1.6c0,0,0,0,0,0
				C293,39.1,293,38.5,293,38L293,38z M293,39.6C293,39.6,293,39.6,293,39.6C293,39.6,293,39.6,293,39.6C293,39.6,293,39.6,293,39.6
				z M295.4,31.4c-0.2-0.4-0.5-0.6-0.9-0.6C294.9,30.8,295.2,30.9,295.4,31.4C295.4,31.4,295.4,31.4,295.4,31.4z M299.7,29.1
				c-0.3,0-0.6-0.1-0.8-0.3C299.1,29,299.3,29.1,299.7,29.1C299.7,29.1,299.7,29.1,299.7,29.1z M296.1,27.4
				c-0.1-0.5,0.1-1.1,0.2-1.6c0-0.5-0.5-0.6-1-0.6c0,0,0,0,0,0c0.5,0,1,0,1,0.6c0,0,0,0,0,0C296.3,26.4,296,26.9,296.1,27.4
				c0.3,1.2-0.4,1.2-1.4,1.1l0,0C295.7,28.6,296.5,28.6,296.1,27.4z M294.2,21.5c0-0.1-0.1-0.1-0.1-0.2
				C294.1,21.3,294.1,21.4,294.2,21.5z M294.2,21c0.1,0.1,0.1,0.1,0.1,0.2C294.3,21.2,294.2,21.1,294.2,21z M294.2,20
				c-0.1-0.1-0.2-0.2-0.2-0.3C294,19.8,294.1,19.9,294.2,20c0.7,0.4,0.9,1.2,1.8,1.4c0.1-0.5,0.2-1.1,0.4-1.6c0,0,0,0,0,0
				c-0.1,0.5-0.2,1.1-0.4,1.6c0,0,0,0,0,0C295.1,21.2,294.8,20.4,294.2,20z M296.6,25.8C296.6,25.8,296.6,25.8,296.6,25.8
				c0.1-0.2,0.1-0.4,0.2-0.6c0-0.1,0.1-0.2,0.1-0.3c0,0.1-0.1,0.2-0.1,0.3c0,0,0,0,0,0C296.7,25.4,296.7,25.6,296.6,25.8
				C296.6,25.8,296.6,25.8,296.6,25.8z M298.7,26.9c-0.7-0.1-1.6,0.1-1.9-0.4C297.1,27.1,298,26.8,298.7,26.9
				C298.7,26.9,298.7,26.9,298.7,26.9z M301.1,25.5c0-0.2-0.1-0.4-0.1-0.6C301,25.1,301.1,25.3,301.1,25.5z M301,19.1
				c0,0,0-0.1,0-0.1c0.1,0,0.1,0,0.2,0.1C301.1,19.1,301,19.1,301,19.1z M301,22.5C301,22.5,301,22.5,301,22.5
				c0.4,0.7-0.7,1.4,0,2.2l0,0C300.3,24,301.4,23.2,301,22.5C301,22.5,301,22.5,301,22.5z M297.5,23.9c0-0.1-0.1-0.2-0.1-0.3
				C297.4,23.7,297.5,23.8,297.5,23.9c0,0.1,0.1,0.1,0.1,0.1C297.6,24,297.6,24,297.5,23.9z M290.1,22.4c-0.1-0.1-0.2,0-0.2,0
				C289.9,22.4,289.9,22.3,290.1,22.4z M291.6,23.2c0.3,0.2,0.5,0.5,0.4,1C292.1,23.7,291.9,23.4,291.6,23.2z M291.6,24.1
				c-0.1,0-0.1,0-0.2,0C291.4,24.1,291.5,24.1,291.6,24.1z M291.2,24c-0.1,0-0.2-0.1-0.3-0.1C290.9,23.9,291.1,23.9,291.2,24z
				 M292.3,22.5c0.3,0.2,0.6,0.4,1,0.5c-0.1-1.1,0.3-2.2-0.3-3.3c0,0,0,0,0,0c0.6,1.1,0.2,2.2,0.3,3.3c0,0.4,0,0.7,0,1.1
				c0,0,0,0,0,0c-0.1,0.1-0.2,0.2-0.3,0.3c0.1,0,0.2-0.1,0.3-0.3c0-0.4,0-0.7,0-1.1C292.9,22.9,292.6,22.7,292.3,22.5z M292.9,24.4
				C292.9,24.4,292.9,24.5,292.9,24.4C292.9,24.5,292.9,24.5,292.9,24.4z M292.9,19c0.1-0.5,0.4-0.9,0.7-1.3
				C293.3,18.1,293,18.5,292.9,19z M289.2,23L289.2,23c-0.1,0-0.1,0-0.2,0C289.1,23,289.2,23,289.2,23z M289.2,23L289.2,23
				c0.5,0.7,1,1.5,1.5,2.2c0,0,0,0,0,0C290.2,24.5,289.7,23.8,289.2,23z M293.6,24.4c0.2,0.3,0.1,0.6,0.1,0.8c0,0,0,0,0,0
				c0,0,0,0,0,0C293.7,25,293.7,24.6,293.6,24.4z M290.3,36.6C290.3,36.6,290.4,36.6,290.3,36.6C290.4,36.6,290.3,36.6,290.3,36.6
				c0.3,0.8,1.1,0.4,1.7,0.5c0,0,0,0,0,0c0,0,0,0,0,0C291.4,37,290.6,37.5,290.3,36.6c-0.5,0-0.7-0.3-1-0.5
				C289.6,36.4,289.8,36.6,290.3,36.6z M293,39.8C293,39.8,293,39.8,293,39.8C293,39.8,293,39.8,293,39.8z M292.7,40.2
				c0.1-0.1,0.2-0.2,0.2-0.3C292.9,40,292.9,40.1,292.7,40.2c-0.1,0-0.2,0.1-0.2,0.1C292.5,40.3,292.6,40.2,292.7,40.2z M292.4,44
				C292.4,44,292.4,44,292.4,44c0.9,0.2,1.8-0.1,2.6,0.3c0,0,0,0,0,0C294.2,43.9,293.2,44.2,292.4,44z M295.7,33.8
				c-0.2,0-0.5,0-0.7,0c0,0,0,0,0,0c-0.1-0.1-0.2-0.2-0.3-0.3c0,0,0,0,0,0c0.1,0.1,0.2,0.2,0.3,0.3
				C295.2,33.8,295.4,33.8,295.7,33.8c0-0.4,0.2-0.5,0.7-0.5c0.1-0.6,0.9-0.8,1.4-1.1c0.7-0.3,1.3-0.6,2-0.8
				c0.1-0.3,0.3-0.6,0.4-0.7c-0.2,0.1-0.3,0.4-0.4,0.7c1.1,0.1,2-0.1,2.7-0.8c0,0,0,0,0,0c0,0,0,0,0,0c-0.7,0.7-1.6,1-2.7,0.8
				c-0.7,0.3-1.3,0.6-2,0.8c-0.5,0.3-1.2,0.5-1.3,1.1C295.9,33.3,295.7,33.5,295.7,33.8c0,0.2,0.2,0.4,0.3,0.5
				C295.9,34.2,295.7,34,295.7,33.8z M299.9,29.1C299.9,29.1,299.9,29.1,299.9,29.1C299.9,29.1,299.9,29.1,299.9,29.1z M297.4,35.5
				C297.4,35.5,297.4,35.5,297.4,35.5c0-0.2-0.1-0.4-0.3-0.5C297.3,35.1,297.3,35.3,297.4,35.5z M301.7,36.4
				c0.7-0.9,0.9-1.9,1.5-2.7c0.4-0.6,0.3-1.3,0-1.5c0.3,0.3,0.5,1,0,1.6C302.6,34.5,302.4,35.5,301.7,36.4c-0.4,0.6-0.4,0.9-0.1,1.1
				C301.3,37.3,301.3,36.9,301.7,36.4z M303,37.7C303,37.7,303,37.7,303,37.7C303,37.7,303,37.7,303,37.7
				C303,37.7,303,37.7,303,37.7z M303.5,28.1c0.1,0.3-0.7-0.2-1.1-0.1c0,0.9,1,1.6,1,2.5c0,0,0,0,0,0c0-0.9-1-1.5-1-2.5
				c-0.3,0.1-0.6,0.2-1,0.3c-0.2-0.3-0.4-0.8-1-0.8c-0.1,0.3-0.1,0.5-0.4,0.5c0.2,0.1,0.3-0.2,0.4-0.5c-0.3,0-0.5,0-0.7,0.3
				c0,0,0,0,0,0c-0.2,0-0.4,0-0.7,0c0.2,0.3,0.4,0.5,0.7,0.8c0.3,0,0.5,0.1,0.7,0.3c0,0,0,0,0,0c-0.1-0.2-0.4-0.3-0.7-0.3
				c-0.3,0-0.7,0-1,0l0,0c0,0,0,0,0,0c-0.8-0.1-1.1-0.3-1.2-0.4c0.1,0.1,0.5,0.3,1.2,0.4l0,0c0-0.3-0.1-0.6,0.3-0.8
				c0.2,0,0.5,0,0.7,0c0.2-0.2,0.4-0.3,0.7-0.3c0.7,0,0.8,0.5,1,0.8c0.3-0.1,0.6-0.2,1-0.3C302.8,27.9,303.6,28.3,303.5,28.1
				c-0.2-0.7,0.6-1.5,0.4-2C304.1,26.6,303.3,27.4,303.5,28.1z M302.3,26.5c0,0.1,0.2,0.1,0.4,0.1C302.5,26.6,302.3,26.6,302.3,26.5
				z M302.3,26.4c0-0.1,0.2-0.2,0.4-0.2C302.5,26.2,302.3,26.3,302.3,26.4z M303.3,20.4c-0.2,0.4-0.4,0.8-0.6,1.3
				c0.5,0.6-0.1,0.7-0.6,0.8c0,0.4,0,0.7,0,1.1c0,0,0,0,0,0c0,0,0,0,0,0c0-0.4,0-0.7,0-1.1c0.5-0.1,1.1-0.2,0.6-0.8
				c-0.1,0-0.2,0.1-0.3,0.1c0.1-0.1,0.2-0.1,0.3-0.1C302.9,21.2,303.1,20.8,303.3,20.4c0.1-0.2,0.3-0.5,0.3-0.7
				C303.6,19.9,303.4,20.2,303.3,20.4z M300,18.3c-0.1-0.2-0.2-0.4-0.2-0.7C299.8,17.9,299.9,18.1,300,18.3
				C300,18.3,300,18.3,300,18.3z M299.5,18.9c0,0.1,0.2,0.1,0.2,0.1c0.4-0.1,0.2-0.4,0.3-0.7c1.1-0.2,2.2,0.4,3.3,0c0,0,0,0,0,0
				c-1.1,0.4-2.2-0.2-3.3,0c-0.1,0.2,0.1,0.5-0.3,0.7C299.7,19.1,299.5,19,299.5,18.9C299.5,18.9,299.5,18.9,299.5,18.9z M299,14.8
				c-0.4,0.3-0.3,0.9-0.6,1.3C298.7,15.8,298.6,15.2,299,14.8z M298.3,10.4C298.3,10.4,298.3,10.4,298.3,10.4
				C298.3,10.4,298.3,10.4,298.3,10.4C298.3,10.4,298.3,10.4,298.3,10.4C298.3,10.4,298.3,10.4,298.3,10.4z M294.6,11.1
				c0.2,0,0.5,0,0.7-0.2c0,0,0,0,0,0c0,0,0,0,0,0C295.1,11.1,294.9,11.1,294.6,11.1z M296.4,10.4C296.4,10.4,296.5,10.4,296.4,10.4
				C296.5,10.4,296.4,10.4,296.4,10.4L296.4,10.4z M297.3,11.3c-0.1,0-0.3-0.1-0.4-0.1C297,11.2,297.1,11.3,297.3,11.3
				c0.1,0,0.3,0,0.4-0.1C297.5,11.2,297.4,11.3,297.3,11.3z M297.7,16.2L297.7,16.2c-0.2-0.1-0.5-0.2-0.7-0.2
				C297.2,16,297.4,16.1,297.7,16.2z M294,17c0.2,0,0.5,0,0.7,0c0.6,0.4,1.1-0.1,1.6-0.1c0,0,0,0,0,0c0.3,0.3,0.5,0.8,1.1,1
				c0.2-0.2,0.3-0.4,0.3-0.6c0,0.2,0,0.5-0.3,0.6c0,0,0,0,0,0c-0.6-0.2-0.7-0.6-1.1-1c-0.5,0-1,0.6-1.6,0.2
				C294.5,16.9,294.3,17,294,17c-0.1-0.1-0.2-0.1-0.3-0.2c-0.3-0.1-0.5-0.2-0.6-0.3c0.1,0.1,0.4,0.2,0.6,0.3
				C293.8,16.8,293.9,16.9,294,17z M291.8,17c-0.6,0.8-0.2,1.6-0.2,2.3c0,0.4,0.1,0.7,0.3,0.8c-0.1-0.1-0.2-0.4-0.3-0.8
				C291.6,18.5,291.2,17.7,291.8,17c0.3-0.3,0.1-0.6-0.2-0.9C291.9,16.3,292.1,16.6,291.8,17z M288.4,17.4
				C288.4,17.4,288.3,17.4,288.4,17.4C288.3,17.4,288.4,17.4,288.4,17.4z M288.2,17.6C288.2,17.6,288.2,17.6,288.2,17.6
				C288.2,17.6,288.2,17.6,288.2,17.6z M288,17.8c0,0.1,0,0.1,0,0.2C288,17.9,288,17.9,288,17.8z M288,18.1
				C288,18.1,288,18.1,288,18.1c0.1,0,0.2,0,0.3,0c0.7,0,1.1,0.1,1.4,0.4c-0.3-0.3-0.7-0.4-1.4-0.4c0,0.3,0,0.5,0,0.8c0,0,0,0,0,0
				l0,0c0-0.3,0-0.5,0-0.8C288.2,18.1,288.1,18.1,288,18.1c-0.1,0-0.2,0-0.3,0c0,0,0,0,0,0c0,0,0,0,0,0c0,0,0,0,0,0
				C287.8,18.1,287.9,18.1,288,18.1z M287.3,18.2c-0.3,0.1-0.3,0.4-0.3,0.7c0.2,0,0.3,0,0.4-0.1c-0.1,0-0.2,0.1-0.4,0.1c0,0,0,0,0,0
				C287,18.6,287,18.3,287.3,18.2z M286.7,20.6c0-0.1,0-0.2,0-0.3C286.7,20.4,286.7,20.5,286.7,20.6c0.1,0.9-0.1,1.7-0.3,2.5
				c0,0,0,0,0,0c0,0,0,0,0,0c0,0,0,0,0,0C286.6,22.3,286.7,21.5,286.7,20.6z M286.3,24.2C286.3,24.2,286.3,24.2,286.3,24.2
				c0.1,0.3,0.3,0.6,0.5,0.7C286.6,24.7,286.4,24.5,286.3,24.2z M290.3,29.8c0,0.2,0,0.4,0,0.7c0.2,0,0.4,0,0.7,0
				c0.2-0.9,1.1-0.4,1.7-0.5c0-0.1,0-0.2,0-0.3c0,0,0,0,0,0c0,0.1,0,0.2,0,0.3c0,0.3,0,0.5,0,0.8c0.1,0,0.2,0,0.3,0
				c-0.1,0-0.2,0-0.3,0c0-0.3,0-0.5,0-0.8c-0.6,0.1-1.4-0.3-1.7,0.5c0.6,0.3,0.5,1.1,1.3,1.1v0c-0.9,0-0.8-0.8-1.3-1.1
				c-0.2,0-0.4,0-0.7,0c0,0,0,0,0,0C290.3,30.2,290.3,30,290.3,29.8z M289.6,30.1C289.5,30.1,289.5,30.1,289.6,30.1
				C289.5,30.1,289.5,30.1,289.6,30.1z M288.8,33.9c0.1-0.1,0.3-0.1,0.4-0.2c0.2-0.2,0.3-0.5,0.5-0.7c-0.1-0.1-0.2-0.4-0.3-0.4
				c0,0,0,0,0,0c0.1,0,0.2,0.3,0.3,0.4c0,0,0,0,0,0c-0.2,0.2-0.3,0.5-0.5,0.7l0,0C289.1,33.8,289,33.9,288.8,33.9
				c0.1,0,0.1,0.1,0.1,0.1c0,0,0,0,0,0C288.9,34,288.9,34,288.8,33.9z M290.2,39.3c0,0,0.1-0.1,0.1-0.1
				C290.3,39.2,290.3,39.3,290.2,39.3z M290.5,39.1c0.1-0.1,0.1-0.1,0.2-0.2c0,0,0,0,0,0C290.6,39,290.5,39.1,290.5,39.1z
				 M298.3,44.1c0.5,0,0.9-0.1,1.4,0C299.3,44,298.8,44,298.3,44.1z M301.1,47c0.1-0.8-0.5-1.5-1.1-2.2c-0.4-0.1-0.5,0-0.6,0.2
				c0.1-0.2,0.2-0.3,0.6-0.2l0,0C300.7,45.6,301.2,46.2,301.1,47z M301.6,44.9c0.2,0.2,0.4,0.5,0.5,0.8
				C302,45.4,301.8,45.1,301.6,44.9z M301.1,40.1c0.1,0,0.2-0.1,0.3-0.1C301.3,40,301.2,40.1,301.1,40.1z M302.7,39.3
				c0.1-0.1,0.2-0.1,0.2-0.2c-0.3,0-0.6,0-0.9,0c-2.4-0.2-4-1.3-5-3c0,0,0,0,0,0c1,1.8,2.6,2.8,5,3c-1.5-1-2.7-2.1-2.7-3.8h0
				c0,1.7,1.2,2.9,2.7,3.8c0.3,0,0.6,0,0.9,0l0,0C302.9,39.2,302.8,39.2,302.7,39.3z"/>
			<path class="st0" d="M301,19.1c0,0,0.1,0,0.2,0C301.1,19,301,19,301,19.1C301,19,301,19.1,301,19.1z"/>
			<path class="st0" d="M298.7,28.6c0.3,0,0.7,0,1,0c-0.2-0.3-0.5-0.5-0.7-0.8C298.6,27.9,298.7,28.3,298.7,28.6z"/>
		</g>
	</g>
	<g>
		<path class="st0" d="M328.2,60.2c0.1,1,1.4,2.2-0.4,3c-1.5,0.7-3.4,0.2-4.6-1.1c0.2-0.4-0.1-1,0.4-1.4
			C325.2,61.1,326.7,60.7,328.2,60.2z"/>
		<path class="st0" d="M328.2,60.2c-1.5,0.4-3,0.9-4.6,0.5c0-0.3,0.1-0.5,0.1-0.8c0.2,0,0.3-0.1,0.3-0.3c0.5,0,0.5-0.2,0.6-0.6
			c0.2-2,1.2-2.5,3.5-1.9C328.5,58.2,328.2,59.2,328.2,60.2z"/>
		<path class="st0" d="M328,57.2c-2.3-0.6-3.3-0.1-3.5,1.9c0,0.4-0.1,0.6-0.6,0.6c-0.3-0.1-0.7-0.2-1-0.3l0,0
			c-0.1-1.7,0.8-3.3,0.6-4.9c0.5,0,0.8,0.2,1.1,0.5c0.4,0.3,0,1.2,0.9,1.1c0.8-0.1,1.6-0.1,2.2-0.7C328.3,55.9,328.2,56.6,328,57.2z
			"/>
		<path class="st0" d="M323.6,60c0,0.3-0.1,0.5-0.1,0.8c-0.5,0.4-0.1,0.9-0.4,1.4c-1.3-0.2-1.3-1.2-1.6-2c-0.2-0.6,0.9-0.5,1.3-0.8
			l0,0C322.9,59.8,323.2,59.9,323.6,60z"/>
		<path class="st0" d="M323.6,60c-0.5,0-0.8-0.2-0.7-0.6c0.3,0.1,0.7,0.2,1,0.3C323.9,59.8,323.8,59.9,323.6,60z"/>
		<g>
			<path class="st0" d="M340.6,31.7c-0.7-1.1-0.3-2.2,0-3.4c0.9-2.5,0.7-5.1,0.6-7.7c-0.1-1.5-0.7-2.9-3-3.1c0,0,0,0,0,0
				c-0.8-0.2-1.6-0.4-2.4-0.7c0,0,0,0,0,0c-0.5-0.3-0.9-0.6-1.4-0.9c0,0,0,0,0,0c-0.1-0.2-0.2-0.5-0.6-0.6c0,0,0,0,0,0
				c-0.1-0.8,0.4-1.5,0.8-2.2c0.7-1.2,0-4-1.1-5c-0.1,1.8-0.6,2.2-3,2.8c0.2,0.4,0.5,0.7,0,1.1c-0.6,0.5-1.1,0.2-1.7,0
				c0.5,0.2,1.1,0.5,1.7,0c0.5-0.4,0.2-0.7,0-1.1l0,0c0,0,0,0,0,0c2.4-0.6,3-1.1,3-2.8c-0.1-0.1-0.2-0.2-0.3-0.2c0,0,0,0,0,0
				c-1.5-1.3-3-1.3-4.4,0c0,0-0.1,0-0.1,0c-0.7,0.1-0.8,0.6-0.9,1c-0.2,0.6-0.2,1.3-0.6,1.8c-0.8,1.1-0.3,1.9,0.8,2.5
				c0.2-0.4,0.4-0.9,0.5-1.3c0,0,0,0,0,0c-0.2,0.4-0.4,0.9-0.5,1.3c0.1,0.9,0.3,1.7,0.1,2.6c1.2,1.3,2.8,1.1,4.3,0.6
				c0.2-0.2,0.4-0.3,0.7-0.5c-0.2,0.2-0.5,0.3-0.7,0.5c-1.6,0.5-3.1,0.7-4.3-0.6c-0.1,0.1-0.2,0.2-0.3,0.3c0,0,0,0,0,0
				c-0.5,0.3-0.9,0.5-1.4,0.8c0,0,0,0,0,0c-0.7,0-1.4,0.2-2,0.5c0,0.6-0.6,0.8-1,1.1c0.4-0.3,1.1-0.5,1-1.1c-1,0.3-2.3,0.2-2.7,1.2
				c-1,2.3-1,4.7-1.5,7.1c0,0,0,0,0,0c-0.1,0.5-0.5,0.9-0.1,1.4c1.4-0.5,2.9-0.5,4.3,0.1c1.2,0.5,2.2,0.5,3.4,0.2
				c0.6-0.2,1.1,0,1.4,0.4c-0.3-0.4-0.9-0.5-1.4-0.4c-1.3,0.4-2.3,0.3-3.4-0.2c-1.4-0.6-2.8-0.6-4.3-0.1c-0.1,2.4,0.1,2.6,3.3,3.6
				c0.5-1.5,2.2-0.8,3.3-1.1c0.5-0.1,0.9-0.1,1.5-0.1c-0.5,0-1,0-1.5,0.1c-1.1,0.3-2.8-0.4-3.3,1.1c0,0.1,0,0.2,0.1,0.2c0,0,0,0,0,0
				c0,0,0,0.1,0,0.1c0,0.1,0.1,0.1,0.1,0.2c0,0,0,0,0,0c-1.8,1.3-3,2.9-3.1,4.9c0,0,0,0,0,0c-0.8,0-1.6,0.1-2,0.8c0,0,0,0.1,0,0.1
				c0,0,0-0.1,0-0.1c-1.6,0.2-2.8,1.1-4.3,1.4c-0.1,0.9-1.1,1.4-1.4,2.2c0.1,0.2,0.2,0.3,0.3,0.5c0,0,0,0,0,0c1,1.5,1.4,1.6,2.7,1.1
				c0,0,0,0-0.1,0c0,0,0,0,0,0c1.2-0.9,2.5-1.8,3.7-2.7c-0.1-0.7-0.3-1.3-0.4-2c0,0,0,0,0,0c0.1,0.7,0.3,1.3,0.4,2
				c0.8,0,1.4-0.4,2-0.7c0,0,0,0,0,0c0.4,0.1,0.3,0.5,0.5,0.7c0,0,0,0,0,0c-0.1,0.4-0.1,0.7-0.2,1.1c-0.3,0-0.7,0.1-0.7,0.4
				c0,0.3,0.4,0.3,0.7,0.4c-0.5,4,0.9,8,0.9,12c0,0.4,0.1,0.7,0.7,0.7c0.5,0,0.8,0.2,1.1,0.5c0.4,0.3,0,1.2,0.9,1.1
				c0.8-0.1,1.7-0.1,2.2-0.7c-0.2-0.4-0.6-0.8-0.5-1.1c0.7-2.5,0.2-4.9,0.3-7.4c0-0.2,0-0.5,0-0.7h0c0,0.2,0,0.5,0,0.7
				c2.2-0.2,4.5-0.4,6.7,0c0.1,0,0.2-0.1,0.2-0.2c0,0.1-0.1,0.2-0.2,0.2c1.1,0.5,1.5,1.3,1.6,2.3c0,0,0,0,0,0c0.2,1.5,0.9,2.9,1,4.4
				c0.1,1.7,0.6,3.2,1.2,4.8c0.2,0.5,0.5,0.7,1.1,0.6c0.8-0.1,0.3-0.6,0.2-0.9c-0.2-0.7-0.5-1.3-0.6-2c-0.6-2.8-0.8-5.7-1.1-8.6
				c-0.1-0.7,0-1.5-0.2-2.2c-0.4-1.8-0.4-3.4,2.4-3.9c-0.7-0.5-1.1-0.8-1.5-1.1l-0.2,0l-0.2,0c-0.3,0-0.6,0-0.9,0c0,0,0,0,0,0
				c-1.5-1-2.7-2.1-2.7-3.9c0,0,0,0,0,0c0,1.7,1.2,2.9,2.7,3.8c0.3,0,0.6,0,0.9,0l0.2,0l0.2,0c-0.1-0.3-0.2-0.6-0.3-1
				c0-0.2,0-0.3,0-0.5c0,0,0,0,0,0c1.1-1.1,0.9-2.8,2.5-3.5C341.2,34.2,340.7,33,340.6,31.7C340.6,31.8,340.6,31.8,340.6,31.7z
				 M328.6,11.6c0-0.8,0.9-0.7,1.6-0.7c0.1-0.1,0.2-0.1,0.2,0c0,0-0.1,0-0.2,0.1C329.5,11,328.6,10.9,328.6,11.6z M328.9,12.1
				C328.9,12.1,328.9,12.1,328.9,12.1C328.9,12.1,328.9,12.1,328.9,12.1z M338.7,29.3c0.1,0.3-0.7-0.2-1.1-0.1c0,0.9,1,1.6,1,2.5
				c0,0,0,0,0,0c0-0.9-1-1.5-1-2.5c-0.3,0.1-0.6,0.2-1,0.3c-0.2-0.3-0.4-0.8-1-0.8c-0.1,0.2-0.1,0.4-0.3,0.5c0.2,0,0.2-0.2,0.3-0.5
				c-0.3,0-0.5,0-0.7,0.3c0,0,0,0,0,0c-0.2,0-0.4,0-0.7,0c0.2,0.3,0.4,0.5,0.7,0.8c-0.2-0.3-0.4-0.5-0.7-0.8
				c-0.4,0.2-0.3,0.5-0.3,0.8c0.3,0,0.7,0,1,0l0,0c-0.3,0-0.7,0-1,0l0,0c0.2,0.4,0.5,0.5,1,0.5c0,0,0,0,0,0c-0.5,0-0.8-0.2-1-0.5
				c-0.9-0.2-1.2-0.4-1.2-0.5c0,0.2,0.3,0.3,1.2,0.5l0,0c0-0.3-0.1-0.6,0.3-0.8c0.2,0,0.4,0,0.7,0c0.1-0.2,0.4-0.3,0.7-0.3
				c0.6,0,0.8,0.5,1,0.8c0.3-0.1,0.6-0.2,1-0.3C338,29.2,338.8,29.6,338.7,29.3c-0.2-0.7,0.6-1.5,0.4-2
				C339.4,27.8,338.5,28.6,338.7,29.3z M327.9,43c0-0.4,0-0.9,0-1.3c0,0,0,0,0,0c0-0.1,0-0.2,0-0.3c-0.1,0-0.2,0.1-0.2,0.1
				c0-0.1,0.1-0.1,0.2-0.1c0.2-0.1,0.3-0.3,0.3-0.5c0,0,0,0,0,0c0-0.5,0-1.1,0-1.6c0.1-0.6-0.7-0.5-1-0.8c0.2,0.3,1.1,0.2,1,0.8
				c0,0.5,0,1.1,0,1.6c0,0.2,0,0.4-0.3,0.6c0,0.1,0,0.2,0,0.3C327.9,42.2,327.9,42.6,327.9,43C327.9,43,327.9,43,327.9,43
				c-0.1,0.2-0.2,0.4-0.2,0.5C327.7,43.4,327.8,43.2,327.9,43z M323.2,39.8C323.2,39.8,323.2,39.8,323.2,39.8c0.3-0.6,0.7-1,1.6-0.7
				c0.4,0.1,0.8,0.1,1.2,0.1c-0.4,0.1-0.8,0.1-1.2-0.1C323.9,38.7,323.5,39.2,323.2,39.8C323.2,39.8,323.2,39.8,323.2,39.8z
				 M330.5,42.5c0.3,0.1,0.6,0.1,0.8,0.2C331,42.5,330.8,42.5,330.5,42.5z M327.6,45.2C327.6,45.2,327.6,45.2,327.6,45.2
				c0.9,0.2,1.8-0.1,2.6,0.4c0,0,0,0,0,0C329.4,45.2,328.4,45.4,327.6,45.2C327.6,45.2,327.6,45.2,327.6,45.2
				C327.6,45.2,327.6,45.2,327.6,45.2z M335.9,43.8c0-0.1,0-0.2,0-0.3C335.9,43.6,335.9,43.7,335.9,43.8c0,0.2,0,0.3,0,0.4
				C335.9,44.1,335.9,43.9,335.9,43.8z M332.2,37.3L332.2,37.3c0.2,0.3,0.4,0.6,0.6,0.8C332.6,37.8,332.4,37.6,332.2,37.3z
				 M330.9,35.1c-0.2,0-0.4,0-0.7,0c-0.1-0.1-0.2-0.2-0.3-0.3c0,0.1,0,0.2,0,0.3c-0.1,0.2-0.2,0.4-0.4,0.5c0.1-0.2,0.2-0.4,0.4-0.5
				c0-0.1,0-0.2,0-0.3c-0.4,0-0.8,0-1,0.3c0.1,0,0.2,0.1,0.2,0.1c0,0-0.1-0.1-0.2-0.1c0,0.1,0,0.2,0,0.3l0,0
				c-1.4,0.3-2.4,1.1-3.4,1.8c0,0,0,0,0,0c1.1-0.8,2-1.6,3.4-1.8c0-0.1,0-0.2,0-0.3c0.2-0.3,0.6-0.3,1-0.3c0.1,0.1,0.2,0.2,0.3,0.3
				C330.4,35.1,330.7,35.1,330.9,35.1c0.2,0.8,1.6,0.8,1.7,1.7c0,0,0,0,0,0C332.5,35.8,331.1,35.9,330.9,35.1z M327.7,31.2
				c0.1,0,0.2,0,0.2,0c0-0.1,0-0.2,0-0.3c0,0,0,0,0,0c0,0.1,0,0.2,0,0.3c0,0.3,0,0.6,0,0.8c0,0,0.1,0,0.1,0c-0.1,0-0.1,0-0.2,0
				c0,0.3,0.1,0.6-0.3,0.8c0.4-0.2,0.3-0.5,0.3-0.8c0-0.3,0-0.6,0-0.8C327.8,31.2,327.7,31.2,327.7,31.2z M322.6,20.1
				c-0.1,0-0.2,0.1-0.4,0.1c0,0,0,0,0,0C322.4,20.1,322.5,20.1,322.6,20.1z M322.6,24.2C322.6,24.2,322.6,24.2,322.6,24.2
				c0.2-0.1,0.3-0.1,0.5-0.1C322.9,24.1,322.7,24.1,322.6,24.2c-0.2,0.1-0.5,0.1-0.7,0.2C322.1,24.3,322.3,24.2,322.6,24.2z
				 M325.2,23.6c-0.2,0,0,0.5,0.1,0.7c0.4,0.7,1.1,1,2,1.1l0,0c0.4,0.3,0.9,0.6,1.3,0c0-0.4,0-0.7,0-1.1c-0.4-0.1-0.7-0.3-1-0.5
				c0.3,0.2,0.6,0.4,1,0.5c-0.1-0.7,0.1-1.4,0-2.1c0,0.7-0.1,1.4,0,2.1c0,0.4,0,0.7,0,1.1c0,0,0,0,0,0c-0.4,0.6-0.9,0.3-1.3,0
				c-0.9,0-1.6-0.4-2-1.1c-0.3,0-0.6,0-0.8,0l0,0c0.3,0,0.6,0,0.8,0C325.2,24.1,325,23.6,325.2,23.6z M327,18.2
				c-0.2,0.3-0.3,0.6-0.3,0.9C326.7,18.8,326.8,18.5,327,18.2c0.1-0.1,0.1-0.2,0.1-0.3C327.1,18,327.1,18.1,327,18.2z M327.2,25.4
				c0-0.5-0.1-0.8-0.4-1C327.1,24.6,327.3,24.9,327.2,25.4z M324.5,24.2c-0.1,0-0.2,0-0.2,0C324.3,24.2,324.4,24.2,324.5,24.2
				L324.5,24.2z M328.7,25.5c0.3,0.3,0.2,0.6,0.2,1c0,0,0,0,0,0C328.8,26.2,329,25.8,328.7,25.5z M334.9,20.3
				C334.9,20.3,334.9,20.3,334.9,20.3C334.9,20.3,334.9,20.3,334.9,20.3L334.9,20.3z M333.9,28.3C333.9,28.3,333.9,28.2,333.9,28.3
				c-0.7-0.2-1.6,0-1.9-0.5c0.4,0.5,1.3,0.3,1.9,0.4c0.8-0.1,1.5-0.2,2-0.8c-1.3-0.4-2.5-0.8-3.9-0.9l0,0c1.4,0.1,2.7,0.5,3.9,0.9
				c0.6-0.4,0.2-0.9,0.3-1.4l0,0c0,0.5,0.3,1-0.3,1.4c-0.5,0.5-1.3,0.7-2,0.8C333.9,28.2,333.9,28.3,333.9,28.3z M336.4,31.6
				c0.1,0,0.3,0,0.4,0C336.6,31.6,336.5,31.6,336.4,31.6z M335.5,30.2c0,0-0.1,0.1-0.1,0.1C335.4,30.2,335.5,30.2,335.5,30.2z
				 M335.1,30.4C335.1,30.4,335.1,30.3,335.1,30.4C335.1,30.3,335.1,30.4,335.1,30.4z M331.3,28.6c-0.1-0.5,0.1-1.1,0.2-1.6
				c0-0.3-0.1-0.4-0.3-0.5c0.2,0.1,0.3,0.2,0.3,0.5c0,0,0,0,0,0C331.5,27.6,331.2,28.2,331.3,28.6c0.3,1-0.3,1.2-1.1,1.2
				C331.1,29.8,331.6,29.7,331.3,28.6z M328.9,33.4C328.9,33.4,328.9,33.4,328.9,33.4c-0.1-0.1-0.2-0.2-0.3-0.2
				C328.7,33.3,328.8,33.3,328.9,33.4z M330.6,32.6C330.6,32.6,330.6,32.6,330.6,32.6c-0.2-0.3-0.3-0.5-0.5-0.5
				C330.3,32.2,330.5,32.3,330.6,32.6C330.6,32.6,330.6,32.6,330.6,32.6z M336.3,25.9L336.3,25.9c-0.2-0.2-0.3-0.3-0.3-0.5
				C336,25.6,336.1,25.7,336.3,25.9c0.8,0,0.5-0.7,0.8-1C336.8,25.3,337.1,26,336.3,25.9z M336.2,20.3
				C336.2,20.3,336.1,20.3,336.2,20.3c0-0.1,0.1-0.1,0.2,0C336.3,20.3,336.2,20.3,336.2,20.3C336.2,20.3,336.2,20.3,336.2,20.3z
				 M336.2,23.8c0,0.1,0.1,0.2,0.1,0.3C336.3,23.9,336.3,23.8,336.2,23.8C336.2,23.8,336.2,23.8,336.2,23.8z M333,25.4
				c-0.1-0.1-0.2-0.1-0.3-0.2c-0.1-0.2-0.2-0.4-0.4-0.5c0.1,0.1,0.3,0.2,0.4,0.5C332.8,25.3,332.9,25.4,333,25.4z M330.9,24.6
				C330.9,24.6,330.9,24.6,330.9,24.6c-0.1-0.4,0-0.8,0.1-1.2C330.9,23.7,330.8,24.1,330.9,24.6z M327.6,33.1
				C327.6,33.1,327.6,33.1,327.6,33.1C327.5,33.1,327.5,33.1,327.6,33.1C327.6,33.1,327.6,33.1,327.6,33.1z M324.5,35
				c0.2-0.2,0.3-0.5,0.5-0.7c-0.1-0.1-0.2-0.4-0.3-0.4c0,0,0,0,0,0c0.1,0,0.2,0.3,0.3,0.4c0,0,0,0,0,0
				C324.8,34.5,324.6,34.8,324.5,35C324.5,35,324.5,35,324.5,35c-0.1,0.1-0.3,0.1-0.4,0.2c0,0,0.1,0.1,0.1,0.1c0,0,0,0,0,0
				c0,0-0.1-0.1-0.1-0.1C324.2,35.1,324.3,35.1,324.5,35z M324.7,31.3c0,0,0.1,0.1,0.1,0.1C324.8,31.3,324.7,31.3,324.7,31.3z
				 M337.5,27.7c0-0.1,0.2-0.2,0.4-0.2C337.7,27.5,337.5,27.6,337.5,27.7z M338.5,21.7c-0.2,0.4-0.4,0.8-0.6,1.3
				c0.5,0.6-0.1,0.7-0.6,0.8c0,0.4,0,0.7,0,1.1c0,0,0,0.1,0.1,0.1c0,0,0-0.1-0.1-0.1c0,0,0,0,0,0c0,0,0,0,0,0c0-0.4,0-0.7,0-1.1
				c0.5-0.1,1.1-0.2,0.6-0.8c-0.1,0-0.2,0.1-0.3,0.1c0.1-0.1,0.2-0.1,0.3-0.1C338.1,22.5,338.3,22.1,338.5,21.7
				c0.1-0.3,0.4-0.6,0.2-0.8C339,21.1,338.6,21.4,338.5,21.7z M338.6,19.6C338.6,19.6,338.6,19.6,338.6,19.6c-1.1,0.4-2.2-0.2-3.3,0
				c0,0,0,0,0,0.1c0,0,0,0,0-0.1l0,0c-0.1-0.2-0.2-0.4-0.2-0.6c0,0.2,0.1,0.4,0.2,0.6l0,0C336.4,19.4,337.5,20,338.6,19.6z
				 M333.5,11.7C333.5,11.7,333.5,11.7,333.5,11.7C333.5,11.7,333.5,11.7,333.5,11.7L333.5,11.7z M333.5,11.6c0-0.3-0.3-0.4-0.6-0.4
				C333.2,11.2,333.5,11.3,333.5,11.6z M332.5,12.5c-0.2,0-0.4-0.1-0.6-0.3C332,12.4,332.2,12.5,332.5,12.5c0.1,0,0.3,0,0.4-0.1
				C332.7,12.5,332.6,12.5,332.5,12.5z M332.9,17.4c0,0.1,0,0.1-0.1,0.2l0,0C332.8,17.6,332.9,17.5,332.9,17.4
				c-0.2-0.1-0.5-0.2-0.7-0.2C332.4,17.3,332.6,17.4,332.9,17.4z M329.2,18.2c0.2,0,0.5,0,0.7,0c0.6,0.4,1.1-0.1,1.6-0.1
				c0-0.1,0-0.3,0-0.4h0c0,0.1,0,0.2,0,0.4c0.3,0.3,0.5,0.8,1.1,1c0.5-0.4,0.2-0.9,0.3-1.3l0,0c-0.2,0.4,0.2,0.9-0.3,1.3
				c-0.2,0.7-0.6,1.4-1,2c-0.1,0.5-0.2,1.1-0.4,1.6c0,0,0,0,0,0c-0.9-0.2-1.2-1-1.8-1.4c-0.1,0-0.1-0.1-0.1-0.1c0,0,0.1,0.1,0.1,0.1
				c0.7,0.4,0.9,1.2,1.8,1.4c0.1-0.5,0.2-1.1,0.4-1.6c0,0,0,0,0,0c0.5-0.6,0.8-1.3,1-2c-0.6-0.2-0.7-0.6-1.1-1c-0.5,0-1,0.6-1.6,0.2
				C329.7,18.2,329.5,18.2,329.2,18.2c-0.1-0.1-0.2-0.1-0.3-0.2c-0.3-0.1-0.5-0.2-0.6-0.3c0.1,0.1,0.4,0.2,0.6,0.3
				C329,18.1,329.1,18.1,329.2,18.2z M323.2,19.3C323.2,19.3,323.2,19.3,323.2,19.3c0.1,0,0.2,0,0.3,0c0.7,0,1.1,0.1,1.4,0.4
				c-0.3-0.3-0.7-0.4-1.4-0.4c0,0.3,0,0.5,0,0.8c0,0.1,0,0.2,0,0.3c0.3,1.3,0.6,2.5,0.9,3.8l0,0c-0.3-1.3-0.6-2.5-0.9-3.8
				c-0.2-0.1-0.2-0.2,0-0.3c0-0.3,0-0.5,0-0.8C323.4,19.3,323.3,19.3,323.2,19.3c-0.1,0-0.2,0-0.3,0c0,0,0,0,0,0
				C323,19.3,323.1,19.3,323.2,19.3z M322.2,20.1C322.2,20.1,322.2,20.1,322.2,20.1L322.2,20.1L322.2,20.1z M321.9,21.9
				C321.9,21.9,321.9,21.9,321.9,21.9C321.9,21.9,321.9,21.9,321.9,21.9c0.1,0.9-0.1,1.7-0.3,2.5c0,0,0,0,0,0
				C321.8,23.6,322,22.7,321.9,21.9z M321.5,25.4C321.5,25.4,321.5,25.4,321.5,25.4c0.1,0.3,0.3,0.6,0.5,0.7
				C321.8,26,321.6,25.7,321.5,25.4z M328.4,29.8C328.4,29.8,328.4,29.8,328.4,29.8C328.4,29.8,328.4,29.8,328.4,29.8z M325.5,31.1
				c0,0.2,0,0.4,0,0.7c0.2,0,0.4,0,0.7,0c0.1-0.4,0.4-0.5,0.7-0.6c-0.3,0-0.6,0.1-0.7,0.6c0.6,0.3,0.5,1.1,1.3,1.1l0,0c0,0,0,0,0,0
				c-0.9,0-0.8-0.9-1.3-1.1c-0.2,0-0.4,0-0.7,0c0,0,0,0,0,0C325.5,31.5,325.5,31.2,325.5,31.1z M324.5,31.1
				C324.5,31.1,324.5,31.1,324.5,31.1C324.5,31.1,324.5,31.1,324.5,31.1z M324.2,31C324.2,31,324.2,31,324.2,31
				C324.2,31,324.2,31,324.2,31z M323.8,31.1c0,0-0.1,0-0.1,0.1C323.8,31.1,323.8,31.1,323.8,31.1z M324.1,32.6
				c0.4-0.4,0.4-0.6,0.2-0.8C324.5,32,324.5,32.2,324.1,32.6c-0.4,0.4-1.3,1-1,1.3C322.7,33.6,323.6,33,324.1,32.6z M323.2,36.2
				c-0.9,0.1-1.6,0.2-2.1,0.2C321.6,36.3,322.3,36.3,323.2,36.2z M318.6,37.6C318.6,37.6,318.6,37.6,318.6,37.6
				C318.6,37.6,318.6,37.6,318.6,37.6z M323.4,36.2C323.4,36.2,323.4,36.2,323.4,36.2c-0.2,0.1-0.3,0.1-0.5,0.2
				C323,36.3,323.2,36.2,323.4,36.2z M321.5,38.3c0-0.5,0.2-0.8,1.3-0.8c0.6,0,0.7-0.5,0.9-0.9c0.7,0.3,0.9,1.2,1.8,1.3
				c0.5-0.1,1.1,0.1,1.6-0.2c0,0,0,0,0,0c-0.5,0.3-1.1,0.1-1.6,0.2c-1-0.1-1.1-0.9-1.8-1.3c-0.3,0.4-0.3,0.9-0.9,0.9
				C321.7,37.4,321.5,37.8,321.5,38.3z M322.2,41.4c0-0.1,0-0.2-0.1-0.3C322.2,41.2,322.2,41.3,322.2,41.4z M335.2,46.1
				c-0.4-0.1-0.5,0-0.6,0.2C334.7,46.1,334.8,46,335.2,46.1c0.5,0.6,1,1.1,1.1,1.8C336.2,47.3,335.7,46.7,335.2,46.1z M337.6,47.5
				C337.7,47.5,337.7,47.5,337.6,47.5C337.7,47.5,337.7,47.5,337.6,47.5c-0.5-0.7-0.7-1.5-1.7-1.9c-0.1,0-0.3,0-0.4,0.1
				c-0.8-0.5-1.7-0.3-2.6-0.2c0,0.1-0.1,0.2-0.1,0.2c0-0.1,0.1-0.1,0.1-0.2c-0.2-0.1-0.5,0-0.6,0.1c0.1-0.2,0.4-0.2,0.6-0.1
				c0.9-0.1,1.8-0.3,2.6,0.2c0.1,0,0.3,0,0.4-0.1c0,0,0,0,0,0C337,45.9,337.1,46.8,337.6,47.5z M338.4,34.9
				c-0.6,0.8-0.8,1.8-1.5,2.7c-0.4,0.5-0.4,0.9-0.1,1.1c-0.3-0.2-0.3-0.5,0.1-1.1C337.6,36.8,337.8,35.8,338.4,34.9
				c0.4-0.6,0.3-1.3,0-1.6C338.7,33.7,338.9,34.4,338.4,34.9z M338.9,32C338.9,32.1,338.9,32.1,338.9,32c0.2,0.2,0,0.7,0.3,0.9
				C338.9,32.8,339.1,32.3,338.9,32z"/>
			<path class="st0" d="M338.2,38.9c0,0.2,0,0.3,0,0.5c0.3-0.1,0.8-0.1,0.9-0.2c0.6-1.2,2-2.3,1.6-3.8
				C339.1,36.2,339.2,37.8,338.2,38.9z"/>
			<path class="st0" d="M323.5,20.4c0-0.1,0-0.2,0-0.3C323.3,20.2,323.3,20.3,323.5,20.4z"/>
		</g>
	</g>
</g>
<g id="banco">
	<rect x="238.5" y="27.4" width="117" height="29.4"/>
</g>
<path class="st1" d="M296.4,285.1c-84.5,0-168.9,0-253.4,0.1c-3.1,0-4.5-1-5.1-4.1c-0.3-1.6-0.7-3.2-1.5-4.5
	c-3.8-6.7-1.8-12,2.2-17.9c19.1-28.8,37.7-57.8,56.5-86.8c11.9-18.3,23.7-36.6,35.6-55c12.4-19,24.8-38,37.1-57.1
	c1.4-2.1,2.7-3,5.1-3c82.5,0.1,165,0.1,247.5,0c2.3,0,3.9,0.6,5.1,2.9c3.6,7,8.5,13.1,12.8,19.7c12.3,19.1,24.3,38.4,36.9,57.3
	c9.9,14.8,19.5,29.8,29.3,44.7c18.1,27.7,36,55.5,54,83.2c1.3,2,1.5,3.5,0.5,5.8c-1.6,3.9-2.7,8-3.9,12.1c-0.6,2-1.5,2.9-3.4,2.6
	c-1.3-0.2-2.7,0-4,0C463.9,285.2,380.1,285.2,296.4,285.1C296.4,285.1,296.4,285.1,296.4,285.1z M296.1,229.2
	C296.1,229.2,296.1,229.2,296.1,229.2c56,0,111.9,0,167.9,0c5.9,0,11.8,0,17.7,0.1c1.5,0,2.8-0.4,3.4-1.7c0.7-1.4,0.1-2.6-1.1-3.7
	c-0.9-0.9-1.3-2.5-2-3.8c-6.9-13.6-14.3-26.9-21-40.6c-4.9-10.1-10.4-19.9-15.5-29.8c-6.6-12.8-13.1-25.8-19.8-38.6
	c-6.7-12.9-13.7-25.7-20.3-38.7c-1.6-3.2-3.3-4.6-6.7-4.6c-68.1,0.1-136.2,0.1-204.4,0c-3.1,0-4.9,1.2-6.4,4.1
	c-8.7,17.1-17.5,34.2-26.3,51.2c-6.4,12.5-13,24.9-19.5,37.4c-6.4,12.2-12.6,24.5-19,36.8c-4.5,8.8-9,17.6-13.8,26.3
	c-0.9,1.7-2.1,3.1-1.2,4.9c0.7,1.5,2.5,0.7,3.7,0.7C173.4,229.2,234.8,229.2,296.1,229.2z"/>
<path class="st2" d="M296.1,229.2c-61.4,0-122.7,0-184.1,0c-1.3,0-3,0.8-3.7-0.7c-0.8-1.7,0.3-3.2,1.2-4.9
	c4.8-8.7,9.2-17.5,13.8-26.3c6.3-12.3,12.6-24.6,19-36.8c6.5-12.5,13-24.9,19.5-37.4c8.8-17,17.6-34.1,26.3-51.2
	c1.5-2.9,3.2-4.1,6.4-4.1c68.1,0.1,136.2,0.1,204.4,0c3.4,0,5.1,1.4,6.7,4.6c6.6,13,13.6,25.8,20.3,38.7
	c6.6,12.8,13.1,25.8,19.8,38.6c5.1,10,10.6,19.7,15.5,29.8c6.7,13.7,14.1,27,21,40.6c0.6,1.3,1,2.9,2,3.8c1.1,1.1,1.8,2.3,1.1,3.7
	c-0.7,1.3-1.9,1.8-3.4,1.7c-5.9-0.1-11.8-0.1-17.7-0.1C408,229.2,352.1,229.2,296.1,229.2C296.1,229.2,296.1,229.2,296.1,229.2z
	 M296.8,197.9c0,0.1,0,0.1,0,0.2c40.5,0,81,0,121.5-0.1c2,0,4.1,0.5,6.2-0.2c1.5-0.5,2.2-0.9,1.4-2.7c-4.6-11.7-9.1-23.5-13.9-35.2
	c-5.3-13.2-10.4-26.6-15.6-40c-5-12.6-9.6-25.3-14.6-37.9c-0.9-2.3-2-3.2-4.4-3.2c-53.8,0-107.5,0-161.2,0c-2.5,0-3.7,0.9-4.6,3.4
	c-3.9,10.6-8.5,20.8-12.3,31.5c-3.2,9-7.1,17.8-10.5,26.8c-6.4,16.6-12.6,33.2-19,49.7c-3,7.7-3.1,7.7,4.4,7.7
	C215.1,197.9,255.9,197.9,296.8,197.9z"/>
<path class="st3" d="M296.8,197.9c-40.9,0-81.7,0-122.6,0c-7.6,0-7.4,0-4.4-7.7c6.4-16.5,12.6-33.2,19-49.7
	c3.4-9,7.3-17.7,10.5-26.8c3.8-10.6,8.4-20.9,12.3-31.5c0.9-2.5,2.1-3.4,4.6-3.4c53.8,0.1,107.5,0.1,161.2,0c2.3,0,3.4,0.9,4.4,3.2
	c5,12.6,9.6,25.3,14.6,37.9c5.2,13.3,10.3,26.7,15.6,40c4.7,11.7,9.2,23.5,13.9,35.2c0.7,1.8,0,2.3-1.4,2.7
	c-2.1,0.7-4.1,0.2-6.2,0.2c-40.5,0.1-81,0.1-121.5,0.1C296.8,198,296.8,197.9,296.8,197.9z M243,147.7
	C243,147.7,243,147.7,243,147.7c5,0,10.1-0.1,15.1,0c2.3,0.1,3.5-0.3,3.8-3.3c1.3-11.5,2.7-23.1,4.2-34.6c0.4-3.2-1.2-3.2-3.2-3.2
	c-8.2,0-16.4,0.1-24.6,0c-2.5,0-3.8,1-4.3,3.7c-2.2,11.6-6.2,22.6-8.6,34.1c-0.6,2.9,0.1,3.3,2.3,3.3
	C232.6,147.7,237.8,147.7,243,147.7z M350.1,147.7C350.1,147.7,350.1,147.7,350.1,147.7c5.3,0,10.6,0,15.8,0c1.8,0,3.1-0.2,2.4-3
	c-3-11.3-5.8-22.6-8.6-34c-0.7-2.9-1.9-4.3-4.8-4.2c-7.7,0.2-15.5,0.1-23.2,0c-4,0-5.5,1.8-4.5,6.1c0.3,1.1,0.6,2.3,0.7,3.5
	c1.3,9.5,2.6,19,3.8,28.6c0.3,2.6,1.4,3,3.4,3C340.1,147.7,345.1,147.7,350.1,147.7z"/>
<path class="st2" d="M243,147.7c-5.1,0-10.3,0-15.4,0c-2.1,0-2.9-0.4-2.3-3.3c2.4-11.5,6.4-22.6,8.6-34.1c0.5-2.7,1.8-3.7,4.3-3.7
	c8.2,0.1,16.4,0.1,24.7,0c2,0,3.7,0,3.2,3.2c-1.5,11.5-3,23-4.2,34.6c-0.3,3-1.6,3.4-3.8,3.3C253,147.6,248,147.7,243,147.7
	C243,147.7,243,147.7,243,147.7z"/>
<path class="st2" d="M350.1,147.7c-5,0-10.1-0.1-15.1,0c-2,0-3.1-0.4-3.4-3c-1.1-9.5-2.5-19.1-3.8-28.6c-0.2-1.2-0.5-2.3-0.7-3.5
	c-1-4.3,0.5-6.1,4.5-6.1c7.7,0,15.5,0.1,23.2,0c2.9-0.1,4.1,1.3,4.8,4.2c2.8,11.3,5.6,22.7,8.6,34c0.7,2.8-0.6,3-2.4,3
	C360.7,147.8,355.4,147.7,350.1,147.7C350.1,147.7,350.1,147.7,350.1,147.7z"/>
<g>
	<path class="st0" d="M439.4,36.9c-0.1,0.3-0.1,0.6-0.2,0.8c-0.1,0.1-0.1,0.2-0.3,0.2c-0.2,0-0.1-0.2-0.1-0.3c0-0.7,0-1.4,0.1-2.1
		c0.1-0.4,0.4-0.8,0.5-1.2c0.2-1,0-1.9-0.2-2.8c-0.4-1.3-0.6-2.7-0.8-4.1c-0.1-0.6-0.1-1.1-0.3-1.7c0-0.1,0-0.2-0.2-0.2
		c-0.1,0.7-0.4,1.2-0.2,2c0.3,0.9,0.4,1.9,0.2,2.8c0,0.1,0,0.2,0,0.2c0.5,0.8,0.4,1.5,0.1,2.3c-0.3,0.8-0.6,1.6-0.5,2.5
		c0.1,1-0.4,1.9-0.7,2.9c-0.1,0.5-0.3,0.9-0.4,1.4c-0.1,0.3-0.1,0.7-0.1,1c-0.1,0.7,0.2,1.3,0.3,2c0.2,0.8,0,1.7-0.1,2.5
		c-0.3,1.9-0.4,3.7-0.6,5.6c0,0.2,0,0.4-0.3,0.3c-0.2,0-0.2,0.1-0.2,0.2c-0.1,0.6-0.2,1.1-0.4,1.7c0,0.1,0,0.2,0.1,0.3
		c0.1,0.1,0.1,0.3,0.1,0.4c-0.2,1.1,0,2.2,0.1,3.2c0,0.3,0,0.6-0.5,0.6c-1.3,0.1-2.6,0.4-3.9,0.1c-0.2,0-0.5,0.1-0.5-0.3
		c0-0.3,0-0.7,0.3-0.8c1.1-0.5,1.5-1.5,1.5-2.7c0-0.4,0.4-0.6,0.2-1.1c-1-2.2-1.1-4.6-2-6.9c-0.3-0.6-0.2-1.3-0.3-2
		c-0.1-1-0.6-2-0.6-3c0-2.2-0.5-4.4-0.8-6.6c0-0.2,0-0.4-0.2-0.4c-0.4-0.1-0.4-0.5-0.4-0.8c0-0.8,0.2-1.5,0.1-2.3
		c0-0.4,0.2-0.7,0.4-1.1c0.4-0.8,0.6-1.6,0.2-2.5c-0.1-0.2-0.1-0.5-0.2-0.7c0-0.2-0.1-0.4-0.4-0.4c-0.3,0-0.2,0.3-0.2,0.4
		c0.1,1-0.2,1.9-0.4,2.8c-0.2,0.7-0.4,1.4-0.6,2c-0.1,0.4-0.2,0.8-0.2,1.2c0,0.2,0,0.4,0.2,0.6c0.2,0.3,0.4,0.6,0.4,0.9
		c0.1,0.5,0.1,1.1,0.1,1.6c0,0.1,0,0.3-0.1,0.3c-0.2,0-0.3-0.1-0.3-0.2c-0.1-0.2-0.1-0.5-0.1-0.7c0-0.1,0-0.2-0.1-0.2
		c-0.1,0-0.2,0.1-0.2,0.2c-0.1,0.6,0.1,1,0.4,1.5c0.2,0.3,0.4,0.6,0.2,0.8c-0.2,0.2-0.5-0.2-0.7-0.3c-0.7-0.4-1-1.1-1.2-1.8
		c-0.1-0.5,0.1-1,0.1-1.5c0.1-1,0.2-2.1,0.1-3.1c-0.1-1.4,0-2.7,0.2-4.1c0-0.2,0.1-0.4,0.2-0.5c0.1-0.2,0.1-0.4-0.2-0.4
		c-0.1,0-0.2-0.1-0.1-0.3c0.4-1.4,0.6-2.9,1-4.4c0.3-1.5,1-2.9,2.6-3.6c0.6-0.3,1.2-0.6,1.7-1.1c0-0.1,0.1-0.1,0.2-0.1
		c0.9-0.2,1.2-0.8,0.8-1.6c-0.4-0.8-0.4-1.6-0.6-2.5c0,0,0,0,0,0c0.5-0.6,0.1-1.3,0.2-1.9c0-0.5,0.6-1.1,1.1-1.2
		c0.2,0,0.5-0.1,0.7-0.2c0.6-0.2,1.4,0,1.8,0.5c0.2,0.2,0.4,0.4,0.5,0.6c0.2,0.6,0.4,1.1,0.2,1.7c0,0.2-0.1,0.4,0.2,0.4
		c0.1,0,0.1,0.2,0.1,0.3c-0.1,0.5,0,1.1-0.6,1.3c0,0-0.1,0-0.1,0c-0.1,0.5-0.1,1-0.1,1.4c0,0.5,0.3,0.7,0.9,0.9
		c0.6,0.3,1.2,0.7,1.9,1c0.2,0.1,0.5,0.3,0.7,0.5c1.2,0.6,1.7,1.6,1.8,3c0.1,1.5,0.3,2.9,0.5,4.4c0,0.2,0.1,0.4-0.1,0.5
		c-0.1,0.1-0.1,0.4-0.1,0.6c0.4,1.6,0.4,3.2,0.4,4.8c0,1.3,0.1,2.6,0.1,4c0,0.2,0,0.5,0.1,0.7c0.2,0.6,0.1,1.2,0,1.8
		c0,0.3-0.2,0.5-0.4,0.6c-0.4,0.5-0.9,0.9-1.5,1.2c-0.1,0-0.1,0-0.2,0c-0.1-0.1,0-0.2,0-0.3c0.2-0.4,0.4-0.7,0.4-1.1
		C439.5,37.3,439.5,37.2,439.4,36.9z"/>
</g>
<g>
	<path class="st0" d="M588.2,250.3c-0.3,0.5-0.2,1-0.5,1.4c-0.2,0.2-0.3,0.5-0.6,0.4c-0.3-0.1-0.2-0.4-0.2-0.5
		c0-1.3-0.1-2.6,0.2-3.9c0.2-0.8,0.9-1.4,1.1-2.2c0.5-1.7,0-3.4-0.5-5.1c-0.7-2.4-1.1-4.9-1.6-7.4c-0.2-1-0.2-2.1-0.7-3.1
		c-0.1-0.1-0.1-0.3-0.4-0.4c-0.1,1.2-0.9,2.3-0.4,3.6c0.6,1.7,0.8,3.4,0.3,5.2c0,0.1,0,0.3,0,0.4c1,1.4,0.8,2.7,0.2,4.2
		c-0.6,1.4-1.2,2.9-1.1,4.5c0.2,1.9-0.9,3.5-1.4,5.2c-0.2,0.9-0.5,1.7-0.9,2.5c-0.2,0.6-0.1,1.2-0.2,1.9c-0.2,1.3,0.3,2.4,0.6,3.6
		c0.3,1.5,0,3-0.3,4.5c-0.5,3.4-0.8,6.8-1.2,10.1c0,0.4,0,0.7-0.6,0.6c-0.4,0-0.5,0.2-0.5,0.5c-0.2,1-0.5,2.1-0.7,3.1
		c0,0.2,0,0.4,0.2,0.5c0.2,0.2,0.2,0.5,0.1,0.7c-0.5,2,0.1,3.9,0.3,5.9c0.1,0.5,0,1-0.9,1.1c-2.6,0.2-5.3,0.7-7.9,0.3
		c-0.4-0.1-1,0.1-1.1-0.5c-0.1-0.6,0-1.3,0.7-1.5c2.3-1,3-2.7,3-4.9c0-0.7,0.8-1.2,0.3-1.9c-2.1-3.9-2.2-8.5-4-12.5
		c-0.5-1.2-0.4-2.4-0.5-3.6c-0.3-1.9-1.2-3.6-1.1-5.5c0-4.1-1.1-8-1.6-12c0-0.3,0-0.6-0.4-0.8c-0.8-0.3-0.8-0.9-0.8-1.5
		c0-1.4,0.3-2.8,0.2-4.1c0-0.7,0.3-1.3,0.7-1.9c0.9-1.4,1.3-2.9,0.3-4.5c-0.2-0.4-0.3-0.8-0.4-1.3c-0.1-0.4-0.2-0.7-0.7-0.6
		c-0.6,0-0.5,0.5-0.5,0.8c0.2,1.8-0.4,3.5-0.8,5.1c-0.3,1.3-0.8,2.5-1.3,3.7c-0.3,0.7-0.5,1.5-0.5,2.3c0,0.4,0.1,0.7,0.3,1
		c0.5,0.5,0.7,1,0.8,1.6c0.1,1,0.2,1.9,0.3,2.9c0,0.2,0.1,0.5-0.3,0.6c-0.3,0-0.6-0.2-0.7-0.4c-0.2-0.4-0.3-0.8-0.3-1.3
		c0-0.2,0-0.4-0.2-0.4c-0.3,0-0.3,0.2-0.4,0.4c-0.2,1,0.2,1.9,0.8,2.7c0.3,0.5,0.8,1.1,0.4,1.5c-0.4,0.3-1-0.3-1.4-0.6
		c-1.5-0.7-2.1-2-2.5-3.3c-0.3-0.9,0.2-1.9,0.3-2.8c0.1-1.9,0.4-3.8,0.2-5.7c-0.2-2.5,0-4.9,0.5-7.4c0.1-0.3,0.2-0.6,0.3-0.9
		c0.2-0.4,0.3-0.7-0.3-0.8c-0.3,0-0.4-0.1-0.3-0.5c0.8-2.6,1.3-5.3,1.9-7.9c0.6-2.8,2-5.4,5.2-6.6c1.2-0.5,2.4-1.1,3.3-2
		c0.1-0.1,0.2-0.2,0.4-0.2c1.7-0.4,2.4-1.5,1.6-2.9c-0.8-1.4-0.9-3-1.2-4.5c0,0,0-0.1,0-0.1c1.1-1.1,0.3-2.3,0.3-3.5
		c0-0.9,1.2-2,2.2-2.2c0.5-0.1,1-0.2,1.5-0.4c1.2-0.5,2.8,0,3.6,1c0.3,0.4,0.9,0.6,1.1,1.2c0.5,1,0.8,2,0.5,3.1
		c-0.1,0.3-0.2,0.6,0.3,0.7c0.2,0,0.3,0.3,0.3,0.5c-0.2,0.9-0.1,1.9-1.2,2.4c0,0-0.1,0-0.2,0.1c-0.3,0.9-0.3,1.8-0.3,2.6
		c0,0.8,0.7,1.3,1.8,1.7c1.3,0.5,2.5,1.2,3.8,1.9c0.5,0.3,0.9,0.6,1.4,0.8c2.4,1.1,3.4,2.9,3.5,5.4c0.2,2.7,0.7,5.3,1,8
		c0,0.3,0.2,0.6-0.2,0.9c-0.3,0.2-0.2,0.7-0.1,1c0.7,2.9,0.8,5.8,0.8,8.7c-0.1,2.4,0.2,4.8,0.2,7.2c0,0.4,0.1,0.9,0.2,1.3
		c0.3,1.1,0.2,2.1,0.1,3.2c0,0.5-0.5,0.8-0.8,1.1c-0.8,0.9-1.7,1.7-2.9,2.1c-0.2,0-0.3,0.1-0.4,0c-0.2-0.2-0.1-0.4,0-0.5
		c0.3-0.7,0.8-1.3,0.9-2.1C588.3,251,588.4,250.7,588.2,250.3z"/>
</g>
<g>
	<path class="st0" d="M166.1,40.1c-0.1,0.3-0.1,0.6-0.2,0.8c-0.1,0.1-0.1,0.2-0.3,0.2c-0.2,0-0.1-0.2-0.1-0.3c0-0.7-0.1-1.4,0.1-2.1
		c0.1-0.4,0.4-0.8,0.5-1.2c0.2-1,0-1.9-0.2-2.8c-0.4-1.3-0.6-2.7-0.8-4.1c-0.1-0.6-0.1-1.1-0.3-1.7c0-0.1,0-0.2-0.2-0.2
		c-0.1,0.7-0.4,1.2-0.2,2c0.3,0.9,0.4,1.9,0.2,2.8c0,0.1,0,0.2,0,0.2c0.5,0.8,0.4,1.5,0.1,2.3c-0.3,0.8-0.6,1.6-0.6,2.5
		c0.1,1-0.4,1.9-0.7,2.9c-0.1,0.5-0.3,0.9-0.4,1.4c-0.1,0.3-0.1,0.7-0.1,1c-0.1,0.7,0.2,1.3,0.3,2c0.2,0.8,0,1.7-0.1,2.5
		c-0.3,1.9-0.4,3.7-0.6,5.6c0,0.2,0,0.4-0.3,0.3c-0.2,0-0.2,0.1-0.2,0.2c-0.1,0.6-0.2,1.1-0.4,1.7c0,0.1,0,0.2,0.1,0.3
		c0.1,0.1,0.1,0.3,0.1,0.4c-0.2,1.1,0,2.2,0.1,3.2c0,0.3,0,0.6-0.5,0.6c-1.3,0.1-2.6,0.4-3.9,0.1c-0.2,0-0.5,0.1-0.5-0.3
		c0-0.3,0-0.7,0.3-0.8c1.1-0.5,1.5-1.5,1.5-2.7c0-0.4,0.4-0.6,0.2-1.1c-1.1-2.2-1.1-4.6-2-6.9c-0.3-0.6-0.2-1.3-0.3-2
		c-0.1-1-0.6-2-0.6-3c0-2.2-0.6-4.4-0.8-6.6c0-0.2,0-0.4-0.2-0.4c-0.4-0.1-0.4-0.5-0.4-0.8c0-0.8,0.2-1.5,0.1-2.3
		c0-0.4,0.2-0.7,0.4-1.1c0.4-0.8,0.6-1.6,0.2-2.5c-0.1-0.2-0.1-0.5-0.2-0.7c0-0.2-0.1-0.4-0.4-0.4c-0.3,0-0.2,0.3-0.2,0.4
		c0.1,1-0.2,1.9-0.4,2.8c-0.2,0.7-0.4,1.4-0.6,2c-0.1,0.4-0.2,0.8-0.2,1.2c0,0.2,0,0.4,0.2,0.6c0.2,0.3,0.4,0.6,0.4,0.9
		c0.1,0.5,0.1,1.1,0.1,1.6c0,0.1,0,0.3-0.1,0.3c-0.2,0-0.3-0.1-0.3-0.2c-0.1-0.2-0.1-0.5-0.1-0.7c0-0.1,0-0.2-0.1-0.2
		c-0.1,0-0.2,0.1-0.2,0.2c-0.1,0.6,0.1,1,0.4,1.5c0.2,0.3,0.4,0.6,0.2,0.8c-0.2,0.2-0.5-0.2-0.7-0.3c-0.7-0.4-1-1.1-1.2-1.8
		c-0.1-0.5,0.1-1,0.1-1.5c0.1-1,0.2-2.1,0.1-3.1c-0.1-1.4,0-2.7,0.2-4.1c0-0.2,0.1-0.4,0.2-0.5c0.1-0.2,0.1-0.4-0.2-0.4
		c-0.1,0-0.2-0.1-0.1-0.3c0.4-1.4,0.6-2.9,0.9-4.4c0.3-1.5,1-2.9,2.6-3.6c0.6-0.3,1.2-0.6,1.7-1.1c0.1-0.1,0.1-0.1,0.2-0.1
		c0.9-0.2,1.2-0.8,0.8-1.6c-0.4-0.8-0.4-1.6-0.6-2.5c0,0,0,0,0,0c0.5-0.6,0.1-1.3,0.2-1.9c0-0.5,0.6-1.1,1.1-1.2
		c0.2,0,0.5-0.1,0.7-0.2c0.6-0.2,1.4,0,1.8,0.5c0.2,0.2,0.4,0.4,0.6,0.6c0.2,0.6,0.4,1.1,0.2,1.7c-0.1,0.2-0.1,0.4,0.2,0.4
		c0.1,0,0.1,0.2,0.1,0.3c-0.1,0.5-0.1,1.1-0.6,1.3c0,0-0.1,0-0.1,0c-0.1,0.5-0.1,1-0.1,1.4c0,0.5,0.3,0.7,0.9,0.9
		c0.6,0.3,1.2,0.7,1.9,1c0.2,0.1,0.5,0.3,0.7,0.5c1.2,0.6,1.7,1.6,1.8,3c0.1,1.5,0.3,2.9,0.5,4.4c0,0.2,0.1,0.4-0.1,0.5
		c-0.1,0.1-0.1,0.4-0.1,0.6c0.4,1.6,0.4,3.2,0.4,4.8c0,1.3,0.1,2.6,0.1,4c0,0.2,0.1,0.5,0.1,0.7c0.2,0.6,0.1,1.2,0.1,1.8
		c0,0.3-0.2,0.5-0.4,0.6c-0.4,0.5-0.9,0.9-1.4,1.2c-0.1,0-0.1,0-0.2,0c-0.1-0.1,0-0.2,0-0.3c0.2-0.4,0.4-0.7,0.4-1.1
		C166.2,40.5,166.2,40.3,166.1,40.1z"/>
</g>
<g>
	<path class="st0" d="M36,247.5c-0.3,0.5-0.2,1-0.5,1.4c-0.2,0.2-0.3,0.5-0.6,0.4c-0.3-0.1-0.2-0.4-0.2-0.5c0-1.3-0.1-2.6,0.2-3.9
		c0.2-0.8,0.9-1.4,1.1-2.2c0.5-1.7,0-3.4-0.5-5.1c-0.7-2.4-1.1-4.9-1.6-7.4c-0.2-1-0.2-2.1-0.7-3.1c-0.1-0.1-0.1-0.3-0.4-0.4
		c-0.1,1.2-0.9,2.3-0.4,3.6c0.6,1.7,0.8,3.4,0.3,5.2c0,0.1,0,0.3,0,0.4c1,1.4,0.8,2.7,0.2,4.2c-0.6,1.4-1.2,2.9-1.1,4.5
		c0.2,1.9-0.9,3.5-1.4,5.2c-0.2,0.9-0.5,1.7-0.9,2.5c-0.2,0.6-0.1,1.2-0.2,1.9c-0.2,1.3,0.3,2.4,0.6,3.6c0.3,1.5,0,3-0.3,4.5
		c-0.5,3.4-0.8,6.8-1.2,10.1c0,0.4,0,0.7-0.6,0.6c-0.4,0-0.5,0.2-0.5,0.5c-0.2,1-0.5,2.1-0.7,3.1c0,0.2,0,0.4,0.2,0.5
		c0.2,0.2,0.2,0.5,0.1,0.7c-0.5,2,0.1,3.9,0.3,5.9c0.1,0.5,0,1-0.9,1.1c-2.6,0.2-5.3,0.7-7.9,0.3c-0.4-0.1-1,0.1-1.1-0.5
		c-0.1-0.6,0-1.3,0.6-1.5c2.3-1,3-2.7,3-4.9c0-0.7,0.8-1.2,0.4-1.9c-2.1-3.9-2.2-8.5-4-12.5c-0.5-1.2-0.4-2.4-0.5-3.6
		c-0.3-1.9-1.2-3.6-1.1-5.5c0-4.1-1.1-8-1.6-12c0-0.3,0-0.6-0.4-0.8c-0.8-0.3-0.8-0.9-0.8-1.5c0-1.4,0.3-2.8,0.2-4.1
		c0-0.7,0.3-1.3,0.7-1.9c0.9-1.4,1.3-2.9,0.4-4.5c-0.2-0.4-0.3-0.8-0.4-1.3c-0.1-0.4-0.2-0.7-0.7-0.6c-0.6,0-0.5,0.5-0.5,0.8
		c0.2,1.8-0.4,3.5-0.8,5.1c-0.3,1.3-0.8,2.5-1.3,3.7c-0.3,0.7-0.5,1.5-0.5,2.3c0,0.4,0.1,0.7,0.3,1c0.5,0.5,0.7,1,0.8,1.6
		c0.1,1,0.2,1.9,0.3,2.9c0,0.2,0.1,0.5-0.3,0.6c-0.3,0-0.6-0.2-0.7-0.4c-0.2-0.4-0.3-0.8-0.3-1.3c0-0.2,0-0.4-0.2-0.4
		c-0.3,0-0.3,0.2-0.4,0.4c-0.2,1,0.2,1.9,0.8,2.7c0.3,0.5,0.8,1.1,0.4,1.5c-0.4,0.3-1-0.3-1.4-0.6c-1.5-0.7-2.1-2-2.5-3.3
		c-0.3-0.9,0.2-1.9,0.3-2.8c0.1-1.9,0.4-3.8,0.2-5.7c-0.2-2.5,0-4.9,0.5-7.4c0.1-0.3,0.2-0.6,0.3-0.9c0.2-0.4,0.3-0.7-0.3-0.8
		c-0.3,0-0.4-0.1-0.3-0.5c0.8-2.6,1.3-5.3,1.9-7.9c0.6-2.8,2-5.4,5.2-6.6c1.2-0.5,2.4-1.1,3.4-2c0.1-0.1,0.2-0.2,0.4-0.2
		c1.7-0.4,2.4-1.5,1.6-2.9c-0.8-1.4-0.9-3-1.2-4.5c0,0,0-0.1,0-0.1c1.1-1.1,0.3-2.3,0.3-3.5c0-0.9,1.2-2,2.2-2.2
		c0.5-0.1,1-0.2,1.5-0.4c1.2-0.5,2.8,0,3.6,1c0.3,0.4,0.9,0.6,1.1,1.2c0.5,1,0.8,2,0.5,3.1c-0.1,0.3-0.2,0.6,0.3,0.7
		c0.2,0,0.3,0.3,0.3,0.5c-0.2,0.9-0.1,1.9-1.2,2.4c0,0-0.1,0-0.2,0.1c-0.3,0.9-0.3,1.8-0.3,2.6c0,0.8,0.7,1.3,1.8,1.7
		c1.3,0.5,2.5,1.2,3.8,1.9c0.5,0.3,0.9,0.6,1.4,0.8c2.4,1.1,3.4,2.9,3.5,5.4c0.2,2.7,0.7,5.3,1,8c0,0.3,0.2,0.6-0.2,0.9
		c-0.3,0.2-0.2,0.7-0.1,1c0.7,2.9,0.8,5.8,0.8,8.7c-0.1,2.4,0.2,4.8,0.2,7.2c0,0.4,0.1,0.9,0.2,1.3c0.3,1.1,0.2,2.1,0.1,3.2
		c0,0.5-0.5,0.8-0.8,1.1c-0.8,0.9-1.7,1.7-2.9,2.1c-0.2,0-0.3,0.1-0.4,0c-0.2-0.2-0.1-0.4,0-0.5c0.3-0.7,0.8-1.3,0.9-2.1
		C36.2,248.2,36.2,247.9,36,247.5z"/>
</g>
<g>
	<path class="st0" d="M312.1,171.9c-0.3,0.5-0.2,1-0.4,1.3c-0.1,0.2-0.3,0.4-0.6,0.4c-0.3-0.1-0.2-0.3-0.2-0.5
		c0-1.2-0.1-2.5,0.2-3.7c0.2-0.8,0.8-1.3,1-2.1c0.4-1.7,0-3.3-0.5-4.8c-0.7-2.3-1.1-4.7-1.5-7c-0.2-1-0.2-2-0.6-2.9
		c-0.1-0.1-0.1-0.3-0.4-0.4c-0.1,1.1-0.9,2.1-0.4,3.4c0.6,1.6,0.7,3.2,0.3,4.9c0,0.1,0,0.3,0,0.4c1,1.3,0.8,2.5,0.2,4
		c-0.5,1.4-1.2,2.8-1.1,4.3c0.1,1.8-0.9,3.3-1.4,5c-0.2,0.8-0.5,1.6-0.8,2.4c-0.2,0.6-0.1,1.2-0.2,1.8c-0.2,1.2,0.3,2.3,0.6,3.4
		c0.3,1.4,0,2.9-0.3,4.3c-0.5,3.2-0.8,6.5-1.2,9.7c0,0.4,0,0.6-0.5,0.6c-0.4,0-0.4,0.2-0.5,0.4c-0.2,1-0.5,2-0.7,2.9
		c0,0.2,0,0.4,0.1,0.5c0.1,0.2,0.2,0.5,0.1,0.7c-0.5,1.9,0.1,3.8,0.3,5.6c0.1,0.5,0,1-0.9,1c-2.6,0.2-5.1,0.7-7.7,0.2
		c-0.4-0.1-1,0.1-1-0.5c-0.1-0.6,0-1.2,0.6-1.5c2.2-0.9,2.9-2.6,2.9-4.6c0-0.6,0.7-1.1,0.3-1.8c-2-3.8-2.1-8-3.9-11.9
		c-0.5-1.1-0.4-2.3-0.5-3.4c-0.2-1.8-1.1-3.4-1.1-5.3c0-3.9-1.1-7.6-1.5-11.4c0-0.3,0-0.6-0.4-0.7c-0.8-0.3-0.7-0.8-0.7-1.4
		c0-1.3,0.3-2.6,0.2-4c0-0.7,0.3-1.3,0.7-1.9c0.9-1.4,1.2-2.8,0.3-4.3c-0.2-0.4-0.3-0.8-0.4-1.2c-0.1-0.4-0.2-0.7-0.7-0.6
		c-0.5,0-0.5,0.5-0.4,0.7c0.2,1.7-0.4,3.3-0.8,4.9c-0.3,1.2-0.8,2.4-1.3,3.5c-0.3,0.7-0.4,1.4-0.4,2.2c0,0.4,0.1,0.7,0.3,1
		c0.4,0.5,0.7,1,0.7,1.6c0.1,0.9,0.2,1.8,0.3,2.8c0,0.2,0.1,0.5-0.3,0.6c-0.3,0-0.5-0.1-0.6-0.4c-0.2-0.4-0.3-0.8-0.3-1.2
		c0-0.2,0-0.3-0.2-0.4c-0.3,0-0.3,0.1-0.4,0.4c-0.2,1,0.2,1.8,0.8,2.6c0.3,0.5,0.8,1,0.4,1.4c-0.4,0.3-0.9-0.3-1.4-0.5
		c-1.4-0.7-2-1.9-2.4-3.2c-0.3-0.8,0.2-1.8,0.3-2.6c0.1-1.8,0.4-3.6,0.2-5.4c-0.2-2.4,0-4.7,0.5-7c0.1-0.3,0.2-0.6,0.3-0.9
		c0.2-0.4,0.2-0.6-0.3-0.7c-0.3,0-0.4-0.1-0.3-0.5c0.8-2.5,1.3-5,1.9-7.5c0.6-2.7,1.9-5.1,5-6.3c1.2-0.5,2.3-1.1,3.2-1.9
		c0.1-0.1,0.2-0.2,0.4-0.2c1.7-0.4,2.3-1.4,1.5-2.8c-0.8-1.4-0.9-2.8-1.1-4.3c0,0,0-0.1,0-0.1c1-1,0.2-2.2,0.3-3.3
		c0-0.8,1.1-1.9,2.1-2.1c0.5-0.1,1-0.2,1.4-0.4c1.1-0.4,2.7,0,3.5,0.9c0.3,0.4,0.8,0.6,1.1,1.1c0.5,1,0.8,1.9,0.4,3
		c-0.1,0.3-0.2,0.6,0.3,0.7c0.2,0,0.3,0.3,0.2,0.5c-0.2,0.9-0.1,1.8-1.2,2.3c0,0-0.1,0-0.1,0.1c-0.3,0.8-0.3,1.7-0.3,2.5
		c0,0.8,0.7,1.2,1.7,1.6c1.3,0.5,2.4,1.2,3.6,1.8c0.5,0.2,0.9,0.6,1.4,0.8c2.4,1,3.3,2.8,3.4,5.1c0.2,2.5,0.6,5.1,1,7.6
		c0,0.3,0.2,0.6-0.2,0.9c-0.3,0.2-0.2,0.6-0.1,1c0.7,2.7,0.8,5.5,0.7,8.3c0,2.3,0.2,4.6,0.2,6.9c0,0.4,0.1,0.8,0.2,1.2
		c0.3,1,0.1,2,0.1,3c0,0.5-0.5,0.8-0.8,1.1c-0.8,0.8-1.7,1.6-2.8,2c-0.1,0-0.3,0.1-0.4,0c-0.2-0.2-0.1-0.3,0-0.5
		c0.3-0.6,0.8-1.2,0.9-2C312.3,172.5,312.4,172.2,312.1,171.9z"/>
</g>
<path class="st4" d="M311.3,64.9c0.2,0.1,0.4,0.2,0.6,0.4c0.9,0.6,1.3,1.5,1.8,2.4c0.2,0.4,0.4,0.9,0.6,1.3c0.1,0.2,0.4,0.5,0.6,0.7
	c0.8,0.8,1.6,1.5,2.3,2.4c0.6,0.6,1.2,1.3,1.8,2c0.7,0.9,1.5,1.9,2.1,2.9c0.6,0.9,1.1,1.8,1.7,2.6c0.2,0.3,0.4,0.5,0.6,0.8
	c0.5,0.8,1,1.5,1.1,2.5c0,0.1,0.2,0.2,0.3,0.2c0.6,0.1,0.9,0.5,1.1,1c0.2,0.7,0.7,1.1,1.4,1.3c0.5,0.1,1,0.2,1.4,0.3
	c0.7,0.2,1.4,0.3,2.1,0.5c1,0.2,2,0.4,3,0.6c0.4,0.1,0.9,0.1,1.3,0.1c0.5,0,1,0,1.5,0.1c0.7,0,1.3,0.1,2,0.2c0.4,0,0.8,0,1.2,0
	c1.1,0,2.2,0,3.2,0.5c0.3,0.2,0.6,0.5,0.9,0.7c0.1,0.1,0.2,0.1,0.3,0.2c0.5,0.3,1,0.7,1.7,0.7c0.4,0,0.7,0.3,1,0.5
	c0.1,0,0.3,0.1,0.4,0.1c0.1-0.1,0.2-0.3,0.3-0.4c0.1-0.4,0.2-0.7,0.2-1.1c0.1-0.5,0.5-0.9,0.7-1.4c0.1-0.2,0.1-0.4,0.2-0.6
	c0.1-0.2,0.1-0.4,0.3-0.6c0.3-0.4,0.5-0.8,0.9-1.2c0.4-0.4,0.9-0.7,1.5-0.8c0.7-0.1,1.4-0.1,2,0.1c1.3,0.4,2.3,1.1,2.6,2.5
	c0.2,1.1,0.2,2.3-0.6,3.2c-0.3,0.4-0.5,0.7-0.6,1.2c-0.1,0.4-0.6,0.5-1,0.7c-0.3,0.1-0.8,0.1-1,0.3c-0.4,0.4-0.7,0.9-1,1.4
	c0,0.1,0,0.2,0.1,0.3c0.2,0.5,0.4,0.9-0.1,1.4c-0.3,0.3-0.3,0.7-0.1,1.1c0.4,0.7,0.7,1.5,1,2.2c0.1,0.3,0.3,0.5,0.5,0.7
	c0.5,0.5,0.7,1,0.7,1.7c0,0.3,0,0.6,0.1,0.9c0.1,0.3,0,0.6-0.1,0.8c-0.2,0.4-0.5,0.9-0.7,1.3c-0.1,0.3,0,0.6,0,1
	c0,0.7,0,1.4-0.1,2.1c-0.1,0.6-0.7,1.1-1.2,1.5c-0.6,0.4-1.2,0.7-1.8,1c-0.4,0.2-0.8,0.4-1.3,0.2c-0.8-0.3-1.4-0.7-1.8-1.3
	c-0.4-0.6-0.5-1.2-0.5-1.9c0-0.5,0-0.7-0.7-0.5c-0.6,0.2-1.3,0.3-1.9,0.4c-0.9,0.1-1.8,0.3-2.7,0.4c-0.6,0.1-1.2,0.2-1.9,0.2
	c-1,0-2,0-2.9,0c-0.8,0-1.4-0.2-1.8-0.9c-0.2-0.3-0.3-0.7-0.5-1c-0.1-0.1-0.2-0.2-0.3-0.3c-0.1,0.1-0.2,0.3-0.2,0.4
	c-0.1,0.5,0.1,1,0.4,1.5c0.1,0.2,0.2,0.4,0.3,0.6c0.2,0.3,0.3,0.5,0.5,0.8c0.3,0.3,0.5,0.6,0.6,1.1c0.1,0.8-0.6,1.3-1.1,1.6
	c-0.3,0.1-0.6,0.2-0.7,0.4c-0.2,0.2-0.2,0.5-0.2,0.7c0,0.1,0,0.3,0,0.4c0,0.8-0.1,1.7-0.1,2.5c0,0.5,0.1,1.1,0.2,1.6
	c0.2,1.1,0.5,2.2,0.2,3.3c-0.1,0.2-0.1,0.4-0.2,0.6c-0.2,0.7,0,1.4,0.4,2.1c0.1,0.3,0.2,0.5,0.3,0.8c0.1,0.8,0.2,1.7,0.3,2.5
	c0,0.3,0,0.5,0,0.8c0,0.6,0,1.2,0.1,1.7c0.1,0.9,0.4,1.7,0.6,2.6c0.1,0.5,0.3,1,0.4,1.4c0,0.1,0.1,0.2,0,0.2
	c-0.4,0.5,0.1,0.8,0.3,1.1c0.3,0.6,0.7,1.1,1.2,1.6c0.4,0.4,1,0.7,1.6,0.9c0.8,0.3,1.6,0.5,2.4,0.9c0.7,0.3,1.2,0.8,1.8,1.2
	c0.1,0,0.1,0.2,0.1,0.3c-0.1,0.1-0.3,0.3-0.4,0.3c-0.3,0-0.6-0.1-0.9-0.1c-0.7,0-1.3-0.1-2-0.1c-0.5,0-1.1,0-1.6,0.1
	c-0.5,0-1,0.1-1.5,0.2c-1.2,0-2.4,0-3.6,0c0-0.1-0.1-0.3-0.1-0.5c0-0.7,0.1-1.4,0-2c-0.2-1.1-0.5-2.2-0.8-3.4c-0.5,0-0.9,0-1.3-0.1
	c-0.7-0.1-1.4-0.1-2.2,0c-0.3,0-0.7,0-1-0.1c-0.1,0-0.1-0.4-0.2-0.6c0,0,0,0,0,0c-0.2-0.7-0.3-1.4-0.5-2.1c-0.3-1.2-0.3-2.5-0.4-3.7
	c-0.1-0.8-0.2-1.6-0.3-2.4c-0.1-0.9-0.3-1.8-0.3-2.7c0-2.3-0.2-4.6-0.4-6.9c-0.1-1.4-0.2-2.8-0.3-4.2c0-0.3,0-0.7-0.1-1
	c-0.1-1.2-0.2-2.4-0.3-3.7c-0.1-1-0.1-1.9-0.1-2.9c0-0.6,0-1.2,0-1.8c0-0.4,0-0.8-0.1-1.2c-0.2-0.5-0.4-1.1-0.4-1.6
	c0-0.3-0.1-0.7-0.3-1c-0.2-0.2-0.3-0.5-0.5-0.8c-0.8-1.1-1.5-2.2-2.3-3.3c-0.2-0.4-0.5-0.7-0.7-1.1c-0.4-0.7-0.7-1.4-1.1-2.2
	c-0.2-0.5-0.5-1-0.7-1.5c-0.4-1.1-1.1-2-2-2.7c-0.6-0.4-1.1-0.9-1.5-1.5c-0.5-0.7-1.1-1.4-1.7-2.1c-0.5-0.6-1-1.1-1.5-1.6
	c-0.2-0.2-0.2-0.3,0-0.4c0.3-0.2,0.6-0.5,0.8-0.8c0.8-0.9,1.6-1.7,2.4-2.6c0.1-0.1,0.1-0.2,0-0.3c-0.2-0.6-0.4-1.2-0.6-1.8
	c-0.3-0.8-0.6-1.6-1-2.4c-0.1-0.2-0.1-0.5-0.5-0.5c-0.2,0-0.5-0.1-0.6-0.3c-0.2-0.2-0.5-0.3-0.8-0.3c-0.4,0-0.9-0.4-0.9-0.7
	c0-0.3,0-0.7,0.1-1c0-0.3,0.1-0.6-0.1-0.9c-0.2-0.2-0.4-0.5-0.6-0.7c0-0.3,0-0.7,0-1c0.2-0.2,0.3-0.4,0.5-0.5
	c0.2-0.2,0.5-0.3,0.7-0.5C310.9,64.9,311.1,64.9,311.3,64.9z M331.9,91.6c0.1,0.1,0.1,0.3,0.1,0.4c0.2,0.2,0.4,0.3,0.5,0.5
	c0.2,0.1,0.4,0.2,0.6,0.4c0.2,0.3,0.9,0.3,1.2,0.1c0.4-0.4,0.2-0.9,0.2-1.3c0-0.1-0.2-0.2-0.3-0.2C333.4,91.5,332.7,91.6,331.9,91.6
	z"/>
<path class="st4" d="M305.7,88.9c0.3,0.6,0.5,1.1,0.8,1.5c0.1,0.2,0.2,0.4,0.4,0.4c0.2,0,0.5-0.1,0.6-0.2c0.5-0.7,1.2-1.4,0.8-2.3
	c-0.1-0.3,0.2-0.8,0.4-1.1c0.3-0.5,0.7-1,0-1.5c-0.7-0.5-1.3-0.3-2,0c-0.5,0.2-1.1,0.4-1.7,0.5c-0.1,0-0.4,0-0.5,0.1
	c-1.3,1.4-3.5,1.4-5.3,2c-3.4,1.2-6.6,2.6-9.6,4.3c-2.6,1.5-5.5,2.9-8.2,4.3c-0.2,0.1-0.4,0.2-0.6,0.3c-1.9,1.3-1.9,1.3-4.6,1.5
	c1-0.5,2.1-1,3.2-1.4c1.2-0.4,1.7-1,1.2-1.9c-0.3-0.5-0.1-0.7,0.3-1c1.4-0.8,1-2-0.4-3.2c-0.9-0.7-1.6-0.3-2.3-0.1
	c-0.5,0.2-0.7,0.8-1,1.3c-0.1,0.3,0,0.8-0.2,1c-0.6,0.4-1.3,0.9-2,1c-1.6,0.2-2.9,0.8-4.1,1.6c-0.2,0.2-0.6,0.4-0.9,0.3
	c-2.9-0.1-5.9,0.2-8.8-0.3c-2.5-0.4-5-0.2-7,1.3c-0.1,0-0.1-0.1-0.2-0.1c0.1-0.4,0.2-0.9,0.3-1.3c0-0.2,0-0.4-0.1-0.6
	c-0.2-0.6-0.6-1.1-0.8-1.7c-0.1-0.2,0.3-0.5,0.5-0.8c-0.8-0.6-1.6-1.4-2.5-2c-0.5-0.3-1.4-0.4-2.1-0.4c-1.5,0.1-3.1,0.3-4.3,1.2
	c-0.7,0.5-1.1,1.1-1.1,1.8c-0.1,1.7,0.5,3.3,1.4,4.8c0.2,0.4,0.9,0.6,1.5,0.9c-0.3,0.5-0.7,1-1.1,1.6c-0.1,0.2-0.2,0.5-0.1,0.7
	c0.7,1.3,0.2,2.5-0.2,3.7c-0.2,0.5-0.7,1.2-0.4,1.7c0.5,0.9,1.4,1.6,2.1,2.4c0.7,0.7,1.4,1.4,2.2,2c0.3,0.3,0.7,0.6,1.1,0.7
	c1.3,0.2,2.6,0.4,4,0.5c1.7,0.2,2.6-0.5,2.7-1.9c0-0.5,0-1.1,0-1.6c1.4,0.1,2.8,0.5,3.9,1.3c0.8,0.6,1.6,0.8,2.7,0.8
	c0.9,0,1.4,0.5,1.4,1c0,1.4,0.3,2.7-0.5,4c-0.9,1.5-1.6,3-2.3,4.5c-0.6,1.2-0.5,1.3,1.3,1.7c1-2,2-4,3.1-6.1c0.6,0.7,0.5,1.4,0.3,2
	c-0.6,2.3-1.2,4.6-1.7,6.9c0,0.2,0,0.4,0,0.6c0.5,0.1,1,0.2,1.5,0.3c0.3-0.8,0.6-1.5,0.8-2.2c0.1,0,0.1,0,0.2,0c0,0.2,0,0.4,0.1,0.6
	c0.2,1.1-0.1,2.2,0.6,3.3c0.5,0.7,0.4,1.6,0.5,2.5c0.2,1.5,0.5,3,0.5,4.5c0,0.8-0.5,1.6-1,2.3c-0.4,0.5-1.2,1-1.9,1.3
	c-0.9,0.5-1.9,0.8-3,1.2c0,0.4,0.3,0.6,1,0.5c1.7-0.3,3.4,0.1,5.1-0.5c0.5-0.2,1.3,0.1,2,0.1c1.3,0,1.5-0.2,1.4-1.2
	c-0.1-0.8-0.3-1.6-0.3-2.4c0-0.6,0.3-0.9,1.2-1c1.4-0.2,2.7-0.5,4-0.9c0.2-0.1,0.5-0.5,0.4-0.7c-0.6-3.6-1.1-7.3-1.9-10.9
	c-0.4-1.8,0.1-3.5,0.5-5.1c0.4-2.2,0.9-4.3,1.5-6.5c0.1-0.4,0.4-0.8,0.8-1.1c1-1.1,2.1-2.1,3.2-3.2c0.6-0.5,1.1-1,1.8-1.5
	c1.9-1.3,3.8-2.5,5.7-3.8c4-2.7,8.5-4.7,13.4-6.2c0.7-0.2,1.1-0.4,0.8-1.1c-0.4-0.8-0.5-1.7-0.8-2.6c-0.2-0.6-0.1-1,0.6-1.3
	C304.3,89.6,304.9,89.3,305.7,88.9z"/>
<g>
	<path class="st0" d="M98.4,121c-0.8,0-1.3-0.3-1.4-1.2c-1.2,0-1.9,0.2-2.1,0.7c0.2-0.5,0.9-0.7,2.1-0.7c0.8-0.8-0.2-1.6,0.7-1.9
		c-0.2-0.2-0.5-0.5-0.4-0.9c-0.6,0-3.8,2.3-3.9,0c0.2,2.3,3.4,0,3.9,0c-0.2-1.2-0.4-2.4-0.6-3.6c-1.9-0.7-6.1,1.3-7.2-0.7
		c-1.5,0-1.4-2.4-3.1-2.3c-0.1-0.2-0.2-0.5-0.3-0.7c-0.3,0.3-0.9,2.4-0.8,2.5c-0.2-0.1,0.5-2.2,0.8-2.5c-0.7-1.4-1.2-2.3-1.7-3.8
		c-0.5-1.5-1.3-2.9-2.3-4.1c0,0,0,0,0,0c-0.1-0.4,0.3-1.9,0-2.1c-0.3,0-0.5,0.1-0.7,0.2c-0.4-0.1,0.7-1.2,0.7-1.3
		c-0.1-0.1-0.1-0.2-0.2-0.3c0.1,0.1,0.2,0.2,0.2,0.3c1.8,0.4,1.5-0.1,1.7-1.5c0.2-1.6,0.8-2.4-0.5-3.8c-0.1,0-1.4,2.1-1.4,0.7
		c0.1,1.3,1.4-0.7,1.4-0.7c0-0.2,0.1-0.3,0.1-0.5c0,0,0,0,0,0c0,0,0,0,0,0c0,0,0,0,0,0c0,0,0,0,0,0c-0.6-2.7-2.2-3.7-4.8-3.6
		c0,0.4,0.1,2.2,0.9,1.6c0,0.1-0.6,0-0.5,0.1c-0.6-0.2-0.4-1.2-0.4-1.6c-2.1-0.1-3.4,2.4-2.8,4.8c0,0,0,0,0,0
		c0.2,0.7,0.5,1.4,0.7,2.1c0,0,0,0,0,0c0,0.4,0,0.7,0.1,1.1c0.1,0.1,0.2,0.2,0.3,0.3c1.1,0.6,4.1,1.6,4.1,3.1c0-1.4-3.1-2.5-4.1-3
		c0,0,0,0,0,0c-0.1-0.1-0.2-0.2-0.3-0.3c-0.7,0.6-1,1.5-1.1,2.5c1.3,0.8,0.1,1.8,0.2,2.7c0.3,0.1,2.9,0.6,3.1,0.4
		c-0.1,0.2-2.8-0.4-3.1-0.4c-0.1,0-0.1,0-0.2,0c0.1,0,0.1,0,0.2,0c-0.2-0.9,1.1-1.9-0.2-2.7c-0.7,0.7-1,1.6-1.5,2.4c0,0,0,0,0,0
		c-0.8,1.4-1,3-1.1,4.6c0,0,0,0,0,0c-0.7,1.7,0.2,4.5,0.7,6.1c1.7-0.6-1.5-4.7,0.2-4.8l0,0c-1.7,0.2,1.5,4.3-0.2,4.8
		c0,0.2,0.1,0.4,0.2,0.6c0.3,0,0.5,0.2,0.7,0.4c-0.1-0.2-0.3-0.3-0.7-0.4c0.6,4.9,1.5,9.8,1.8,14.7c0.3,5-0.2,9.9-0.9,14.9
		c0,0,0,0,0,0c-0.3,1.6,0.8,1.6,0.9,0c0,0,0,0,0,0c1-3.7,0.7-8,2.2-11.5c1.4-0.6,3.1-0.6,4.6-0.6c0.1,0.1,0.2,0.1,0.3,0
		c0.2,0,0.4,0,0.5,0c0,0,0,0,0,0c0.2,0,0.4,0,0.6,0c0,0,0,0,0,0c0.8,0.2,1.5,0.7,2,1.5c0.6-0.7,0.1-1.1-0.3-1.5c0,0,0,0,0,0
		c0,0,0,0,0,0c0-0.1,0-0.2,0-0.3c0,0.1,0,0.2,0,0.3c0.4,0.4,1,0.8,0.3,1.5c0.2,1.4,0.4,2.8,0.6,4.2c0,0,0,0,0,0c0,0.2,0,0.4,0,0.6
		c0.1-0.1,0.4-0.1,0.4-0.2c0,0.1-0.4,0.2-0.4,0.3c0.1,1.6,0,4.9,1.1,6.2c1,1.3,1,0.2,0.8-0.8c-0.5-3.8-0.5-7.6-0.9-11.4
		c-0.2-0.2-0.4-0.6-0.7-0.8c0.2,0.2,0.4,0.6,0.7,0.8c0-1.1-0.9-3.8-0.1-4.5c0.9-0.8,2.6,0.2,2.3-1.8c1,0,4.4-1,4.3,0.6
		c1.7-0.1,2.5-0.9,2.5-2.4c0,1.6-0.8,2.3-2.5,2.4c-0.2,1.7-0.3,3.3-0.5,5c-0.1,1-0.9,3.6-0.1,4.4c-0.1,0.7-0.3,1.4-0.4,2.1
		c-0.4,0.6-0.2,1.4-0.8,1.8c0.9,0.2,1.8,0.6,2.6,0.6c-0.9,0-1.8-0.4-2.6-0.6c-0.7,1.1-0.7,2.3-0.6,3.5c0.2,0.5,0.6,0.7,1.1,0.6
		c0.7,0.2,1.3,0.2,2,0.1c0.2-0.6,0.5-0.8,0.8-0.8c-0.3,0-0.6,0.2-0.8,0.8c0.6-0.1,1.2-0.2,1.7-0.2c1,0.5,7.4,1.6,6.2-0.7
		c-0.4-0.8-2.1-0.6-2.8-1c-1.1-0.6-1.7-2.5-3.1-2.6c-0.2-0.5-0.3-1-0.5-1.5c0-0.5,0-0.9,0-1.4c-0.9-0.3-1.9,0.1-2.7-0.7h0
		c0.7,0.8,1.8,0.4,2.7,0.7c2.9-3.1,0.6-9.1,3.1-12.3c0.1-0.7-0.5-1.3-0.6-2C98.6,121.2,98.5,121.1,98.4,121z M93.8,114.7
		c0.2-0.1,0.5-0.4,0.7-0.1C94.2,114.2,93.9,114.6,93.8,114.7C93.8,114.7,93.8,114.7,93.8,114.7z M75.9,94c0.1-0.1,0.2-0.3,0.3-0.4
		C76.1,93.8,76.1,93.9,75.9,94z M87.4,122.8c-0.3,0.5-1.9,1.3-2.6,1.1C85.4,124.1,87,123.3,87.4,122.8L87.4,122.8z M87.4,114.6
		C87.4,114.6,87.4,114.6,87.4,114.6c-1.2,0.7-1.8,1.7-1.7,3C85.6,116.3,86.2,115.3,87.4,114.6z M84.8,113.1c0-0.4,0-0.8,0-1.2
		c0,0,0,0,0,0C84.8,112.3,84.8,112.7,84.8,113.1c0.2,0.1,0.3,0.3,0.3,0.6c0.1,0.1,0.2,0.2,0.3,0.3c0,0.2,0,0.4,0,0.6c0,0,0,0,0,0
		c0-0.2,0-0.4,0-0.6c-0.1-0.1-0.2-0.2-0.3-0.3c-0.1,0.2-0.1,0.5-0.2,0.7c0.1-0.2,0.2-0.4,0.2-0.7C85.1,113.5,85,113.3,84.8,113.1
		c-1.6-0.5-2.9,0.6-4.3,0.9c0,0,0,0,0,0C81.9,113.7,83.2,112.6,84.8,113.1z M84.7,117c0,0.1,0,0.1,0,0.2
		C84.7,117.1,84.7,117,84.7,117z M83.6,118.4c0.1,0.9,0.6,1.6,0.6,2.5C84.3,120,83.6,119.2,83.6,118.4z M84.2,121.1
		c0,0.4,0,0.9-0.1,1.3C84.2,121.9,84.2,121.5,84.2,121.1z M83.9,122.8C83.9,122.8,83.9,122.8,83.9,122.8
		C83.9,122.8,83.9,122.8,83.9,122.8C83.9,122.8,83.9,122.8,83.9,122.8z M83,120c0.3-0.2,0.3-0.4,0.3-0.7
		C83.3,119.5,83.3,119.8,83,120c-0.3-0.3-0.4-0.5-0.4-0.8C82.6,119.4,82.7,119.7,83,120z M83.3,118.7c0-0.3,0-0.5,0.3-0.7
		c0,0,0,0,0,0C83.4,118.2,83.3,118.4,83.3,118.7z M82.7,116.3c-0.3,0.2-0.5,0.4-0.5,0.8c0,0,0,0,0,0
		C82.2,116.7,82.4,116.5,82.7,116.3z M81.2,111.8c0,0,0.1,0.1,0.1,0.2c0,0,0,0,0,0C81.2,111.9,81.2,111.8,81.2,111.8z M84.4,110
		C84.4,110,84.4,110,84.4,110c-0.7,0.5-0.3,1.1-0.2,1.6c-0.9-0.1-1.7-0.7-2.6-0.6c0,0,0,0,0,0c-0.7-0.3-1.4-0.5-2.2-0.8c0,0,0,0,0,0
		c0.7,0.3,1.4,0.5,2.1,0.8c0.9-0.1,1.7,0.5,2.6,0.6C84.1,111.1,83.7,110.5,84.4,110z M81.7,103.8c0.4,0.4,0.7,0.8,0.7,1.4
		c-0.1-1.1-1.3-1.6-1.4-2.7C81.1,103,81.4,103.4,81.7,103.8z M80.9,101.9c0,0,0.1,0,0.1,0c0,0,0,0,0,0L80.9,101.9z M80.8,91.2
		c0.3,0.1,0.6,0.4,0.6,0.7c0-0.7-1.1-1.1-1.2-0.2C80.3,91.4,80.5,91.1,80.8,91.2z M78.7,94.4c-0.2,0.1-0.5,0.1-0.7,0.1
		C78.2,94.5,78.4,94.5,78.7,94.4c0.4-0.2,1.1-0.3,1.3-0.8C79.8,94.2,79,94.2,78.7,94.4C78.7,94.4,78.7,94.4,78.7,94.4z M79.5,96.5
		c0-0.2-0.1-0.3-0.3-0.3c0.4,0,0.5,1.4,1,1.8c0.5,0.4,1.1,0.1,1.6,0.4C80.7,97.7,79.5,98.5,79.5,96.5z M80.8,101.9L80.8,101.9
		c0-0.1-0.1-0.3-0.1-0.4C80.7,101.7,80.7,101.8,80.8,101.9z M80.7,104.7C80.7,104.7,80.7,104.7,80.7,104.7
		C80.7,104.7,80.7,104.7,80.7,104.7c0.1,1.2,2,1.4,2,2.4C82.7,106,80.8,106,80.7,104.7c-0.4,0-0.6-0.2-0.6-0.6
		c-0.2-0.1-0.3-0.4-0.3-0.6c0,0,0,0,0,0c0,0.2,0.1,0.4,0.3,0.6c0,0,0,0,0,0c0,0,0,0,0,0C80.2,104.4,80.4,104.6,80.7,104.7z
		 M80.8,108.5C80.8,108.5,80.8,108.5,80.8,108.5c-0.6-0.5-0.8-1.4-1.4-1.9C80,107,80.2,108,80.8,108.5z M79.4,105.8
		c0.1-0.2,0.3-0.5,0.3-0.9c0,0,0,0,0,0C79.7,105.3,79.6,105.5,79.4,105.8z M77.6,99.2C77.6,99.2,77.6,99.2,77.6,99.2
		C77.6,99.2,77.6,99.2,77.6,99.2c1.1,0.6,1.6,1.9,2.7,2.5C79.2,101.1,78.6,99.8,77.6,99.2z M78.8,107.8
		C78.8,107.8,78.8,107.8,78.8,107.8c0,0-0.1,0-0.1,0C78.7,107.8,78.7,107.8,78.8,107.8z M78.4,107.7
		C78.4,107.7,78.4,107.7,78.4,107.7c0,0.1,0,0.2,0,0.3c0,0,0,0,0,0C78.4,107.9,78.4,107.8,78.4,107.7
		C78.4,107.7,78.4,107.7,78.4,107.7c-0.1-0.2-0.1-0.3-0.1-0.4C78.3,107.4,78.4,107.5,78.4,107.7z M78.1,107.9c0.1,0,0.2,0.1,0.3,0.1
		c0.5,1.1,2,0.8,2.5,1.9c0,0,0,0,0,0c-0.6-1-2-0.7-2.5-1.8C78.3,108,78.2,107.9,78.1,107.9C78.1,107.9,78.1,107.9,78.1,107.9z
		 M77.7,115.8c-0.1,0.2,0,0.4,0.2,0.7c0.2,0,0.5,0.1,0.6,0.3c0.6,0,0.6,0.5,0.6,0.9c0.4,0.8,2.4,0.4,3.2,0.3
		c0.3-0.2,0.5-0.2,0.5-0.1c-0.1-0.2-0.2-0.2-0.5,0.1c0.1,0.5-0.9,3.5-2.1,2.9c1.2,0.4,2.1-2.3,2-2.9c-0.8,0.1-2.7,0.6-3.2-0.3
		c-0.4-0.2-0.6-0.5-0.6-0.9c-0.1-0.2-0.3-0.3-0.6-0.3c0,0,0,0,0,0C77.7,116.2,77.6,116,77.7,115.8z M81,123.5
		c0.1,0.2,0.2,0.3,0.3,0.5c-0.2,0.1-0.3,0.3-0.5,0.3c0.2-0.1,0.4-0.2,0.5-0.3C81.2,123.8,81.1,123.6,81,123.5z M76.4,118.9
		c0,0.1,0,0.2,0,0.3c0,0,0,0,0,0C76.4,119.1,76.4,119,76.4,118.9c1.5-1.2,2.6,0.5,3.9,0.5c0,0,0,0,0,0
		C79,119.4,77.9,117.7,76.4,118.9z M77.6,121.3C77.6,121.3,77.6,121.3,77.6,121.3c0,0.1,0,0.2,0,0.3
		C77.6,121.5,77.6,121.4,77.6,121.3C77.6,121.3,77.6,121.3,77.6,121.3z M77.5,107.6c-0.8,0.2-1.2,0-1.7-0.7
		C76.5,106.9,76.9,107.2,77.5,107.6z M77,116.2c0.1,0.2,0.2,0.4,0.4,0.5c-0.7-0.1-1.3-1.5-2.2-1.7c0,0,0,0,0,0
		C76,115.1,76.6,115.6,77,116.2z M73.8,108.6C73.8,108.6,73.8,108.6,73.8,108.6c0-0.2,0-0.4,0-0.5c0,0,0,0,0,0
		C73.8,108.2,73.8,108.4,73.8,108.6z M74.1,105.9C74.1,105.9,74.1,105.9,74.1,105.9c-0.1,0-0.2-0.1-0.3-0.1
		C73.9,105.8,74,105.8,74.1,105.9C74.1,105.9,74.1,105.9,74.1,105.9z M74.1,105.6C74.1,105.6,74.1,105.6,74.1,105.6
		c0.4,0,1-0.1,1.1,0.6c0,0,0,0,0,0C75.1,105.5,74.5,105.6,74.1,105.6z M74.4,114.6c0-0.1,0-0.1,0-0.2c0.3,1.4,0.6,2.8,0.9,4.2
		c0.6-0.1,0.6-0.4,0.6-0.8c0,0.4-0.1,0.7-0.6,0.8c0,0.8,0,1.6,0,2.4c0.3,0.1,0.4,0.3,0.5,0.5c-0.1-0.2-0.2-0.4-0.5-0.5c0,0,0,0,0,0
		c0-0.8,0-1.6,0-2.4C75,117.3,74.7,115.9,74.4,114.6z M85.7,129.6c0,0-2.9,0-3.2,0.1c0,0,0,0,0,0c-0.3,0-0.6,0.1-0.9,0.1
		c0.5,0.9,1.3,0.3,2,0.4c0,0,0,0,0,0c-0.7-0.1-1.4,0.6-2-0.4c-0.4,0-0.8,0-1.1,0.1c-1,0.6-2.1,0.7-3.2,1c0,0,0,0,0,0c0,0,0,0,0,0
		c-0.3-0.2-0.3-0.5-0.3-0.8c-0.1-0.1-0.1-0.1-0.1-0.2c0,0.1,0,0.1,0.1,0.2c1.1-0.7,2.3-0.5,3.5-0.2c1.2-0.1,2.4-0.5,3.5-0.5
		c1.1,0,2,0.7,2-1C85.9,128.9,85.9,129.2,85.7,129.6z M87,134.9c-0.6-0.5-0.7-1.1-0.7-1.7C86.2,133.8,86.3,134.4,87,134.9
		c0.2-1,0.3-1.8-0.7-2.3C87.3,133.1,87.1,133.9,87,134.9z M81.7,125.8c-0.1,0.3-0.2,0.6-0.3,0.9C81.4,126.4,81.5,126.1,81.7,125.8
		c-0.3,0-0.6,0-0.9,0c-1,0.7-2,0.3-2.9-0.3c-1-0.3-1.7-0.9-1.8-2.1c-0.7-0.5-0.8-1.1-0.8-1.8c0,0.7,0.1,1.3,0.8,1.8
		c-0.1-0.1-0.1-0.3-0.1-0.4c0,0.1,0.1,0.3,0.1,0.4c0.1,1.2,0.8,1.8,1.8,2.1c0,0,0,0,0,0c0.9,0.6,1.9,1,2.9,0.3
		c-0.7-0.6-1.6,0.1-2.3-0.6c-0.2-0.3-0.4,0-0.6,0c0,0,0,0,0,0c-1.6-1.4-1.1-3.4-1.3-5.3c0.2,1.8-0.3,3.8,1.3,5.3
		c0.2,0,0.4-0.3,0.6,0c0.2-0.2,0.4-0.4,0.6-0.6c0,0,0,0,0,0c0,0,0,0,0,0c-0.2,0.2-0.4,0.4-0.6,0.6c0.6,0.7,1.6-0.1,2.3,0.6
		C81,125.8,81.4,125.8,81.7,125.8c1.9-0.5,3.9-0.3,5.8-0.6C85.5,125.5,83.6,125.3,81.7,125.8z M92,117.6c-0.9,1.3-2.2,2.2-2.9,3.6
		c0.2,0.1,1.9,0.9,1.9,0.9c0.1,0-1.8-0.9-1.9-0.9c0,0,0,0,0,0C89.8,119.8,91.1,118.9,92,117.6c0.9,0.6,1.3,2,3,1.4c0,0,0,0,0,0
		C93.3,119.7,92.9,118.2,92,117.6z"/>
	<polygon class="st0" points="98.3,121 98.4,121 98.4,121 	"/>
	<path class="st0" d="M84.2,111.6C84.2,111.6,84.2,111.6,84.2,111.6C84.2,111.6,84.2,111.6,84.2,111.6L84.2,111.6z"/>
	<path class="st0" d="M91.2,113.6c1.8,0,3.6-0.8,5.4-0.1c0-1.5-0.8-2.4-2-3c0,0,0,0,0,0c-1.6-1.4-3.9,0.9-4.8,2c0,0,0,0,0,0
		c-0.2,0.1-0.3,0.2-0.4,0.4C89.8,113.5,90.2,113.6,91.2,113.6z M93.7,111.7c-0.1-0.1-0.2-0.3-0.3-0.4
		C93.5,111.4,93.6,111.5,93.7,111.7z"/>
	<path class="st0" d="M101.5,119.1C101.5,119.1,101.5,119.1,101.5,119.1c-0.9,0-1.7,0-2.6,0c0,0,0,0,0,0c-0.4-0.4-0.9-0.8-1.3-1.2
		c-0.9,0.3,0.1,1.1-0.7,1.9c0.1,0.9,0.6,1.2,1.5,1.2c-0.2-0.2-0.2-0.4-0.2-0.6c0,0.2,0.1,0.4,0.2,0.6l0,0c0.1,0.1,0.2,0.2,0.3,0.3
		c0,0.7,0.6,1.2,0.6,2c1.4,0.4,2-1.3,3.2-1.4c0,0,0,0,0,0C104.7,121.2,103.8,118.6,101.5,119.1z"/>
	<path class="st0" d="M77.5,107.6c-0.6-0.4-1-0.7-1.7-0.7C76.3,107.6,76.7,107.8,77.5,107.6z"/>
	<path class="st0" d="M77.3,131c1.1-0.3,2.2-0.5,3.2-1c-1.2-0.3-2.4-0.4-3.5,0.2C77,130.5,77,130.8,77.3,131z"/>
	<path class="st0" d="M79,117.7c0-0.4,0-0.9-0.6-0.9C78.4,117.2,78.6,117.5,79,117.7z"/>
	<polygon class="st0" points="498.2,125.9 498.2,125.9 498.2,125.9 	"/>
	<path class="st0" d="M505.7,118.5c0.9,0,1.5-0.1,1.9-0.8c-0.2-0.1-0.3-0.2-0.5-0.4c0,0,0,0,0,0c-1-1.1-3.3-3.4-5-2c0,0,0,0.1,0,0.1
		c0,0,0-0.1,0-0.1c-1.2,0.6-2.1,1.5-2,3C502,117.7,503.9,118.4,505.7,118.5z M502.1,115.7c0,0.2,0,0.4,0,0.6
		C502.1,116.1,502.1,115.9,502.1,115.7z"/>
	<path class="st0" d="M525,112C525,112,525,112,525,112c0-0.1,0-0.2-0.1-0.3c0,0,0,0,0,0c0-1.6-0.3-3.2-1.1-4.6c0,0,0,0,0,0
		c-0.5-0.8-0.9-1.7-1.6-2.3h0c-0.1-0.9-0.4-1.8-1.2-2.5c0,0,0,0,0,0c0-0.4,0-0.7,0.1-1.1c0,0,0,0,0,0c0.2-0.7,0.5-1.4,0.7-2.1
		c0,0,0,0,0,0c0.6-2.3-0.7-4.9-2.9-4.8c-0.1,1.1-0.4,2.3-1.2,0.9c0.8,1.3,1.1,0.2,1.2-0.9c-2.7-0.1-4.4,0.8-5,3.6c0,0,0,0,0,0
		c0,0,0,0,0,0c0,0,0,0,0,0c0,0,0,0,0,0c0.1,0.2,0.1,0.3,0.2,0.5c-0.1,0,1.7,2.1,1.4,0.6c0.4,1.5-1.6-0.7-1.4-0.6
		c-1.3,1.4-0.7,2.2-0.5,3.8c0.2,1.4-0.1,1.9,1.7,1.5c0.1-0.1,0.2-0.2,0.2-0.2c-0.1,0.1-0.1,0.2-0.2,0.2c0,0.1,1.2,1.2,0.8,1.3
		c-0.2-0.1-0.5-0.2-0.8-0.2c-0.3,0.2,0.1,1.7,0,2.1c0.4,0,0.8,0.1,1.2,0c0,0,0,0,0,0c-0.1,0-0.2,0-0.3,0c0.2,1.6-1.9,2.2-1.4,3.8
		c0,0,0,0,0,0c-0.5-1.6,1.6-2.2,1.4-3.8c-0.3,0-0.6,0-1,0c-1.1,1.2-1.9,2.5-2.4,4.1c-0.5,1.5-1,2.4-1.7,3.8c0,0,0,0,0,0
		c-0.1,0.2-0.2,0.5-0.3,0.7c0,0,0,0,0,0c-1.7-0.1-1.7,2.3-3.2,2.3c-1.2,2-5.5-0.1-7.5,0.7c-0.2,1.2-0.4,2.4-0.7,3.6c0,0,0,0,0,0
		c0,0,0,0,0,0c0,0.4-0.2,0.6-0.4,0.9c0,0,0,0,0,0c-0.5,0.4-0.9,0.8-1.4,1.2v0c-0.9,0-1.8,0-2.7,0c0,0,0,0,0,0
		c-2.3-0.5-3.3,2-0.9,2.7c0,0,0,0,0,0c1.2,0.1,1.8,1.8,3.3,1.4c-0.1-0.7,0.6-1.3,0.6-2c0.1-0.1,0.2-0.2,0.3-0.3
		c0.8,0,1.4-0.3,1.5-1.2c0,0,0,0,0,0c1.6,0,2.3,0.3,2.3,1.1c0-0.9-0.7-1.1-2.3-1.1c-0.1,0.9-0.7,1.2-1.5,1.2
		c-0.1,0.1-0.2,0.2-0.3,0.3c0,0.7-0.7,1.2-0.6,2c2.5,3.2,0.2,9.3,3.2,12.3c0,0,0,0,0,0c0,0.5,0,0.9,0,1.4c-0.2,0.5-0.4,1-0.5,1.5
		c0.1,0.2,0.3,0.3,0.4,0.4c-0.1-0.1-0.3-0.3-0.4-0.4c-1.5,0.1-1.8,1.8-2.9,2.5c-0.8,0.5-2.8,0.3-3.3,1.2c-1.3,2.3,5.6,1.2,6.5,0.7
		c0.6,0.1,1.2,0.2,1.8,0.2c-0.2-0.5-0.5-0.8-0.8-0.8c0.3,0,0.6,0.2,0.8,0.8c0.7,0.1,1.4,0.1,2.1-0.1v0c0.5,0,0.9-0.1,1.1-0.6
		c0.1-1.2,0.1-2.4-0.6-3.5c-0.6-0.4-0.5-1.3-0.8-1.8c-0.1-0.7-0.3-1.4-0.4-2.1c0,0,0,0,0,0c0.7-0.7,0-3.5-0.1-4.4
		c-0.2-1.7-0.3-3.3-0.5-5c-1.3-0.1-2.1-0.5-2.4-1.3c0.4,0.8,1.1,1.2,2.4,1.3c-0.1-1.6,3.5-0.6,4.4-0.6c-0.4,2.2,2.5,1,2.8,2.8
		c0.1,1-0.5,3-0.5,4c-0.1,1.5-0.2,3-0.2,4.5c0,1.3-0.1,2.6-0.2,4c-0.1,0.6-1,3.1-0.7,3.6c0.7,1.3,1.3-0.7,1.4-1.2
		c0.5-1.7,0.7-3.4,0.8-5.2c0,0,0,0,0,0c0-0.2,0-0.4,0-0.6c0,0,0,0,0,0c0.2-1.4,0.4-2.8,0.6-4.2c0,0,0,0,0,0c0.5-0.8,1.2-1.2,2.1-1.4
		c0,0,0,0,0,0c0.2,0,0.4,0,0.6,0c0,0,0,0,0,0c0.2,0,0.4,0,0.6,0c0.1,0.1,0.2,0.1,0.3,0c1.6,0,3.3,0,4.8,0.6c0,0,0,0,0,0
		c1.6,3.5,1.3,7.8,2.3,11.5c0,0,0,0,0,0c0.1,1.6,1.3,1.5,1,0c0,0,0,0,0,0c-0.7-4.9-1.3-9.9-0.9-14.9c0.4-4.9,1.3-9.8,1.9-14.7
		c-0.4,0-0.7,0.2-0.8,0.5c0.1-0.3,0.3-0.5,0.8-0.6c0-0.2,0.1-0.4,0.1-0.6c0,0,0,0,0,0C524.8,115.9,525.2,114,525,112z M498.2,125.9
		L498.2,125.9C498.2,125.9,498.2,125.9,498.2,125.9C498.2,125.9,498.2,125.9,498.2,125.9z M497.6,124c0.2,0.4,0.8,0.8,0.8,1.3
		C498.4,124.8,497.8,124.5,497.6,124z M499.4,123.3c0.1-0.2,0.1-0.3,0.1-0.3c0.3,0.3-0.5,1,0.2,1.7
		C499.3,124.3,498.9,123.9,499.4,123.3z M502.3,119.5C502.3,119.5,502.3,119.5,502.3,119.5C502.3,119.5,502.3,119.5,502.3,119.5
		C502.3,119.5,502.3,119.5,502.3,119.5z M500.5,122.5C500.5,122.5,500.5,122.5,500.5,122.5c0.6,0.5,3,0.6,3.1-0.6
		C503.5,123.2,501.1,123,500.5,122.5z M504.8,122.6c-1,0.6-1.4,2-3.1,1.4c0.3,0.3,4,3.2,4.1,3.1c0.1-0.1,0.1-0.2,0.2-0.4
		c-0.1,0.1-0.1,0.2-0.2,0.4c-0.1,0.1-3.9-2.8-4.1-3.1C503.5,124.6,503.9,123.1,504.8,122.6c0-1-1.2-3.1-2.3-3.2
		C503.6,119.5,504.8,121.7,504.8,122.6c0.6,0.8,1.4,1.5,2,2.2C506.2,124,505.4,123.4,504.8,122.6z M522.2,104.7
		c-1.3,0.8-0.1,1.7-0.2,2.6C522,106.5,520.9,105.5,522.2,104.7z M522,107.4c0.1,0,0.2,0,0.2,0C522.1,107.4,522,107.4,522,107.4
		c-0.6,0.2-1.3,0-1.9,0.2c-0.3,0.1-0.8,0.5-1.1,0.4C519.2,108.1,521.6,107.5,522,107.4z M521.6,121.7
		C521.6,121.7,521.6,121.7,521.6,121.7c0-0.1,0.1-0.2,0.1-0.2C521.7,121.5,521.6,121.6,521.6,121.7z M521.6,122.2c0-0.1,0-0.1,0-0.2
		c0,0,0,0,0,0c0-0.1,0-0.2,0-0.3c0,0,0,0,0,0c0,0.1,0,0.2,0,0.3C521.6,122,521.6,122.1,521.6,122.2z M521.7,116.4
		c0.1-0.1,0.1-0.1,0.2-0.2c0,0,0,0,0,0C521.8,116.3,521.8,116.3,521.7,116.4z M517,124.3c0,0.2,0,0.3,0.1,0.4
		C517,124.6,516.9,124.5,517,124.3c1.4,0,2.5-1.7,4-0.6c0,0,0,0,0,0C519.5,122.6,518.3,124.3,517,124.3z M519.5,130.1
		C519.5,130.1,519.5,130.1,519.5,130.1C519.5,130.1,519.5,130.1,519.5,130.1c-0.2,0-0.4-0.3-0.6,0c-0.2-0.2-0.4-0.4-0.6-0.6
		c0,0,0,0,0,0c0.2,0.2,0.4,0.4,0.6,0.6C519.1,129.8,519.3,130.1,519.5,130.1z M514.5,122.9c0-0.3,0.2-0.4,0.6-0.1
		c0.6,0,2.4,0.4,2.8,0.2c-0.5,0.2-2.3-0.2-2.8-0.2c0,0,0,0,0,0C514.7,122.6,514.5,122.7,514.5,122.9z M512.9,125.8
		c-0.1-0.9,0.6-1.7,0.6-2.5C513.5,124.1,512.8,124.9,512.9,125.8z M513.2,127.7C513.2,127.7,513.2,127.7,513.2,127.7
		c-1-0.1-0.2,1.3-1.7,1C513,129,512.2,127.6,513.2,127.7z M516.8,118.9c0-0.1,0.1-0.2,0.1-0.3C516.9,118.7,516.9,118.8,516.8,118.9
		C516.8,118.9,516.8,118.9,516.8,118.9c-1.5-0.3-2.8-1.4-4.5-0.9c-0.1,0.1-0.2,0.1-0.2,0.2c0-0.1,0.1-0.2,0.2-0.3c0-0.2,0-0.4,0-0.6
		c0,0.2,0,0.4,0,0.6C514,117.5,515.3,118.6,516.8,118.9z M515.9,116.8c0.1-0.1,0.2-0.2,0.2-0.3C516.1,116.6,516.1,116.7,515.9,116.8
		C515.9,116.9,515.9,116.9,515.9,116.8z M513.5,122.9C513.5,122.9,513.5,122.9,513.5,122.9C513.5,122.9,513.5,122.9,513.5,122.9
		C513.5,122.9,513.5,122.9,513.5,122.9c0.2,0.2,0.3,0.4,0.3,0.7C513.8,123.3,513.8,123.1,513.5,122.9z M514.2,124.9
		c0.6-0.5,0.5-1,0.4-1.6C514.7,123.9,514.7,124.4,514.2,124.9c-0.3-0.2-0.3-0.4-0.3-0.7C513.8,124.4,513.9,124.7,514.2,124.9z
		 M516.7,125.6c0.4,0.2,0.8,0.2,0.6-0.5c0.5,1.4-1.1,0.2-1.3,0C516.2,125.3,516.4,125.4,516.7,125.6z M516.9,129.4
		c-0.1,0-0.2-0.1-0.4-0.1C516.7,129.3,516.8,129.4,516.9,129.4z M517.7,129.5c-0.3,0-0.5,0-0.8-0.1
		C517.2,129.5,517.4,129.5,517.7,129.5z M516.4,113.1c0-0.2,0.1-0.3,0.1-0.5C516.4,112.8,516.4,112.9,516.4,113.1z M518.9,112.6
		c-0.1,0-0.2,0.1-0.4,0.1c0,0,0,0,0,0C518.6,112.7,518.8,112.6,518.9,112.6z M518.9,112.6C518.9,112.6,518.9,112.6,518.9,112.6
		C518.9,112.6,518.9,112.6,518.9,112.6C518.9,112.6,518.9,112.6,518.9,112.6z M518.9,112.6c0.1-0.2,0.1-0.4,0.1-0.6
		C519,112.2,519,112.4,518.9,112.6C518.9,112.6,518.9,112.6,518.9,112.6z M516.9,106.7c1.2-0.6,1.8-1.9,2.9-2.6c0,0,0,0,0,0
		c0,0,0,0,0,0C518.7,104.8,518.1,106.2,516.9,106.7z M519.7,120.7c0.1,0.2,0,0.4-0.2,0.7c0.2,0.2,0.3,0.2,0.4,0.2
		c-0.1,0-0.2,0-0.4-0.2c-0.2,0-0.4,0-0.5,0.1c0.1-0.1,0.3-0.2,0.5-0.2C519.7,121.1,519.7,120.9,519.7,120.7z M518.9,120.1
		C518.9,120.1,518.9,120.1,518.9,120.1c0.4-0.7,0.9-1.4,1.4-2C519.8,118.7,519.3,119.4,518.9,120.1z M518.3,122.6
		c0-0.4,0-0.9,0.6-0.9c0,0,0,0,0,0c0,0,0,0,0,0C518.3,121.7,518.3,122.1,518.3,122.6C518.3,122.6,518.3,122.6,518.3,122.6
		C518.3,122.6,518.3,122.6,518.3,122.6z M520.7,102.6C520.7,102.6,520.7,102.6,520.7,102.6c-1,0.5-3.6,1.4-4.1,2.5
		C517.1,104,519.8,103.1,520.7,102.6C520.7,102.6,520.7,102.6,520.7,102.6z M518.7,101.2c0.1,0,0.1,0,0.2-0.1
		C518.8,101.1,518.7,101.1,518.7,101.2C518.7,101.2,518.7,101.2,518.7,101.2z M517.4,98.7c0.3,0.5,0.8,0.4,1.2,0.6
		c0.5,0.2,0.8,0.1,1.2-0.1c-0.3,0.2-0.7,0.2-1.2,0.1c0,0.4,0.6,1.5,0.4,1.7c0.3-0.2-0.4-1.3-0.4-1.7c-0.3-0.2-1.2-0.3-1.3-0.8
		C517.3,98.6,517.4,98.6,517.4,98.7z M515.8,96.8c0-0.7,1.2-1.1,1.3-0.2C516.9,95.8,515.8,96.1,515.8,96.8z M516.4,103.2
		c1.4-0.3,0.7-1.4,1.5-2C517.1,101.9,517.9,102.9,516.4,103.2z M515.4,111c0.6-0.3,1.1-0.7,1.1-1.4c0,0,0,0,0,0c0,0,0,0,0,0
		c0.4,0,0.6-0.2,0.6-0.6c0,0,0,0,0,0c0,0,0,0,0,0c0.2-0.1,0.3-0.3,0.3-0.6c0,0,0,0,0,0c0,0.2-0.1,0.5-0.3,0.6c0,0.4-0.2,0.6-0.6,0.6
		c-0.1,1.3-2,1.3-2.1,2.4C514.5,111.5,514.9,111.2,515.4,111z M512.9,116.5c0.9-0.1,1.7-0.7,2.7-0.6c0.7-0.3,1.5-0.5,2.3-0.8
		c0,0,0,0,0,0c-0.8,0.3-1.5,0.6-2.3,0.8c0,0,0,0.1,0,0.1c0,0,0-0.1,0-0.1C514.7,115.8,513.8,116.4,512.9,116.5
		C512.9,116.5,512.9,116.5,512.9,116.5z M512.7,114.9c0.1,0,0.1,0.1,0.1,0.1C512.8,115,512.7,114.9,512.7,114.9
		c-0.6,0.6-0.3,1.3-0.3,1.9c0,0,0,0,0,0c-0.2,0.1-0.4,0.4-0.5,0.3c0.1,0,0.3-0.2,0.5-0.3C512.4,116.2,512.1,115.4,512.7,114.9z
		 M509.7,123.3c2.2-1.1-1-2.5-0.1-3.8c0-0.1,0-0.2,0-0.3c-0.2-0.2-0.4-0.3-0.7-0.5c0.2,0,0.4-0.1,0.7-0.1c0-0.5,0.2-0.9,0.4-1.2
		c-0.2,0.4-0.4,0.8-0.4,1.2c0.7,0.1,1.4,0.2,2.1,0.3c0.1-0.1,0.2-0.2,0.3-0.3c0,0,0,0,0,0c-0.1,0.1-0.2,0.2-0.3,0.3v0
		c-0.7-0.1-1.4-0.2-2.1-0.3c-0.2,0-0.4,0.1-0.7,0.1c0.2,0.2,0.4,0.3,0.7,0.5c0.7,0.1,1.4,0.2,2.1,0.3c0,0.9,1,1.3,1.2,2.1h0
		c-0.2,0-0.6,0.1-0.5,0.4c-0.1-0.3,0.3-0.4,0.5-0.4c-0.2-0.8-1.2-1.2-1.2-2.1c-0.7-0.1-1.4-0.2-2.1-0.3c0,0.1,0,0.2,0,0.3
		c0,0,0,0,0,0c-0.7,1,1.3,2,0.7,3.3c-0.3,0.6-1.1,0.8-1.5,1.4c-0.3,0.6-0.4,1.3-0.7,1.9c0.2,0.5,0.9,0.8,0.9,1.5c0,0,0,0,0,0
		c0,0,0,0,0,0c0-0.7-0.7-0.9-0.9-1.5c0,0,0,0,0,0C508.6,125.2,508.5,123.9,509.7,123.3z M510.1,139.8c-0.1-0.4-0.1-0.7-0.1-1
		C509.9,139.1,510,139.4,510.1,139.8c0.7-0.6,0.7-1.1,0.7-1.7C510.8,138.7,510.7,139.3,510.1,139.8z M511.7,135.9
		c-0.2,0.2-0.5,0.4-0.6,0.6C511.3,136.3,511.5,136.1,511.7,135.9C511.7,135.9,511.7,135.9,511.7,135.9c0.2-0.1,0.4-0.1,0.4-0.2
		C512.1,135.8,511.9,135.8,511.7,135.9z M512.4,134.5c-1.5,0.6-1.5-1.5-1.1-2.5c-1,3.3,1.4,2.1,3.4,2.6c0,0,0,0,0,0
		C513.9,134.5,513.2,134.2,512.4,134.5z M520.1,135.9c0.2-0.1,0.2-0.2,0.3-0.3C520.3,135.7,520.3,135.8,520.1,135.9
		c0,0.1,0,0.1,0,0.1C520.1,135.9,520.1,135.9,520.1,135.9c-1.1-0.3-2.3-0.4-3.3-1c-0.4,0-0.8,0-1.2-0.1c-0.6,1-1.4,0.3-2.1,0.4
		c0,0,0,0,0,0c0.7-0.1,1.5,0.5,2-0.4c0.4,0,0.8,0,1.2,0.1c1.2-0.3,2.4-0.4,3.6,0.2c-1.2-0.7-2.4-0.5-3.6-0.2
		C517.8,135.4,519,135.6,520.1,135.9z M520.4,135.1C520.4,135.1,520.4,135.1,520.4,135.1L520.4,135.1c0.1-0.1,0.1-0.1,0.1-0.2
		C520.5,135,520.5,135,520.4,135.1z M519.5,130.4c-1,0.6-1.9,1-3,0.3c-0.3,0-0.6,0-0.9,0c-2.6-0.6-5.4-0.2-8-0.9c0,0,0,0,0,0
		c2.6,0.8,5.4,0.3,8,0.9c0.3,0,0.6,0,0.9,0C517.6,131.4,518.5,131,519.5,130.4C519.5,130.4,519.5,130.4,519.5,130.4
		c0.9-0.3,1.6-0.8,1.8-1.7C521.1,129.7,520.4,130.2,519.5,130.4z M522.2,125.9c-1.1,0.6-0.4,1.7-0.8,2.5c0.1-0.1,0.2-0.2,0.3-0.2
		c-0.1,0.1-0.2,0.2-0.3,0.3c0,0,0,0,0,0C521.8,127.6,521.1,126.4,522.2,125.9C522.2,125.9,522.2,125.9,522.2,125.9z M522.2,121.1
		c0.1-0.4,0-0.8,0-1.2C522.1,120.3,522.3,120.7,522.2,121.1z M523.4,110.5C523.4,110.5,523.4,110.5,523.4,110.5
		c-0.3,0-0.6,0-0.8,0.1C522.8,110.5,523.1,110.5,523.4,110.5z M523.4,110.8c-0.3,0-0.5,0.4-0.8,0.5
		C522.9,111.2,523.1,110.8,523.4,110.8C523.4,110.8,523.4,110.8,523.4,110.8c0.1,0,0.2-0.1,0.3,0
		C523.6,110.7,523.5,110.7,523.4,110.8z M523.7,112.9c0,0.2,0,0.4,0,0.6c0,0,0,0,0,0C523.7,113.3,523.7,113.1,523.7,112.9
		C523.7,112.9,523.7,112.9,523.7,112.9z M524.5,113.8c-0.2,0.9-1.1,2.6-0.8,3.6c-0.3-1,0.6-2.8,0.8-3.7
		C524.5,113.7,524.5,113.7,524.5,113.8z"/>
</g>
</svg>
