<?xml version="1.0" encoding="utf-8"?>
<!-- Generator: Adobe Illustrator 22.0.1, SVG Export Plug-In . SVG Version: 6.00 Build 0)  -->
<svg version="1.1" id="Capa_1" xmlns="http://www.w3.org/2000/svg" xmlns:xlink="http://www.w3.org/1999/xlink" x="0px" y="0px"
	 viewBox="0 0 595.3 266.8" style="enable-background:new 0 0 595.3 266.8;" xml:space="preserve">
<style type="text/css">
	.st0{fill:#3C55A2;}
	.st1{opacity:0.87;}
	.st2{fill:#F1F2FA;}
	.st3{fill:#E3E8F6;}
	.st4{fill:#CAD6EE;}
	.st5{fill:#D8E0F3;}
	.st6{fill:#F8F8FC;}
	.st7{fill:#D0A699;}
	.st8{fill:#DBC4C4;}
	.st9{fill:#AA837C;}
	.st10{fill:#D0D9EF;}
	.st11{fill:#323544;}
	.st12{fill:#BFD0EC;}
	.st13{fill:#B4BCDA;}
	.st14{fill:#9D8A92;}
	.st15{fill:#B5A5AE;}
	.st16{fill:#67B9E8;}
	.st17{fill:#CFB4B3;}
	.st18{fill:#777778;}
	.st19{fill:#8DA3CD;}
	.st20{opacity:0.55;fill:#F1F2FA;enable-background:new    ;}
	.st21{opacity:0.55;fill:#F8F8FC;enable-background:new    ;}
	.st22{opacity:0.55;fill:#E3E8F6;enable-background:new    ;}
	.st23{opacity:0.55;fill:#323544;enable-background:new    ;}
	.st24{opacity:0.55;fill:#D8E0F3;enable-background:new    ;}
	.st25{opacity:0.55;fill:#CAD6EE;enable-background:new    ;}
	.st26{opacity:0.55;fill:#DBC4C4;enable-background:new    ;}
	.st27{opacity:0.55;fill:#AA837C;enable-background:new    ;}
	.st28{opacity:0.55;fill:#D0A699;enable-background:new    ;}
	.st29{opacity:0.55;fill:#88CDF2;enable-background:new    ;}
	.st30{opacity:0.55;fill:#B5A5AE;enable-background:new    ;}
	.st31{opacity:0.55;fill:#AA8B8A;enable-background:new    ;}
	.st32{opacity:0.55;fill:#BFD0EC;enable-background:new    ;}
	.st33{opacity:0.55;fill:#B4BCDA;enable-background:new    ;}
	.st34{opacity:0.55;fill:#8DA3CD;enable-background:new    ;}
	.st35{opacity:0.55;fill:#CFB4B3;enable-background:new    ;}
	.st36{opacity:0.55;fill:#59ADE1;enable-background:new    ;}
	.st37{opacity:0.55;fill:#9D8A92;enable-background:new    ;}
	.st38{opacity:0.55;fill:#D0D9EF;enable-background:new    ;}
</style>
<polygon class="st0" points="0,73 595.3,93 595.3,167.6 0,187.6 "/>
<g class="st1">
	<path class="st2" d="M240.2,119.3c0.4-3.8,0.9-7.6,1.3-11.4c9.2-6,15.6-13.8,19.6-23.1c0.7-4.8,1.3-9.6,2-14.5
		c3.1-3.2,6.3-6.3,9.4-9.5c1.2,0.8,2.4,1.7,3.5,2.5c1.7,5.2,3.3,10.4,5,15.6c-5,6.3-3.1,13.5-3.4,20.3c-1.1,1.6-2.1,3.2-3.3,4.8
		c-1.9,2.7-3.9,7.7-5.9,7.7c-8.2,0.2-8.1,5.9-10.3,10.3h-13.4C245.6,118.5,243,118.8,240.2,119.3L240.2,119.3z"/>
	<path class="st2" d="M222,93.6c0-2.8,0.1-5.7,0.1-8.6c6.6-13.2,15.4-24.6,32.5-28.8c-0.8,3.8-1.6,7.6-2.2,11.4
		c-0.5,3.4-0.8,6.8-1.2,10.2c-1.4,1.1-4,2.3-4.1,3.4c-0.2,5.8-9.6,19.8-15.8,22.6c-3.1-3-6.2-6-9.3-9.1
		C222.1,94.5,222.1,94.1,222,93.6L222,93.6z"/>
	<path class="st3" d="M303.6,156.7c0.6,2.8,1.2,5.6,1.8,8.4c-9.4-1.4-10.5,5.4-12.6,10.4c-3.3,7.9-5.7,16-8.5,24
		c-3.2,3.1-6.4,6.3-9.9,9.7c-1.6-0.8-3.3-1.7-5.1-2.6c0.7-5.7,1.4-11.4,2.1-17.1c3.5,1.4,7.1,2.9,11.1,4.5c0.2-0.2,1.5-1.9,1.3-2
		c-2.3-2-4.8-3.7-7.2-5.5c1.6-1.5,3-2.8,4.4-4.2c2.1-0.7,5.6-0.9,6.2-2.1c4.5-10.3,6.3-21.1,7-32c-0.7-0.1-1.3-0.2-2-0.4
		c-3.7,10.5-7.5,21-11.2,31.5c-2.8-2-5.5-4-8.6-6.2c7-11.2,13.9-22.1,21.4-34.1c1.4,2.8,2.4,5.1,3.7,7.3
		C299.5,150,301.6,153.3,303.6,156.7L303.6,156.7z"/>
	<path class="st4" d="M303.6,156.7c-2-3.4-4.2-6.7-6.1-10.2c-1.2-2.2-2.2-4.4-3.7-7.3c-7.5,12-14.4,22.9-21.4,34.1
		c3.1,2.2,5.8,4.2,8.6,6.2c0,1,0,1.9,0,2.9c-1.4,1.4-2.8,2.7-4.4,4.2c2.5,1.8,5,3.5,7.2,5.5c0.2,0.2-1.2,1.8-1.3,2
		c-4-1.6-7.6-3.1-11.1-4.5c0.6-2.4,1.2-4.9,1.8-7.3c-0.6,0.1-1.3,0.1-1.9,0.2c-0.6-4.8-1.2-9.6-1.8-14.5c5.5-9.6,11-19.1,16.5-28.7
		c1-1.9,2.6-3.7,2.9-5.7c0.6-3.4,4-7.2-1.3-10c1.2-4.4,2.4-8.7,3.6-13.1c5.4,8.5,10.8,17,16.2,25.5
		C303.5,142.6,301.8,149.4,303.6,156.7L303.6,156.7z"/>
	<path class="st5" d="M269.4,206.7c1.8,0.9,3.5,1.8,5.1,2.6c3.5-3.4,6.7-6.6,9.9-9.7c1.6,1.4,3.3,2.9,5,4.3c0,1.9-0.1,3.8-0.1,5.7
		c-4.9,1.4-9.9,2.7-15.5,4.2c2,3.6,2.9,5.3,3.8,6.8c3.8-2.1,6.9-3.7,10-5.4c-1.1,7.2-2.1,14.3-3.2,21.5c-1,0.2-2,0.4-2.9,0.6
		c-3.4-0.8-6.7-1.6-10.1-2.3c-1.5-0.4-3.1-0.7-4.7-1.1c-0.1-3.4-0.2-6.7-0.3-10c0.1-2.9,0.2-5.8,0.3-8.6
		C267.5,212.4,268.4,209.6,269.4,206.7L269.4,206.7z"/>
	<path class="st4" d="M231.4,104c6.2-2.8,15.6-16.8,15.8-22.6c0-1.2,2.6-2.3,4.1-3.4c1.2,0.6,2.5,1.1,3.8,1.7c2,1.8,4.1,3.5,6.1,5.3
		c-4,9.3-10.4,17.1-19.6,23.1C238.1,106.6,234.7,105.3,231.4,104L231.4,104z"/>
	<path class="st3" d="M286,139.4c-5.5,9.6-11,19.1-16.5,28.7c-0.4-3.9-0.9-7.7-1.3-11.6c1.9-2.5,5.9-6.4,5.2-7.2
		c-3.8-4.5,1.1-6.9,2.2-10.1c1.3-3.7,2.5-7.5,3.8-11.2c1.6,0,3.3-0.1,5-0.1c-0.5,2.3-0.5,4.8-1.6,6.9
		C280.9,138.2,281.4,139.7,286,139.4L286,139.4z"/>
	<path class="st5" d="M279.4,128c-1.2,3.8-2.5,7.5-3.8,11.2c-1.1,3.2-6,5.6-2.2,10.1c0.7,0.8-3.3,4.7-5.2,7.2
		c-3.4-3.8-6.9-7.5-10.3-11.3c0.8-0.6,1.6-1.3,2.3-1.9c1.5-1.3,2.9-2.6,4.3-3.9c3.8-2.9,7.6-5.8,11.5-8.6c0-0.5,0-0.9,0.1-1.4l0,0
		C277.2,129,278.2,128.5,279.4,128L279.4,128z"/>
	<path class="st5" d="M240.2,119.3c2.8-0.5,5.4-0.8,4.7,2.9c0.5,2.7,1.1,5.3,1.5,7.7c7.2-2.3,13.5-4.3,19.8-6.3c0,0.5,0,1,0.1,1.5
		c0,0.9,0,1.9,0,2.8c-1.7,1.5-3.3,3.2-5.3,4.5c-3,2-6.4,3.7-9.5,5.5c-0.6-0.5-1.1-1-1.6-1.5s-0.9-0.9-1.4-1.4
		C245.6,129.8,242.9,124.6,240.2,119.3L240.2,119.3z"/>
	<path class="st4" d="M251.4,138c3.2-1.8,6.5-3.5,9.5-5.5c1.9-1.3,3.5-3,5.3-4.5c-0.5,3.8-1.1,7.6-1.6,11.4
		c-1.4,1.3-2.9,2.6-4.3,3.9c-0.8,0.7-1.5,1.3-2.3,1.9C255.7,142.8,253.6,140.4,251.4,138L251.4,138z"/>
	<path class="st4" d="M248.4,135.1c0.5,0.5,0.9,0.9,1.4,1.4C249.3,136,248.8,135.6,248.4,135.1z"/>
	<path class="st6" d="M281,79c-1.7-5.2-3.3-10.4-5-15.6c3.7-2.5,7.5-5,11.2-7.6c14,2.5,28,5.1,41.9,7.6c-1.9,2.9-3.8,5.8-5.7,8.6
		c-1,3.4-2,6.8-3,10.1c-1.2,2.3-2.3,4.7-3.5,7c-3.5-0.9-7-1.8-10.5-2.8c-7.4-1.9-14.8-3.9-22.1-5.8C283.2,80.1,282.1,79.5,281,79
		L281,79z"/>
	<path class="st7" d="M262.8,49.4c-1.6-3.4-3.2-6.8-4.8-10.2c0.7-3.8,1.4-7.5,2.2-11.3c5.6-9.7,10.3-11,22.4-5.9
		c-2.5,5.9-4.9,11.9-7.6,17.8c-0.2,0.5-2.8,0.2-4.2,0.2c2,3.7,3.9,7.2,5.4,10c-2.5,1.2-6.2,3-9.8,4.8C265.2,53,264,51.2,262.8,49.4
		L262.8,49.4z"/>
	<path class="st8" d="M316.9,89.3c1.2-2.3,2.3-4.7,3.5-7c3.8,1.5,7.6,2.9,11.4,4.4c6.7,0.9,13.3,1.7,20,2.6c0.4,1,0.7,2,1.1,3
		c-3.2,1.8-6.4,3.6-9.7,5.4c-7.3,1.4-12.7,5.2-16.9,10.4c-3.6-3.4-7.2-6.8-10.8-10.3C316,95,316.5,92.1,316.9,89.3L316.9,89.3z"/>
	<path class="st9" d="M266.4,54.8c3.6-1.8,7.3-3.6,9.8-4.8c-1.5-2.8-3.4-6.3-5.4-10c1.4-0.1,4,0.3,4.2-0.2
		c2.8-5.8,5.1-11.8,7.6-17.8c1.8,1.6,3.7,3.2,5.3,4.9c1.6,1.6,2.9,3.4,4.3,5.1c-0.8,3.3-1.7,6.6-2.4,10c-1,4.6-1.8,9.2-2.8,13.8
		c-3.7,2.5-7.5,5-11.2,7.6c-1.2-0.8-2.4-1.7-3.5-2.5c-1.5-1.9-3.1-3.8-4.6-5.7C267.4,55,266.9,54.9,266.4,54.8L266.4,54.8z
		 M288,37.1c-0.4-0.7-0.9-1.5-1.3-2.2c-2.3,0.4-5.9,0.3-6.6,1.5c-1.1,1.8-0.3,4.5-0.3,6.8l2.5,0.6C284.2,41.6,286.1,39.4,288,37.1
		L288,37.1z"/>
	<path class="st10" d="M304.1,186.8c-0.6,2.3-1.2,4.7-1.8,7c-6.4-0.6-9.1,2.6-10.4,7.4c-0.3,1-1.6,1.8-2.5,2.7
		c-1.6-1.4-3.3-2.9-5-4.3c2.8-8,5.3-16.1,8.5-24c2.1-5,3.2-11.8,12.6-10.4c0.1,6.7,0.2,13.4,0.2,20.1h-0.2
		C305,185.8,304.5,186.3,304.1,186.8L304.1,186.8z"/>
	<path class="st11" d="M307.5,136.1c-5.4-8.5-10.8-17-16.2-25.5c-0.7-1.4-1.4-2.8-2-4.2c2.7-0.4,5.5-0.9,8.2-1.3
		c2,3.4,3.9,6.8,5.9,10.1c5.7,8.6,11.5,17.1,17.4,26c-3.2,3.1-5.9,4.3-8.8-0.1C310.7,139.3,308.9,137.8,307.5,136.1L307.5,136.1z"/>
	<path class="st11" d="M292.3,32c-1.4-1.7-2.8-3.5-4.3-5.1c-1.7-1.7-3.5-3.3-5.3-4.9c-12.1-5.1-16.8-3.8-22.4,5.9
		c-1.7-5.6-1.2-6.9,3.3-9.6c7.1-4.2,14.4-5.5,22.3-1.8C293.3,20,292.6,26.1,292.3,32L292.3,32z"/>
	<path class="st3" d="M316.9,89.3c-0.4,2.8-0.9,5.7-1.3,8.6c-2.2-0.9-4.5-1.8-6.7-2.7c-2.1-1.4-4.3-2.8-6.5-4.3
		c-1.6-0.1-3.2-0.1-4.8-0.1c-2.8-0.9-5.6-1.9-8.4-2.8c-1.6-2.4-3.3-4.8-4.9-7.2c7.4,1.9,14.8,3.9,22.1,5.8
		C309.9,87.4,313.4,88.4,316.9,89.3L316.9,89.3z"/>
	<path class="st4" d="M331.8,86.6c-3.8-1.5-7.6-2.9-11.4-4.4c1-3.4,2-6.8,3-10.1c3.4,0.5,6.8,1,10.2,1.5
		C333,77.9,332.4,82.3,331.8,86.6L331.8,86.6z"/>
	<path class="st12" d="M303.3,115.2c-2-3.4-3.9-6.8-5.9-10.1c-1.6-1.5-3.2-3-4.9-4.5c1.1-0.9,2.2-1.8,3.3-2.7
		c3.3,1.9,6.5,3.8,9.8,5.7C304.8,107.5,304,111.4,303.3,115.2L303.3,115.2z"/>
	<path class="st13" d="M333.6,73.6c-3.4-0.5-6.8-1-10.2-1.5c1.9-2.9,3.8-5.8,5.7-8.6C335.7,65.1,336.3,68.8,333.6,73.6L333.6,73.6z"
		/>
	<path class="st14" d="M326.3,108.1c4.2-5.2,9.6-9,16.9-10.4C339.2,105.4,332.7,109.4,326.3,108.1z"/>
	<path class="st10" d="M305.6,103.6c-3.3-1.9-6.5-3.8-9.8-5.7c0.6-2.4,1.2-4.8,1.8-7.2c1.6,0.1,3.2,0.1,4.8,0.1
		c1,3.3,2.1,6.6,3.1,9.9C305.6,101.7,305.6,102.7,305.6,103.6z"/>
	<path class="st12" d="M305.6,100.8c-1-3.3-2.1-6.6-3.1-9.9c2.1,1.4,4.3,2.8,6.5,4.3C307.8,97,306.7,98.9,305.6,100.8z"/>
	<path class="st15" d="M266.6,234c1.5,0.4,3.1,0.7,4.7,1.1c1.6,5.3,3.2,10.5,4.7,15.8c3.8,2,7.6,4.1,11.4,6.1c4.3,1,8.5,2,12.8,3
		c0.6,2.3,1.2,4.5,1.9,6.8c-1.7-0.1-3.3-0.3-5-0.4c-9.2-1.3-18.5-2.6-27.7-3.9c0.5-1.4,0.5-2.9,1.5-4c1.1-1.3,3-2.3,4.5-3.4
		c-0.5-0.5-1-1-1.5-1.5c-1.8,0.7-3.7,1.4-6.9,2.6c2.2-3.7,3.6-6.1,4.9-8.3c-2.7-1.4-5-2.6-7.2-3.7
		C265.2,240.8,265.9,237.4,266.6,234L266.6,234z"/>
	<path class="st14" d="M269.4,262.5c9.2,1.3,18.5,2.6,27.7,3.9c-12.4-0.3-24.9-0.6-37.3-0.8c-0.6-0.5-1.1-1.1-1.7-1.6l0.1-0.1
		c0.1-0.9,0.1-1.9,0.2-2.8C262,261.6,265.7,262,269.4,262.5L269.4,262.5z"/>
	<path class="st16" d="M258,263.9c0.6,0.5,1.1,1.1,1.7,1.6C259.2,265,258.6,264.4,258,263.9z"/>
	<path class="st12" d="M289.3,203.9c0.9-0.9,2.2-1.7,2.5-2.7c1.4-4.8,4.1-8,10.4-7.4c-3.3,9.6-6.5,19.1-9.8,28.7
		c0,1.4-0.1,2.8-0.1,4.2c-2.7,3.3-5.4,6.7-8,10c1.1-7.2,2.1-14.3,3.2-21.5c0.6-1.9,1.1-3.7,1.7-5.6
		C289.2,207.7,289.2,205.8,289.3,203.9L289.3,203.9z"/>
	<path class="st17" d="M269.4,262.5c-3.7-0.5-7.3-0.9-11-1.4c1.1-3.8,2.3-7.5,3.5-11.3c0.9-1.9,1.8-3.8,2.8-5.6
		c2.3,1.2,4.5,2.4,7.2,3.7c-1.3,2.2-2.7,4.6-4.9,8.3c3.2-1.2,5-1.9,6.9-2.6c0.5,0.5,1,1,1.5,1.5c-1.5,1.1-3.3,2-4.5,3.4
		C269.9,259.5,269.8,261.1,269.4,262.5L269.4,262.5z"/>
	<path class="st18" d="M276,250.8c-1.6-5.3-3.2-10.5-4.7-15.8c3.4,0.8,6.7,1.6,10.1,2.3C279.6,241.9,277.8,246.4,276,250.8z"/>
	<path class="st12" d="M284.3,80.7c1.6,2.4,3.3,4.8,4.9,7.2c-1.8,0.2-3.6,0.4-5,0.6c1.2,2.3,2.3,4.5,3.4,6.6
		c-2.9,5.6-6,11.1-8.6,16.8c-0.3,0.7,1.3,2.2,2,3.2c-1.6,4.8-3.3,9.6-4.9,14.4l0,0c-0.2,0.1-0.7,0.3-0.6,0.4c0.1,0.4,0.4,0.7,0.6,1
		c-3.8,2.9-7.6,5.8-11.5,8.6c0.5-3.8,1.1-7.6,1.6-11.4c0-0.9,0-1.9,0-2.8c1.1-1,2.1-1.9,3.2-2.9c0.9-2.4,1.9-4.8,2.8-7.2
		c1.8-5.2,3.6-10.4,5.4-15.7c0.2-6.9-1.6-14.1,3.4-20.3C282.1,79.5,283.2,80.1,284.3,80.7L284.3,80.7z"/>
	<path class="st3" d="M277.7,99.3c-1.8,5.2-3.6,10.4-5.4,15.7c-0.9,2.4-1.9,4.8-2.8,7.2c-1.1,0.5-2.2,1-3.3,1.4
		c-6.3,2-12.6,4-19.8,6.3c-0.5-2.4-1-5.1-1.5-7.7c4.4,0,8.7,0,13.4,0c2.2-4.4,2.1-10.2,10.3-10.3c2-0.1,4-5,5.9-7.7
		C275.5,102.6,276.6,100.9,277.7,99.3L277.7,99.3z"/>
	<path class="st7" d="M267.8,55.2c1.5,1.9,3.1,3.8,4.6,5.7c-3.1,3.2-6.3,6.3-9.4,9.5c-1.2,1-2.5,2-3.8,2.9c-0.6-0.9-2-2-1.8-2.6
		c1.2-3.3,2.9-6.4,4.4-9.6c0.9-1.8,0.9-5.1,4.9-2.8C267.2,57.3,267.5,56.2,267.8,55.2L267.8,55.2z"/>
	<path class="st19" d="M259.3,73.3c1.2-1,2.5-1.9,3.8-2.9c-0.7,4.8-1.3,9.6-2,14.4c-2-1.8-4.1-3.5-6.1-5.3c0.6-0.6,1.1-1.1,1.7-1.6
		c0.5-0.5,0.9-1,1.4-1.5C258.5,75.4,258.9,74.3,259.3,73.3L259.3,73.3z"/>
	<path class="st17" d="M259.3,73.3c-0.4,1-0.8,2.1-1.2,3.1c-0.5,0.5-0.9,1-1.4,1.5c-0.6,0.6-1.1,1.1-1.7,1.6
		c-1.2-0.6-2.5-1.1-3.8-1.6c0.4-3.4,0.6-6.8,1.2-10.2c0.6-3.8,1.5-7.6,2.2-11.4c2.7-2.3,5.5-4.6,8.2-6.9c1.2,1.8,2.4,3.6,3.6,5.4
		c0.5,0.1,1,0.2,1.4,0.4c-0.3,1-0.6,2.1-1,3.2c-4-2.3-4,0.9-4.9,2.8c-1.6,3.2-3.2,6.4-4.4,9.6C257.3,71.3,258.7,72.4,259.3,73.3
		L259.3,73.3z"/>
	<path class="st12" d="M281,182.4c0-1,0-1.9,0-2.9c3.7-10.5,7.5-21,11.2-31.5c0.7,0.1,1.3,0.2,2,0.4c-0.7,10.9-2.5,21.7-7,32
		C286.7,181.6,283.1,181.8,281,182.4L281,182.4z"/>
	<path class="st13" d="M276.1,129.4c1.6-4.8,3.3-9.6,4.9-14.4c2.7-2.9,5.5-5.7,8.2-8.6c0.7,1.4,1.4,2.8,2,4.2
		c-1.2,4.4-2.4,8.7-3.6,13.1c-1.1,1.4-2.2,2.8-3.3,4.2c-1.6,0-3.3,0.1-5,0.1C278.3,128.5,277.2,129,276.1,129.4L276.1,129.4z"/>
	<path class="st5" d="M284.3,127.9c1.1-1.4,2.2-2.8,3.3-4.2c5.3,2.8,1.9,6.7,1.3,10c-0.4,2-1.9,3.8-2.9,5.7c-4.6,0.3-5-1.2-3.2-4.6
		C283.8,132.7,283.8,130.2,284.3,127.9L284.3,127.9z"/>
	<path class="st2" d="M289.1,209.6c-0.6,1.9-1.1,3.7-1.7,5.6c-3.1,1.7-6.2,3.4-10,5.4c-0.9-1.5-1.8-3.2-3.8-6.8
		C279.3,212.3,284.2,211,289.1,209.6L289.1,209.6z"/>
	<path class="st13" d="M276,130.8c-0.2-0.3-0.4-0.7-0.6-1c0-0.1,0.4-0.2,0.6-0.4C276.1,129.9,276.1,130.3,276,130.8L276,130.8z"/>
	<path class="st4" d="M266.2,123.7c1.1-0.5,2.2-1,3.3-1.4c-1.1,1-2.1,1.9-3.2,2.9C266.2,124.7,266.2,124.2,266.2,123.7z"/>
	<path class="st12" d="M304.1,186.8c0.5-0.5,1-1,1.4-1.6C305,185.8,304.5,186.3,304.1,186.8z"/>
	<path class="st7" d="M288,37.1c-1.9,2.2-3.8,4.5-5.7,6.7l-2.5-0.6c0-2.3-0.8-5,0.3-6.8c0.8-1.2,4.3-1,6.6-1.5
		C287.1,35.7,287.5,36.4,288,37.1L288,37.1z"/>
	<path class="st5" d="M289.2,106.5c-2.7,2.9-5.5,5.7-8.2,8.6c-0.7-1.1-2.3-2.5-2-3.2c2.7-5.7,5.7-11.2,8.6-16.8
		c1.6,1.9,3.3,3.8,4.9,5.6c1.6,1.5,3.2,3,4.9,4.5C294.6,105.6,291.9,106,289.2,106.5L289.2,106.5z"/>
	<path class="st19" d="M292.5,100.6c-1.6-1.9-3.3-3.8-4.9-5.6c-1.1-2.1-2.2-4.3-3.4-6.6c1.4-0.2,3.2-0.3,5-0.6
		c2.8,0.9,5.6,1.9,8.4,2.8c-0.6,2.4-1.2,4.8-1.8,7.2C294.7,98.8,293.6,99.7,292.5,100.6L292.5,100.6z"/>
	<path class="st4" d="M256.6,77.9c0.5-0.5,0.9-1,1.4-1.5C257.6,76.9,257.1,77.4,256.6,77.9z"/>
</g>
<g>
	<path class="st2" d="M424.3,141.9c-6.3-7.5-7.2-14.9,0.6-22.3c1.7-1.6,2.3-4,3.3-6c0-3.5,0-6.9-0.1-10.4c0-1,0-2,0-3
		c0.2-1,0.4-2,0.5-3c1.1-1.7,2.3-3.3,3.5-5c-1.1-0.6-2.2-1.2-3.3-1.8c-3.5,2.8-6.9,5.6-10.4,8.5v0.2c-1.5-1.1-2.9-2.2-4.4-3.3
		c1.3-1.9,2.7-3.9,4-5.8c1.1-1.9,2.2-3.8,3.3-5.7c10.5-1.1,14-5.2,13.7-13c-0.3-7.1,2.5-14.3,3.9-21.5c3.9,3.5,7.9,6.9,11.8,10.4
		c-2,5.5-4.1,10.9-6.1,16.4c-2.7,3-5.5,6-8.2,8.9c-1.7,7.1,6.5,6.3,11.7,7.1c1.8,0.3,4.5-2.6,6.8-4.1c2.4-1.5,4.8-3,7.2-4.5
		c0.5,0.7,1,1.4,1.5,2.1c-5,7.7-9.9,15.4-14.9,23.1c-2,1.5-4,3-6.1,4.5c0,0.5,0,1,0,1.5c-3.2,0.2-6.4,0.3-10.1,0.5
		c0,3.8,0,6.7,0,9.6c0,2.3,0.8,4.8-0.4,6.8C430.3,135.6,427.1,138.7,424.3,141.9L424.3,141.9z"/>
	<path class="st12" d="M414.1,95.8c1.5,1.1,2.9,2.2,4.4,3.3c2.2,4.8-5.3,10.1,1.6,14.6c-9.9,3.6-17.3,0.1-24.3-4.5
		c0.6-4.1,0.8-8.3,2-12.3c0.8-2.9,2.9-5.7,4.4-8.5c-0.3,1.2-0.6,2.4-0.8,3.7c-0.2,2.1-0.1,4.1-0.2,6.2c2.9-0.4,5.7-0.7,8.5-1.1
		C411.1,96.7,412.6,96.2,414.1,95.8L414.1,95.8z"/>
	<path class="st15" d="M409.7,97.1c-2.9,0.4-5.7,0.7-8.5,1.1c0.1-2.1,0-4.1,0.2-6.2c0.1-1.2,0.5-2.4,0.8-3.7
		c2.6-2.8,8.2-4.7,4.2-9.4c-0.9-1.1,1.1-5.2,2.6-5.4c4-0.6,8.3,0,12.6,0.2c-1.5,0.2-4.2,0.2-4.3,0.6c-1.4,4.2-2.4,8.4-3.5,12.6
		C412.3,90.4,411,93.8,409.7,97.1L409.7,97.1z"/>
	<path class="st8" d="M450.9,60.1c-4-3.5-7.9-6.9-11.8-10.4c-0.1-0.5-0.1-0.9,0-1.4c1.8-3.2,4.2-6.4,5.1-9.7
		c1.4-5.7,1.8-11.5,2.6-17.3c1.4,6.5,2.9,13,4.3,19.5c0,5.9,0,11.8,0,17.8C450.9,59.1,450.9,59.6,450.9,60.1L450.9,60.1z"/>
	<path class="st9" d="M413.6,87c1.1-4.2,2.1-8.4,3.5-12.6c0.1-0.4,2.8-0.4,4.3-0.6c0,3.5,0,7-0.1,10.5c-1.1,1.9-2.2,3.8-3.3,5.7
		C416.6,89,415.1,88,413.6,87z"/>
	<path class="st3" d="M424.3,141.9c2.7-3.2,6-6.3,8-9.8c1.1-1.9,0.4-4.5,0.4-6.8c0-2.9,0-5.8,0-9.6c3.6-0.2,6.8-0.4,10.1-0.5
		c1.1,4.2,2.2,8.3,3.5,13.3c4.7-3.7,8.8-6.9,12.9-10.1c0.8,0.5,1.5,1.1,2.3,1.6c-6.1,5.1-12.1,10.2-16.8,14.1
		c1.5,5.1,2.6,9,3.8,13.1c1.9-0.3,4.2-0.6,6.5-1c-0.1,5.2-7.6,10.8,1.4,15.5c3.1,3.2-13.8,7.1,0.8,9.8c-0.3,1.7-0.7,3.5-1,5.2
		c4.8-3.5,8.9-7.2,10.6-11.5c1-2.4-2.1-5.7-3.4-8.5c-3.9-10.3-1.9-11.9,12.1-10.5c2,2.5,4,5,6,7.5c0.1,3.5,0.3,6.9,0.5,10.4
		c-3.8-4.1-7.5-8.3-11.3-12.4c2.3,8.2,2,17.1,12.5,22.9v2.9c-4.1-0.4-8.3-0.7-11.3-1c-3,9.1-5.8,17.7-8.6,26.3
		c-3.9,6.5-7.9,13-11.2,18.5c-0.5,4.2-0.8,7.7-1.2,11.2c-0.7,1.5-1.5,3.1-2.2,4.6c-2.5,0-4.9-0.1-7.4-0.1c-1.4-2.4-2.8-4.9-4.1-7.4
		c0.7-2.5,1.4-5.1,2-7.6c1.5-7.1,3.1-14.2,4.3-21.3c0.7-4.6-0.5-9.4,1.2-13.7c2.8-7.4,3.9-14.3-2.1-21.2c-1.2-1.3-1-3.2-1.5-4.9
		c-0.1-6.6-0.2-13.2-0.5-19.9c-0.1-1.5-0.7-3.1-1.1-4.8c-4.3,2.8-7.9,5.1-11.6,7.4C426.8,143.2,425.5,142.5,424.3,141.9L424.3,141.9
		z"/>
	<path class="st5" d="M428,143.9c3.6-2.3,7.2-4.6,11.6-7.4c0.4,1.7,1,3.3,1.1,4.8c0.2,6.6,0.3,13.2,0.5,19.9
		C436.8,155.4,432.4,149.6,428,143.9L428,143.9z"/>
	<path class="st19" d="M420.1,113.7c-6.9-4.5,0.6-9.8-1.6-14.6v-0.2c3.4-0.6,6.8-1.1,10.2-1.7c-0.2,1-0.4,2-0.5,3c0,1,0,2,0,3
		c0,3.5,0,6.9,0.1,10.4C425.5,113.6,422.8,113.6,420.1,113.7L420.1,113.7z"/>
	<path class="st12" d="M450.9,232.7c0.4-3.5,0.7-7,1.2-11.2c3.3-5.5,7.3-12,11.2-18.5c6.1,1,12.2,2,18.4,2.9
		c-3.5,7.9-6.9,15.8-10.4,23.8c-0.6,0-1.3,0-2,0.1c-2.2-1.7-4.5-3.4-6.7-5.1c0.5,0.6,1,1.3,1.5,1.9
		C459.7,228.6,455.3,230.6,450.9,232.7L450.9,232.7z"/>
	<path class="st14" d="M464.6,259.7c4.3,1.9,8.6,3.9,12.9,5.8c-12.2,3-37.1,0.6-45.5-4.4c6.7-0.2,13.4-0.5,21.3-0.7
		c-2.4-5.2-4.9-9.7-6.3-14.3c-0.6-1.8,1.2-4.1,1.9-6.1c1.7,0.6,3.4,1.2,5.1,1.8c0.3,3.4,0.6,6.8,1,10.2
		C458.2,254.6,461.4,257.1,464.6,259.7L464.6,259.7z"/>
	<path class="st10" d="M454,241.8c-1.7-0.6-3.4-1.2-5.1-1.8c-0.1-0.9-0.2-1.8-0.2-2.7c0.7-1.5,1.5-3.1,2.2-4.6
		c4.4-2.1,8.8-4.1,13.2-6.1c-0.5-0.6-1-1.3-1.5-1.9c2.2,1.7,4.5,3.4,6.7,5.1C464.2,233.7,459.1,237.8,454,241.8L454,241.8z"/>
	<path class="st7" d="M451,40.8c-1.4-6.5-2.9-13-4.3-19.5c-0.5-1.6-1-3.3-1.5-4.9c1.4-4.2,2.8-8.5,4.1-12.7c2.9-1.2,5.7-2.5,8.6-3.7
		c2.5,3.2,5,6.4,7.4,9.6c-0.2,1.8-0.4,3.6-0.5,5.4c-0.8,4.6-1.6,9.2-2.3,13.8c-0.6,1.5-1.1,3-1.7,4.5
		C457.5,35.8,454.3,38.3,451,40.8L451,40.8z"/>
	<path class="st15" d="M448.7,237.2c0.1,0.9,0.2,1.8,0.2,2.7c-0.7,2-2.4,4.3-1.9,6.1c1.4,4.6,3.9,9.1,6.3,14.3
		c-7.9,0.3-14.6,0.5-21.3,0.7c1-2.5,1.9-5.1,3.1-7.5c0.6-1.1,2-2,3-3.1c1-4.5,2.1-8.9,3.2-13.4C443.8,237.2,446.2,237.2,448.7,237.2
		z"/>
	<path class="st10" d="M483.2,177.6c0.8,4,1.6,7.9,2.5,11.9c-1.3,5.4-2.7,10.9-4,16.4c-6.1-1-12.2-2-18.4-2.9
		c2.8-8.6,5.6-17.2,8.6-26.3C474.9,176.9,479.1,177.3,483.2,177.6L483.2,177.6z"/>
	<path class="st10" d="M483.8,145.7c-0.8,2.7-1.5,5.4-2.3,8.1c-2-2.5-4-5-6-7.5c-0.3-1.2-0.5-2.4-0.9-3.6c-0.9-2.4-2-4.9-3.1-7.3
		c-3.6,1.4-7.7,2.4-10.7,4.3c-2.6,1.7-4,4.4-5.9,6.6c-2.3,0.3-4.5,0.7-6.5,1c-1.2-4.1-2.3-8-3.8-13.1c4.6-3.9,10.7-9,16.8-14.1
		c-0.8-0.5-1.5-1.1-2.3-1.6c-4.1,3.2-8.2,6.4-12.9,10.1c-1.3-5-2.4-9.2-3.5-13.3c0-0.5,0-1,0-1.5c2-1.5,4-3,6.1-4.5
		c5-7.7,9.9-15.4,14.9-23.1c4.7,8.6,9.5,17.2,14.8,26.9c3-3.1,5-5,6.9-7c0.9,5.4,2,10.7,2.3,16.1c0.1,1.2-2.9,2.5-4.5,3.8
		c-3.7-0.5-7.5-1.1-9.9-1.4c3.2,5.6,6,10.4,8.6,15.3C483,141.6,483.2,143.7,483.8,145.7L483.8,145.7z"/>
	<path class="st11" d="M485.5,106c-1.9,1.9-3.8,3.9-6.9,7c-5.3-9.7-10.1-18.3-14.8-26.9c-0.5-0.7-1-1.4-1.5-2.1l-0.2-0.4l2.4-2.3
		c0.6,0,1-0.2,1.2-0.6c1.2,0.2,2.4,0.5,3.5,0.7c0.7,1.4,1.4,2.7,2,4.1c3,5.2,5.2,10.9,14.4,12.2c0,0.4,0.3,0.8,0.8,1
		c0.5,1,1.1,2,1.6,3c-0.3,0.4-0.3,0.8,0,1.3C487.1,103.9,486.3,104.9,485.5,106L485.5,106z"/>
	<path class="st5" d="M465.6,80.7c-0.2,0.4-0.6,0.6-1.2,0.6c-1.1-0.1-2.2-0.2-3.3-0.4c-1-2.4-2-4.7-2.8-6.4c-5.5,0.8-9.6,1.4-13.6,2
		c2-5.5,4.1-10.9,6.1-16.4c0-0.5,0.1-1,0.1-1.5c4.1-0.1,8.3-0.3,12.4-0.4C464.1,65.7,464.9,73.2,465.6,80.7L465.6,80.7z"/>
	<path class="st10" d="M444.7,76.5c4-0.6,8.1-1.2,13.6-2c0.7,1.7,1.8,4.1,2.8,6.4c0.3,0.9,0.6,1.8,0.9,2.7l0.2,0.4
		c-2.4,1.5-4.8,3-7.2,4.4c-4.4-1.1-8.8-2.3-13.2-3.4c0.2-0.6,0.5-1.1,0.7-1.7l-6,2.1C439.3,82.4,442,79.5,444.7,76.5z"/>
	<path class="st3" d="M436.6,85.4c2-0.7,4-1.4,6-2.1c-0.2,0.6-0.5,1.1-0.7,1.7c4.4,1.1,8.8,2.3,13.2,3.4c-2.3,1.4-5,4.4-6.8,4.1
		C443.1,91.7,434.9,92.5,436.6,85.4L436.6,85.4z"/>
	<path class="st12" d="M428.7,97.2c-3.4,0.6-6.8,1.1-10.2,1.7c3.5-2.8,6.9-5.6,10.4-8.5c1.1,0.6,2.2,1.2,3.3,1.8
		C431,93.9,429.9,95.6,428.7,97.2L428.7,97.2z"/>
	<path class="st17" d="M413.6,87c1.5,1,3,1.9,4.4,2.9c-1.3,1.9-2.7,3.9-4,5.8c-1.5,0.5-2.9,0.9-4.4,1.4
		C411,93.8,412.3,90.4,413.6,87L413.6,87z"/>
	<path class="st3" d="M448.9,109.2c-2,1.5-4,3-6.1,4.5C444.8,112.2,446.8,110.7,448.9,109.2z"/>
	<path class="st12" d="M428.2,103.3c0-1,0-2,0-3C428.2,101.3,428.2,102.3,428.2,103.3z"/>
	<path class="st15" d="M463.4,58.2c-4.1,0.1-8.3,0.3-12.4,0.4c0-5.9,0-11.8,0-17.8c3.2-2.5,6.5-5,9.8-7.6c-0.3,5.9-0.7,11.7-1,17.6
		c1.1,1.1,2.3,2.1,3.4,3.2C463.3,55.4,463.3,56.8,463.4,58.2L463.4,58.2z"/>
	<path class="st2" d="M454.9,146.3c1.9-2.2,3.3-4.9,5.9-6.6c3-1.9,7.1-2.9,10.7-4.3c1,2.4,2.1,4.9,3.1,7.3c0.5,1.2,0.6,2.4,0.9,3.6
		c-14.1-1.4-16,0.3-12.1,10.5c-2.1,4.9-4.2,9.9-6.2,14.8c-14.5-2.8,2.4-6.6-0.8-9.8C447.3,157.1,454.8,151.5,454.9,146.3
		L454.9,146.3z"/>
	<path class="st10" d="M481.9,164.3c0.4,3.5,0.8,7,1.2,10.5c-10.5-5.8-10.3-14.7-12.5-22.9C474.4,156,478.2,160.1,481.9,164.3
		L481.9,164.3z"/>
	<path class="st4" d="M457.1,171.7c2.1-4.9,4.2-9.9,6.2-14.8c1.2,2.9,4.3,6.1,3.4,8.5c-1.7,4.2-5.8,8-10.6,11.5
		C456.4,175.2,456.7,173.4,457.1,171.7L457.1,171.7z"/>
	<path class="st5" d="M486.2,82.8c15.4-0.1,25.9,6.4,35,14.3c3.2,2.8,6.4,5.9,8.5,9.2c3.3,5,0.4,13.6-5.3,15.4
		c-7.9,2.5-13.7-0.3-18.2-5c8.4,0.3,13.1-3.7,13.1-8.6c0-2.1-7.6-4.2-11.9-6.1c-1.3-0.5-3.3-0.2-5-0.2
		C494.1,96.8,487,91.2,486.2,82.8L486.2,82.8z"/>
	<path class="st9" d="M490.1,62.7c-2.2,5.1-4.3,10.1-6.5,15.2c-3.5,1-7,2-10.5,3c-1.4-1.7-2.8-3.5-2.8-3.4c4.1-8,7.7-14.8,11.2-21.7
		C484.5,58,487.3,60.3,490.1,62.7L490.1,62.7z"/>
	<path class="st11" d="M483.8,145.7c-0.6-2-0.8-4.2-1.8-6.1c-2.5-4.9-5.4-9.7-8.6-15.3c2.4,0.3,6.2,0.9,9.9,1.4
		c0.6,1.5,1.1,3,1.7,4.5c0.3,1.4,0.6,2.7,1,4.1c3.8,6.4,7.6,12.9,11.5,19.2c1.4,2.3,3.3,4.4,5,6.5c-1.2,0.6-2.4,1.2-3.6,1.8
		C493.8,156.6,488.8,151.1,483.8,145.7z"/>
	<path class="st14" d="M486.2,82.8c0.9,8.4,8,13.9,16.3,18.9c-0.9,3.6,9.3,8.2-2,10.8c-3.1-1.8-9.9-1.4-7.5-6.7
		c0.2-0.5-3.2-1.9-5-2.9c-0.2-0.4-0.2-0.9,0-1.3c0.9-0.2,1.7-0.4,2.6-0.7c-1.4-0.8-2.8-1.5-4.2-2.3c-0.5-0.3-0.7-0.6-0.8-1
		c-1.8-2.4-3.5-4.8-4.5-6.3c0.3-2.5,0.5-4.2,0.7-5.9c0.9-1.6,1.8-3.1,2.6-4.7C485,81.5,485.6,82.2,486.2,82.8L486.2,82.8z"/>
	<path class="st19" d="M488,102.9c1.8,1,5.2,2.4,5,2.9c-2.4,5.3,4.3,4.9,7.5,6.7c0,0.4,0,0.8,0.2,1.1c-2.1,4.4-4.3,8.9-6.4,13.3
		c-3.1,1.1-6.2,2.2-9.2,3.3c-0.6-1.5-1.1-3-1.7-4.5c1.6-1.2,4.6-2.6,4.5-3.8c-0.3-5.4-1.5-10.7-2.3-16.1
		C486.3,104.9,487.1,103.9,488,102.9L488,102.9z"/>
	<path class="st11" d="M490.1,62.7c-2.8-2.3-5.7-4.7-8.5-7c-6.1-0.5-12.3-1.1-18.4-1.7c-1.1-1.1-2.3-2.1-3.4-3.2
		c4.8-1.2,9.5-3.2,14.3-3.3C486.1,47.1,492.3,53.4,490.1,62.7L490.1,62.7z"/>
	<path class="st3" d="M500.6,113.7c-0.2-0.4-0.3-0.7-0.2-1.1c11.4-2.5,1.2-7.2,2-10.8c1.7,0,3.7-0.3,5,0.2c4.3,1.9,11.9,4,11.9,6.1
		c0,4.9-4.7,8.9-13.1,8.6C504.4,115.7,502.5,114.7,500.6,113.7L500.6,113.7z"/>
	<path class="st18" d="M484.4,80.8c-0.9,1.6-1.8,3.1-2.6,4.7c-3.5,0-7,0-10.6,0c-0.7-1.4-1.4-2.7-2-4.1c1.3-0.2,2.7-0.4,4-0.6
		c3.5-1,7-2,10.5-3C483.9,78.8,484.1,79.8,484.4,80.8L484.4,80.8z"/>
	<path class="st10" d="M485,130.3c3.1-1.1,6.2-2.2,9.2-3.3c-2.8,2.5-5.5,5-8.3,7.5C485.6,133.1,485.3,131.7,485,130.3z"/>
	<path class="st7" d="M473.2,80.8c-1.3,0.2-2.7,0.4-4,0.6c-1.2-0.2-2.4-0.5-3.5-0.7c-0.7-7.5-1.5-15-2.2-22.5
		c-0.1-1.4-0.1-2.8-0.2-4.1c6.1,0.5,12.3,1.1,18.4,1.7c-3.5,6.8-7.1,13.7-11.2,21.7C470.4,77.3,471.8,79.1,473.2,80.8L473.2,80.8z"
		/>
	<path class="st9" d="M471.2,85.4c3.5,0,7,0,10.6,0c-0.2,1.7-0.4,3.4-0.7,5.9c1,1.4,2.8,3.8,4.5,6.3
		C476.3,96.4,474.2,90.6,471.2,85.4L471.2,85.4z"/>
	<path class="st9" d="M486.4,98.7c1.4,0.8,2.8,1.5,4.2,2.3c-0.9,0.2-1.7,0.5-2.6,0.7C487.5,100.7,486.9,99.7,486.4,98.7z"/>
	<path class="st2" d="M462,83.6c-0.3-0.9-0.6-1.8-0.9-2.7c1.1,0.1,2.2,0.2,3.3,0.4C463.6,82,462.8,82.8,462,83.6L462,83.6z"/>
</g>
<path class="st20" d="M171.7,150.4c0,0.9,0.1,1.8,0.1,2.7c0.7,1.1,1.4,2.2,2.1,3.3c-3.7,1.8-7.6,3.6-11.2,5.5
	c-3.2,1.7-6.2,3.7-9.3,5.6c-1.7,0-3.5,0-5.2,0c0.6-3.2,1-6.4,2-9.5c1.3-4.1,4.2-8,4.4-12.1c0.1-2.2-4-4.6-6.2-6.8
	c-4.8,3.5-9.3,0.3-13.9-0.3c-0.7-1-1.4-1.9-2.1-2.9c-0.5-1.4-1-2.7-1.5-4.1c2.7-6.1,5.3-12.1,8-18.2c-0.6-0.3-1.1-0.6-1.7-0.9
	c-4.9,5.8-9.8,11.6-14.8,17.4c1.2-4.6,2.5-9.2,3.6-13.4c-6,3.5-12,7.3-18.5,10.6c-3.8,1.9-8.4,2.9-12.6,4.2
	c-0.6-5.8-1.2-11.5-1.8-17.3c0.8-2.6,1.6-5.1,2.4-7.7c0.2-0.2,0.5-0.4,0.8-0.6c6.9-0.2,13.9-0.3,20.9-0.5c1.8-0.4,3.6-0.9,5.4-1.3
	c9.7-1.9,19.5-3.8,29.2-5.7c0.6,0,1.1-0.1,1.7-0.1c1,0.1,2,0.1,3,0.2c2.3,2.4,4.6,4.9,6.9,7.3c0,0.4-0.1,0.8-0.1,1.1
	c-4.3,2.2-4.3,4.2,0.5,5.8c-0.1,1.9-0.1,3.8-0.1,5.8c0,1.4,0,2.8,0,4.3c1.3,2.7,2.6,5.3,3.9,8c0.5,3.9,1,7.8,1.4,11.7
	C169.9,145.3,170.8,147.8,171.7,150.4L171.7,150.4z"/>
<path class="st21" d="M80.9,81c0.9-12.1,11.3-23,26-27.1c0.5,9.2-8.2,18.8,1.8,27.7c0.3,0.3,0.1,0.9,0.2,1.4
	c0.6,1.3,1.2,2.6,1.7,3.9c2.2,7.7-7.5,8.5-10.7,13.1l-3.3,2.9c-7.1-3.9,3.3-6.9,0.1-11.4c-2.3,0.5-4.9,1.2-7.6,1.8
	c-1.2-5.4-1.2-5.3,3.6-7.3c1-0.4,2.1-1.8,2-2.7c-0.2-1.2-1.6-3.2-2.3-3.1c-3.1,0.4-6.1,1.4-9.2,2C82.5,82.3,81.7,81.4,80.9,81
	L80.9,81z"/>
<path class="st20" d="M80.9,81c0.7,0.4,1.6,1.3,2.2,1.2c3.1-0.6,6.1-1.6,9.2-2c0.6-0.1,2.1,1.9,2.3,3.1c0.1,0.8-1,2.2-2,2.7
	c-4.8,2-4.8,1.9-3.6,7.3c2.7-0.6,5.4-1.3,7.6-1.8c3.2,4.5-7.2,7.5-0.1,11.4c-0.1,1.1-0.2,2.2-0.3,3.2c-0.3,0.2-0.5,0.4-0.8,0.6
	C80.8,103.7,74.8,93,80.9,81z"/>
<path class="st22" d="M108.9,83c-0.1-0.5,0.1-1.1-0.2-1.4c-10-8.8-1.3-18.5-1.8-27.7c3.3-1,6.7-2,10-3c2.2,2.4,4.4,4.8,6.6,7.2
	c-1.7,1.6-3.9,2.9-4.9,4.7C115.1,69.5,112.1,76.3,108.9,83L108.9,83z"/>
<path class="st23" d="M123.5,58.2c-2.2-2.4-4.4-4.8-6.6-7.2c0.8-2.1,1.6-4.1,2.4-6.2c1-0.4,2-0.9,3.1-1.3c1,1.7,2.1,3.4,3.1,5
	c1.1,1.5,2.2,2.9,3.3,4.4c0.7,2.8,1.4,5.7,2.1,8.5C128.5,60.3,126,59.2,123.5,58.2z"/>
<path class="st22" d="M118.6,212.3c0.2-7.2,0.3-14.4,0.5-21.6c2.2-0.9,5.6-1.3,6.2-2.7c4.1-9.2,7.5-18.6,11.2-27.9
	c-1-0.3-1.9-0.7-2.9-1c-1.1,1.7-2,3.4-3.1,5c-3.2,4.5-6.4,9-9.7,13.6c-1.2-9.1-2.3-18.2-3.4-27.3c0.6-0.3,1.1-0.5,1.7-0.8
	c3.1-0.3,6.1-0.7,9.2-0.9c4.9-0.4,7.1-2.5,6-6.6c0.1-1.1,0.2-2.2,0.3-3.3c4.6,0.6,9.2,3.8,13.9,0.3c2.2,2.3,6.3,4.6,6.2,6.8
	c-0.2,4.1-3.1,8-4.4,12.1c-1,3.1-1.3,6.3-2,9.5c-0.6,0.9-1.2,1.8-1.8,2.7c-1.6,2.5-3.3,5-5,7.5c-1.8,1.1-4.4,1.9-5.1,3.3
	c-1.7,4-2.6,8.2-3.8,12.4l-3.5,20.2c-3.4,2-6.9,4-10.3,5.9C118.7,217.2,118.6,214.7,118.6,212.3L118.6,212.3z"/>
<path class="st24" d="M118.8,219.6c3.4-2,6.9-4,10.3-5.9c-1.7,11.6-3.5,23.1-5.2,34.7c-3.2,0-6.4-0.1-9.6-0.1
	c-0.6-0.5-1.2-1-1.8-1.6c1.2-8.1,2.3-16.1,3.5-24.2C116.9,221.5,117.8,220.5,118.8,219.6z"/>
<path class="st22" d="M94.9,131.7c4.2-1.4,8.8-2.3,12.6-4.2c6.5-3.2,12.5-7.1,18.5-10.6c-1.1,4.2-2.4,8.8-3.6,13.4
	c-0.6,1.4-1.2,2.9-1.7,4.3c-3.6,2.6-5.9,9.9-12.3,2c-0.7-0.8-5.5,0.7-8.4,1.1C98.3,135.7,96.6,133.7,94.9,131.7L94.9,131.7z"/>
<path class="st25" d="M99.9,137.6c2.9-0.4,7.8-2,8.4-1.1c6.4,7.9,8.8,0.6,12.3-2c7.5,2.5-2.5,4.9-0.1,7.4c-3.4,1.4-6.8,2.8-10.3,4.2
	c-2.2-0.5-4.5-1.1-6.7-1.6C102.4,142.3,101.2,139.9,99.9,137.6L99.9,137.6z"/>
<path class="st26" d="M146.5,170.3c0.6-0.9,1.2-1.8,1.8-2.7c1.7,0,3.5,0,5.2-0.1c8.9,5.2,8.2,14.3,12.2,21.5
	c-1.4,7.6-10.3,2.6-14.2,5.9c-1-0.1-2-0.2-3-0.2c-0.6-2.3-1.2-4.7-1.8-7l-1.8-2.9l0,0c0.3-1.8-0.3-4.4,0.9-5.3
	C150.2,176.5,148.4,173.5,146.5,170.3L146.5,170.3z"/>
<path class="st23" d="M118.9,27.7c-2.1-12.6,8.4-20.4,22.6-17c2.2,0.5,4.3,1.1,6.5,1.7l0,0c0.6,0.5,1.2,1,1.8,1.5l-0.1-0.1
	c0.6,0.7,1.1,1.3,1.7,2c-0.1,0.4,0,0.7,0.5,0.9c0.4,0.7,0.8,1.4,1.3,2.1c0.1,0.7,0.3,1.4,0.4,2.1c-0.1,2.4-0.2,4.7-0.4,7.1
	c-1.3-1.5-2.4-3.1-3.9-4.4c-2.6-2.3-5.4-4.4-8.2-6.6c-13.4-3.6-15.1-2.8-19.2,8.7C121.6,26.5,119.9,27,118.9,27.7L118.9,27.7z"/>
<path class="st27" d="M141.2,16.9c2.7,2.2,5.6,4.3,8.2,6.6c1.5,1.3,2.6,2.9,3.9,4.4c0.6,0,1.1,0.1,1.6,0.2c-0.7,2.3-1.4,4.6-2,6.9
	c-1.6,1.5-3.2,3-4.8,4.5c-0.9,1.7-1.7,3.4-2.5,5.1c0,0.4-0.3,0.6-0.7,0.7c-0.5-0.1-1.1,0-1.6,0c-0.6-1.5-1.2-3-1.8-4.6
	c0-0.4,0-0.8,0-1.1c2.2-2.3,4.5-4.6,7.4-7.6c-7.9-1.5-14.8-2.5-6.9-9.3C143,21.9,141.5,18.9,141.2,16.9L141.2,16.9z"/>
<path class="st28" d="M151.4,195c3.9-3.3,12.8,1.6,14.2-5.9c1.1,0.6,2.1,1.2,3.1,1.8c1,1.4,2,2.8,3.1,4.3
	c-6.5,6.6-13.4,2.7-20.2,1.1C151.7,195.8,151.6,195.4,151.4,195L151.4,195z"/>
<path class="st29" d="M173.9,156.4c-0.7-1.1-1.4-2.2-2.1-3.3C172.5,154.2,173.2,155.3,173.9,156.4z"/>
<path class="st29" d="M153.2,18.8c-0.4-0.7-0.8-1.4-1.3-2.1C152.4,17.3,152.8,18.1,153.2,18.8z"/>
<path class="st29" d="M151.5,15.8c-0.6-0.7-1.1-1.3-1.7-2C150.4,14.4,150.9,15.1,151.5,15.8z"/>
<path class="st29" d="M149.9,13.8c-0.6-0.5-1.2-1-1.8-1.5C148.7,12.8,149.2,13.3,149.9,13.8z"/>
<path class="st30" d="M114.3,248.2c3.2,0,6.4,0.1,9.6,0.1c0.1,0.9,0.2,1.8,0.3,2.7c-0.3,1.9-1.1,3.9-0.8,5.8
	c0.3,1.9,1.6,3.8,2.4,5.7c-2.2,0.4-4.4,0.9-6.5,1.3c-3.7-3.5-12-5.3-6.4-12.2C113.7,250.6,113.9,249.3,114.3,248.2L114.3,248.2z"/>
<path class="st30" d="M136.7,257l0.8,0.1c2.7,3.4,11.8,1.2,10.2,8.3c-3.9,0.5-7.7,0.9-11.6,1.4c0-2.7,0.1-5.5,0.1-8.2
	C136.4,258,136.6,257.5,136.7,257L136.7,257z"/>
<path class="st31" d="M136.2,258.6c0,2.7-0.1,5.5-0.1,8.2c-3.4-1.4-6.9-2.9-10.3-4.3c-0.8-1.9-2.1-3.7-2.4-5.7
	c-0.3-1.9,0.5-3.9,0.8-5.8c1.1-0.1,2.2-0.2,3.2-0.3c2.5,2,4.9,4,7.3,6.1C135.3,257.4,135.8,258,136.2,258.6L136.2,258.6z"/>
<path class="st32" d="M127.5,250.7c-1.1,0.1-2.2,0.2-3.2,0.3c-0.1-0.9-0.2-1.8-0.3-2.7c1.7-11.6,3.5-23.1,5.2-34.7
	c1.2-6.7,2.4-13.5,3.5-20.2c3.4,2.6,6.9,5.1,11,8.3c1.3-1.9,3-4.4,4.8-7c1,0.1,2,0.2,3,0.2c0.2,0.4,0.3,0.9,0.3,1.3
	c-4.1,8.7-8.1,17.4-12.2,26c-0.6,1.4-1.2,2.9-1.8,4.3c-2.3,6.2-4.5,12.4-7,18.6C130.1,247.2,128.6,248.9,127.5,250.7L127.5,250.7z"
	/>
<path class="st28" d="M141.2,16.9c0.3,2,1.8,5,0.7,6c-7.8,6.9-1,7.8,6.9,9.3c-2.9,3-5.2,5.3-7.4,7.6c-1.8-0.2-3.7-0.4-5.5-0.7
	l-0.1,1.8h5.6c0.6,1.5,1.2,3,1.8,4.6c-0.1,0.4-0.3,0.8-0.4,1.2c-5.8,0.6-11.6,1.2-17.3,1.8c-1-1.7-2.1-3.4-3.1-5
	c-1.1-1.8-2.2-3.6-3.3-5.4c-0.1-3.5-0.2-6.9-0.2-10.4c1.1-0.7,2.8-1.2,3.1-2.1C126.1,14.1,127.8,13.3,141.2,16.9L141.2,16.9z"/>
<path class="st22" d="M151.7,98.6c-9.7,1.9-19.5,3.8-29.2,5.7c-1.9-0.3-3.8-0.7-5.7-1.1l-0.1-0.1c5-1.5,10.1-3,15.1-4.5
	c0.8-0.6,1.7-1.3,2.5-1.9c-2.2-0.9-4.5-1.8-6.7-2.6c-0.8-4.8-0.2-9,6.9-10.1c0.5,0,0.9,0.1,1.4,0.3c1.2,8,4.7,9.6,11,6
	C148.5,93.1,150.1,95.8,151.7,98.6L151.7,98.6z"/>
<path class="st33" d="M151.7,98.6c-1.6-2.8-3.2-5.6-4.7-8.2c-6.4,3.5-9.8,1.9-11-6c0.2-0.2,0.5-0.4,0.7-0.6c5.5,2.4,9,1,10.7-3.9
	c2.1,2.3,4.1,4.7,6.1,7c-0.1,3.9-0.1,7.7-0.2,11.6C152.8,98.6,152.3,98.6,151.7,98.6L151.7,98.6z"/>
<path class="st24" d="M120.7,141.9c-2.4-2.5,7.5-4.9,0.1-7.4c0.6-1.4,1.2-2.9,1.7-4.3c4.9-5.8,9.8-11.6,14.8-17.4
	c0.6,0.3,1.1,0.6,1.7,0.9c-2.7,6.1-5.3,12.1-8,18.2c-1.2,2.7-2.4,5.5-3.6,8.2C125.1,140.7,122.9,141.3,120.7,141.9L120.7,141.9z"/>
<path class="st23" d="M96.2,106.1c0.1-1.1,0.2-2.2,0.3-3.2c1.1-1,2.2-1.9,3.3-2.9c5.6,1.1,11.2,2.2,16.8,3.2l0.1,0.1
	c0.1,0.8,0.2,1.6,0.3,2.4C110.1,105.8,103.2,105.9,96.2,106.1L96.2,106.1z"/>
<path class="st25" d="M153.4,98.5c0.1-3.9,0.1-7.7,0.2-11.6c2.8,0.6,2.8,6.7,7.9,2.8l0.7,0.2c2.8,4.3,5.7,8.6,8.5,12.9
	c-2.5-1.2-4.8-2.6-7.4-3.4c-2.1-0.7-4.5-0.5-6.8-0.8C155.4,98.6,154.4,98.6,153.4,98.5L153.4,98.5z"/>
<path class="st23" d="M167.4,131c2.2,2.7,4.7,5.2,6.6,8c1,1.4,0.9,3.3,1.3,4.9c-2.2-0.4-4.3-0.8-6.5-1.2
	C168.4,138.8,167.9,134.9,167.4,131L167.4,131z"/>
<path class="st34" d="M156.4,98.7c2.3,0.2,4.7,0.1,6.8,0.8c2.6,0.8,5,2.3,7.4,3.4c1.1,0.5,2.3,1,3.4,1.5c0.6,0.4,1.2,0.9,1.7,1.3
	c-4.1,0.1-8.3,0.2-12.4,0.3C161,103.6,158.7,101.1,156.4,98.7L156.4,98.7z"/>
<path class="st22" d="M163.2,107.2c0.2,1.9,0.3,3.9,0.5,5.8C159,111.3,159,109.4,163.2,107.2z"/>
<path class="st24" d="M131,138.8c0.5-1,1-1.9,1.4-2.9c0.7,1,1.4,1.9,2.1,2.9c-0.1,1.1-0.2,2.2-0.3,3.3
	C133.2,141,132.1,139.9,131,138.8L131,138.8z"/>
<path class="st33" d="M117.1,105.6c-0.1-0.8-0.2-1.6-0.3-2.4c1.9,0.3,3.8,0.7,5.7,1.1C120.7,104.8,118.9,105.2,117.1,105.6z"/>
<path class="st22" d="M163.6,118.7c0,1.4,0,2.8,0,4.3C163.5,121.6,163.5,120.2,163.6,118.7z"/>
<path class="st33" d="M116.7,103.2c-5.6-1.1-11.2-2.2-16.8-3.2c3.2-4.5,12.9-5.4,10.7-13.1c3.5-2.9,7.1-5.8,10.6-8.6
	c0.4,0.1,0.8,0.2,1.2,0.2c0.5,0.1,1,0.2,1.5,0.2c-0.8,6.1-1.7,12.2-2.5,18.3c2-0.9,4.1-1.9,6.2-2.8c2.2,0.9,4.5,1.8,6.7,2.6
	c-0.8,0.6-1.7,1.3-2.5,1.9C126.8,100.2,121.8,101.7,116.7,103.2L116.7,103.2z"/>
<path class="st35" d="M121.2,78.3c-3.5,2.9-7.1,5.8-10.6,8.7c-0.6-1.3-1.2-2.6-1.7-3.9c3.2-6.7,6.3-13.5,9.8-20.1
	c1-1.8,3.2-3.2,4.9-4.7c2.5,1.1,4.9,2.1,7.4,3.2c-0.5,2.4-0.9,4.8-1.4,7.2l-0.3-0.1c-2.3,2.8-4.6,5.7-6.8,8.5
	C122,77.4,121.6,77.8,121.2,78.3z"/>
<path class="st28" d="M129.6,68.6c0.5-2.4,0.9-4.8,1.4-7.2c-0.7-2.8-1.4-5.7-2.1-8.5c6.4-3,9.5,1.3,13.1,4.3c0,1.7,0,3.5,0,5.2
	c-2.5,1.5-4.9,3.1-7.4,4.6C132.8,67.6,131.2,68.1,129.6,68.6z"/>
<path class="st27" d="M141.9,57.2c-3.6-3-6.6-7.3-13.1-4.3c-1.1-1.5-2.2-2.9-3.4-4.4c5.8-0.6,11.6-1.2,17.3-1.8
	C142.5,50.2,142.2,53.7,141.9,57.2L141.9,57.2z"/>
<path class="st24" d="M120.8,177.7c3.2-4.5,6.5-9,9.7-13.6c1.1-1.6,2.1-3.3,3.1-5c1,0.3,1.9,0.7,2.9,1c-3.7,9.3-7.1,18.7-11.2,27.9
	c-0.6,1.4-4.1,1.8-6.2,2.7C119.6,186.4,120.2,182,120.8,177.7z"/>
<path class="st25" d="M148.4,194.7c-1.7,2.6-3.5,5.1-4.8,7c-4.2-3.1-7.6-5.7-11-8.3c1.2-4.1,2.1-8.4,3.8-12.4
	c0.6-1.4,3.3-2.2,5.1-3.3c1.1,2.4,2.2,4.8,3.3,7.2l0,0c0.6,0.9,1.2,1.9,1.8,2.9C147.2,190.1,147.8,192.4,148.4,194.7L148.4,194.7z"
	/>
<path class="st34" d="M119,149.6c2.8-3.1,5.7-6.2,8.6-9.4c1.1-0.5,2.3-1,3.5-1.5c1.1,1.1,2.1,2.2,3.2,3.3c1.1,4.2-1.1,6.2-6,6.6
	C125.2,148.9,122.1,149.3,119,149.6L119,149.6z"/>
<path class="st35" d="M144.8,184.9c-1.1-2.4-2.2-4.8-3.3-7.2c1.7-2.5,3.3-5,5-7.5c1.9,3.2,3.8,6.2-0.7,9.4
	C144.6,180.5,145.1,183.1,144.8,184.9L144.8,184.9z"/>
<path class="st36" d="M136.2,258.6c-0.5-0.6-0.9-1.2-1.4-1.8c0.6,0.1,1.3,0.1,1.9,0.2C136.6,257.5,136.4,258.1,136.2,258.6z"/>
<path class="st22" d="M148.6,52.7c9.2,3.2,20.3,3.6,26.3,11.8c1.6,2.2,2.9,4.5,4.3,6.8c-2.8,1.7-5.6,3.4-9.3,5.7
	c-2-2.1-4.1-4.3-6.3-6.5c-0.7,0.3-1.4,0.7-2,1c1.6,2.2,2.7,4.7,4.8,6.5c2.7,2.4,6.3,4,9.1,6.3c4,3.1,4.7,7.6,2,10.1
	c-0.6-0.5-1.1-1-1.7-1.4c-2.3-8.4-9.1-1.9-13.7-2.9l-0.7-0.2c-1.8-5.1-3.2-10.3-5.6-15.1c-1.9-3.7-5-6.9-7.6-10.4
	C148.4,60.4,148.5,56.6,148.6,52.7L148.6,52.7z M171.7,66.5c-0.5-0.2-1.1-0.6-1.4-0.5c-0.4,0.1-0.4,0.7-0.7,1.1
	c0.5,0.2,1.1,0.6,1.4,0.5C171.4,67.5,171.5,66.9,171.7,66.5z"/>
<path class="st24" d="M177.5,94.3c2.7-2.4,2-6.9-2-10.1c-2.9-2.3-6.4-3.9-9.1-6.3c-2.1-1.8-3.2-4.3-4.8-6.5c0.7-0.3,1.4-0.7,2-1
	c2.1,2.2,4.3,4.4,6.3,6.5c3.7-2.2,6.5-3.9,9.3-5.7c1.6,9.1,3.2,18.2,4.8,27.3C181.9,97.1,179.7,95.7,177.5,94.3L177.5,94.3z"/>
<path class="st23" d="M148.6,52.7c-0.1,3.8-0.2,7.7-0.4,11.6c-2.1-0.6-4.2-1.2-6.3-1.8c0-1.7,0-3.5,0-5.2c0.3-3.5,0.6-7,0.9-10.6
	c0.1-0.4,0.3-0.8,0.4-1.2c0.5-0.1,1.1-0.1,1.6,0C146,47.8,147.3,50.3,148.6,52.7z"/>
<path class="st25" d="M177.5,94.3c2.2,1.4,4.4,2.8,6.5,4.2c-2.8,2.4-5.5,4.8-8.2,7.2c-0.6-0.4-1.2-0.9-1.7-1.3
	c2.1-3.7-5.5-8.4,1.7-11.6C176.4,93.3,176.9,93.8,177.5,94.3z"/>
<path class="st37" d="M145.5,44.7c0.9-1.7,1.7-3.4,2.5-5.1C147.2,41.3,146.3,43,145.5,44.7z"/>
<path class="st35" d="M146.6,187.8c-0.6-0.9-1.2-1.9-1.8-2.9C145.4,185.8,146,186.8,146.6,187.8z"/>
<path class="st31" d="M141.4,40.9h-5.6l0.1-1.8c1.8,0.2,3.7,0.4,5.5,0.7C141.4,40.2,141.4,40.5,141.4,40.9L141.4,40.9z"/>
<path class="st38" d="M127.7,94.2c-2.1,1-4.3,1.9-6.2,2.8c0.8-6.2,1.7-12.2,2.5-18.3c3.6,0.8,7.2,1.7,10.7,2.5l0.1-0.1
	c-0.1,1-0.1,2-0.2,3C127.5,85.1,126.8,89.3,127.7,94.2L127.7,94.2z"/>
<path class="st33" d="M134.6,84.1c0.1-1,0.1-2,0.2-3c0.6,0.9,1.2,1.8,1.9,2.7c-0.2,0.2-0.5,0.4-0.7,0.6
	C135.5,84.2,135.1,84.1,134.6,84.1L134.6,84.1z"/>
<path class="st31" d="M141.9,62.4c2.1,0.6,4.2,1.2,6.3,1.8c2.6,3.4,5.8,6.7,7.6,10.4c2.4,4.8,3.8,10.1,5.6,15.1
	c-5.1,3.9-5.1-2.2-7.9-2.8c-2.1-2.3-4.1-4.7-6.1-7c-4.3-4.3-8.6-8.6-12.9-12.8C136.9,65.5,139.4,64,141.9,62.4L141.9,62.4z"/>
<path class="st23" d="M134.5,67.1c4.3,4.3,8.6,8.6,12.9,12.8c-1.8,4.8-5.2,6.3-10.7,3.9c-0.6-0.9-1.2-1.8-1.9-2.7l-0.1,0.1
	c-0.3-0.9-0.5-1.9-0.8-2.8c-0.3-0.7-0.6-1.4-0.9-2.1c-1.2-2.6-2.5-5.2-3.7-7.8l0.3,0.1C131.2,68.1,132.9,67.6,134.5,67.1L134.5,67.1
	z"/>
<path class="st24" d="M175.8,92.8c-7.2,3.2,0.4,7.9-1.7,11.6c-1.1-0.5-2.3-1-3.4-1.5c-2.8-4.3-5.7-8.6-8.5-12.9
	C166.7,90.9,173.5,84.4,175.8,92.8L175.8,92.8z"/>
<path class="st22" d="M133.9,78.4c0.3,0.9,0.5,1.9,0.8,2.8c-3.6-0.8-7.2-1.7-10.7-2.5c-0.5-0.1-1-0.2-1.5-0.2c0-0.5,0-0.9,0-1.4
	c2.3-2.8,4.6-5.7,6.8-8.5c1.2,2.6,2.5,5.2,3.7,7.8C133.3,77,133.6,77.7,133.9,78.4L133.9,78.4z"/>
<path class="st38" d="M122.4,77c0,0.5,0,0.9,0,1.4c-0.4,0-0.8-0.1-1.2-0.2C121.6,77.8,122,77.4,122.4,77z"/>
<path class="st24" d="M171.7,66.5c-0.2,0.4-0.3,1-0.7,1.1c-0.3,0.1-0.9-0.3-1.4-0.5c0.2-0.4,0.3-1,0.7-1.1
	C170.6,66,171.2,66.3,171.7,66.5z"/>
<path class="st38" d="M133.9,78.4c-0.3-0.7-0.6-1.4-0.9-2.1C133.3,77,133.6,77.7,133.9,78.4z"/>
</svg>
