<?xml version="1.0" encoding="UTF-8"?>
<svg id="Capa_1" data-name="Capa 1" xmlns="http://www.w3.org/2000/svg" viewBox="0 0 952.18 292.98">
  <defs>
    <style>
      .cls-1 {
        letter-spacing: 0em;
      }

      .cls-2 {
        letter-spacing: 0em;
      }

      .cls-3 {
        letter-spacing: 0em;
      }

      .cls-4 {
        letter-spacing: 0em;
      }

      .cls-5 {
        letter-spacing: 0em;
      }

      .cls-6 {
        letter-spacing: 0em;
      }

      .cls-7 {
        letter-spacing: 0em;
      }

      .cls-8 {
        fill: #fff;
      }

      .cls-9 {
        fill: #181b35;
      }

      .cls-10 {
        letter-spacing: 0em;
      }

      .cls-11 {
        letter-spacing: 0em;
      }

      .cls-12 {
        font-size: 15.06px;
      }

      .cls-12, .cls-13, .cls-14 {
        fill: #010101;
        font-family: MyriadPro-Regular, 'Myriad Pro';
      }

      .cls-15 {
        letter-spacing: 0em;
      }

      .cls-13 {
        font-size: 15.15px;
      }

      .cls-16 {
        letter-spacing: 0em;
      }

      .cls-17 {
        letter-spacing: 0em;
      }

      .cls-18 {
        letter-spacing: 0em;
      }

      .cls-14 {
        font-size: 15.02px;
      }

      .cls-19 {
        fill: none;
        stroke: #000;
        stroke-miterlimit: 10;
      }

      .cls-20 {
        letter-spacing: -.04em;
      }
    </style>
  </defs>
  <path class="cls-9" d="M178.05,95.79c-5.21,7.86-11.13,15.38-15.87,23.44-3.57,6.07-6.07,12.67-8.49,19.2-3.29,8.88-5.93,17.93-9.07,26.85-2.91,8.26-6.05,16.47-9.26,24.64-.4,1.02-1.69,2.01-2.85,2.51-7.32,3.18-14.7,6.24-22.1,9.27-1.02,.42-2.55,.89-3.35,.52-3.56-1.65-5.52,.58-7.66,2.17-.9,.67-2.05,2.13-1.75,2.72,.57,1.14,2.02,2.59,3.25,2.71,4.62,.43,9.32,.65,13.95,.42,4.23-.21,8.45-1.72,12.62-1.54,6.85,.28,13.65,1.51,20.48,2.25,4.63,.51,6.51-1.11,6.32-5.22-.08-1.66,.07-3.35-.17-4.99-.39-2.63,.8-3.52,3.74-3.12,3.77,.51,7.57,.85,11.34,1.35,6.45,.85,8.43,.03,10.49-5.38,4.87-12.83,9.14-25.84,14.4-38.55,3.92-9.47,8.71-18.69,13.7-27.78,1.82-3.32,4.36-7.15,10.14-6.25,4.17,.65,4.86-1.09,4.69-4.35-.23-4.55-1.72-9.55,3.44-13.1,.61-.55,1.23-1.09,1.84-1.64,.86,.85,2.18,1.59,2.5,2.58,1.93,6.02,3.58,12.1,5.43,18.14,1.78,5.83,2.6,11.62,.14,17.48-1.6,3.8-2.23,7.58-.36,11.58,1.03,2.2,1.03,4.75,1.61,7.12,1.75,7.1,3.68,14.18,5.3,21.3,.87,3.84,2.06,7.83,1.68,11.64-.67,6.72-2.27,13.38-3.81,20-.6,2.6,.44,4.07,2.99,4.66,4.39,1.01,7.11,3.59,9.87,6.51,4.74,5.03,11.54,6.02,17.35,2.58,2.28-1.35,5.74-3.94,5.38-5.29-.67-2.46-3.77-4.43-5.92-6.56-.36-.36-1.22-.36-1.52-.73-1.22-1.53-3.3-3.16-3.26-4.71,.1-3.63,1-7.3,2.02-10.85,1.64-5.69,4.35-11.21,5.31-16.97,1.51-9.05,1.91-18.23,2.88-27.35,.14-1.37,.4-2.95,1.29-3.99,3.65-4.28,2.88-8.91,2.02-13.63-.25-1.36-.46-2.78-.33-4.15,1.22-12.57,2.5-25.14,3.82-37.71,.07-.7,.71-1.34,1.02-2.03,.88-1.93,2.35-3.83,2.5-5.81,1.03-14.25-2.82-27.86-7.22-41.27-6.21-.76-11.77-.61-15.78,3.4-2.23-1.43-4-2.57-5.77-3.71-.36,.36-.71,.72-1.07,1.07,.92,.54,1.96,.99,2.69,1.68,.27,.25-.03,1.19-.38,1.62-.19,.24-1.47,.21-1.52,.08-1.05-2.63-2.59-1.21-4.32-.64-1.06,.35-2.47-.11-3.72-.2-.06-.32-.12-.64-.18-.96,1.17-.76,2.34-1.51,3.67-2.37h-35.63c0,2.36,.11,4.51-.02,6.64-.37,6.12-.69,12.24-1.33,18.33-.21,1.98-1.35,3.88-2.06,5.81-5.4-4.87-2.24-11.55-7.44-15.79,.69,5.68,2.13,11.2,3.31,16.77,.41,1.93,.53,4.01,.09,5.91-.16,.68-2.51,1.56-3.61,1.35-1.83-.35-4.88-1.46-4.93-2.35-.48-8.54-1.53-17.21,2.55-25.38,2.15-4.3,4.89-8.24,11.24-8.18,.56-2.42-.2-3.38-3.09-3.38-6.23-.02-9.71,2.19-11.42,8.41-1.61,5.84-2.57,11.81-4.1,17.67-.65,2.5-1.99,4.86-3.02,7.28-.46-.19-.92-.38-1.38-.57,.61-1.22,1.22-2.45,1.82-3.67-.5-.2-1-.41-1.5-.61-1.92,3.44-3.84,6.89-5.76,10.33,.03-.02,.06-.05,.09-.07-.9,1.06-1.97,2.04-2.64,3.19-1.85,3.19-3.27,6.58-5.32,9.66Z"/>
  <path class="cls-9" d="M67.18,75.59c.06-.03,.12-.06,.18-.1,0,0-.02-.02-.03-.02l-.15,.12Z"/>
  <path class="cls-9" d="M23.68,108.05c-4.04,3.45-3.75,7.48-2.95,11.57,.6,3.05,1.77,6.11,1.73,9.16-.16,10.9-.86,21.79-1.12,32.68-.2,8.46-.04,16.92-.04,25.38,1.22-11.95,1.46-23.92,1.03-35.94-.43-12.06,4.32-24.14-.85-35.2,.37,.24,1.17,.77,2.2,1.46v-9.11Z"/>
  <path class="cls-9" d="M21.19,83.25c-.59-.51-2.12-1.21-2.18-1.98-.27-3.38-.12-6.78-.12-10.28,.8,.47,1.9,1.11,2.49,1.46v-11.79c-5.8,8.39-5.62,35.71,1.78,44.67-3.79-8.15-5.28-15.24-1.98-22.07Z"/>
  <path class="cls-9" d="M49.03,173.52c6.61-10.86,1.55-21.57,1.25-32.16,0,5.26,.16,10.52-.04,15.78-.2,5.31-.77,10.62-1.2,16.38Z"/>
  <path class="cls-9" d="M27.49,147.03c-.97,9.17-1.94,18.35-2.91,27.52,.27,.01,.53,.03,.8,.04,1.05-9.17,2.11-18.34,3.16-27.51-.35-.02-.71-.03-1.06-.05Z"/>
  <path class="cls-9" d="M30.28,222.28c-2.09,1.83-3.38,2.95-5.1,4.46,1.25,.41,2.53,.82,3.88,1.26,.42-1.95,.72-3.37,1.22-5.72Z"/>
  <path class="cls-9" d="M26.59,224.5s-.03-.01-.05-.02v.06s.03-.03,.05-.04Z"/>
  <path class="cls-9" d="M67.19,75.59s.15-.12,.15-.12c-.74-.12-1.47-.24-2.21-.36,.69,.16,1.37,.32,2.06,.48Z"/>
  <path class="cls-9" d="M43.59,71.59c7.18,1.17,14.36,2.35,21.54,3.52-6.96-1.61-13.93-3.22-20.89-4.83-.22,.44-.43,.87-.65,1.31Z"/>
  <path class="cls-9" d="M115,27.87c-2.21,4.14-4.63,8.68-7.05,13.22,5.55-3.99,8.46-8.46,7.05-13.22Z"/>
  <path class="cls-9" d="M107.95,41.1c-.07,.05-.13,.1-.2,.15h0c-.22,.2-.38,.39-.58,.58,.22-.18,.45-.36,.67-.53,.04-.07,.07-.13,.11-.2Z"/>
  <path class="cls-9" d="M124.02,129c-.05-.13-.1-.26-.15-.4,0-1.66,.24-3.35-.29-4.93-3.14-9.25-6.4-18.49-9.84-27.7-3.67-9.83-6.96-19.6-5.41-29.9,.56-3.75,.03-8.59-3.2-11.34-5.43-4.64-4.93-8.33-.79-12.48-2.41,1.96-4.84,3.94-7.57,6.17-3.58-.86-7.4-1.77-10.88-2.6,.02,.12,.17,.87,.33,1.74h-20.08c.29-1.15,.61-2.37,.83-3.24-2.38,.39-4.54,.75-6.82,1.12,1.21,.56,2.43,1.14,4.74,2.21h-17.52c.17-1.59,.29-2.79,.42-4-.3-.04-.59-.07-.89-.11-.62,1.39-1.24,2.77-1.93,4.3-4.39,0-8.7,.08-12.99-.02-4.17-.1-6.72,.65-6.89,3.78-.14,2.47-1.05,4.93-1.62,7.39,1.83-4.13,6.84-3.41,11.54-3.24,5.89,.22,11.78,.35,17.67,.56,2.67,.09,5.34,.28,8.63,.46-1.03,1.14-1.62,1.79-2.2,2.43,4.12-2.15,7.92-4.27,13.24-2.93-.37,2.84-.65,5.46-1.07,8.07-.49,3.06-.82,6.15-1.81,9.15-.3,.92-2.34,1.59-3.69,2.36,1.04,1.02,2.85,2.01,2.96,3.06,.65,6.73,1.01,13.47,1.27,20.21,.09,2.27,.57,4.83-.78,6.77-7.76,11.07-9.43,22.74-9.27,34.64-.05,.28-.1,.56-.16,.84,0,.02,0,.03-.01,.05-5.38-.9-.15-4.32-4.23-6.3,1.55,9.58,3.56,18.57,4.29,27.61,.73,9.01,.16,18.07,.16,27.35-13.05-2.5-25.82-1.85-38.77,.27,2.03,1.67,5.4,3.23,5.12,4.44-1.13,4.91-2.86,9.72-.78,14.71,.26,.62-.55,1.47-1.03,2.16-2.19,3.15-4.53,6.26-6.63,9.43-1.68,2.55-1.6,4.61,3.99,4.52,1.28,.37,2.57,.74,3.88,1.12v-3.99c-1.5,.6-2.74,1.11-3.99,1.61,.25-1.01,.51-2.02,.91-3.63-1.46,1.08-2.23,1.65-3,2.22,.96-2.96,3.14-5.52,4.57-8.25,1.3-2.48,2.38-5.11,2.55-7.71,.38-5.61,.12-11.24,.12-16.93,6.72-.31,11.91-.55,17.91-.83,.68,8.69,1.29,16.68,1.93,24.67,.2,2.44,.93,4.9,.59,7.3-.29,2.08-1.15,4.37-2.93,6.03-1.07,1-4.39,1.03-6.75,1.3-.31,.04-.94-1.13-1.42-1.74,2.03-.23,4.07-.45,6.1-.72,.24-.03,.39-.35,1.02-.98-2.45-.62-4.73-1.19-7.12-1.8-1.04,1.5-1.93,2.78-3.55,5.1,3.95,.34,8.13,1.57,10.46,.69,2.85-1.07,5.86-3.9,5.84-5.96-.1-9.16-1.33-18.32-1.9-27.48-.06-1.03,1.29-2.91,2.38-3.04,6.13-.75,12.37-1.45,18.58-1.48,9.85-.04,19.69,.56,29.55,.71,3.56,.05,7.92-.25,8.03-3.27,.11-2.93-4.06-1.38-6.4-1.72,5.06-9.54,10.01-19.11,15.21-28.63,4.59-8.4,10.84-16.49,10.66-25.71-.02-1.05-.66-2.09-1.11-3.13,0-.13,.02-.25,.01-.38Zm-55.88,50.27s.09,.06,.09,.06c0,0,0,0,0,0,0,0-.05-.03-.09-.06-.05-.03-.09-.06-.09-.06,0,0,0,0,0,0,0,0,.05,.03,.09,.06Zm27.78-90.47s-.03,0-.04,0c2.66-.36,5.39-.74,8.64-1.18-3.23,.44-5.95,.82-8.59,1.18Z"/>
  <rect class="cls-19" x="2.63" y="1.72" width="302.72" height="241.93"/>
  <text class="cls-13" transform="translate(94.84 235.38) scale(1.29 1)"><tspan class="cls-20" x="0" y="0">T</tspan><tspan x="6.85" y="0">uit </tspan><tspan class="cls-4" x="26.97" y="0">k</tspan><tspan x="34.13" y="0">ubi so</tspan><tspan class="cls-18" x="72.17" y="0">g</tspan><tspan x="80.55" y="0">i</tspan></text>
  <text class="cls-13" transform="translate(0 271.89) scale(1.29 1)"><tspan class="cls-4" x="0" y="0">D</tspan><tspan x="10.15" y="0">esc</tspan><tspan class="cls-4" x="30.53" y="0">r</tspan><tspan x="35.54" y="0">ipción de la pose de las pie</tspan><tspan class="cls-15" x="204.34" y="0">r</tspan><tspan x="209.35" y="0">nas</tspan></text>
  <path class="cls-8" d="M624.95,0V241.41H328.33V0h296.62ZM329.2,240.53h294.48V.74H329.2V240.53Z"/>
  <path class="cls-9" d="M322.84,243.43V3.64h294.48V243.43H322.84ZM616.44,4.51H323.91V202.43c2.67-1.64,4.51-2.95,6.59-4,1.49-.75,3.32-1.64,4.95-1.59,8.67,.28,13.42-2.36,15.23-9.13h-9.59c-1.61-2.68-3.9-4.91-4.17-7.27-.58-5.03-.39-10.15-.03-15.21,1.16-16.78,2.75-33.54,3.73-50.32,.49-8.35,3.98-15.3,12.62-20.78,5.01-3.17,9.69-6.65,14.34-10.12,3.66-2.73,5.64-6.09,2.97-9.78-2.93-4.05-1.99-7.81,.63-11.45,3.46-4.81,7.21-9.5,11.05-14.14,3.44-4.17,3.26-13.23-.45-17.46-3.46-3.95-3.26-8.27-2.33-12.62q3.81,13.01,12.73,14.24c-.56-3.81-1.13-7.62-1.69-11.44,2.7,2.47,3.77,5.35,6.08,7.44,2.34,2.12,5.49,4.35,10.22,3.3-1.24-3.08-2.32-5.76-3.4-8.44,.46-.13,.93-.27,1.39-.4,.53,.77,1.19,1.51,1.57,2.33,1.73,3.66,6.72,6.75,11.89,6.56,13.3-.5,24.5-4.43,33.1-12.23,1.11-1.01,2.22-2.01,3.33-3.02,.2,.14,.4,.28,.6,.42-1.47,2.42-2.94,4.84-4.56,7.5,9.83-.09,12.08-1.7,14.3-10,.75,2.04,1.31,3.58,1.88,5.13,.71,.05,1.41,.11,2.12,.16,1-4.17,2.01-8.34,3.01-12.52,.87,1.93,1.11,3.66,.82,5.33-.53,3.09-.12,6.92-2.4,9.03-3.05,2.82-1.53,5.44-2.15,8.14-.85,3.67,2.18,5.01,5.59,6.68,2.26,1.11,3.91,3.04,5.46,4.79,2.55,2.89,4.82,5.91,7.18,8.9,3.35,4.24,6.66,8.49,9.61,12.24-3.36,3.2-6.37,6.06-9.97,9.49-2.63-2.67-5.02-5.08-7.39-7.5-2.47-2.52-7.13-2.85-9.57-.53-2.98,2.84-6.05,5.67-8.52,8.76-3.93,4.91-8.6,8.19-17,7.23-3.82-.44-7.82-.17-11.72,.01-3.88,.18-7.74,.67-11.61,1.02-.12,.47-.24,.93-.37,1.4,4.02,2.5,8.14,4.92,12.05,7.51,3.67,2.44,7.33,4.92,10.65,7.62,7.69,6.26,14.71,13.03,22.89,18.89,6.45,4.62,14.15,8.27,21.42,12.22,9.87,5.37,19.83,10.66,29.8,15.92,3.32,1.75,6.81,3.33,10.22,4.99l-.63,.78c-8.09-3.14-16.18-6.28-23.62-9.17-4.41-1.01-8.36-1.92-13.81-3.18,5.79,6.32,9.9,12.37,15.96,16.96,5.78,4.38,13.6,7.25,19.85,10.44-3.08-.21-7.12-.49-12.35-.86,9.83,11.19,18.88,21.54,27.99,31.86,3.31,3.76,8.12,7.15,9.72,11.27,1.46,3.76,4.06,4.24,7.77,4.34,3.83,.1,7.68-.22,11.53-.36,2.97-2.18,6.42-3.97,10.22-5.13,3.93-1.21,8.31-1.56,12.24-2.76,3.26-1,6.15-2.68,8.91-3.92-5.08-7.74-9.62-14.68-14.19-21.59-5.92-8.96-11.79-17.94-17.88-26.83-1.26-1.84-3.17-4.56-5.19-4.79-10.07-1.14-18.43-5.05-27.15-8.42-5.91-2.29-11.75-4.69-17.62-7.03,.23-.35,.46-.7,.69-1.06,11.62,4.72,23.15,9.62,36.86,10.01-3.07-3.86-6.11-7.52-10.09-10.47-3.94-2.92-8.58-5.42-13.34-7.57-10.62-4.79-21.54-9.18-32.27-13.84-7.91-3.44-15.72-7.01-23.54-10.56-2.03-.92-3.94-1.98-5.91-2.98,.23-.3,.45-.59,.68-.89,1.66,.57,3.37,1.07,4.98,1.72,3.07,1.23,5.97,2.74,9.15,3.79,5.98,1.97,12.39,3.31,18.09,5.63,4.79,1.95,8.98,2.06,14.03,.38-8.81-12.57-17.46-24.93-26.12-37.29,.45-.2,.9-.41,1.34-.61,1.07,1.11,2.32,2.15,3.18,3.35,6.79,9.39,13.7,18.73,20.17,28.24,3.52,5.18,6.22,10.68,9.37,16.01,.46,.78,1.18,1.62,2.1,2.08,4.24,2.11,9.25,3.6,12.79,6.21,20.44,15.08,35.12,33.1,47.08,52.56,7.54,12.27,15.94,24.25,24.26,36.25,3.12,4.5,3.29,10.81-1.16,12.28-8.06,2.65-16.35,5.02-24.81,6.81-7.91,1.68-16.12,2.97-24.34,.44-.82-.25-2.06,.4-3.09,.38-4.61-.08-9.75,.78-12.64-3.9,8.66-4.6,17.26-9.16,25.86-13.73-.31-.21-.61-.42-.92-.62h-26.21c5.14-3.59,4.92-5.23,.03-10.18-6.64-6.72-13.06-13.59-19.11-20.61-6.99-8.12-13.22-16.61-20.27-24.7-6.11-7-12.91-13.66-19.39-20.48-8.17-8.58-16.84-16.74-27.65-23.67-5.96-3.82-10.38-8.99-16.41-14.37-11.05,4.19-21.92,8.31-32.78,12.45-6.16,2.35-12.82,4.34-15.4,9.78-1.17,2.47-1.73,5.11-2.57,7.68-1.66,5.09-4.62,10.17-4.68,15.27-.09,7.59,2.02,15.18,2.9,22.79,.72,6.29,1.04,12.61,1.48,18.92,.19,2.69-.46,5.55,.54,8.05,2.41,6.04-1.03,9.21-9.27,8.7-7.63-.47-15.38-2.81-23-.04-11.39,4.15-23.21,4.47-35.19,2.54v36.61h292.35V4.51Zm-226.13,67.05c-.53-.18-1.07-.36-1.6-.54-4.77,2.71-10,5.07-14.19,8.21-5.47,4.1-9.54,9.31-15.24,13.18-9.97,6.75-17.01,14.04-16.37,24.81,.37,6.21-1.43,12.48-1.73,18.74-.7,14.83-1.18,29.66-1.53,44.49-.08,3.38,2.55,5.37,7.3,5.47,1.23,.03,2.61-.06,3.67,.31,10.77,3.78,22.1,1.58,33.18,1.72,1.91,.03,5.45-1.33,5.53-2.19,.55-6.03,1.69-12.13-3.76-17.65-3.83-3.88-5.1-8.46-1.79-13.15,2.33-3.3-.34-9.05-3.57-11.67-4.49-3.62-7.89-8-11.76-12.06,.46-.25,.93-.49,1.39-.74,2.01,1.31,5.18,2.38,5.78,3.99,1.33,3.58,4.57,3.29,7.61,2.71,3.33-.63,5.01-2.6,5.58-5.38,.92-4.51,2.52-8.94,3.84-13.42-1.44,.16-3.35,.38-5.27,.59,5.77-3.45,14.49-3.38,18.79-10.1h-22.53c-.01-.28-.03-.56-.04-.85,1.53-.48,3.05-.95,3.61-1.13,1.07-12.19,2.08-23.79,3.1-35.38Zm36.96-21.45c-2.24-1.12-4.39-2.4-6.78-3.36-4.25-1.7-8.63,.26-8.7,3.77-.16,7.75-.2,15.51-.51,23.26-.11,2.8,.88,4.21,4.98,4.25,10.85,.11,21.7,.53,32.55,.56,1.81,0,4.31-.95,5.31-2.06,4.17-4.64,8.47-9.3,11.59-14.35,2.71-4.38,6.34-9.56-2.66-13.22,6.5,1.49,9.94,5.04,12.96,8.95,3.08,3.99,6.24,7.95,9.58,12.19,2.8-2.72,5.17-5.03,7.6-7.4-6.01-7.57-11.67-15.13-17.98-22.37-1.71-1.96-5.41-2.94-8.19-4.36-.56,.54-1.12,1.09-1.68,1.63,1.16,1.15,2.31,2.31,3.57,3.56-1.37-.15-3.65-.05-5.54-.65-5.48-1.75-11.11-2.06-16.14,.09-2.29,.98-3.18,3.77-4.77,5.72-.21,.25-.78,.34-1.66,.69-.37-1.72-.68-3.18-.97-4.56-.68-.1-1.06-.25-1.37-.18-3.76,.77-7.69,1.28-11.1,2.57-.79,.3,.23,3.29,.39,5.05,0,.05-.28,.12-.48,.21Zm139.46,179.38c2.5-.96,4.43-1.7,7.02-2.69-.18,1.51-.28,2.28-.37,3.04,1.25-.15,2.51-.28,3.76-.44,.88-.11,1.76-.36,2.64-.36,3.11,.03,6.39,.67,9.28,.11,5.28-1.02,10.33-2.71,15.45-4.16,3.48-.99,7.08-1.7,7.13-5.48,.06-3.86-1.1-6.79-6.02-7.69-1.64,1.37-3.08,2.57-4.74,3.95,.56-4.85,1.05-9.1,1.5-13.05-6.48,1.76-11.63,3.47-17,4.51-4.34,.84-7.76,1.71-9.44,5.35-.91,1.97-3.48,3.66-5.7,5.12-3.68,2.42-7.68,4.55-11.55,6.81,.65,.22,1.3,.43,1.96,.65-.21,1.18-.43,2.35-.67,3.66,2.23,.38,5.59-5.19,6.74,.68Zm-182.95-39.97c-2.81,0-5.06-.01-7.31,0-4.61,.04-9.35,.61-13.81,0-6.04-.82-10.66-.68-12.65,4.51-.3,.79-1.48,1.57-2.51,2-6.89,2.93-13.85,5.77-21.85,9.08,9.99,.68,19.19,1.29,27.63-1.65,7.57-2.63,15.05-2.7,22.89-1.94,2.47,.24,4.93,.52,7.41,.64,4.55,.22,6.52-1.52,6.21-5.34-.24-2.97-3.32-5.15-6.82-4.85-.23,.02-.51-.25-.76-.38,.34-.45,.68-.91,1.57-2.08Zm27.64-110.1c-.63,.2-1.26,.4-1.89,.6,0,6.1-.23,12.22,.24,18.3,.07,.95,3.86,2.79,5,2.45,3.54-1.05,6.9-2.72,9.81-4.6,1.62-1.04,2.21-2.98,3.27-4.52l-2.14,.23c-1.75-1.29-3.69-2.48-5.2-3.91-1.75-1.67-2.97-3.64-4.69-5.33-1.23-1.21-2.92-2.15-4.4-3.22Zm.85,30.17c1.64-2.55,2.65-4.12,3.67-5.7l-1.43-.8c-1.82,1.08-3.73,2.09-5.33,3.33-.16,.12,1.56,1.62,3.09,3.16Z"/>
  <rect class="cls-19" x="322.93" y="3.09" width="294.48" height="239.8"/>
  <text class="cls-14" transform="translate(412.52 234.82) scale(1.26 1)"><tspan class="cls-2" x="0" y="0">A</tspan><tspan x="9.14" y="0">p </tspan><tspan class="cls-10" x="20.87" y="0">k</tspan><tspan x="27.97" y="0">ubi so</tspan><tspan class="cls-7" x="65.68" y="0">g</tspan><tspan class="cls-17" x="73.98" y="0">i</tspan></text>
  <text class="cls-14" transform="translate(324.09 272.06) scale(1.26 1)"><tspan class="cls-6" x="0" y="0">D</tspan><tspan x="10.06" y="0">esc</tspan><tspan class="cls-10" x="30.26" y="0">r</tspan><tspan x="35.23" y="0">ipción de la pose de las pie</tspan><tspan class="cls-6" x="202.53" y="0">r</tspan><tspan x="207.5" y="0">nas</tspan></text>
  <g>
    <path class="cls-9" d="M747.89,28.7c-4.11,.2-9.67,.47-15.71,.77,.96-2.66,1.69-4.7,2.43-6.74-1.78,1.37-2.2,3.21-3.54,4.52-1.01,.99-4.13,2.16-4.71,1.8-3.62-2.22-6.96-3.49-12.1-2.74-5.05,.73-10.49-.2-15.68,.21-2.88,.23-4.98,.19-6.75-1.56-.07-.07-.51,.08-.82,.14,.53,.79,1.06,1.57,1.8,2.66-7.36,.5-14.38,.97-19.81,1.34-1.17,3.51-1.92,6.15-2.95,8.72-.98,2.46-2.97,4.8-3.26,7.27-.92,7.78-1.33,15.59-1.77,23.39-.32,5.62-.66,11.26-.46,16.88,.26,7.2,1.07,14.38,1.61,21.57,.77,10.26,1.44,20.52,2.31,30.77,.57,6.67,1.36,13.33,2.16,19.99,1.06,8.83,2.26,17.65,3.35,26.48,.38,3.05,2.7,4.28,6.6,4.12,1.32-.05,2.64-.14,4.17-.22,2.83,5.47,4.24,10.68,.75,16.18-2.13,3.36-4.1,6.84-5.35,10.43-.68,1.93-.5,4.5,.7,6.24,2.25,3.27,15.22,5.58,19.71,3.98,5.8-2.06,7.43-5.56,5.83-11.02-.95-3.23-1.51-6.58-1.56-9.88-.09-5.69,.36-11.39,.59-17.5-.14,.01,.98-.07,2.1-.15h0c2.41,4.68,8.96,5.67,13.59,8.37,.65,.38,2.25,.39,2.97,.05,3.45-1.64,8.75-3.04,9.63-5.33,1.23-3.21-4.11-4.72-7.79-6.09-.61-.23-1.26-.39-1.9-.59,0,0,.07,.01,.06,0-3.69-4.15-3.6-4.93,2.28-6.17,4.5-.95,5.79-3.05,6.28-6.14,1.41-9.07,2.76-18.15,4.65-27.16,1.92-9.13,5.02-18.13,6.56-27.28,1.13-6.72-.28-13.69,.98-20.39,1.83-9.74,5.19-19.32,7.62-29.01,1.97-7.87,3.16-15.57-1.46-23.48-2.5-4.28-2.15-9.5-3.1-14.43Zm-34.95,145.32s.16,.11,.17,.11c0,0,0,0,0,0-.37-.18-.71-.37-1.02-.57,.31,.19,.64,.38,1.02,.57,0,0-.17-.12-.18-.13,0,0,.01,0,.02,.01Zm-2.44,7.53c.13-.85,.1-1.71-.01-2.59,.12,.88,.14,1.74,.01,2.59-.13,.85-.4,1.68-.88,2.48,.48-.8,.75-1.63,.88-2.48Zm-1.75,3.66c-.33,.37-.72,.73-1.16,1.08,0,0,0,0,0,0,.44-.35,.83-.71,1.16-1.08Zm22.59,2.81c-2.41-1.73-4.86-3.5-7.32-5.26h0c2.46,1.77,4.91,3.53,7.32,5.26Z"/>
    <path class="cls-9" d="M894.14,35.09s-.02,.05-.03,.08c.05,0,.1,0,.15,0l-.12-.09Z"/>
    <path class="cls-9" d="M935.88,212.58c-1.23-2.79-3.11-5.42-4.33-8.22-1.2-2.74-2.21-5.61,1.28-7.96,4.29,.23,3.61-1.91,2.95-3.76-1.32-3.72-3.03-7.36-4.31-11.08-3.56-10.4-6.25-21.01-10.7-31.18-3.65-8.33-9.35-16.16-14.08-24.23-.44-.75-.88-1.79-.53-2.46,3.66-6.95,1.08-13.8,.37-20.83-.77-7.65-8.07-15.2-1.46-23.1,.08-.1,.09-.25,.07-.38-1.13-9.87-.84-20.08-9.77-28.37-3.37-3.13-6.18-5.95-3.46-10.19,1.12-1.74,1.49-3.75,2.19-5.65-8.72-.38-8.74-.42-8.89-6.81-.04-1.88,0-3.77,0-6.69-.9,1.95-1.65,2.89-1.71,3.85-.17,2.67-.06,5.35-.06,8.21-1.9-.26-3.52-.48-4.89-.67-.61-1.89-1.14-3.53-1.67-5.18-.36,.07-.72,.14-1.09,.2v4.67c-5.39,.97-9.3-1.03-13.76-2.39-6.85-2.08-2.52-6.25-4.52-9.22-.74,2.26-1.88,4.78-.86,6.64,1.08,1.94,4.24,3.23,6.18,4.59-10.61,1.26-21.26,2.53-32.15,3.82v-15.66c-.49,0-.97-.02-1.46-.03v15.11c-3.02,1.24-5.82,1.67-6.32,2.72-2.05,4.28-3.94,8.68-4.85,13.15-1.08,5.32-1.99,10.82-1.34,16.14,1.12,9.11,.07,17.95-2.61,26.8-1.85,6.09-1.7,6.12,7.06,9.21,1.49-2.61,4.18-5.18,4.22-7.79,.1-6.01-1.09-12.04-1.74-18.06-.9-8.24-1.78-16.49-2.67-24.73,.43-.03,.86-.06,1.29-.09,.4,2.99,.86,5.97,1.2,8.96,1.32,11.67,2.9,23.32,3.81,35.01,.55,6.99,.07,7.01,8.5,4.31,.28-.09,.47-.34,.78-.57-.21-.95-.62-1.94-.63-2.93-.14-12.2-.06-24.4-.37-36.6-.17-6.7,4.34-13.62-.81-20.41,1.29,1.61,2.58,3.22,3.8,4.74,10.48-3.2,20.91-4.5,32.8-3.14,2.38-2.52,4.2-.09,5.91,2.22,.83-.93,1.5-1.66,2.7-3,2.27,2.7,4.11,4.9,5.96,7.11,.19-.07,.38-.14,.56-.21-.31-1.42-.62-2.83-1-4.54,10.97,6.29,20.76,28.99,16.79,37.22-4.31,.33-8.32,.8-12.35,.88-1.77,.04-4.29-.31-5.16-1.2-1-1.02-1-2.92-.6-4.29,.54-1.82,1.89-3.51,2.9-5.25l-.93-.39c-2.01,2.17-4.02,4.34-6.56,7.08,.01,.05,.29,1.04,.57,2.03-1.35,.74-2.7,1.48-4.05,2.22-2.2,.7-4.33,1.79-6.62,2.02-5.71,.57-11.49,.84-17.26,1.05-4.3,.16-8.61,.03-12.96,.03,1.34,1.95,2.78,3.58,3.66,5.37,5.27,10.74,10.42,21.5,15.55,32.28,.37,.77,.68,1.78,.33,2.49-3.6,7.34-7.32,14.65-11.02,21.97,1.26-1.16,2.52-2.32,3.78-3.49-.29,3.98-1.34,7.71-2.32,11.44-1.16,4.44-.11,9.59-6.84,12.42,1.24-.5,2.47-1,4.88-1.98-3.07,9.5-5.79,18.2-8.82,26.84-.3,.85-2.5,1.93-3.74,1.87-6.21-.29-12.42-.78-18.56-1.5-3.51-.41-6.9-1.39-10.35-2.12l-.16,.14c2.82,1.05,5.63,2.09,8.45,3.14-.5,.1-1,.2-1.49,.3-.19,3.46-.17,6.94-.65,10.38-.28,2.05-.88,5.56-2.12,5.77-5.13,.86-11.48,2.13-15.66,.6-6.4-2.33-11.76-2.27-17.54-.21-3.77,1.34-7.13,1.31-10.8-.04-1.86-.68-4.02-.89-6.05-1.31,11.02,3.63,11.05,3.7,21.54,1.14,4.13-1.01,7.45-.43,11.16,1.25,5.95,2.7,12.54,2.05,18.17-.45,4.71-2.09,3.79-5.92,2.66-9.43-.27-.83-.07-1.79,.16-2.66,.85-3.26,1.72-6.24,8.05-5.01,4.23,.83,8.77,.81,13.19,1.09,3.29,.21,5.5-.48,6.05-3.4,.64-3.41,2.09-6.74,2.98-10.13,3.53-13.47,6.87-26.98,10.52-40.43,1.37-5.06,3.4-10.01,5.12-15.01,1.67,1.82,2.4,3.53,3.05,5.25,6.25,16.54,12.55,33.06,18.7,49.62,2.29,6.17,4.38,12.39,6.24,18.65,1.53,5.13,2.83,5.88,9.54,4.75,1.36-.23,2.84-.03,5.52-.03-3.19,2.2-5.52,3.81-7.84,5.41,0,0,.18-.14,.18-.14-5.15,2.46-10.7,3.77-16.87,4.02-1.73,.07-3.73,1.6-4.79,2.86-.37,.44,1.47,2.77,2.7,2.99,.51,.09,1.02,.19,1.54,.28-.11,.36-.22,.73-.31,1.14,.44-.3,.86-.63,1.26-.97,5.82,1.06,11.71,2.16,17.62,2.31,10.42,.27,20.51-3.79,31.23-1.76,.91,.17,2.04-.18,3.02-.39,5.21-1.14,7.45-4.12,5.72-8.02Zm-3.08-16.24h0c.05-.37,.14-.75,.23-1.13-.1,.38-.18,.76-.23,1.13Z"/>
    <path class="cls-9" d="M847.24,148.42c.17-.34,.35-.68,.52-1.03-.36,.33-.71,.66-1.07,.99,.18,.01,.37,.03,.55,.04Z"/>
    <path class="cls-9" d="M797.23,188.72c3.42-10.4,7.35-20.65,10.05-31.08,2.68-10.33,4.13-20.83,6.11-31.26-1.12,.28-1.43,.7-1.53,1.15-2.07,9.22-3.75,18.5-6.26,27.65-2.68,9.79-6.8,19.37-8.96,29.21-1.17,5.32-4.68,8.42-10.12,11.03-6.41,3.08-12,7.25-20.27,7.74-2.41,.14-4.71,1.27-7.06,1.95,.18,.48,.36,.96,.53,1.45,2.29-.33,4.93-.22,6.81-1.06,8.69-3.87,17.49-7.67,25.58-12.17,4.42-2.46,8.33-3.7,13.51-2.3,0,0,.16-.14,.16-.14-2.79-.7-5.58-1.41-8.56-2.16Z"/>
    <path class="cls-9" d="M819.83,104.93c-1.7,7.3-3.39,14.59-5.09,21.89,3.37-7.13,6.84-14.24,5.09-21.89Z"/>
    <path class="cls-9" d="M894.16,35.1s.11,.07,.11,.07l.05-.18s-.11,.07-.15,.1Z"/>
    <path class="cls-9" d="M897.64,32.42c1.45-2.52,2.4-5.2,3.39-7.43-1.41,.59-3.97,1.66-6.52,2.73,.56,.16,1.12,.33,1.68,.49-.62,2.26-1.25,4.52-1.87,6.79,1.19-.83,2.74-1.55,3.33-2.58Z"/>
  </g>
  <rect class="cls-19" x="647.68" y="2.7" width="298.22" height="240.51"/>
  <text class="cls-12" transform="translate(763.93 235.53) scale(1.27 1)"><tspan class="cls-1" x="0" y="0">A</tspan><tspan x="9.17" y="0">p so</tspan><tspan class="cls-16" x="35.17" y="0">g</tspan><tspan class="cls-3" x="43.49" y="0">i</tspan></text>
  <text class="cls-12" transform="translate(648.77 273.83) scale(1.27 1)"><tspan class="cls-5" x="0" y="0">D</tspan><tspan x="10.09" y="0">esc</tspan><tspan class="cls-11" x="30.35" y="0">r</tspan><tspan x="35.33" y="0">ipción de la pose de las pie</tspan><tspan class="cls-5" x="203.13" y="0">r</tspan><tspan x="208.12" y="0">nas</tspan></text>
</svg>