<?xml version="1.0" encoding="UTF-8"?>
<svg id="Capa_1" data-name="Capa 1" xmlns="http://www.w3.org/2000/svg" viewBox="0 0 411.88 255.55">
  <defs>
    <style>
      .cls-1 {
        fill: #f6e8df;
      }

      .cls-2 {
        fill: #f6e7de;
      }

      .cls-3 {
        fill: #f09266;
      }

      .cls-4 {
        fill: #e9ded6;
      }

      .cls-5 {
        fill: #f1a57f;
      }

      .cls-6 {
        fill: #e6d8c9;
      }

      .cls-7 {
        fill: #f0ab89;
      }

      .cls-8 {
        fill: #b6a89e;
      }

      .cls-9 {
        fill: #b7785c;
      }

      .cls-10 {
        fill: #8d896b;
      }

      .cls-11 {
        fill: #dad2b3;
      }

      .cls-12 {
        fill: #dfe1ec;
      }

      .cls-13 {
        fill: #828761;
      }
    </style>
  </defs>
  <path class="cls-8" d="M69.61,111.25c0-.14,.01-.28,.02-.42,0,.14-.01,.28-.02,.42Z"/>
  <path class="cls-12" d="M410.85,228.88c-18.46,.08-36.92,.16-55.38,.23,.23,.48,.48,.96,.69,1.45,1.57,3.68,3.13,7.36,4.69,11.05-5.78,.87-11.53,2.05-17.35,2.38-1.42,.08-3.35-2.48-4.56-4.07-2.79-3.65-5.28-7.46-7.89-11.2-60.26-.51-120.53-1.04-180.79-1.51-4.17-.03-8.35,.33-12.53,.51,.84,10.35,.39,10.4-12.32,10.59-8.56,.13-17.09,1.59-25.66,2.02-6.17,.31-12.4-.1-18.6-.19,0-.83,.01-1.66,.02-2.49,5.93-2.69,11.86-5.38,17.8-8.06-22.61,1.22-45.23,2.44-66.42,10.51,4.58,2.33,9.06,4.06,13.69,4.41,38.06,2.82,76.11,5.98,114.25,7.85,37.3,1.84,74.7,3.11,112.05,3.17,46.45,.08,92.9-.14,139.35-.62-.01-8.74-2.03-17.38-1.03-26.04Z"/>
  <path class="cls-2" d="M286.15,89.14c-3.81,6.92-9.46,7.83-24.29,5.91-18.63-2.4-37.33-4.2-54.31-11.68-1.44-.64-3.59-.22-5.58-.3,2.77,9.93,5.41,19.36,8.04,28.8-1.78,.42-3.78,.54-5.3,1.3-7.73,3.85-15.34,6.41-25.11,5.62-8.21-.67-16.77,1.51-25.17,2.43-1.61-2.59-3.33-5.14-4.8-7.79-1.9-3.42-3.81-5.17-9.51-4.21-3.86,.65-9.4-1.2-12.75-3.4-11.85-7.79-17.37-18.69-19.65-30.7-1.57-8.25,4.51-17.51,14.16-21.79,4.75-2.11,9.85-3.68,14.8-5.5,5.87,6.76,11.75,13.52,17.7,20.37,1.79-1.04,2.68-1.4,3.3-1.96,.86-.77,1.53-1.68,2.28-2.54,3.2,4.44,6.4,8.88,8.72,12.11,3.74-4.67,7.24-8.68,10.28-12.92,3.49-4.87,6.58-9.93,9.84-14.91,8.79,3.66,18.39,6.42,26.18,11.18,12.68,7.74,26.32,12.37,41.87,14.23,8.64,1.03,17.05,3.34,25.57,5.07-.3,2.53-1.14,5.12-.67,7.55,.23,1.2,2.87,2.09,4.42,3.13Z"/>
  <path class="cls-1" d="M211.5,115.88c4.12,2.43,8.82,4.41,12.26,7.37,15.41,13.27,30.09,27.13,45.84,40.13,6.39,5.27,14.86,8.84,22.34,13.24,4.15,2.44,8.66,4.61,12.22,7.55,9.03,7.46,17.78,15.16,26.27,23.04,2.11,1.96,2.8,4.95,4.15,7.47-6.28,.91-12.56,1.83-18.84,2.74-1.45,.08-2.89,.15-4.34,.23-6.49-3.15-12.98-6.3-19.47-9.46h0c-.64-.54-1.29-1.06-1.93-1.59h0c-1.34-.53-2.69-1.06-4.03-1.6-.59-.49-1.19-.98-1.78-1.47-1.95-1.63-3.9-3.26-5.85-4.89l.05,.03c-.63-.03-1.25-.07-1.88-.1-9.26-5.14-18.15-10.8-27.84-15.29-18.36-8.51-37.19-16.36-55.82-24.48,.74-2.41,1.47-4.81,2.21-7.24-16.34,2.82-21.4-1.63-19.1-14.45,1.69-9.42,6.84-11.96,17.91-11.89,6.4,.04,16.11,.19,16.64-8.91,.21-.33,.54-.47,1-.43Z"/>
  <path class="cls-1" d="M110.4,220.91c-4.33,1.1-8.56,2.91-10.77-2.69-6.48-16.47-13.7-32.75-19.87-49.29-4.16-11.16-1.18-14.87,11.82-19.63,18.39-6.74,36.64-13.76,54.85-20.81,3.06-1.18,5.66-3.15,8.48-4.75,.99-.1,1.98-.2,2.97-.29-2.48,6.14-4.93,12.27-7.43,18.4-3.2,7.84-6.44,15.68-9.66,23.52-7.58,1.83-15.17,3.65-24.66,5.94,1.49,6.76,2.33,13.42,4.5,19.78,2.63,7.71,6.51,15.13,9.52,22.76,.42,1.06-1.06,2.63-1.66,3.96-6.03,1.04-12.05,2.08-18.08,3.11Z"/>
  <path class="cls-5" d="M159.95,63.71c-.75,.85-1.42,1.77-2.28,2.54-.62,.55-1.51,.91-3.3,1.96-5.95-6.85-11.83-13.61-17.7-20.37,.7-1.59,1.39-3.17,2.09-4.76,3.03,1.16,5.95,2.63,9.13,3.39,2.43,.59,5.19,.3,7.8,.4,.02-.72,.04-1.44,.05-2.17-6.28-2.63-12.57-5.26-18.85-7.9-.69-.58-1.39-1.16-2.09-1.74,.18-2.45,.36-4.9,.59-7.9,3.24,.64,5.54,1.09,8.3,1.63,1.88-6.81,4.2-13.17,15.17-11.39,1.99,.65,3.97,1.3,5.96,1.95,.18,1.61,.37,3.21,.55,4.82-.49,3.69-.99,7.38-1.48,11.07,0,0,.03-.04,.03-.04-1.17,4.38-2.81,8.73-3.4,13.16-.67,5.08-.42,10.23-.57,15.35Z"/>
  <path class="cls-7" d="M110.4,220.91c6.03-1.04,12.05-2.08,18.08-3.12,3.08,3.31,6.16,6.62,9.24,9.94,.85,10.35,.4,10.39-12.32,10.58-8.56,.13-17.09,1.59-25.66,2.02-6.17,.31-12.4-.1-18.6-.19,0-.83,.01-1.66,.02-2.49,5.93-2.69,11.86-5.38,17.8-8.06,6.5-.53,12.51-1.5,11.44-8.69Z"/>
  <path class="cls-7" d="M159.95,63.71c.15-5.12-.1-10.28,.57-15.35,.59-4.44,2.22-8.78,3.4-13.16-.43,2.8-.86,5.6-1.58,10.35,10.56-6.74,19.45-5.87,26.45,2.45-3.27,4.98-6.35,10.04-9.84,14.91-3.04,4.23-6.53,8.25-10.28,12.92-2.32-3.22-5.52-7.66-8.72-12.11Z"/>
  <path class="cls-7" d="M315.73,217.42c6.28-.91,12.56-1.83,18.84-2.74,6.97,4.81,13.94,9.62,20.91,14.44,.23,.49,.48,.97,.69,1.46,1.57,3.68,3.13,7.36,4.69,11.05-5.78,.87-11.53,2.05-17.35,2.38-1.42,.08-3.35-2.48-4.56-4.07-2.79-3.65-5.28-7.46-7.89-11.2-5.11-3.77-10.22-7.53-15.33-11.3Z"/>
  <path class="cls-7" d="M286.15,89.14c-1.55-1.03-4.19-1.93-4.42-3.13-.47-2.43,.37-5.03,.67-7.55,8.67-.65,17.73-1.55,23.9,4.79,2.01,2.06,3.07,6.38,1.79,8.6-2.35,4.08-7.35,5.6-12.75,2.7-3.16-1.69-6.14-3.6-9.2-5.41Z"/>
  <path class="cls-10" d="M211.5,115.88c-.45-.05-.79,.09-1,.43-11.04,2.47-22.08,4.95-33.12,7.42-3.1-4.65-5.93-3.45-8.64,.27-1.01-.08-2.01-.17-3.02-.25-2.29-5.48-5.1-2.16-7.83-.31-.99,.1-1.98,.2-2.97,.29-.16-.84-.32-1.67-.49-2.5,8.4-.92,16.96-3.09,25.17-2.43,9.78,.79,17.38-1.77,25.11-5.62,1.52-.76,3.52-.88,5.3-1.3,.49,1.34,.98,2.67,1.48,4.01Z"/>
  <path class="cls-3" d="M136.89,36.81c6.28,2.63,12.57,5.26,18.85,7.9-.02,.72-.04,1.44-.05,2.17-2.61-.1-5.36,.19-7.8-.4-3.17-.77-6.1-2.23-9.13-3.39-.21-.51-.42-1.03-.63-1.54-.48-1.07-.97-2.14-1.45-3.2-.22-.53-.15-1.04,.21-1.52Z"/>
  <path class="cls-7" d="M163.89,35.23c.49-3.69,.99-7.38,1.48-11.07-.49,3.69-.99,7.38-1.48,11.07Z"/>
  <path class="cls-7" d="M158.86,17.4c2.14-.97,4.28-1.94,6.41-2.91-.15,1.62-.3,3.24-.45,4.85-1.99-.65-3.98-1.3-5.96-1.95Z"/>
  <path class="cls-2" d="M136.68,38.33c.48,1.07,.97,2.14,1.45,3.2-.48-1.07-.97-2.14-1.45-3.2Z"/>
  <path class="cls-6" d="M192.84,158.79c-7.44,.09-14.87,.18-22.31,.27,2.28-11.78,4.56-23.56,6.85-35.34,11.04-2.47,22.08-4.95,33.12-7.42-.53,9.1-10.24,8.95-16.64,8.91-11.07-.07-16.21,2.46-17.91,11.89-2.3,12.81,2.76,17.27,19.1,14.45-.74,2.43-1.48,4.83-2.21,7.24Z"/>
  <path class="cls-4" d="M311.39,217.65c-9.11,.45-17.52-.07-19.47-9.46,6.49,3.15,12.98,6.31,19.47,9.46Z"/>
  <path class="cls-4" d="M284.18,203.53c-1.95-1.63-3.9-3.26-5.85-4.89,1.95,1.63,3.9,3.26,5.85,4.89Z"/>
  <path class="cls-4" d="M289.99,206.61c-1.34-.54-2.68-1.07-4.03-1.61,1.34,.54,2.68,1.07,4.03,1.61Z"/>
  <path class="cls-4" d="M278.38,198.67c-.63,0-1.26-.04-1.88-.1,.63,.03,1.25,.07,1.88,.1Z"/>
  <path class="cls-4" d="M291.92,208.18c-.64-.53-1.29-1.05-1.93-1.58,.64,.53,1.29,1.05,1.93,1.58Z"/>
  <path class="cls-13" d="M154.1,162.08c-7.32,9.87-9.19,10.99-19.19,10.88,2.11-2.73,4-5.17,5.88-7.61,3.22-7.84,6.46-15.67,9.66-23.52,2.5-6.12,4.95-12.26,7.43-18.4,2.73-1.85,5.54-5.17,7.83,.31-1.54,3.11-3.63,6.13-4.51,9.36-2.62,9.61-4.77,19.31-7.1,28.98Z"/>
  <path class="cls-13" d="M177.38,123.73c-2.28,11.78-4.57,23.56-6.85,35.34-1.72,5.07-2.92,10.31-5.32,15.15-2.39,4.82-6.73,8.25-14.38,7.51,2.67-5.15,5.14-9.89,7.6-14.63,.96-2.73,2.22-5.43,2.84-8.21,2.59-11.61,4.99-23.26,7.47-34.89,2.71-3.72,5.54-4.92,8.64-.27Z"/>
  <path class="cls-11" d="M168.74,124c-2.47,11.63-4.87,23.27-7.47,34.89-.62,2.79-1.88,5.48-2.84,8.21-1.44-1.67-2.89-3.34-4.33-5.01,2.33-9.67,4.48-19.37,7.1-28.98,.88-3.23,2.97-6.25,4.51-9.36,1.01,.08,2.01,.17,3.02,.25Z"/>
  <path class="cls-9" d="M165.76,11.88c-.84-1.44-4.83-7.94-12.85-10.01-7.73-2-15.97,.93-20.38,6.24-5.31,6.38-1.24,11.57-6.25,16.71-4.9,5.03-10.11,1.4-22.5,6.96-5.26,2.36-10.58,4.75-11.19,9.16-.82,5.91,7.41,11.11,8.01,11.48,2.43,2.8,4.35,3.3,5.66,3.24,5.78-.28,7.64-11.99,18.33-22.58,.79-.79,4.85-4.71,10.16-5.31,1.86-.21,3.11,.07,4.07,.49,2.67,1.15,3.86,3.65,4.22,4.5,4.55-4.84,5.37-11.34,7.97-17.04,2.56-5.6,8.42-6.33,14.78-3.81Z"/>
  <path class="cls-9" d="M135.28,22.89c4.1,1.21,9.04,.43,11.36-1.68,.75-.68,2.05-1.33,3.39-1.72,4.11-1.19,8.67-5.35,7.95-7.59-.51-1.59-1.2-3.15-1.93-5.02-2.9,2.4-7.42,3.97-6.94,6.9,.14,.87-1.68,1.92-2.81,2.83-.14,.11-1.58-.11-2.36-.24-.86-.15-1.65-.38-2.47-.58-1.13,1.57-.45,3.14-.63,4.7-.18,1.54-2.51,2.32-5.56,2.41Z"/>
  <path class="cls-9" d="M138.13,14.52c3.16,2.93,7.93,4.44,10.92,3.59,.97-.27,2.42-.28,3.79-.02,4.2,.78,10.11-.91,10.43-3.25,.23-1.65,.29-3.37,.45-5.37-3.65,.85-8.38,.23-9.23,3.08-.25,.85-2.35,.97-3.75,1.27-.17,.04-1.37-.8-2.01-1.28-.7-.52-1.31-1.08-1.96-1.63-1.7,.91-1.76,2.61-2.61,3.94-.83,1.3-3.26,.95-6.03-.33Z"/>
  <path class="cls-9" d="M141.48,18.43c3.78,1.93,8.76,2.24,11.42,.84,.86-.45,2.26-.77,3.64-.84,4.05-.21,8.81-2.53,9.21-5.16,.09-.57,.06-1.88-2.03-3.8-3.69,.93-5.77,2.42-7,3.66-.69,.69-1.93,1.33-3.29,1.95-.16,.07-1.52-.42-2.26-.7-.81-.31-1.54-.68-2.3-1.03-1.4,1.18-1.03,2.71-1.51,4.08-.47,1.34-2.89,1.56-5.89,1.01Z"/>
</svg>