<?xml version="1.0" encoding="UTF-8"?>
<svg xmlns="http://www.w3.org/2000/svg" viewBox="0 0 411.88 255.55">
  <defs>
    <style>
      .cls-1 {
        letter-spacing: 0em;
      }

      .cls-2 {
        letter-spacing: 0em;
      }

      .cls-3 {
        letter-spacing: 0em;
      }

      .cls-4 {
        fill: #f6e8df;
      }

      .cls-5 {
        fill: #f6e7de;
      }

      .cls-6 {
        fill: #f09266;
      }

      .cls-7 {
        fill: #e9ded6;
      }

      .cls-8 {
        fill: #f1a57f;
      }

      .cls-9 {
        fill: #e6d8c9;
      }

      .cls-10 {
        fill: #f0ab89;
      }

      .cls-11 {
        fill: #b6a89e;
      }

      .cls-12 {
        fill: #b7785c;
      }

      .cls-13 {
        fill: #8d896b;
      }

      .cls-14 {
        fill: #dad2b3;
      }

      .cls-15 {
        fill: #dfe1ec;
      }

      .cls-16 {
        fill: #273168;
      }

      .cls-17 {
        fill: #828761;
      }

      .cls-18 {
        letter-spacing: .01em;
      }

      .cls-19 {
        letter-spacing: 0em;
      }

      .cls-20 {
        letter-spacing: 0em;
      }

      .cls-21 {
        fill: none;
        stroke: #1d1d1b;
        stroke-miterlimit: 10;
        stroke-width: .75px;
      }

      .cls-22 {
        letter-spacing: 0em;
      }

      .cls-23 {
        letter-spacing: 0em;
      }

      .cls-24 {
        letter-spacing: 0em;
      }

      .cls-25 {
        letter-spacing: 0em;
      }

      .cls-26 {
        letter-spacing: 0em;
      }

      .cls-27 {
        letter-spacing: 0em;
      }

      .cls-28 {
        fill: #1d1d1b;
        font-family: MyriadPro-Regular, 'Myriad Pro';
        font-size: 12px;
      }

      .cls-29 {
        letter-spacing: 0em;
      }

      .cls-30 {
        letter-spacing: 0em;
      }

      .cls-31 {
        letter-spacing: -.03em;
      }
    </style>
  </defs>
  <g id="Capa_1" data-name="Capa 1">
    <path class="cls-11" d="M69.61,111.25c0-.14,.01-.28,.02-.42,0,.14-.01,.28-.02,.42Z"/>
    <path class="cls-15" d="M410.85,228.88c-18.46,.08-36.92,.16-55.38,.23,.23,.48,.48,.96,.69,1.45,1.57,3.68,3.13,7.36,4.69,11.05-5.78,.87-11.53,2.05-17.35,2.38-1.42,.08-3.35-2.48-4.56-4.07-2.79-3.65-5.28-7.46-7.89-11.2-60.26-.51-120.53-1.04-180.79-1.51-4.17-.03-8.35,.33-12.53,.51,.84,10.35,.39,10.4-12.32,10.59-8.56,.13-17.09,1.59-25.66,2.02-6.17,.31-12.4-.1-18.6-.19,0-.83,.01-1.66,.02-2.49,5.93-2.69,11.86-5.38,17.8-8.06-22.61,1.22-45.23,2.44-66.42,10.51,4.58,2.33,9.06,4.06,13.69,4.41,38.06,2.82,76.11,5.98,114.25,7.85,37.3,1.84,74.7,3.11,112.05,3.17,46.45,.08,92.9-.14,139.35-.62-.01-8.74-2.03-17.38-1.03-26.04Z"/>
    <path class="cls-5" d="M286.15,89.14c-3.81,6.92-9.46,7.83-24.29,5.91-18.63-2.4-37.33-4.2-54.31-11.68-1.44-.64-3.59-.22-5.58-.3,2.77,9.93,5.41,19.36,8.04,28.8-1.78,.42-3.78,.54-5.3,1.3-7.73,3.85-15.34,6.41-25.11,5.62-8.21-.67-16.77,1.51-25.17,2.43-1.61-2.59-3.33-5.14-4.8-7.79-1.9-3.42-3.81-5.17-9.51-4.21-3.86,.65-9.4-1.2-12.75-3.4-11.85-7.79-17.37-18.69-19.65-30.7-1.57-8.25,4.51-17.51,14.16-21.79,4.75-2.11,9.85-3.68,14.8-5.5,5.87,6.76,11.75,13.52,17.7,20.37,1.79-1.04,2.68-1.4,3.3-1.96,.86-.77,1.53-1.68,2.28-2.54,3.2,4.44,6.4,8.88,8.72,12.11,3.74-4.67,7.24-8.68,10.28-12.92,3.49-4.87,6.58-9.93,9.84-14.91,8.79,3.66,18.39,6.42,26.18,11.18,12.68,7.74,26.32,12.37,41.87,14.23,8.64,1.03,17.05,3.34,25.57,5.07-.3,2.53-1.14,5.12-.67,7.55,.23,1.2,2.87,2.09,4.42,3.13Z"/>
    <path class="cls-4" d="M211.5,115.88c4.12,2.43,8.82,4.41,12.26,7.37,15.41,13.27,30.09,27.13,45.84,40.13,6.39,5.27,14.86,8.84,22.34,13.24,4.15,2.44,8.66,4.61,12.22,7.55,9.03,7.46,17.78,15.16,26.27,23.04,2.11,1.96,2.8,4.95,4.15,7.47-6.28,.91-12.56,1.83-18.84,2.74-1.45,.08-2.89,.15-4.34,.23-6.49-3.15-12.98-6.3-19.47-9.46h0c-.64-.54-1.29-1.06-1.93-1.59h0c-1.34-.53-2.69-1.06-4.03-1.6-.59-.49-1.19-.98-1.78-1.47-1.95-1.63-3.9-3.26-5.85-4.89l.05,.03c-.63-.03-1.25-.07-1.88-.1-9.26-5.14-18.15-10.8-27.84-15.29-18.36-8.51-37.19-16.36-55.82-24.48,.74-2.41,1.47-4.81,2.21-7.24-16.34,2.82-21.4-1.63-19.1-14.45,1.69-9.42,6.84-11.96,17.91-11.89,6.4,.04,16.11,.19,16.64-8.91,.21-.33,.54-.47,1-.43Z"/>
    <path class="cls-4" d="M110.4,220.91c-4.33,1.1-8.56,2.91-10.77-2.69-6.48-16.47-13.7-32.75-19.87-49.29-4.16-11.16-1.18-14.87,11.82-19.63,18.39-6.74,36.64-13.76,54.85-20.81,3.06-1.18,5.66-3.15,8.48-4.75,.99-.1,1.98-.2,2.97-.29-2.48,6.14-4.93,12.27-7.43,18.4-3.2,7.84-6.44,15.68-9.66,23.52-7.58,1.83-15.17,3.65-24.66,5.94,1.49,6.76,2.33,13.42,4.5,19.78,2.63,7.71,6.51,15.13,9.52,22.76,.42,1.06-1.06,2.63-1.66,3.96-6.03,1.04-12.05,2.08-18.08,3.11Z"/>
    <path class="cls-8" d="M159.95,63.71c-.75,.85-1.42,1.77-2.28,2.54-.62,.55-1.51,.91-3.3,1.96-5.95-6.85-11.83-13.61-17.7-20.37,.7-1.59,1.39-3.17,2.09-4.76,3.03,1.16,5.95,2.63,9.13,3.39,2.43,.59,5.19,.3,7.8,.4,.02-.72,.04-1.44,.05-2.17-6.28-2.63-12.57-5.26-18.85-7.9-.69-.58-1.39-1.16-2.09-1.74,.18-2.45,.36-4.9,.59-7.9,3.24,.64,5.54,1.09,8.3,1.63,1.88-6.81,4.2-13.17,15.17-11.39,1.99,.65,3.97,1.3,5.96,1.95,.18,1.61,.37,3.21,.55,4.82-.49,3.69-.99,7.38-1.48,11.07,0,0,.03-.04,.03-.04-1.17,4.38-2.81,8.73-3.4,13.16-.67,5.08-.42,10.23-.57,15.35Z"/>
    <path class="cls-10" d="M110.4,220.91c6.03-1.04,12.05-2.08,18.08-3.12,3.08,3.31,6.16,6.62,9.24,9.94,.85,10.35,.4,10.39-12.32,10.58-8.56,.13-17.09,1.59-25.66,2.02-6.17,.31-12.4-.1-18.6-.19,0-.83,.01-1.66,.02-2.49,5.93-2.69,11.86-5.38,17.8-8.06,6.5-.53,12.51-1.5,11.44-8.69Z"/>
    <path class="cls-10" d="M159.95,63.71c.15-5.12-.1-10.28,.57-15.35,.59-4.44,2.22-8.78,3.4-13.16-.43,2.8-.86,5.6-1.58,10.35,10.56-6.74,19.45-5.87,26.45,2.45-3.27,4.98-6.35,10.04-9.84,14.91-3.04,4.23-6.53,8.25-10.28,12.92-2.32-3.22-5.52-7.66-8.72-12.11Z"/>
    <path class="cls-10" d="M315.73,217.42c6.28-.91,12.56-1.83,18.84-2.74,6.97,4.81,13.94,9.62,20.91,14.44,.23,.49,.48,.97,.69,1.46,1.57,3.68,3.13,7.36,4.69,11.05-5.78,.87-11.53,2.05-17.35,2.38-1.42,.08-3.35-2.48-4.56-4.07-2.79-3.65-5.28-7.46-7.89-11.2-5.11-3.77-10.22-7.53-15.33-11.3Z"/>
    <path class="cls-10" d="M286.15,89.14c-1.55-1.03-4.19-1.93-4.42-3.13-.47-2.43,.37-5.03,.67-7.55,8.67-.65,17.73-1.55,23.9,4.79,2.01,2.06,3.07,6.38,1.79,8.6-2.35,4.08-7.35,5.6-12.75,2.7-3.16-1.69-6.14-3.6-9.2-5.41Z"/>
    <path class="cls-13" d="M211.5,115.88c-.45-.05-.79,.09-1,.43-11.04,2.47-22.08,4.95-33.12,7.42-3.1-4.65-5.93-3.45-8.64,.27-1.01-.08-2.01-.17-3.02-.25-2.29-5.48-5.1-2.16-7.83-.31-.99,.1-1.98,.2-2.97,.29-.16-.84-.32-1.67-.49-2.5,8.4-.92,16.96-3.09,25.17-2.43,9.78,.79,17.38-1.77,25.11-5.62,1.52-.76,3.52-.88,5.3-1.3,.49,1.34,.98,2.67,1.48,4.01Z"/>
    <path class="cls-6" d="M136.89,36.81c6.28,2.63,12.57,5.26,18.85,7.9-.02,.72-.04,1.44-.05,2.17-2.61-.1-5.36,.19-7.8-.4-3.17-.77-6.1-2.23-9.13-3.39-.21-.51-.42-1.03-.63-1.54-.48-1.07-.97-2.14-1.45-3.2-.22-.53-.15-1.04,.21-1.52Z"/>
    <path class="cls-10" d="M163.89,35.23c.49-3.69,.99-7.38,1.48-11.07-.49,3.69-.99,7.38-1.48,11.07Z"/>
    <path class="cls-10" d="M158.86,17.4c2.14-.97,4.28-1.94,6.41-2.91-.15,1.62-.3,3.24-.45,4.85-1.99-.65-3.98-1.3-5.96-1.95Z"/>
    <path class="cls-5" d="M136.68,38.33c.48,1.07,.97,2.14,1.45,3.2-.48-1.07-.97-2.14-1.45-3.2Z"/>
    <path class="cls-9" d="M192.84,158.79c-7.44,.09-14.87,.18-22.31,.27,2.28-11.78,4.56-23.56,6.85-35.34,11.04-2.47,22.08-4.95,33.12-7.42-.53,9.1-10.24,8.95-16.64,8.91-11.07-.07-16.21,2.46-17.91,11.89-2.3,12.81,2.76,17.27,19.1,14.45-.74,2.43-1.48,4.83-2.21,7.24Z"/>
    <path class="cls-7" d="M311.39,217.65c-9.11,.45-17.52-.07-19.47-9.46,6.49,3.15,12.98,6.31,19.47,9.46Z"/>
    <path class="cls-7" d="M284.18,203.53c-1.95-1.63-3.9-3.26-5.85-4.89,1.95,1.63,3.9,3.26,5.85,4.89Z"/>
    <path class="cls-7" d="M289.99,206.61c-1.34-.54-2.68-1.07-4.03-1.61,1.34,.54,2.68,1.07,4.03,1.61Z"/>
    <path class="cls-7" d="M278.38,198.67c-.63,0-1.26-.04-1.88-.1,.63,.03,1.25,.07,1.88,.1Z"/>
    <path class="cls-7" d="M291.92,208.18c-.64-.53-1.29-1.05-1.93-1.58,.64,.53,1.29,1.05,1.93,1.58Z"/>
    <path class="cls-17" d="M154.1,162.08c-7.32,9.87-9.19,10.99-19.19,10.88,2.11-2.73,4-5.17,5.88-7.61,3.22-7.84,6.46-15.67,9.66-23.52,2.5-6.12,4.95-12.26,7.43-18.4,2.73-1.85,5.54-5.17,7.83,.31-1.54,3.11-3.63,6.13-4.51,9.36-2.62,9.61-4.77,19.31-7.1,28.98Z"/>
    <path class="cls-17" d="M177.38,123.73c-2.28,11.78-4.57,23.56-6.85,35.34-1.72,5.07-2.92,10.31-5.32,15.15-2.39,4.82-6.73,8.25-14.38,7.51,2.67-5.15,5.14-9.89,7.6-14.63,.96-2.73,2.22-5.43,2.84-8.21,2.59-11.61,4.99-23.26,7.47-34.89,2.71-3.72,5.54-4.92,8.64-.27Z"/>
    <path class="cls-14" d="M168.74,124c-2.47,11.63-4.87,23.27-7.47,34.89-.62,2.79-1.88,5.48-2.84,8.21-1.44-1.67-2.89-3.34-4.33-5.01,2.33-9.67,4.48-19.37,7.1-28.98,.88-3.23,2.97-6.25,4.51-9.36,1.01,.08,2.01,.17,3.02,.25Z"/>
    <path class="cls-12" d="M165.76,11.88c-.84-1.44-4.83-7.94-12.85-10.01-7.73-2-15.97,.93-20.38,6.24-5.31,6.38-1.24,11.57-6.25,16.71-4.9,5.03-10.11,1.4-22.5,6.96-5.26,2.36-10.58,4.75-11.19,9.16-.82,5.91,7.41,11.11,8.01,11.48,2.43,2.8,4.35,3.3,5.66,3.24,5.78-.28,7.64-11.99,18.33-22.58,.79-.79,4.85-4.71,10.16-5.31,1.86-.21,3.11,.07,4.07,.49,2.67,1.15,3.86,3.65,4.22,4.5,4.55-4.84,5.37-11.34,7.97-17.04,2.56-5.6,8.42-6.33,14.78-3.81Z"/>
    <path class="cls-12" d="M135.28,22.89c4.1,1.21,9.04,.43,11.36-1.68,.75-.68,2.05-1.33,3.39-1.72,4.11-1.19,8.67-5.35,7.95-7.59-.51-1.59-1.2-3.15-1.93-5.02-2.9,2.4-7.42,3.97-6.94,6.9,.14,.87-1.68,1.92-2.81,2.83-.14,.11-1.58-.11-2.36-.24-.86-.15-1.65-.38-2.47-.58-1.13,1.57-.45,3.14-.63,4.7-.18,1.54-2.51,2.32-5.56,2.41Z"/>
    <path class="cls-12" d="M138.13,14.52c3.16,2.93,7.93,4.44,10.92,3.59,.97-.27,2.42-.28,3.79-.02,4.2,.78,10.11-.91,10.43-3.25,.23-1.65,.29-3.37,.45-5.37-3.65,.85-8.38,.23-9.23,3.08-.25,.85-2.35,.97-3.75,1.27-.17,.04-1.37-.8-2.01-1.28-.7-.52-1.31-1.08-1.96-1.63-1.7,.91-1.76,2.61-2.61,3.94-.83,1.3-3.26,.95-6.03-.33Z"/>
    <path class="cls-12" d="M141.48,18.43c3.78,1.93,8.76,2.24,11.42,.84,.86-.45,2.26-.77,3.64-.84,4.05-.21,8.81-2.53,9.21-5.16,.09-.57,.06-1.88-2.03-3.8-3.69,.93-5.77,2.42-7,3.66-.69,.69-1.93,1.33-3.29,1.95-.16,.07-1.52-.42-2.26-.7-.81-.31-1.54-.68-2.3-1.03-1.4,1.18-1.03,2.71-1.51,4.08-.47,1.34-2.89,1.56-5.89,1.01Z"/>
  </g>
  <g id="protecciones">
    <path class="cls-16" d="M136.01,30.03c-.21,.67-.65,1.82-1,2.09l1.77-.73c.47-.04,.57,.45,.25-.05-.06-.09,.01-.01-.14-.17-.23-.23-.39-.5-.56-.78-.43-.76-.71-1.58-.96-2.42-.49-1.65-.87-3.53-.2-5.19,.13-.33,.35-.57,.52-.86,.01-.02,.32-.29,.32-.27,.03,.22-1.09-.12-1.08-.13-1.42,.08-.2-.31-.3-.14-.02,.04,.15,.59,.17,.7,.1,.49,.16,.99,.19,1.49,.14,2.09-.36,4.13-.25,6.2,.06,1.13,.28,2.43,1.09,3.28,.91,.97,2.32,1.24,3.51,.66,2.07-1,2.85-3.61,3.63-5.6,1.45-3.71,2.91-7.27,5.39-10.44,1.31-1.67,2.81-3.2,4.45-4.55,1.44-1.19,3.34-2.74,5.31-2.5,2.49,.3,3.36-3.57,1.26-4.66s-4.33-2.31-6.54-3.38-4.36-1.68-6.71-1.02c-2.13,.6-3.86,2.05-5.73,3.17s-3.74,2.04-5.37,3.47c-3.01,2.64-4.62,6.73-4.85,10.66-.24,4.29,1.59,8.4,4.57,11.41,1.29,1.31,3.74,.74,4.18-1.1,.61-2.54,.61-5.08,.44-7.68-.12-1.93-.67-4.59,.35-6.37s3.46-2.96,5.16-3.9c.95-.53,1.93-1.01,2.94-1.4,.48-.19,1.01-.3,1.48-.51,.58-.25,.11,.08-.1-.08l-.9-.9c.07-.77,.04-.97-.09-.59-.03,.13-.11,.24-.25,.31-.21,.22-.58,.38-.86,.52-.69,.33-1.43,.56-2.12,.87-1.89,.84-3.6,2.21-4.93,3.79-2.98,3.57-4.37,8.02-3.74,12.63,.15,1.07,1.42,1.84,2.41,1.84,1.12,0,2.09-.78,2.41-1.84,.48-1.56,.76-3.12,.95-4.74,.32-2.78-4.38-3.42-4.91-.66-.76,3.98-.2,7.84-.11,11.84,.03,1.44,.1,3.1-.51,4.44-.21,.46-.49,.88-.99,1-.13,.03-.31,.01-.46-.11-.86-.7-.8-2.54-.83-3.53-.05-1.85,.02-3.72,.17-5.57,.28-3.56,1.03-7.14,2.56-10.38l-4.66-1.26c-.11,3.62,.14,7.23,.74,10.8,.27,1.6,.62,3.18,1.07,4.74,.24,.83,.5,1.65,.79,2.47,.12,.34,.2,.78,.39,1.08l.08,.3c-.12-.44,.14-.8,.79-1.08h1.33c.51,.12,.47,.67,.26-.08-.11-.38-.26-.76-.37-1.14-.27-.91-.49-1.84-.71-2.77-.41-1.72-.85-3.4-1.56-5.02-.59-1.35-1.95-2.62-2.22-4.07s.36-3.2,.93-4.56c2.44-5.84,6.48-11.8,13.47-11.8,3.96,0,7.48,2.12,10.7,4.19,2.72,1.74,5.23-2.59,2.52-4.32-5-3.19-10.41-5.68-16.46-4.54s-10.17,5.53-12.97,10.73c-1.47,2.73-2.9,5.63-3.2,8.76-.14,1.53,.1,3.02,.75,4.41,.58,1.24,1.54,2.27,2.06,3.54,1.08,2.6,1.29,5.47,2.28,8.1,.56,1.48,1.36,2.91,3.01,3.36,1.9,.51,3.71-.81,4.2-2.63,.44-1.63-.27-3.09-.77-4.59-.55-1.66-.99-3.36-1.33-5.08-.71-3.55-.91-7.17-.81-10.79,.07-2.38-3.58-3.54-4.66-1.26-2.12,4.48-3.06,9.27-3.33,14.21-.21,3.87-.72,9.79,3.2,12.09,1.9,1.11,4.33,1.06,6.15-.2s2.75-3.26,3.1-5.34c.81-4.85-.74-9.77,.18-14.6l-4.91-.66c-.13,1.16-.43,2.3-.77,3.41h4.82c-.48-3.45,1.41-7.16,3.99-9.34s6.74-2.23,7.9-6.08c.66-2.21-.56-4.48-2.91-4.79-1.93-.25-3.9,.74-5.62,1.51-1.9,.85-3.7,1.91-5.39,3.13s-3.36,2.62-4.2,4.69c-1.83,4.49,.31,9.55-.81,14.19l4.18-1.1c-2.11-2.13-3.27-4.86-3.1-7.87,.15-2.77,1.48-5.69,3.71-7.4,1.24-.95,2.69-1.61,4.03-2.41,1.44-.87,2.89-2.22,4.54-2.67,1.42-.38,2.78,.47,4,1.1,1.8,.93,3.6,1.86,5.4,2.79l1.26-4.66c-3-.36-5.82,1.6-8.07,3.35s-4.11,3.71-5.81,5.92-3.05,4.46-4.14,6.95c-.62,1.42-1.16,2.87-1.71,4.32-.42,1.1-.82,2.76-1.78,3.5l1.1-.64h.14c.59,.23,1.18,.47,1.77,.72,.34,.29,.11-.48,.13-.82,.02-.44,.07-.88,.11-1.32,.11-1.05,.2-2.09,.17-3.15-.04-1.82-.17-4.01-1.09-5.63-1.12-1.97-3.5-2.62-5.46-1.49-1.75,1-2.89,2.94-3.35,4.86-.86,3.57,.12,8.14,2.16,11.19,.98,1.46,2.57,3.11,4.47,3.02,2.4-.11,3.46-3.1,4.05-5.03,.95-3.08-3.87-4.4-4.82-1.33h0Z"/>
    <path class="cls-16" d="M165.02,13.12c-3.32-3.56-8.19-5.21-13.01-4.71-.67,.07-1.25,.52-1.25,1.25,0,.62,.57,1.32,1.25,1.25,4.21-.44,8.32,.84,11.24,3.97,1.1,1.18,2.86-.59,1.77-1.77h0Z"/>
    <path class="cls-16" d="M165.49,13.28c-.53-3.02-1.27-5.81-3.68-7.88-2.11-1.81-4.73-3.38-7.45-4.04s-5.78-.49-7.95,1.28c-1.18,.96-2.09,2.25-3,3.46-1.02,1.35-1.98,2.75-2.89,4.18s1.3,2.62,2.16,1.26c1.4-2.2,2.88-4.51,4.7-6.4s4.38-1.92,6.68-1.28c2.16,.6,4.29,1.85,5.99,3.3,2.09,1.79,2.59,4.17,3.04,6.77,.28,1.58,2.69,.91,2.41-.66h0Z"/>
    <path class="cls-16" d="M160.03,8.41c.24,.78,.55,1.53,.89,2.27l1.41-1.84c-1.29-.38-2.57-.8-3.87-1.12-1.45-.36-2.88-.48-4.35-.25-.65,.1-1.06,.95-.87,1.54,.23,.7,.84,.98,1.54,.87-.09,0-.06,0,.1-.01,.07,0,.14-.01,.22-.02,.17-.01,.33-.02,.5-.02,.28,0,.56,.02,.84,.04,.16,.02,.18,.02,.08,0,.09,.01,.18,.03,.27,.04,.14,.02,.27,.05,.41,.08,.29,.06,.58,.13,.87,.2,1.21,.32,2.41,.7,3.61,1.05,.48,.14,1.02-.06,1.31-.45,.33-.42,.32-.92,.1-1.39-.15-.33-.18-.38-.31-.73-.12-.31-.23-.62-.33-.94-.2-.62-.88-1.09-1.54-.87-.62,.2-1.08,.87-.87,1.54h0Z"/>
    <path class="cls-16" d="M164.71,13.23c-2.93-1.15-5.97-2.24-9.17-1.96s-5.71,1.62-7.91,3.7-3.82,4.63-5.32,7.19c-1.73,2.96-3.29,6.01-4.65,9.16-.63,1.46,1.52,2.74,2.16,1.26,1.2-2.79,2.56-5.51,4.06-8.15,1.36-2.4,2.8-4.81,4.68-6.84s4.18-3.57,6.98-3.83c2.98-.28,5.79,.8,8.51,1.87,1.5,.59,2.15-1.83,.66-2.41h0Z"/>
    <path class="cls-16" d="M141.65,32.49c1.15-4.03,3.2-7.8,5.24-11.44,.96-1.71,2.04-3.3,3.4-4.71s2.94-2.68,4.5-3.92c1.26-1-.52-2.76-1.77-1.77-3.32,2.65-6.19,5.4-8.29,9.13s-4.29,7.8-5.5,12.03c-.44,1.55,1.97,2.21,2.41,.66h0Z"/>
    <path class="cls-16" d="M140.27,28.99c-.77,1.67-.99,3.4-1.13,5.22s-.3,3.85-1.77,5.14-3.81,1.27-5.49,.4c-.56-.29-.56-.5-.6-1.13-.03-.52-.05-1.04-.05-1.56,0-1.06,.05-2.11,.12-3.16,.13-1.94,.25-3.91-.53-5.74-.36-.85-.89-1.62-1.16-2.51-.31-.99-.37-2.03-.32-3.06,.1-2.18,.81-4.34,1.71-6.32s1.93-3.94,3.3-5.58c2.57-3.08,6.55-4.24,10.45-3.68,1.57,.23,2.25-2.18,.66-2.41-4.09-.59-8.23,.18-11.45,2.89-1.88,1.58-3.19,3.76-4.32,5.9-1.2,2.28-2.24,4.73-2.65,7.28-.39,2.4-.3,4.83,.76,7.05,.49,1.03,1.02,1.9,1.12,3.07,.11,1.33-.06,2.68-.13,4.01s-.08,2.55,0,3.82c.06,1.06,.09,2.21,1.02,2.91,.82,.62,2.12,.93,3.11,1.13,1.14,.24,2.32,.28,3.46-.02,2.3-.62,4-2.43,4.71-4.67,.79-2.5,.24-5.3,1.36-7.71,.67-1.45-1.49-2.72-2.16-1.26h0Z"/>
    <path class="cls-16" d="M139.71,32.55l-.35,5.49c-.04,.69-.02,1.49-.39,2.11-.32,.53-.88,.84-1.41,1.12-.3,.16-.62,.31-.93,.44-.39,.16-.86,.22-1.24,.41-.36,.17-.09-.12,.01,.07-.01-.02-.14-.18-.19-.24-.27-.33-.53-.66-.79-1-1.06-1.39-2.04-2.84-2.96-4.33-.84-1.37-3-.11-2.16,1.26,1.11,1.81,2.33,3.55,3.64,5.22,.32,.41,.63,.86,1.07,1.16,.52,.35,1.09,.43,1.7,.33,.96-.15,1.9-.56,2.76-.99,.79-.39,1.59-.86,2.17-1.53,.76-.88,1.04-1.93,1.15-3.07,.21-2.14,.28-4.31,.42-6.46,.04-.67-.61-1.25-1.25-1.25-.71,0-1.21,.57-1.25,1.25h0Z"/>
    <path class="cls-16" d="M134.7,42.9c-.34-.05-.65-.15-.98-.26,.27,.09-.01,0-.07-.04-.07-.04-.15-.08-.22-.12-.15-.08-.28-.19-.42-.27-.12-.07,.15,.13-.03-.02-.06-.06-.13-.11-.19-.17-.12-.12-.24-.24-.35-.37-.06-.06-.11-.13-.17-.2,.17,.23-.03-.06-.05-.08-.1-.15-.19-.3-.27-.45-.04-.08-.08-.16-.12-.24-.02-.05-.12-.28-.03-.05-.07-.17-.13-.35-.19-.52s-.1-.37-.14-.55c-.02-.09-.04-.19-.05-.29-.03-.14,.01,.16-.01-.08-.09-1.02,0-2.04-.08-3.06-.06-.65-.53-1.28-1.25-1.25-.63,.03-1.31,.55-1.25,1.25,.1,1.1-.03,2.2,.11,3.3,.13,1,.41,1.96,.91,2.85,.87,1.55,2.42,2.75,4.19,3.03,.64,.1,1.38-.16,1.54-.87,.14-.6-.18-1.43-.87-1.54h0Z"/>
    <path class="cls-16" d="M130.11,41.51c.69,2.21,2.42,3.92,4.79,4.15,1.34,.14,2.65-.26,3.86-.81s2.68-1.19,3.42-2.29,.57-2.57,.54-3.87c-.04-1.61-.07-3.22-.11-4.83-.07-3.29-.15-6.57-.22-9.86-.04-1.61-2.54-1.61-2.5,0,.11,5.03,.23,10.06,.34,15.09,.02,.92,.26,1.87-.58,2.44-.96,.65-2.11,1.25-3.23,1.52-1.81,.44-3.34-.45-3.89-2.22-.48-1.53-2.89-.88-2.41,.66h0Z"/>
    <path class="cls-16" d="M160.8,45.16c-4.08,.85-8.05-.32-11.79-1.91s-7.58-3.63-11.12-5.88c-1.36-.86-2.62,1.3-1.26,2.16,3.86,2.45,7.92,4.57,12.15,6.31s8.3,2.65,12.69,1.73c1.57-.33,.91-2.74-.66-2.41h0Z"/>
    <g>
      <path class="cls-16" d="M288.4,80.79c3.52,1.27,7.12,2.32,10.76,3.13,1.44,.32,2.95,.64,4.09,1.58,.95,.79,1.51,1.9,2,2.99,.43,.94,.84,1.91,.9,2.91s-.29,2.04-1.13,2.57c-1.37,.86-3.31,.09-4.88-.69-4.9-2.43-9.81-4.85-14.71-7.28-.26-.13-.53-.27-.69-.49-.19-.27-.2-.61-.18-.93,.1-1.63,.55-3.2,1.32-4.61,.13-.23,.28-.47,.54-.56,.18-.06,.38-.03,.57,0,4.57,.61,9.12,1.54,13.6,2.8,1.54,.43,3.11,.92,4.38,1.9,1.73,1.34,2.66,3.46,2.73,5.5s-.64,3.98-1.67,5.67c-.27,.44-.57,.88-1.04,1.12-1.03,.53-2.37-.09-3.46-.69-4.28-2.37-8.56-4.75-12.84-7.12-1.18-.65-2.43-1.38-3.04-2.53s-.16-2.81,1.14-2.95c.56-.06,1.12,.17,1.66,.39,5.02,2.1,9.97,4.37,14.85,6.78"/>
      <path class="cls-16" d="M287.73,83.2c4.02,1.44,8.11,2.35,12.2,3.48,1.65,.46,2.29,1.24,3.01,2.76,.28,.58,.66,1.32,.7,1.97,.01,.23,.02,.43-.08,.64,.01-.03,.23-.18,.16-.2-.69-.17-1.31-.25-1.98-.56-.94-.43-1.86-.92-2.79-1.38-1.91-.94-3.81-1.89-5.72-2.83s-3.81-1.89-5.72-2.83l-.82-.4c-.55-.33-.42-.09,.37,.74,.07-.1,.09-.77,.12-.94,.11-.52,.25-1.05,.44-1.55,.06-.18,.13-.34,.23-.51,.3-.47,.24-.48-.17-.02l-1.26,.34c.96-.12,2.05,.21,3,.36,1.25,.21,2.5,.44,3.74,.69,2.33,.48,4.65,1.04,6.94,1.69,1.67,.48,3.38,1.01,4.35,2.57s.89,3.24,.34,4.86c-.23,.69-.64,1.69-1.1,2.16,.32-.32,.41,0-.13-.31-.46-.26-.93-.48-1.39-.74-2.14-1.19-4.28-2.37-6.42-3.56s-4.3-2.33-6.41-3.56c-.3-.18-.62-.35-.9-.56-.19-.15-.38-.5-.57-.6-.37-.2,.03,.02-.02,0,.01,0-.04,.42,0,.06,.04-.34-.24,.33-.46,.45-.46,.26-.52,.07-.05,.3,2.3,1.14,4.75,2.03,7.08,3.1,2.54,1.16,5.07,2.36,7.57,3.6,1.21,.6,2.71,.33,3.42-.9,.65-1.1,.32-2.82-.9-3.42-4.94-2.44-9.95-4.74-15.04-6.87-1.26-.53-2.55-.89-3.9-.42-1.22,.42-2.16,1.46-2.53,2.69-.78,2.64,.79,4.89,2.88,6.33s4.46,2.54,6.68,3.77c2.47,1.37,4.95,2.75,7.43,4.12s5.32,2.16,7.38-.19c1.66-1.89,2.6-4.67,2.74-7.14s-.72-5-2.31-6.93-3.92-2.9-6.27-3.58c-2.56-.74-5.16-1.36-7.78-1.87-1.32-.26-2.64-.5-3.97-.7-1.48-.23-3.31-.81-4.71-.06-2.18,1.16-2.87,4.68-3.07,6.92-.13,1.47,.32,2.84,1.58,3.69,1.09,.73,2.39,1.23,3.56,1.81,2.52,1.25,5.04,2.49,7.56,3.74,2.28,1.13,4.69,2.68,7.2,3.23,3.28,.72,6.35-1.11,6.64-4.58,.21-2.56-1.25-5.61-2.85-7.54-1.93-2.34-4.93-2.74-7.7-3.42-3.05-.75-6.06-1.67-9.02-2.72-1.27-.45-2.74,.51-3.08,1.75-.38,1.39,.47,2.62,1.75,3.08h0Z"/>
    </g>
    <g>
      <path class="cls-16" d="M166.58,61.28c.94-3.47,1.56-7.07,1.86-10.75,.12-1.46,.22-3,1.23-4.01,.85-.85,2.23-1.2,3.59-1.5,1.17-.26,2.39-.49,3.72-.34s2.81,.73,3.7,1.74c1.47,1.64,.85,3.53,.15,5.03-2.19,4.69-4.38,9.39-6.58,14.08-.12,.25-.24,.5-.51,.63-.32,.15-.78,.08-1.21,0-2.21-.44-4.44-1.25-6.5-2.36-.34-.18-.7-.4-.87-.69-.12-.2-.13-.41-.14-.61-.19-4.72,.07-9.35,.78-13.83,.24-1.54,.56-3.11,1.6-4.24,1.42-1.55,4.08-2.1,6.8-1.75,2.72,.35,5.5,1.5,8.01,2.96,.65,.37,1.31,.79,1.73,1.34,.94,1.21,.4,2.49-.17,3.52-2.26,4.04-4.51,8.09-6.77,12.13-.62,1.11-1.32,2.29-2.74,2.7s-3.76-.42-4.22-1.82c-.2-.6-.02-1.16,.17-1.68,1.73-4.88,3.69-9.66,5.88-14.33"/>
      <path class="cls-16" d="M168.99,61.95c1.03-3.87,1.63-7.8,1.98-11.78,.12-1.38,.28-2.01,1.68-2.42,1.46-.43,3.18-.88,4.69-.47,.9,.24,1.84,.75,1.74,1.68-.07,.72-.48,1.41-.78,2.05-.45,.97-.9,1.93-1.35,2.9-.84,1.79-1.68,3.59-2.51,5.38-.45,.97-.9,1.93-1.35,2.9-.39,.84-.71,1.79-1.25,2.54l.9-.9c.27-.2,.67,.09,.28-.14-.2-.12-.6-.13-.83-.19-.7-.17-1.39-.38-2.06-.62-.95-.34-2.53-.79-3.17-1.55l.64,1.1c-.26-.73-.11-2.38-.1-3.35,0-1.35,.05-2.7,.14-4.04,.15-2.37,.33-4.81,.87-7.13,.4-1.74,1.25-2.51,3.02-2.78,2.06-.31,4.22,.28,6.13,1.01,1.03,.39,2.01,.9,2.97,1.44,.37,.21,.73,.43,1.09,.65,.13,.08,.23,.22,.32,.33-.22-.26,.18-.48-.1,.06-1.1,2.09-2.29,4.19-3.45,6.27-1.28,2.3-2.51,4.62-3.85,6.89-.17,.28-.32,.57-.55,.81-.1,.1-.64,.42-.29,.33-.33,.09-1.45-.27-1.4-.34,.02-.03,.08,.32,.08,.26-.07,.53,.03,.08,.11-.19,.22-.69,.48-1.36,.73-2.03,.49-1.32,.99-2.63,1.51-3.93,1.07-2.67,2.22-5.31,3.44-7.92,.57-1.22,.34-2.69-.9-3.42-1.08-.63-2.85-.33-3.42,.9-1.27,2.73-2.48,5.5-3.61,8.3-.5,1.23-.98,2.47-1.45,3.71s-1.08,2.56-1.31,3.89c-.49,2.86,1.79,5.05,4.43,5.62s4.98-.57,6.51-2.76,2.81-4.94,4.17-7.37c.71-1.28,1.43-2.56,2.14-3.84s1.53-2.47,1.92-3.83c.92-3.19-1.22-5.36-3.79-6.78-2.38-1.31-4.98-2.42-7.68-2.85s-5.26-.33-7.63,.86-3.64,3.55-4.12,6.11c-.52,2.77-.8,5.61-.95,8.43-.08,1.42-.11,2.85-.1,4.28,0,1.61-.21,3.59,.93,4.88,.87,.99,2.16,1.52,3.35,2.03,1.39,.6,2.81,1.12,4.29,1.48,1.36,.33,2.81,.63,4.08-.15s1.76-2.43,2.36-3.72c1.26-2.69,2.51-5.38,3.77-8.08,1.11-2.37,2.76-4.93,2.82-7.62,.08-3.2-2.5-5.58-5.42-6.36s-6.5-.14-9.14,1.16c-3.13,1.54-3.37,4.73-3.66,7.8s-.89,6.19-1.69,9.21,3.99,4.44,4.82,1.33h0Z"/>
    </g>
    <g>
      <path class="cls-16" d="M133.72,226.45c-5.98,.06-11.97-.36-17.87-1.27-.65-.1-1.33-.21-1.97-.05-.45,.11-.84,.34-1.23,.56-9.39,5.4-19.72,9.4-29.99,13.37,3.23,.31,6.49,.1,9.74-.11,9.9-.65,19.81-1.3,29.71-1.95,1.09-.07,2.21-.15,3.19-.57,.65-.28,1.21-.69,1.75-1.11,2.78-2.11,5.46-4.33,8.02-6.64-5.82-.22-11.65-.44-17.47-.66-1-.04-2-.08-2.98,.08-1.25,.2-2.4,.69-3.54,1.19-5.12,2.22-10.23,4.43-15.35,6.65,6.37-.51,12.76-.76,19.15-.73,1.69,0,3.4,.03,5.05-.28,2.72-.51,5.12-1.88,7.44-3.23-6.22-.55-12.53-.34-18.68,.62"/>
      <path class="cls-16" d="M133.72,223.95c-4.69,.04-9.37-.2-14.03-.75-2.15-.25-4.67-1.08-6.79-.38s-3.9,2.07-5.79,3.05c-8.1,4.21-16.61,7.5-25.11,10.78-2.64,1.02-2.22,4.66,.66,4.91,4.88,.43,9.81-.12,14.69-.44s9.57-.63,14.36-.94c2.48-.16,4.95-.32,7.43-.49,2.11-.14,4.42-.05,6.45-.71,2.21-.72,4.07-2.52,5.85-3.94s3.64-3.02,5.4-4.6,.28-4.19-1.77-4.27c-3.66-.14-7.32-.28-10.98-.42-3.37-.13-7.01-.67-10.34-.04-1.53,.29-2.96,.98-4.38,1.6-1.66,.72-3.31,1.43-4.97,2.15-3.31,1.43-6.62,2.87-9.93,4.3-2.27,.98-1.13,4.85,1.26,4.66,5.8-.46,11.61-.71,17.43-.73,2.76,0,5.58,.14,8.29-.55,2.56-.66,4.92-1.98,7.19-3.29s1.1-4.46-1.26-4.66c-6.47-.55-12.93-.27-19.35,.71-1.34,.21-2.07,1.88-1.75,3.08,.39,1.43,1.74,1.95,3.08,1.75,5.96-.92,12.02-1.05,18.02-.53l-1.26-4.66c-1.98,1.15-3.96,2.3-6.21,2.84-2.49,.59-5.19,.31-7.73,.33-5.49,.04-10.98,.29-16.45,.73l1.26,4.66c3.16-1.37,6.32-2.74,9.48-4.11,1.5-.65,3.01-1.3,4.51-1.96,1.27-.55,2.59-1.23,3.97-1.47s2.97-.03,4.39,.02c1.75,.07,3.49,.13,5.24,.2,3.49,.13,6.99,.27,10.48,.4l-1.77-4.27c-1.64,1.47-3.32,2.91-5.03,4.3-1.38,1.12-2.98,2.82-4.79,3.16-2.05,.38-4.24,.32-6.32,.46-2.31,.15-4.62,.3-6.93,.45-4.62,.3-9.24,.61-13.87,.91s-9.14,.78-13.7,.37l.66,4.91c8.46-3.27,16.95-6.55,25.06-10.65,1.04-.53,2.07-1.06,3.1-1.62,.88-.48,1.79-1.19,2.73-1.53,.64-.23,1.23-.05,1.93,.05,1.18,.17,2.36,.33,3.54,.47,4.66,.55,9.34,.79,14.03,.75,3.22-.03,3.22-5.03,0-5h0Z"/>
    </g>
    <g>
      <path class="cls-16" d="M349.6,228.77c1.53,2.19,3.5,4.27,5.9,6.22,.95,.77,1.98,1.57,1.6,2.61-.32,.87-1.61,1.8-2.91,2.69-1.12,.76-2.32,1.54-3.91,2.2s-3.69,1.18-5.44,1.18c-2.86,0-3.57-1.24-3.9-2.35-1.03-3.47-2.06-6.94-3.09-10.41-.05-.18-.1-.38,.11-.59,.25-.25,.82-.47,1.36-.66,2.8-.99,5.9-1.82,9.04-2.41,.51-.1,1.08-.19,1.49-.14,.28,.03,.45,.13,.61,.22,3.71,2.18,6.86,4.56,9.4,7.12,.87,.88,1.68,1.81,1.36,2.93-.44,1.53-3.02,3.24-6.33,4.56-3.31,1.32-7.28,2.28-11.17,2.94-1,.17-2.05,.33-2.94,.3-1.95-.07-2.3-.99-2.42-1.8-.48-3.19-.95-6.38-1.43-9.57-.13-.88-.22-1.83,1.07-2.8s4.52-1.85,6.08-1.43c.67,.18,.88,.55,1.06,.9,1.68,3.31,3.03,6.69,4.05,10.14"/>
      <path class="cls-16" d="M347.44,230.04c1.97,2.78,4.32,4.95,6.86,7.19-.03-.03,.56,.49,.52,.49,.11-1.1,.11-1.46-.01-1.08l-.26,.27c-.65,.45-1.25,.99-1.92,1.44-1.35,.9-2.73,1.71-4.29,2.2-1.32,.42-2.91,.85-4.3,.6,.12,.02-.84-.21-.51-.14,.14,.05,.09,.02-.14-.1,.18,.15,.21,.16,.09,.05-.13-.13-.1-.09,.07,.12-.05-.08-.1-.16-.15-.24,.03-.17,.11,.44-.02-.07-.47-1.77-1.05-3.53-1.57-5.29s-1.29-3.65-1.59-5.48l-.25,1.93,.15-.3-.9,.9c.89-.66,2.18-.9,3.23-1.22,1.36-.41,2.73-.77,4.12-1.09,.67-.15,1.33-.29,2-.42,.27-.05,1.32-.07,.62-.26,.61,.17,1.4,.85,1.93,1.19,.62,.4,1.23,.8,1.82,1.23,1.92,1.35,3.83,2.87,5.42,4.61,.43,.47,.29,.54,.48,.09,.15-.35-.18,.28-.19,.29,.09-.1,.23-.26-.11,.09-.7,.7-1.56,1.19-2.43,1.65-2.28,1.21-4.78,1.97-7.27,2.61s-5.16,1.44-7.69,1.44c0,0-.34-.03-.46,0-.93,.25-.19-.21-.2-.03,0-.04,.35,.45,.34,.45,.16,.09,0,.03-.05-.22-.23-1.33-.4-2.67-.6-4-.21-1.43-.43-2.87-.64-4.3-.05-.32-.1-.64-.14-.96-.12-.84-.15-.25-.05-.49,.04-.09-.11,.02,.2-.18,.79-.52,1.88-.83,2.86-.95-.1,.01-.4,.02,.3-.02,.15-.01,.3-.01,.45,0,.19,.01,.19,0,0-.03l.12,.03c.34,.09,.2-.05-.43-.43-.01,0,.53,1.04,.53,1.04,1.38,2.81,2.49,5.72,3.39,8.72s5.75,1.77,4.82-1.33c-.84-2.82-1.89-5.56-3.1-8.24-.48-1.06-.92-2.25-1.65-3.16-.88-1.09-2.16-1.52-3.53-1.57-2.11-.08-4.61,.59-6.39,1.74-1.08,.69-1.98,1.69-2.36,2.93s-.1,2.52,.09,3.79c.43,2.88,.69,5.85,1.3,8.7,.5,2.35,2.55,3.46,4.82,3.55,2.72,.11,5.68-.72,8.31-1.34s5.34-1.47,7.87-2.58c2.07-.91,4.25-2.08,5.68-3.89,1.8-2.3,1.16-4.86-.73-6.89-1.75-1.88-3.83-3.51-5.91-5.02-2.23-1.61-4.63-3.66-7.52-3.24-2.63,.38-5.24,1.07-7.77,1.85-1.24,.38-2.65,.74-3.76,1.41-1.75,1.06-1.75,2.75-1.23,4.49,.81,2.71,1.61,5.43,2.42,8.14,.58,1.97,1.18,3.84,3.17,4.81,2.56,1.25,5.77,.75,8.38-.08,2.85-.9,5.47-2.5,7.79-4.38,1.18-.96,2.22-2.24,2.22-3.83s-.99-2.75-2.12-3.7c-2.13-1.79-4.18-3.66-5.8-5.94-.78-1.1-2.18-1.62-3.42-.9-1.09,.64-1.68,2.31-.9,3.42h0Z"/>
    </g>
    <g>
      <path class="cls-16" d="M196.89,128.11c-.6,4.19-2.49,8.05-4.36,11.82-1.14,2.31-2.31,4.66-4.04,6.56-1.76,1.93-4.09,3.33-6.61,3.98-.85,.22-1.75,.36-2.61,.16-1.15-.26-2.1-1.06-2.92-1.92-4.1-4.27-6-10.2-9.28-15.15,1.22,.94,2.57,1.78,4.07,2.06,1.86,.34,3.75-.25,5.54-.83,4.89-1.57,9.78-3.14,14.67-4.71,1.87-.6,3.91-1.34,4.83-3.09-.79,2.8-1.74,5.82-4.12,7.44-.93,.63-2.01,1-3.07,1.35-3.04,1.01-6.12,2.04-9.32,2.32-1.55,.14-3.13,.11-4.65,.43-.36,.08-.76,.21-.92,.54-.13,.27-.07,.58,0,.87,.43,1.77,1.15,3.47,2.12,5.01,.34,.54,.73,1.08,1.28,1.37,.76,.41,1.68,.28,2.52,.11,2.33-.48,4.63-1.27,6.55-2.68s3.41-3.52,3.74-5.91c-3.61,1.77-7.22,3.54-10.83,5.31-.44,.21-.91,.43-1.39,.36s-.93-.59-.75-1.04"/>
      <path class="cls-16" d="M194.48,127.45c-.66,4.29-2.57,8.15-4.49,12-1.7,3.39-3.64,6.62-7.29,8.14-.74,.31-1.74,.69-2.56,.64-.73-.04-1.24-.51-1.74-.99-1.39-1.35-2.47-2.96-3.46-4.62-2-3.38-3.55-7.01-5.71-10.31l-3.42,3.42c2.5,1.88,5.19,2.81,8.33,2.31s6.15-1.78,9.12-2.73,5.95-1.89,8.92-2.87c2.45-.8,4.81-1.87,6.15-4.19l-4.57-1.93c-.44,1.55-.88,3.12-1.73,4.51s-2.17,2.01-3.72,2.53c-2.03,.68-4.07,1.36-6.16,1.82s-3.98,.44-6,.66c-2.19,.25-4.66,.96-4.64,3.65,.02,1.95,1.09,4.14,2,5.81,1.08,1.97,2.47,3.58,4.84,3.77,1.87,.15,4.03-.54,5.75-1.22,4.12-1.62,7.84-4.77,8.61-9.35,.36-2.19-1.62-3.83-3.67-2.82s-3.9,1.91-5.85,2.87c-.94,.46-1.88,.92-2.82,1.38l-1.3,.64-.87,.42c-.29,.11-.09,.14,.61,.09l.9,.9,.11,.49c.17-1.34-1.27-2.5-2.5-2.5-1.49,0-2.33,1.15-2.5,2.5-.22,1.73,1.29,3.25,2.92,3.5s3.26-.79,4.71-1.5c3.03-1.49,6.07-2.97,9.1-4.46l-3.67-2.82c-.54,3.24-3.11,5.24-6.1,6.21-.79,.26-1.62,.51-2.44,.64-.14,.02-.91,.01-.7,.1s-.23-.36-.28-.44c-.46-.69-.86-1.46-1.18-2.23-.13-.32-.24-.65-.34-.97-.09-.27-.17-.53-.24-.81-.12-.68-.19-.54-.2,.43l-.9,.9c-.15,.1,0-.07,.16-.07,.31,0,.64-.11,.95-.14,.62-.07,1.25-.08,1.87-.12,1.37-.08,2.74-.24,4.1-.49,2.61-.49,5.15-1.34,7.65-2.21s4.35-2.05,5.81-4.18c1.26-1.82,1.92-4.05,2.52-6.16,.78-2.73-3.14-4.38-4.57-1.93-.82,1.41-2.84,1.78-4.28,2.25-2.6,.84-5.2,1.67-7.81,2.51s-4.98,1.7-7.51,2.38c-1.06,.29-2.15,.51-3.23,.2s-1.99-1-2.87-1.66c-2.02-1.52-4.73,1.42-3.42,3.42,1.93,2.96,3.38,6.18,5.1,9.26s3.82,6.58,6.9,8.29c3.42,1.9,7.85,.22,10.79-1.9,3.22-2.32,5.16-5.59,6.89-9.08,1.99-4.02,4.02-8.13,4.71-12.61,.21-1.33-.34-2.69-1.75-3.08-1.19-.33-2.87,.4-3.08,1.75h0Z"/>
    </g>
    <g>
      <path class="cls-16" d="M197.89,125.19c-4.74-.14-8.73,3.21-13,5.26-1.57,.75-3.21,1.34-4.85,1.91-1.55,.54-3.1,1.06-4.66,1.53-1.17,.35-2.38,.69-3.6,.62-2.4-.13-4.47-1.73-6.32-3.31-.71-.6-1.52-1.25-2.44-1.16,1.39,4.57,3.27,9,5.58,13.18,.78,1.42,1.64,2.83,2.81,3.94,.88,.83,1.92,1.46,2.95,2.08,.74,.45,1.49,.9,2.34,1.03,.85,.13,1.71-.08,2.52-.34,3.45-1.12,6.54-3.31,8.76-6.2"/>
      <path class="cls-16" d="M197.89,122.69c-6.47-.05-11.56,4.78-17.39,6.87-1.68,.6-3.37,1.18-5.08,1.71-1.39,.43-2.88,1.02-4.34,.6-3.05-.86-4.7-4.31-8.05-4.32-1.58,0-2.89,1.61-2.41,3.16,1.13,3.67,2.55,7.25,4.23,10.7s3.32,6.58,6.36,8.77c1.42,1.02,3.09,2.16,4.84,2.51,1.85,.36,3.66-.21,5.36-.91,3.27-1.35,6.16-3.49,8.35-6.28,.83-1.06,1.03-2.5,0-3.54-.87-.87-2.7-1.07-3.54,0-1.68,2.13-3.72,3.86-6.19,5-.88,.41-2.18,1.08-3.17,.79-1.23-.36-2.73-1.48-3.67-2.35-1.99-1.86-3.18-4.72-4.32-7.13-1.37-2.87-2.49-5.84-3.42-8.88l-2.41,3.16c.42,0,1,.71,1.29,.95,.59,.48,1.19,.96,1.81,1.4,1.25,.88,2.69,1.64,4.2,1.93,3.58,.7,7.29-.98,10.61-2.14s6.1-2.49,9.01-4.16c2.47-1.41,5.01-2.87,7.94-2.85,3.22,.03,3.22-4.97,0-5h0Z"/>
    </g>
    <g>
      <path class="cls-16" d="M198.36,126.73c.11,4.11-1.7,7.97-3.5,11.63-1.48,3.01-2.97,6.01-4.77,8.83-1.5,2.36-3.25,4.63-5.59,6.11s-5.38,2.08-7.94,.96c-1.93-.84-3.38-2.53-4.71-4.18-4.23-5.26-8.16-10.99-9.84-17.55-.14-.56-.11-1.38,.46-1.44,.18-.02,.35,.06,.51,.14,1.96,.95,3.57,2.52,5.41,3.69s4.17,1.95,6.16,1.11c-2.11,1.13-4.95,.63-6.59-1.16,7.6,.67,15.23,.02,22.81-.62"/>
      <path class="cls-16" d="M195.86,126.73c.04,4.19-1.98,7.99-3.79,11.66s-3.63,7.53-6.36,10.57c-2.12,2.36-5.63,4.58-8.75,2.69-1.52-.92-2.65-2.47-3.74-3.84-1.21-1.53-2.38-3.1-3.46-4.72-1.24-1.85-2.38-3.77-3.35-5.78-.43-.9-.82-1.82-1.16-2.77-.19-.54-.37-1.08-.53-1.63-.06-.21-.12-.41-.18-.62-.35-1.36-.06-.23-.05-.25l-.64,1.1,.16-.19-1.1,.64c-.46,.17-1.06-.31-.46,.18,.25,.2,.59,.36,.86,.54,.45,.3,.89,.63,1.33,.96,.99,.74,1.95,1.52,3.03,2.12,2.27,1.28,5.03,1.97,7.56,1.05l-1.93-4.57c-1.22,.6-2.64,.17-3.56-.77l-1.77,4.27c7.61,.64,15.23,.02,22.81-.62,1.35-.11,2.5-1.07,2.5-2.5,0-1.26-1.15-2.61-2.5-2.5-7.59,.64-15.2,1.26-22.81,.62-2.24-.19-3.19,2.82-1.77,4.27,2.56,2.61,6.39,3.14,9.62,1.55,2.51-1.24,.75-5.55-1.93-4.57s-4.98-1.36-6.9-2.79c-1.02-.76-2.13-1.6-3.35-2.02-1.74-.59-3.62,.29-4.08,2.14-.36,1.44,.19,2.94,.65,4.3,.48,1.42,1.05,2.82,1.69,4.18,1.28,2.74,2.89,5.31,4.64,7.77,3.18,4.45,6.93,10.27,13.09,10.13s10.63-5.44,13.61-10.52c1.83-3.12,3.46-6.38,4.95-9.67s2.7-6.73,2.66-10.42c-.03-3.22-5.03-3.22-5,0h0Z"/>
    </g>
    <g>
      <path class="cls-16" d="M301.67,189.33c9.02,9.42,20.25,15.11,28.66,25.45,.15,.19,.31,.38,.39,.64,.26,.78-.19,1.86-.77,2.51-1.48,1.66-3.43,1.29-5,.69-2.88-1.11-5.61-2.66-8.12-4.62-2-1.56-3.86-3.37-5.72-5.18-4.34-4.23-8.69-8.45-13.03-12.68-.21-.2-.43-.44-.47-.81-.04-.42,.18-.87,.4-1.26,.82-1.47,1.77-2.82,2.81-4.01,.22-.25,.46-.5,.72-.57,.28-.07,.53,.08,.75,.23,10.06,6.63,19.44,14.75,27.95,24.21,.34,.38,.71,.87,.62,1.55-.07,.46-.34,.86-.59,1.23-1.3,1.86-2.6,3.71-3.9,5.57-9.76-4.08-16.32-14.97-24.85-21.89-.41-.33-.83-.67-1.09-1.21-.65-1.38-.01-3.47,.62-5.21,8.34,9.21,17.71,16.83,27.83,22.65-6.33-5.22-12.68-10.45-18.32-16.84"/>
      <path class="cls-16" d="M299.91,191.1c7.33,7.6,16.48,13.09,24.04,20.43,.91,.88,1.8,1.8,2.65,2.74,.48,.53,.95,1.07,1.41,1.62,.03,.03,.35,.47,.38,.46,0-.66-.03-.81-.11-.44,0,.09-.03,.16-.09,.22-1.22,1.23-3.45-.22-4.81-.91-5.22-2.63-9.19-6.87-13.33-10.89-2.47-2.4-4.93-4.8-7.4-7.2-.65-.63-1.29-1.26-1.94-1.88-.09-.09-.88-.85-.88-.86l.16,1.26c.12-.24,.25-.47,.38-.7,.54-.94,1.55-2.88,2.4-3.29l-1.26,.34,.4,.03-1.26-.34c3.08,1.71,5.97,4.04,8.75,6.2,2.99,2.32,5.87,4.78,8.66,7.33s5.47,5.21,8.06,7.96c.6,.64,1.29,1.72,2.02,2.19l.31,.34c.08,.28,.08,0,0-.83-.08,.03-.62,.94-.65,.98-1.2,1.73-2.41,3.45-3.62,5.17l3.42-.9c-5.85-2.5-10.26-7.18-14.51-11.75-2.2-2.37-4.38-4.76-6.72-6.99-1.14-1.09-2.32-2.26-3.6-3.17-.24-.28-.29-.32-.15-.12,.12,.22,.12,.15-.01-.21,.02-.16,.01-.34,.03-.51,.12-.93,.48-1.86,.79-2.74l-4.18,1.1c8.22,9.05,17.74,16.93,28.34,23.04,2.38,1.37,5.28-2.07,3.03-3.93-6.41-5.28-12.8-10.62-18.32-16.84-2.14-2.41-5.67,1.14-3.54,3.54,5.53,6.23,11.91,11.56,18.32,16.84l3.03-3.93c-10.26-5.91-19.37-13.5-27.33-22.26-1.35-1.49-3.58-.56-4.18,1.1-.67,1.86-1.28,3.93-.83,5.91s1.98,2.93,3.37,4.16c2.7,2.38,5.15,5.04,7.6,7.68,4.77,5.13,9.75,10.59,16.32,13.39,1.33,.57,2.56,.33,3.42-.9,.79-1.13,1.58-2.25,2.37-3.38,.7-1,1.52-1.98,2.04-3.08,1.39-2.98-1.08-5.12-2.94-7.11-3.5-3.74-7.18-7.31-11.04-10.68s-7.94-6.56-12.15-9.52c-2.07-1.45-4.82-4.06-7.29-1.93-.86,.74-1.55,1.75-2.21,2.67-.76,1.06-1.6,2.25-1.99,3.5-.91,2.94,2,4.85,3.82,6.63,2,1.94,3.99,3.88,5.99,5.83,3.87,3.77,7.62,7.82,12.1,10.89,2.14,1.47,4.45,2.65,6.87,3.59,2.13,.83,4.59,1.02,6.56-.33,2.11-1.45,3.46-4.42,2.07-6.81-.58-1-1.52-1.91-2.29-2.77-.85-.95-1.73-1.87-2.64-2.76-7.61-7.5-16.91-13.03-24.34-20.73-2.24-2.32-5.77,1.22-3.54,3.54h0Z"/>
    </g>
    <g>
      <path class="cls-16" d="M296.81,196.68c6.99,8.2,15.21,14.4,23.39,20.56"/>
      <path class="cls-16" d="M295.04,198.45c6.94,8.09,15.42,14.56,23.89,20.95,1.08,.81,2.8,.17,3.42-.9,.75-1.28,.18-2.61-.9-3.42-8.14-6.14-16.21-12.4-22.88-20.17-.88-1.03-2.63-.9-3.54,0-1.02,1.02-.88,2.51,0,3.54h0Z"/>
    </g>
    <g>
      <path class="cls-16" d="M100.94,173.73c5.32,11.93,13.99,21.06,18.42,33.67,.08,.23,.16,.46,.15,.74-.02,.82-.81,1.7-1.57,2.12-1.96,1.08-3.67,.09-4.95-1.01-2.34-2.01-4.39-4.39-6.1-7.08-1.36-2.14-2.5-4.48-3.64-6.81-2.67-5.45-5.34-10.91-8-16.36-.13-.26-.26-.56-.17-.92,.11-.41,.47-.77,.8-1.06,1.27-1.12,2.62-2.08,4-2.87,.29-.16,.6-.33,.87-.3,.29,.02,.47,.25,.63,.47,7.25,9.63,13.34,20.46,18.17,32.26,.2,.48,.38,1.07,.06,1.67-.22,.41-.61,.71-.98,.97-1.86,1.33-3.71,2.65-5.57,3.98-7.83-7.12-10.33-19.63-16.04-29.03-.27-.45-.56-.91-.62-1.51-.15-1.53,1.16-3.3,2.35-4.73,4.75,11.51,11.01,21.85,18.59,30.73-4.21-7.05-8.43-14.13-11.59-22.07"/>
      <path class="cls-16" d="M98.79,174.99c4.29,9.52,10.94,17.68,15.58,27,.53,1.07,1.04,2.15,1.51,3.26,.28,.66,.54,1.33,.79,2,.09,.25,.26,.57,.3,.82-.03-.22,.21-.37,.05-.21-1.38,1.38-3.86-1.83-4.68-2.71-3.85-4.12-6.09-9.37-8.54-14.37-1.51-3.1-3.03-6.19-4.54-9.29-.4-.81-.79-1.62-1.19-2.43-.14-.28-.26-.63-.43-.88-.24-.65-.31-.58-.22,.2-.16,.68-.08,.82,.25,.41,.57-.25,1.12-.93,1.64-1.3,.3-.21,.61-.42,.92-.62,.18-.12,.37-.23,.56-.34,.63-.29,.49-.35-.42-.18l-1.1-.64c1.21,1.02,2.12,2.78,3.02,4.08,1.03,1.49,2.04,3,3.01,4.53,2.01,3.16,3.89,6.39,5.65,9.69s3.38,6.66,4.88,10.08c.37,.84,.73,1.68,1.08,2.53,.05,.12,.39,.94,.4,.93,.05-.03,.6-.85-.31-.19-1.71,1.25-3.45,2.46-5.17,3.7l3.03,.39c-4.55-4.2-7.1-10.03-9.5-15.62-1.27-2.94-2.49-5.91-3.9-8.78-.69-1.41-1.44-2.77-2.24-4.12-.66-1.11,.64-2.35,1.34-3.21l-4.18-1.1c4.79,11.55,11.13,22.3,19.24,31.84,1.86,2.19,5.36-.63,3.93-3.03-4.15-6.95-8.31-13.94-11.33-21.47-.5-1.25-1.67-2.13-3.08-1.75-1.19,.33-2.25,1.81-1.75,3.08,3.19,7.95,7.46,15.33,11.84,22.67l3.93-3.03c-7.51-8.83-13.51-18.94-17.95-29.63-.64-1.53-2.85-2.73-4.18-1.1-1.25,1.52-2.6,3.18-2.97,5.17-.43,2.25,.75,3.85,1.78,5.72,1.76,3.18,3.18,6.53,4.6,9.87,2.76,6.46,5.63,13.19,10.89,18.05,.76,.7,2.12,1.04,3.03,.39,1.13-.81,2.25-1.61,3.38-2.42s2.4-1.53,3.36-2.51c2.23-2.27,.71-5-.32-7.42-2.02-4.73-4.28-9.37-6.78-13.87s-5.11-8.66-8.01-12.77c-1.28-1.81-2.8-5.06-5.35-5.01-1.28,.03-2.46,.86-3.49,1.55-1.13,.76-2.3,1.59-3.27,2.56s-1.53,2.26-1.22,3.6,1.15,2.61,1.74,3.83c1.23,2.51,2.45,5.01,3.68,7.52,2.34,4.79,4.44,9.88,7.51,14.26,1.46,2.09,3.13,4.05,5.02,5.77s4.12,3.17,6.79,2.64c2.48-.49,4.78-2.71,4.59-5.35-.09-1.25-.73-2.49-1.2-3.64-.51-1.25-1.05-2.48-1.63-3.7-4.65-9.71-11.61-18.11-16.04-27.94-.55-1.23-2.34-1.53-3.42-.9-1.27,.74-1.45,2.18-.9,3.42h0Z"/>
    </g>
    <g>
      <path class="cls-16" d="M243.97,76.49c9.49,1.19,18.93,2.82,28.27,4.88,.12,.03,.26,.06,.33,.17,.08,.12,.05,.27,.02,.41-.25,1-.68,1.96-1.27,2.82-.17,.24-.36,.49-.62,.62-.27,.13-.59,.14-.89,.13-8.79-.12-17.56-1.68-25.84-4.62-.17-.06-.35-.13-.45-.27-.1-.13-.12-.29-.14-.45-.13-1.12-.1-2.26,.1-3.37,.05-.31,.16-.66,.46-.76,.14-.05,.3-.02,.45,0,4.46,.78,8.92,1.57,13.38,2.35,5.18,.91,10.36,1.82,15.6,2.24l.07-.46c-5.92-1.26-11.91-2.2-17.93-2.83-2.67-.28-5.36-.5-7.98-1.08-1.31-.29-2.61-.66-3.94-.83-.3-.04-.67-.03-.84,.22-.09,.14-.09,.32-.09,.48,.01,1.1,.03,2.2,.04,3.31,0,.17,0,.36,.11,.49,.1,.13,.26,.2,.42,.25,.95,.28,1.96,.23,2.95,.24,7.41,.06,14.54,3.61,21.94,3.23"/>
      <path class="cls-16" d="M243.97,78.99c4.68,.59,9.35,1.3,14.01,2.11,2.32,.4,4.63,.83,6.93,1.29,1.11,.22,2.23,.45,3.34,.68,.63,.13,1.27,.27,1.9,.4,.32,.07,.63,.14,.95,.21,.56,.14,.63,.15,.21,.02l-1.15-1.49,.05,.2v-1.33c-.07,.44-.2,.88-.38,1.28-.12,.27-.32,.51-.43,.78l-.24,.37,.95-.49c-.02-.08-3.28-.09-3.6-.11-2.52-.14-5.03-.39-7.53-.78-4.89-.77-10.02-1.84-14.61-3.74l1.1,.64c.31,.84,.42,.91,.31,.19,0-.24,0-.48,0-.72,0-.27-.04-.84,.05-1.01l-.9,.9,.24-.17-1.26,.34c1.18,.01,2.44,.38,3.6,.59s2.23,.39,3.35,.59c2.48,.43,4.95,.87,7.43,1.3,4.99,.87,10,1.69,15.05,2.11,.98,.08,2.25-.83,2.41-1.84l.07-.46c.2-1.27-.31-2.77-1.75-3.08-4.7-.99-9.44-1.78-14.21-2.41-4.51-.59-9.01-.88-13.45-1.91-2.15-.5-5.34-1.18-6.15,1.67-.28,.99-.12,2.14-.11,3.16,.02,1.21-.05,2.5,.86,3.44,1.53,1.59,4.26,1.14,6.25,1.25s4.12,.5,6.15,.95c4.84,1.07,9.68,2.45,14.69,2.24,3.21-.13,3.22-5.13,0-5-4.19,.18-8.21-.88-12.26-1.82-2.1-.48-4.21-.91-6.36-1.17-1.03-.13-2.06-.21-3.1-.23-.92-.02-1.87,.09-2.74-.24l1.1,.64-.19-.16,.64,1.1c.12,.31-.02-.11-.03-.3-.01-.39-.01-.79-.02-1.18,0-.31,0-.63-.01-.94,0-.17,.12-.92,0-.53l-.64,1.1,.22-.18-1.1,.64c-.42,0-.36,.04,.17,.09,.29,.05,.59,.11,.88,.18,.58,.13,1.16,.28,1.74,.41,1.23,.28,2.46,.49,3.71,.66,2.52,.35,5.05,.55,7.57,.85,5.06,.6,10.09,1.45,15.07,2.5l-1.75-3.08-.07,.46,2.41-1.84c-7.27-.6-14.45-2.06-21.63-3.32-1.75-.31-3.5-.61-5.26-.92-2.17-.38-4.51-.69-5.34,1.94-.47,1.5-.58,3.74-.13,5.25,.55,1.86,2.45,2.3,4.08,2.83,6.77,2.22,13.85,3.53,20.96,3.96,1.58,.1,3.47,.39,5.04,.01,1.86-.45,2.85-2.39,3.5-4.02s.9-3.51-.82-4.55c-1.41-.86-3.53-.94-5.14-1.28-8.16-1.68-16.39-3.01-24.65-4.06-1.34-.17-2.5,1.27-2.5,2.5,0,1.49,1.15,2.33,2.5,2.5h0Z"/>
    </g>
    <g>
      <path class="cls-16" d="M141.76,93.19c6.12-7.35,12.57-14.43,19.34-21.19,.09-.09,.19-.19,.32-.19,.14,0,.26,.1,.36,.21,.71,.75,1.29,1.63,1.69,2.59,.12,.27,.22,.56,.19,.86-.03,.3-.2,.57-.37,.82-4.83,7.34-10.87,13.89-17.81,19.29-.14,.11-.29,.22-.47,.24-.16,.01-.31-.05-.45-.12-1.01-.49-1.96-1.13-2.79-1.89-.23-.21-.47-.5-.4-.8,.04-.15,.14-.26,.24-.37,3.06-3.34,6.12-6.67,9.18-10.01,3.55-3.87,7.11-7.75,10.28-11.94l-.35-.31c-4.25,4.31-8.27,8.85-12.04,13.58-1.68,2.1-3.31,4.25-5.21,6.15-.95,.95-1.97,1.84-2.82,2.88-.19,.24-.39,.55-.26,.83,.07,.15,.22,.25,.36,.34,.94,.58,1.87,1.16,2.81,1.74,.15,.09,.3,.18,.48,.17,.17,0,.31-.12,.44-.23,.75-.65,1.25-1.53,1.79-2.36,4.04-6.22,10.87-10.3,14.53-16.75"/>
      <path class="cls-16" d="M143.53,94.96c3.11-3.74,6.31-7.4,9.59-10.99,1.61-1.77,3.25-3.51,4.9-5.24s3.22-3.54,5-5.08l-1.1,.64,.17-.06h-1.33l.19,.06-1.1-.64c.39,.34,.67,.74,.94,1.19,.05,.08,.3,.68,.37,.69,.24-.76,.26-.97,.06-.62-.06,.1-.13,.21-.2,.31-.75,1.15-1.54,2.26-2.35,3.37-1.58,2.15-3.3,4.2-5.11,6.16s-3.7,3.84-5.69,5.61c-1.02,.91-2.06,1.8-3.13,2.66-.42,.34-1.29,.63,.02,.44,1.12-.16,.52-.18-.04-.52-.35-.22-.97-.55-1.16-.89l.34,1.26-.02-.29-.34,1.26c-.26,.25-.2,.17,.18-.22l.66-.72,1.31-1.43c.87-.95,1.75-1.91,2.62-2.86,1.69-1.84,3.38-3.68,5.07-5.53,3.43-3.74,6.79-7.53,9.87-11.57,.63-.82,.36-2.36-.39-3.03l-.35-.31c-1.01-.89-2.54-1.01-3.54,0-3.37,3.43-6.61,7-9.69,10.7s-5.83,7.27-9.16,10.6c-.8,.8-1.77,1.69-2.1,2.81-.42,1.41,.21,2.71,1.38,3.51,1.8,1.24,4.16,3.18,6.35,1.77,1.8-1.17,2.69-3.47,4.02-5.1s2.7-3.01,4.14-4.43c3.3-3.25,6.72-6.43,9.06-10.48,1.62-2.79-2.7-5.31-4.32-2.52-2.03,3.5-4.99,6.25-7.86,9.05-1.45,1.41-2.88,2.84-4.18,4.39-.72,.86-1.42,1.74-2.05,2.66-.31,.45-.6,.91-.89,1.36-.2,.31-1.03,.96-.27,.72h1.33c.32,.06-.17-.1-.28-.17-.33-.21-.67-.42-1-.62-.27-.17-.54-.33-.8-.5-.13-.08-.27-.17-.4-.25-.25-.14-.27-.16-.05-.07l.73,1.77c.05,.48-.44,.73,.12,.27,.23-.18,.42-.44,.62-.64,.42-.42,.86-.83,1.29-1.25,.91-.89,1.76-1.83,2.57-2.8,1.61-1.91,3.12-3.91,4.71-5.83,3.26-3.95,6.69-7.76,10.28-11.41h-3.54l.35,.31-.39-3.03c-4.52,5.93-9.78,11.31-14.81,16.8-1.2,1.31-2.41,2.62-3.61,3.93-1.42,1.55-2.37,3.34-.73,5.19,1.03,1.15,2.63,2.27,4.11,2.77,1.95,.66,3.3-.68,4.71-1.83,5.32-4.33,10.02-9.34,14.12-14.83,.94-1.26,1.92-2.54,2.73-3.89,1.08-1.8,.67-3.52-.34-5.24-.79-1.33-1.96-2.99-3.68-2.99-1.84,0-3.28,2.11-4.44,3.3-5.91,6.04-11.58,12.32-16.98,18.81-.86,1.04-1.02,2.52,0,3.54,.89,.89,2.67,1.04,3.54,0h0Z"/>
    </g>
    <path class="cls-16" d="M114.13,63.93c7.37-2.94,14.64-6.14,21.78-9.61,2.54-1.23,.76-5.46-1.93-4.57-4.75,1.58-9.47,3.25-14.15,5.04-3.53,1.35-10.85,2.98-9.1,8.31,.75,2.29,2.87,3.52,5.11,3.99s4.72,.81,7.07,1.21c4.98,.84,9.96,1.69,14.95,2.53l-1.75-1.75c.77,4.35,1.88,8.62,3.33,12.79,.85,2.43,3.93,2.3,4.82,0,1.04-2.67,2.61-5.18,4.54-7.3,.94-1.03,2.28-1.9,3.02-3.1,1.06-1.72,.41-3.51-.47-5.15-1.53-2.86-3.92-5.21-6.11-7.56-2.43-2.62-4.87-5.24-7.3-7.86-2.19-2.36-5.72,1.18-3.54,3.54,2.49,2.68,4.98,5.36,7.47,8.04,1.13,1.21,2.28,2.41,3.34,3.68,.46,.56,.89,1.14,1.28,1.76,.32,.51,.93,1.27,.88,1.88l.34-1.26c-.33,.77-1.55,1.54-2.17,2.19-.9,.96-1.73,1.99-2.51,3.05-1.52,2.08-2.67,4.36-3.6,6.76h4.82c-1.45-4.17-2.56-8.44-3.33-12.79-.14-.77-.97-1.61-1.75-1.75-4.1-.69-8.2-1.39-12.29-2.08-2.01-.34-4.02-.68-6.03-1.02-1.7-.29-3.52-.44-5.13-1.06-.54-.21-.13-.52-.24-.1-.18,.73-.14,.14-.02,.18,.06,.02,.62-.34,.71-.38,.51-.24,1.05-.42,1.58-.63,1.88-.74,3.76-1.46,5.65-2.17,3.93-1.47,7.9-2.86,11.88-4.18l-1.93-4.57c-6.75,3.28-13.62,6.32-20.59,9.1-1.25,.5-2.13,1.67-1.75,3.08,.33,1.19,1.81,2.25,3.08,1.75h0Z"/>
    <path class="cls-16" d="M120.07,64.41c5.74-.22,11.61-1.35,16.46-4.58,1.03-.69,1.54-1.94,1.02-3.12-.48-1.1-1.74-1.83-2.95-1.45-2.94,.92-5.5,3.01-6.73,5.87-.55,1.29-.28,3.42,1.49,3.67,2.09,.3,4.17,.48,6.28,.4,1.71-.06,3.54-.14,5.03-1.08,1.86-1.16,2.47-3.42,1.39-5.36-.81-1.46-2.14-2.69-3.53-3.6-2.67-1.74-6.37-2.4-9.42-1.32-3.75,1.32-4.49,5.11-4.25,8.65,.09,1.35,1.08,2.5,2.5,2.5,1.28,0,2.59-1.15,2.5-2.5-.04-.52-.06-1.04-.06-1.56,0-.24,0-.48,.03-.72,.03-.36,0-.11,.04-.31,.04-.22,.09-.45,.17-.66,.23-.65-.16,.22,.19-.36-.1,.16,.19-.2,.22-.22,1.46-.72,3.48-.32,4.82,.38,.84,.44,1.34,.8,1.99,1.54,.21,.24,.07,.21,.31,.41l.18,.3c-.2-.42-.17-.79,.09-1.11,.19-.31,.45-.39,.11-.25,.35-.14-.16,.05-.23,.07-.15,.04-.57,.13-.2,.07-.36,.06-.76,.07-1.12,.09-.62,.04-1.25,.06-1.88,.06-1.27,0-2.56-.07-3.83-.25l1.49,3.67c.77-1.79,2.03-3.03,3.74-3.57l-1.93-4.57c-4.14,2.76-9.04,3.71-13.94,3.9-1.35,.05-2.5,1.11-2.5,2.5,0,1.31,1.14,2.55,2.5,2.5h0Z"/>
    <path class="cls-16" d="M144.68,72.1c.03-.2,.08-.38,.13-.57,.14-.56-.24,.38,.05-.13,.19-.32,.37-.64,.58-.96,.43-.64,.91-1.25,1.26-1.94,1.03-2.07,.96-4.39-.64-6.16-1.24-1.36-3.12-1.94-4.86-2.35-.36-.09-.72-.18-1.08-.3-.16-.05-.33-.11-.49-.18,.53,.21-.03-.03-.15-.1-.18-.1-.34-.21-.51-.32,.47,.31,.04-.02-.07-.11,.27,.25,.14,.19-.02-.09l.12,.26c-.06-.27-.07-.24,0,.11l-4.91,.66c.27,1.78,.33,3.79,1.03,5.46,.89,2.11,3.15,2.55,5.13,3.13,.92,.27,1.84,.54,2.75,.8,.21,.06,.42,.13,.63,.19,.36,.1,.05,.04-.11-.1s-.64-1.06-.43-1.27c-.07,.07-.1,.36-.14,.46,.15-.38-.1,.14-.13,.2-.12,.22-.24,.44-.35,.66-.24,.44-.47,.88-.71,1.33-.47,.88-.94,1.77-1.41,2.65-.62,1.15-.33,2.77,.9,3.42,1.16,.61,2.76,.34,3.42-.9,1.02-1.91,2.2-3.8,3.01-5.81,.47-1.15,.51-2.5-.13-3.61s-1.65-1.59-2.78-1.93c-.96-.29-1.93-.56-2.9-.85-.53-.16-1.06-.31-1.59-.47-.21-.06-.43-.12-.64-.19-.1-.03-.21-.06-.31-.1q-.14-.05,0,0c.12,.11,.24,.22,.36,.35,.06,.2,.06,.22,.01,.05-.04-.12-.07-.24-.09-.36-.1-.44-.15-.89-.21-1.34-.16-1.04-.32-2.09-.48-3.13-.19-1.22-1.64-1.94-2.74-1.79s-2.28,1.21-2.17,2.46c.2,2.17,1.46,3.78,3.42,4.69,.86,.4,1.73,.68,2.64,.89,.33,.08,.66,.16,.99,.26,.2,.06,.39,.13,.59,.19,.61,.2-.4-.24,.15,.06,.14,.08,.29,.16,.43,.24,.08,.05,.16,.1,.24,.16-.23-.18-.28-.21-.14-.09,.24,.09,.21,.31,.03-.02,.07,.13,.27,.63,.06,.07,.05,.24,.06,.25,.03,.05-.02-.2-.03-.19-.02,.04v.18c.04-.33,.04-.4,0-.22-.02,.09-.05,.18-.08,.26,.13-.28,.15-.33,.07-.16-.08,.14-.15,.29-.23,.43-.85,1.47-2.04,2.72-2.34,4.45-.22,1.28,.34,2.75,1.75,3.08,1.21,.28,2.84-.37,3.08-1.75h0Z"/>
    <path class="cls-16" d="M147.56,69.45c-.64,.9-1.28,1.79-1.94,2.67-.18,.24-.36,.48-.54,.72-.08,.11-.16,.21-.24,.32-.16,.21-.1,.14,.02-.03-.34,.45-.7,.9-1.05,1.34-1.4,1.75-2.84,3.45-4.34,5.12-.87,.97-1.03,2.59,0,3.54,.95,.88,2.6,1.04,3.54,0,3.18-3.54,6.14-7.27,8.88-11.15,.76-1.07,.23-2.83-.9-3.42-1.28-.68-2.61-.25-3.42,.9h0Z"/>
    <path class="cls-16" d="M142.38,81.66c-.26-4.62-1.15-9.19-2.73-13.54-.45-1.23-1.72-2.18-3.08-1.75-1.2,.39-2.22,1.76-1.75,3.08,.74,2.03,1.34,4.11,1.78,6.22,.11,.51,.2,1.02,.29,1.53,.05,.28,.09,.55,.13,.83,0,.03,.11,.8,.05,.29,.15,1.11,.24,2.23,.31,3.34,.07,1.3,1.1,2.56,2.5,2.5,1.29-.06,2.58-1.1,2.5-2.5h0Z"/>
    <path class="cls-16" d="M153.22,104.24c4.99-4.93,9.46-10.37,13.38-16.18,.73-1.09,.25-2.82-.9-3.42-1.26-.67-2.64-.26-3.42,.9-3.69,5.49-7.81,10.44-12.59,15.17-.93,.92-.99,2.63,0,3.54s2.54,.98,3.54,0h0Z"/>
    <path class="cls-16" d="M150.34,107.32c5.37,4.2,10.74,8.4,16.11,12.61l3.88,3.04c1.27,.99,2.54,2.21,4,2.91,3.22,1.54,6.1-.12,8.54-2.23,4.14-3.57,9-6.03,14.46-6.8,3.09-.44,6.21-.47,8.03-3.46,1.49-2.45,1.61-5.77,1.55-8.55-.17-7.41-2.94-14.39-5.72-21.15-.51-1.25-1.66-2.14-3.08-1.75-1.31,.36-2.1,1.77-1.75,3.08,1.21,4.47,2.41,8.93,3.62,13.4,.6,2.23,1.21,4.47,1.81,6.7,.3,1.12,.6,2.23,.9,3.35,.13,.48,.26,.96,.39,1.44,.09,.32,.17,.64,.26,.96,.09,.54,.14,.64,.15,.3l.64-1.1c-.4,.49-1.66,.76-2.28,1.02-1.07,.44-2.14,.89-3.21,1.33-2.14,.89-4.28,1.78-6.42,2.67-4.13,1.72-8.26,3.43-12.39,5.15-1.67,.69-3.51,1.59-5.36,1.27s-3.42-1.49-4.84-2.58c-3.29-2.53-6.37-5.35-9.37-8.2-1.71-1.62-3.4-3.28-5.08-4.94-.24-.24-2.46-2.66-2.6-2.59,.05-.03,.16,.94,.17,.95,.08,.34-.48,.01,0,.15,.37,.11,1.13-.03,1.53,0,3.21,.19,3.2-4.81,0-5-1.7-.1-3.48,.05-4.83,1.2-1.47,1.26-2.12,3.35-1.2,5.13,.74,1.42,2.27,2.58,3.4,3.69,1.29,1.27,2.58,2.54,3.88,3.79,2.55,2.45,5.15,4.85,7.86,7.13s5.31,4.59,8.59,5.74c3.47,1.22,6.64,.12,9.87-1.22,3.52-1.46,7.04-2.92,10.55-4.38s6.73-2.79,10.1-4.19c1.57-.65,3.69-1.13,4.95-2.32,1.71-1.62,.85-3.84,.33-5.77-2.2-8.13-4.39-16.27-6.59-24.4l-4.82,1.33c2.2,5.35,4.48,10.84,5.29,16.61,.35,2.5,.49,5.29-.08,7.77-.16,.69-.35,1.54-1.01,1.92-.97,.57-2.57,.43-3.65,.57-5.22,.68-10.3,2.63-14.55,5.75-1.05,.77-2.04,1.61-3.03,2.46-.63,.54-1.66,1.59-2.58,1.4s-1.98-1.37-2.7-1.93l-3.88-3.04-16.3-12.76c-1.06-.83-2.5-1.04-3.54,0-.87,.87-1.07,2.7,0,3.54h0Z"/>
    <path class="cls-16" d="M187.66,54.89c.12,6.17,.91,12.35,2.39,18.35,.72,2.93,1.61,5.82,2.67,8.64s2.54,5.42,2.45,8.36c-.1,3.22,4.9,3.22,5,0s-1.19-5.95-2.3-8.82-2.01-5.69-2.77-8.61c-1.52-5.87-2.33-11.86-2.44-17.92-.06-3.21-5.06-3.22-5,0h0Z"/>
    <path class="cls-16" d="M201.39,82.77c-2.64-4.8-3.59-10.27-4.13-15.67-.28-2.8-.47-5.6-.74-8.4s-.15-6.59-3.25-7.69-5.45,1.65-7.03,3.93-2.72,4.75-3.89,7.22c-2.36,4.97-5.2,9.4-9,13.4-4.28,4.5-9.16,8.36-14.03,12.2-1.06,.84-.88,2.66,0,3.54,1.05,1.05,2.47,.84,3.54,0,8.02-6.32,16.25-12.91,21.41-21.9,1.3-2.26,2.34-4.65,3.49-6.99,1.03-2.1,2.13-4.52,3.79-6.21-.02,.02,.3-.26,.36-.35,.37-.53,.24,0-.29-.14-1.06-.27-.42-.56-.48-.16-.03,.17,.08,.42,.11,.59,.2,1.27,.28,2.57,.39,3.85,.24,2.66,.43,5.32,.71,7.97,.65,6.02,1.77,11.97,4.72,17.33,1.55,2.82,5.87,.3,4.32-2.52h0Z"/>
    <path class="cls-16" d="M163,92.42c3.22,0,3.22-5,0-5s-3.22,5,0,5h0Z"/>
    <path class="cls-16" d="M161.14,87.95l-3.77,3.41,3.54,3.54c1.06-1.08,2.13-2.16,3.19-3.24,.75-.76,.99-2.1,.39-3.03s-1.75-1.51-2.82-1.15c-2.69,.9-4.9,2.71-6.64,4.92-.93,1.19-1.78,2.43-2.62,3.69-.37,.57-.75,1.13-1.14,1.69-.21,.31-.44,.6-.66,.9s.37-.45-.05,.06c-.13,.16-.26,.31-.39,.47-.84,1-1.05,2.57,0,3.54,.93,.85,2.63,1.07,3.54,0,1.82-2.15,3.29-4.58,4.91-6.89,.2-.28-.38,.47,0,0,.08-.09,.15-.19,.23-.28,.19-.23,.39-.46,.59-.69,.4-.45,.83-.87,1.29-1.27,.11-.1,.23-.19,.35-.29,.26-.22-.49,.34,0,.01,.25-.17,.49-.34,.75-.49,.23-.14,.46-.26,.71-.38,.08-.04,.16-.08,.24-.11l-.27,.11c.11-.1,.38-.14,.51-.18l-2.43-4.18c-1.06,1.08-2.13,2.16-3.19,3.24-.92,.93-1,2.62,0,3.54s2.5,.94,3.54,0l3.77-3.41c.97-.88,.96-2.65,0-3.54-1.04-.95-2.5-.94-3.54,0h0Z"/>
    <path class="cls-16" d="M193.55,88.97c1.44,4.52,2.64,9.11,3.57,13.77,.22,1.09,.42,2.17,.61,3.26,.11,.62,.22,1.25,.31,1.87,.02,.12,.04,.36,.07,.48,.16,.77-.11,.2,.12,.07,.57-.33,.5-.38,.02-.33s-.94,.05-1.41,.09c-1.19,.11-2.38,.27-3.55,.5-4.14,.81-8.18,2.53-11.62,4.97-1.59,1.12-3.02,2.65-4.77,3.5s-3.1-.35-4.58-1.28c-4.46-2.79-8.76-5.84-12.84-9.16-1.05-.85-2.51-1.02-3.54,0-.88,.88-1.05,2.68,0,3.54,4.17,3.39,8.52,6.56,13.06,9.44,2.14,1.36,4.42,3.02,7.09,2.8,2.51-.2,4.49-1.67,6.39-3.19,3.6-2.89,7.61-4.91,12.15-5.8,2.06-.4,4.62-.03,6.47-1.1,2.62-1.53,2.01-4.55,1.59-7.04-1-6.01-2.44-11.93-4.29-17.73-.97-3.05-5.8-1.75-4.82,1.33h0Z"/>
    <path class="cls-16" d="M201.32,107.39c-.96-7.43-2.87-14.61-4.74-21.85-.88-3.38-1.72-6.78-2.36-10.22-.17-.89-.32-1.79-.46-2.68-.02-.11-.22-1.6-.08-.47-.06-.45-.11-.9-.16-1.35-.2-1.81-.31-3.62-.33-5.44-.04-2.5-1.87-4.58-4.34-4.91s-4.7,1.19-5.49,3.58c-.12,.37-.25,.73-.38,1.09-.32,.91,.33-.65-.09,.22-.36,.75-.73,1.48-1.15,2.19-.39,.66-.81,1.29-1.25,1.92-.07,.1-.23,.42-.34,.46,.07-.03,.71-.88,.08-.1-.28,.35-.57,.69-.87,1.03-1.07,1.22-2.22,2.37-3.42,3.46-.58,.53-1.18,1.04-1.78,1.55-.3,.25-.61,.5-.91,.75-.15,.12-.31,.25-.46,.37-.09,.07-.77,.61-.27,.22,.47-.37-.44,.34-.59,.45-.31,.24-.63,.47-.95,.7-.68,.5-1.37,1-2.06,1.49-1.4,1-2.81,2-4.19,3.02-2.9,2.13-5.77,4.34-8.35,6.86-2.89,2.82-5.47,6.11-7.19,9.78-1.11,2.36-.74,5.5,1.79,6.84,2.22,1.17,5.66,.74,6.84-1.79,.72-1.54,1.59-2.97,2.56-4.36,.55-.78-.45,.52,.16-.22,.25-.3,.49-.6,.75-.9,.55-.64,1.13-1.26,1.73-1.86,1.21-1.21,2.49-2.35,3.81-3.44,.31-.25,.62-.5,.93-.75,.16-.12,.31-.25,.47-.37-.04,.03-.67,.51-.22,.17,.74-.56,1.49-1.12,2.24-1.67,5.61-4.09,11.56-7.94,16.16-13.22,2.91-3.34,5.18-7.01,6.57-11.23l-9.82-1.33c.12,7.43,1.68,14.76,3.52,21.93,.87,3.4,1.8,6.79,2.63,10.2,.43,1.78,.84,3.56,1.2,5.35,.18,.89,.35,1.79,.5,2.69,.06,.37,.12,.75,.18,1.13,.03,.22,.25,1.82,.11,.7,.34,2.58,2.06,5.13,5,5,2.42-.11,5.36-2.22,5-5h0Z"/>
    <path class="cls-16" d="M167.2,107.45c.1-.32,.21-.65,.32-.97,.18-.49,.33-.73,.03-.12,.3-.6,.59-1.21,.93-1.79s.7-1.15,1.09-1.71c.23-.33,.47-.66,.72-.99-.26,.35-.35,.44-.02,.05,1.83-2.16,3.82-4.15,5.86-6.11,2.15-2.07,4.31-4.14,6.57-6.11,.56-.49,1.13-.97,1.71-1.45,.29-.24,.58-.47,.87-.7,.71-.58-.23,.15,.22-.18,1.26-.93,2.53-1.83,3.86-2.67l-7.52-4.32c.57,4.26,.24,8.54,.23,12.82s.47,8.82,2.08,12.99c.11,.29,.52,1.04,.43,1.34-.12-.39-.12-.79,0-1.19,1.7-1.77,2.08-2.34,1.14-1.7-.99,.41-1.94,1.06-2.89,1.57-1.95,1.06-3.95,2.06-5.88,3.18-.52,.24-.52,.25,.02,.03-.2,.08-.4,.15-.61,.22-.2,.07-.41,.13-.62,.18-.59,.12-.56,.11,.09,0-.27,.01-.54,.01-.81,0,.66,.11,.71,.11,.14,0-.39-.11-.78-.23-1.17-.34,1.11,.32-.43-.22-.69-.36-.37-.2-.74-.42-1.09-.65-.95-.61-1.86-1.29-2.76-1.98l1.79,6.84c.19-.42,.41-.98,.75-1.31-.94,.9,.3-.24,.48-.41,.73-.73,1.51-1.4,2.21-2.16,1.69-1.83,3-3.95,4.17-6.13,.51-.94,1-1.89,1.53-2.82,.26-.45,.53-.9,.81-1.34,.13-.21,1.01-1.64,.34-.54,.25-.41,.67-.8,1.01-1.14,.18-.19,1.29-1.41,.4-.45,.32-.34,.86-.54,1.26-.78,.5-.24,.44-.22-.18,.07,.24-.08,.47-.15,.72-.21l-6.15-3.49c.04,.17,.13,.92,.23,1.04-.23-.27-.09-1.03-.04-.1,.03,.59,0,1.17-.04,1.76-.04,.63,.22-1.03,0-.11-.09,.35-.16,.69-.26,1.03-.08,.28-.2,.56-.28,.84-.17,.57,.46-.86,.02-.04-.29,.53-.55,1.06-.88,1.57-.12,.19-.73,1.26-.06,.16-.15,.25-.39,.47-.59,.69-.4,.45-.83,.87-1.29,1.26-.82,.71-.05-.05,.02,0,0,0-.86,.57-.9,.6-.26,.16-.53,.31-.81,.45-.45,.23-.74,.35-.1,.09-.63,.25-1.27,.47-1.92,.64-.39,.1-.79,.19-1.18,.27-.15,.03-1.27,.15-.54,.1s-.41,.02-.55,.03c-.34,.02-.68,.03-1.02,.03-.75,0-1.5-.04-2.25-.11-.98-.08,.51,.12-.1-.02-.33-.08-.68-.12-1.01-.19-1.48-.32-2.91-.79-4.31-1.37-2.42-1.01-5.6,1.09-6.15,3.49-.67,2.92,.9,5.07,3.49,6.15,6.88,2.87,15.76,3.01,22.1-1.31s10.04-12.02,8.07-19.61c-.68-2.62-3.57-4.19-6.15-3.49-5.4,1.46-8.74,5.98-11.25,10.67-.57,1.07-1.13,2.14-1.75,3.18-.29,.48-.6,.95-.92,1.42-.27,.4-.29,.34,.02,0-.23,.26-.45,.53-.69,.78-1.74,1.84-3.78,3.41-4.87,5.76-1.25,2.7-.53,5.06,1.79,6.84,3.24,2.49,6.98,4.79,11.22,4.71,4.48-.09,8.44-2.9,12.24-4.97,2.07-1.13,4.28-2.09,5.59-4.16,1.45-2.29,1.13-5.12,.17-7.52-.67-1.69-1.12-3.4-1.4-5.19,.16,.99,0-.25-.04-.61-.04-.43-.06-.87-.08-1.3-.05-.95-.06-1.9-.06-2.85,.01-4.28,.34-8.56-.23-12.82-.24-1.82-.8-3.34-2.48-4.32-1.5-.88-3.55-.94-5.05,0-5.74,3.61-10.7,8.28-15.56,12.96s-9.2,9.38-11.19,15.74c-.78,2.5,.92,5.56,3.49,6.15,2.72,.62,5.32-.82,6.15-3.49h0Z"/>
    <path class="cls-16" d="M149,108.11c.03,4.12,.68,8.44,4.05,11.23,1.72,1.42,3.66,2.25,5.76,2.97,.7,.24,1.4,.48,2.1,.73,1.04,.38-.71-.45,.14,.08,.4,.25,.82,.46,1.22,.71,1.41,.92,2.69,2.05,4.18,2.84,1.96,1.04,3.98,1.6,6.2,1.7,3.94,.18,8.1-1.54,10.72-4.49,1.74-1.95,2.07-5.17,0-7.07-1.9-1.75-5.21-2.08-7.07,0-.24,.27-.49,.52-.75,.77-.59,.57,.1-.17,.17-.12,0,0-.88,.53-.92,.55-.79,.46,.61-.16,.04,0-.29,.08-.57,.19-.86,.26-.17,.04-1.19,.19-.39,.11s-.24,0-.41,0c-.22,0-.87-.12-1.07-.05,.26-.09,.95,.2,.27,0-.04-.01-1.04-.27-1.03-.31,0-.01,.95,.47-.04-.08-.29-.16-.58-.34-.86-.52-1.19-.77-2.27-1.69-3.48-2.43-1.33-.82-2.81-1.39-4.28-1.9-.64-.22-1.29-.43-1.92-.66-.17-.06-1.07-.52-.42-.15s-.32-.19-.37-.21c-.14-.08-1.01-.61-.37-.19,.69,.46-.29-.16-.28-.31,.34,.49,.41,.58,.21,.27-.07-.11-.14-.21-.2-.33-.33-.4,.21,.83-.02-.03-.02-.07-.34-1.09-.27-1.13-.11,.07,.1,1.05,.01-.04-.06-.72-.06-1.45-.07-2.18-.02-2.61-2.28-5.12-5-5s-5.02,2.2-5,5h0Z"/>
    <path class="cls-16" d="M156.32,110.43l2.32-6.15c.61-1.63-.11-3.69-1.29-4.86-1.33-1.33-3.08-1.64-4.86-1.29-2.37,.47-4.49,2.33-5.47,4.51-1.11,2.47-1.15,4.98-.54,7.6,.84,3.6,2.21,7.69,5.09,10.16,3.04,2.6,6.82,3.64,10.55,4.83,4.09,1.3,8.51,3.39,12.85,2.37,2.55-.6,4.3-3.65,3.49-6.15-.86-2.66-3.42-4.13-6.15-3.49,1.57-.37-.18,.22-.2-.03,0-.03,1.02,.23,.17,0-.73-.2-1.44-.41-2.16-.64-1.5-.47-3-.95-4.49-1.42-1.36-.43-2.73-.86-4.09-1.3-.56-.18-1.11-.38-1.66-.58-1.11-.4,.94,.51-.09-.05-.25-.14-.51-.26-.77-.4-.12-.07-.65-.47-.73-.46,.23-.04,.8,.7,.08,.03-.14-.13-.57-.43-.6-.63,.37,.5,.46,.6,.25,.3-.07-.1-.13-.2-.19-.3-.16-.25-.28-.52-.43-.78-.58-1.02,.33,.99-.07-.13-.2-.57-.4-1.14-.58-1.72-.19-.62-.38-1.24-.55-1.87-.09-.33-.14-.67-.22-1-.07-.37-.05-.27,.05,.33v-.4c.13-1.27-.38,.89,0-.11-.17,.45-.33,.84-.03,.16,.15-.23,.11-.18-.1,.12-.17,.29-.41,.5-.72,.64,.79-.5-1.04,.25-.04,.05l-6.15-6.15-2.32,6.15c-.93,2.45,1.03,5.59,3.49,6.15,2.85,.65,5.16-.87,6.15-3.49h0Z"/>
    <path class="cls-16" d="M209.92,107.38c-1.44-5.75-2.84-11.51-4.32-17.26s-4.58-11.88-10.9-12.76c-1.39-.19-2.59-.24-3.85,.5-1.04,.61-2.03,1.8-2.3,2.99-.54,2.36,.72,5.76,3.49,6.15,.41,.06,1.1,.09,1.44,.35-.62-.27-.69-.27-.19-.02,.46,.31,.43,.26-.09-.14,.26,.16,.99,.76,1.08,1.06-.38-.52-.41-.56-.1-.11,.15,.22,.29,.45,.42,.68,.12,.21,.77,1.81,.38,.71,.19,.53,.38,1.06,.54,1.6,.34,1.13,.61,2.28,.89,3.42l3.87,15.47c.63,2.54,3.62,4.31,6.15,3.49s4.17-3.43,3.49-6.15h0Z"/>
    <path class="cls-16" d="M176.8,128.65c9.36-4.1,19.09-7.77,26.96-14.48,2-1.7,1.88-5.34,0-7.07-2.13-1.95-4.94-1.82-7.07,0-.44,.37-.88,.74-1.34,1.1,.37-.3,.35-.26-.02,0-.23,.17-.47,.34-.7,.5-.94,.66-1.91,1.29-2.89,1.88-2.04,1.23-4.16,2.33-6.31,3.36-4.5,2.15-9.11,4.08-13.67,6.07-2.4,1.05-3.14,4.75-1.79,6.84,1.61,2.49,4.27,2.92,6.84,1.79h0Z"/>
    <line class="cls-21" x1="233.18" y1="156.36" x2="282.88" y2="156.36"/>
    <line class="cls-21" x1="130.36" y1="82.74" x2="104.38" y2="82.47"/>
    <line class="cls-21" x1="151.94" y1="151.26" x2="65.9" y2="151.26"/>
    <line class="cls-21" x1="65.17" y1="233.44" x2="115.92" y2="234.67"/>
    <line class="cls-21" x1="111.48" y1="201.09" x2="69.61" y2="201.09"/>
    <line class="cls-21" x1="300.7" y1="89.02" x2="301.75" y2="115.93"/>
    <line class="cls-21" x1="142.04" y1="8.6" x2="99.59" y2="7.54"/>
    <line class="cls-21" x1="180.46" y1="146.43" x2="180.46" y2="180.11"/>
    <line class="cls-21" x1="256.06" y1="77.51" x2="256.31" y2="53.49"/>
    <text class="cls-28" transform="translate(5.73 235.9)"><tspan x="0" y="0">Empeine</tspan><tspan class="cls-30" x="44.23" y="0">r</tspan><tspan class="cls-23" x="48.1" y="0">a</tspan></text>
    <text class="cls-28" transform="translate(290.96 159.06)"><tspan class="cls-31" x="0" y="0">P</tspan><tspan x="6.07" y="0">a</tspan><tspan class="cls-29" x="11.86" y="0">n</tspan><tspan x="18.47" y="0">taln de dobok</tspan></text>
    <text class="cls-28" transform="translate(163.03 192.86)"><tspan class="cls-18" x="0" y="0">I</tspan><tspan class="cls-23" x="2.99" y="0">nguinal</tspan></text>
    <text class="cls-28" transform="translate(226.5 47.84)"><tspan class="cls-20" x="0" y="0">A</tspan><tspan class="cls-25" x="7.31" y="0">n</tspan><tspan class="cls-3" x="13.92" y="0">t</tspan><tspan x="17.82" y="0">eb</tspan><tspan class="cls-1" x="30.66" y="0">r</tspan><tspan x="34.52" y="0">a</tspan><tspan class="cls-26" x="40.31" y="0">z</tspan><tspan class="cls-22" x="45.36" y="0">o</tspan></text>
    <text class="cls-28" transform="translate(23.04 203.82)"><tspan class="cls-26" x="0" y="0">C</tspan><tspan x="6.88" y="0">anille</tspan><tspan class="cls-30" x="33.8" y="0">r</tspan><tspan class="cls-23" x="37.67" y="0">a</tspan></text>
    <text class="cls-28" transform="translate(282.16 126.73)"><tspan x="0" y="0">Gua</tspan><tspan class="cls-24" x="20.15" y="0">n</tspan><tspan class="cls-2" x="26.76" y="0">t</tspan><tspan class="cls-19" x="30.66" y="0">es</tspan></text>
    <text class="cls-28" transform="translate(57.38 10.04)"><tspan class="cls-26" x="0" y="0">C</tspan><tspan x="6.88" y="0">abezal</tspan></text>
    <text class="cls-28" transform="translate(0 84.53)"><tspan x="0" y="0">Chaqueta de dobok</tspan></text>
    <text class="cls-28" transform="translate(16.64 154.84)"><tspan class="cls-20" x="0" y="0">C</tspan><tspan x="6.92" y="0">i</tspan><tspan class="cls-24" x="9.73" y="0">n</tspan><tspan class="cls-19" x="16.34" y="0">tu</tspan><tspan class="cls-27" x="26.93" y="0">r</tspan><tspan x="30.73" y="0">n</tspan></text>
  </g>
</svg>