<?xml version="1.0" encoding="UTF-8"?>
<svg id="Capa_1" data-name="Capa 1" xmlns="http://www.w3.org/2000/svg" viewBox="0 0 647.8 267.16">
  <defs>
    <style>
      .cls-1 {
        fill: #f6e8df;
      }

      .cls-2 {
        fill: #f6e7de;
      }

      .cls-3 {
        fill: #f7e6dd;
      }

      .cls-4 {
        fill: #f7e7de;
      }

      .cls-5 {
        fill: #f2a57e;
      }

      .cls-6 {
        fill: #f09266;
      }

      .cls-7 {
        fill: #ecd6cb;
      }

      .cls-8 {
        fill: #e9ded6;
      }

      .cls-9 {
        fill: #e9d8cf;
      }

      .cls-10 {
        fill: #ef996f;
      }

      .cls-11 {
        fill: #fffffe;
      }

      .cls-12 {
        fill: #f1a57f;
      }

      .cls-13 {
        fill: #e6d8c9;
      }

      .cls-14 {
        fill: #f0ab89;
      }

      .cls-15 {
        fill: #f0a985;
      }

      .cls-16 {
        fill: #663625;
      }

      .cls-17 {
        fill: #b6a89e;
      }

      .cls-18 {
        fill: #b7785c;
      }

      .cls-19 {
        fill: #8d896b;
      }

      .cls-20 {
        fill: #dad2b3;
      }

      .cls-21 {
        fill: #dfe1ec;
      }

      .cls-22 {
        fill: #2e286c;
      }

      .cls-23 {
        fill: #828761;
      }
    </style>
  </defs>
  <path class="cls-17" d="M69.61,122.86c0-.14,.01-.28,.02-.42,0,.14-.01,.28-.02,.42Z"/>
  <path class="cls-21" d="M458.9,240.43c38.97,1.05,77.95,1.94,116.91,3.26,9.9,.34,19.75,1.9,29.57,3.21,3.17,.42,6.14,1.83,10.94,3.34-14.57,7.75-28.97,9.5-43.08,10.54-30.73,2.26-61.56,4.35-92.39,4.84-69.42,1.1-138.87,1.63-208.31,1.51-37.36-.06-74.76-1.33-112.05-3.17-38.14-1.88-76.19-5.03-114.25-7.85-4.63-.34-9.1-2.08-13.69-4.41,21.2-8.07,43.81-9.29,66.42-10.51-5.94,2.68-11.87,5.37-17.8,8.06,0,.83-.01,1.66-.02,2.49,6.2,.09,12.43,.5,18.6,.19,8.57-.43,17.1-1.89,25.66-2.02,12.71-.19,13.17-.23,12.32-10.59,4.18-.18,8.36-.55,12.53-.51,60.26,.47,120.53,1,180.79,1.51,2.61,3.74,5.1,7.55,7.89,11.2,1.21,1.59,3.14,4.15,4.56,4.07,5.82-.33,11.57-1.51,17.35-2.38-1.56-3.68-3.12-7.37-4.69-11.05-.21-.49-.46-.97-.69-1.45,26.73-.11,53.47-.22,80.2-.34-.39,1.26-.61,2.57-1.19,3.77-5.21,10.68-2.45,13.7,11.66,13.71,7.96,0,15.92,.89,23.88,1.37,5.9,.36,11.79,.7,17.69,1.05l.76-2.68c-7.93-3.57-15.86-7.14-23.78-10.71-.82-.51-1.63-1.03-2.45-1.54-.47,.07-.92,0-1.34-.19l-.58-2.21-2.52-1.87c.37-.21,.73-.43,1.09-.66Z"/>
  <path class="cls-2" d="M286.15,100.75c-3.81,6.92-9.46,7.83-24.29,5.91-18.63-2.4-37.33-4.2-54.31-11.68-1.44-.64-3.59-.22-5.58-.3,2.77,9.93,5.41,19.36,8.04,28.8-1.78,.42-3.78,.54-5.3,1.3-7.73,3.85-15.34,6.41-25.11,5.62-8.21-.67-16.77,1.51-25.17,2.43-1.61-2.59-3.33-5.14-4.8-7.79-1.9-3.42-3.81-5.17-9.51-4.21-3.86,.65-9.4-1.2-12.75-3.4-11.85-7.79-17.37-18.69-19.65-30.7-1.57-8.25,4.51-17.51,14.16-21.79,4.75-2.11,9.85-3.68,14.8-5.5,5.87,6.76,11.75,13.52,17.7,20.37,1.79-1.04,2.68-1.4,3.3-1.96,.86-.77,1.53-1.68,2.28-2.54,3.2,4.44,6.4,8.88,8.72,12.11,3.74-4.67,7.24-8.68,10.28-12.92,3.49-4.87,6.58-9.93,9.84-14.91,8.79,3.66,18.39,6.42,26.18,11.18,12.68,7.74,26.32,12.37,41.87,14.23,8.64,1.03,17.05,3.34,25.57,5.07-.3,2.53-1.14,5.12-.67,7.55,.23,1.2,2.87,2.09,4.42,3.13Z"/>
  <path class="cls-4" d="M466.46,64.89c3.52-.75,6.99-1.77,10.57-2.18,6.53-.75,13.12-1.14,19.68-1.68,.1-.92,.19-1.83,.29-2.75-11.23-1.72-22.43-3.57-33.69-5.14-12.27-1.71-24.66-2.9-36.85-4.91-3.08-.51-5.6-3.28-8.38-5,.41-2.85,.81-5.69,1.22-8.54,16.89,.93,33.78,1.8,50.67,2.81,15,.9,29.96,2.44,44.97,2.76,8.6,.18,15.57,1.54,21.48,6.96,3.52,3.23,7.65,7.67,14.04,2.84-.15,2.49-.3,4.98-.45,7.47-2.05,1.12-4.1,2.24-6.15,3.36-14.5,15.32-14.85,19.32-2.34,32.57,1.14-8.98,10.05-10.04,17.72-12.37,3.19,16.81,.96,20.3-17.99,28.05-6.56,2.68-12.91,5.84-19.78,7.82-4.03,1.16-11.14,1.93-12.85,.2-2.76-2.77-2.2-7.75-3.05-11.79,5.9-4.55,11.8-9.11,17.7-13.66-.83-.71-1.67-1.41-2.5-2.12-2.51,1.88-5.42,3.51-7.46,5.69-9.55,10.22-23.07,8.9-36.18,8.29-2.18-.1-4.19-2.6-6.29-3.99,1.6-1.26,3.31-2.44,4.79-3.79,1.64-1.48,3.07-3.11,4.59-4.68-.63-.47-1.27-.93-1.9-1.4-2.16,.78-4.31,1.56-6.45,2.34-1.76-4.15-3.41-8.04-5.07-11.93,.17-1.09,.34-2.18,.51-3.28,.33-.62,.66-1.24,.99-1.86-.62-3.36-1.24-6.73-1.86-10.09Z"/>
  <path class="cls-4" d="M414.36,95.93c-29.17-8.49-58.34-16.98-87.5-25.47-4.1-9.14-14.75-7.49-23.24-9.41-.62-3.74-1.25-7.48-1.87-11.22,1.4-3.17,2.79-6.34,4.19-9.51,19.16,.52,35.37,8.24,52.68,13.64,12.57,3.92,26.45,5.81,39.94,6.84,19.15,1.47,38.49,1.25,57.74,1.94,2.28,.08,4.5,1.35,6.74,2.07,.59,8.27,1.18,16.54,1.77,24.81,.63,5.78,1.26,11.56,1.89,17.34l-.15,.11c-.57,.55-1.14,1.1-1.71,1.64-7.54,9.53-15.07,19.06-22.61,28.59-2.21-8.42-4.42-16.84-6.62-25.27-1.07-8.56,6.81-.76,9.12-2.98-2.56-9.06-18.89-15.97-30.37-13.14Z"/>
  <path class="cls-1" d="M211.5,127.49c4.12,2.43,8.82,4.41,12.26,7.37,15.41,13.27,30.09,27.13,45.84,40.13,6.39,5.27,14.86,8.84,22.34,13.24,4.15,2.44,8.66,4.61,12.22,7.55,9.03,7.46,17.78,15.16,26.27,23.04,2.11,1.96,2.8,4.95,4.15,7.47-6.28,.91-12.56,1.83-18.84,2.74-1.45,.08-2.89,.15-4.34,.23-6.49-3.15-12.98-6.3-19.47-9.46h0c-.64-.54-1.29-1.06-1.93-1.59h0c-1.34-.53-2.69-1.06-4.03-1.6-.59-.49-1.19-.98-1.78-1.47-1.95-1.63-3.9-3.26-5.85-4.89l.05,.03c-.63-.03-1.25-.07-1.88-.1-9.26-5.14-18.15-10.8-27.84-15.29-18.36-8.51-37.19-16.36-55.82-24.48,.74-2.41,1.47-4.81,2.21-7.24-16.34,2.82-21.4-1.63-19.1-14.45,1.69-9.42,6.84-11.96,17.91-11.89,6.4,.04,16.11,.19,16.64-8.91,.21-.33,.54-.47,1-.43Z"/>
  <path class="cls-1" d="M110.4,232.51c-4.33,1.1-8.56,2.91-10.77-2.69-6.48-16.47-13.7-32.75-19.87-49.29-4.16-11.16-1.18-14.87,11.82-19.63,18.39-6.74,36.64-13.76,54.85-20.81,3.06-1.18,5.66-3.15,8.48-4.75,.99-.1,1.98-.2,2.97-.29-2.48,6.14-4.93,12.27-7.43,18.4-3.2,7.84-6.44,15.68-9.66,23.52-7.58,1.83-15.17,3.65-24.66,5.94,1.49,6.76,2.33,13.42,4.5,19.78,2.63,7.71,6.51,15.13,9.52,22.76,.42,1.06-1.06,2.63-1.66,3.96-6.03,1.04-12.05,2.08-18.08,3.11Z"/>
  <path class="cls-3" d="M437.73,231.03c-.06-.55-.12-1.1-.18-1.65-.61-6.37-1.23-12.74-1.84-19.11,2.11-13.94,4.39-27.86,6.23-41.83,.49-3.74-.32-7.59-.54-11.39,5.09-1.09,8.12-2.97,8.16-8.09,.03-3.7,1.59-8.23,4.5-10.91,9.35-8.58,14.93-18.49,18.46-29.38,2.5,10.61,5.01,21.22,7.51,31.83,.17,.56,.35,1.12,.52,1.68l.22,.11c-.08,9.61,1.33,19.43-.59,28.79-3.04,14.86-8.18,29.45-12.69,44.1-2.61,8.48-5.72,16.85-8.6,25.27-.36,.23-.72,.45-1.08,.66-1.45-2.63-2.92-5.25-3.92-7.05-5.64-1.05-10.91-2.03-16.18-3.01Z"/>
  <path class="cls-16" d="M565.21,32.44c9.9-5.58,22.06-3.39,27.96,4.55,1.9,2.56,5.17,4.93,8.49,6.22,10.17,3.95,21.8,19.67,20.29,28.73-1.07,6.41-2.59,12.77-4.16,20.35-7.37-9.01-18.59-14.4-17.75-26.16,.25-3.49-4.33-7.32-7.19-10.72-.36-.42-3.84,.72-5.73,1.41-2.08,.76-3.99,1.84-5.97,2.78-2.94-6.06-1.44-12.4-2.07-18.6-.62-6.09-6.39-8.75-13.86-8.54Z"/>
  <path class="cls-12" d="M159.95,75.31c-.75,.85-1.42,1.77-2.28,2.54-.62,.55-1.51,.91-3.3,1.96-5.95-6.85-11.83-13.61-17.7-20.37,.7-1.59,1.39-3.17,2.09-4.76,3.03,1.16,5.95,2.63,9.13,3.39,2.43,.59,5.19,.3,7.8,.4,.02-.72,.04-1.44,.05-2.17-6.28-2.63-12.57-5.26-18.85-7.9-.69-.58-1.39-1.16-2.09-1.74,.18-2.45,.36-4.9,.59-7.9,3.24,.64,5.54,1.09,8.3,1.63,1.88-6.81,4.2-13.17,15.17-11.39,1.99,.65,3.97,1.3,5.96,1.95,.18,1.61,.37,3.21,.55,4.82-.49,3.69-.99,7.38-1.48,11.07,0,0,.03-.04,.03-.04-1.17,4.38-2.81,8.73-3.4,13.16-.67,5.08-.42,10.23-.57,15.35Z"/>
  <path class="cls-15" d="M437.73,231.03c5.27,.98,10.54,1.96,16.18,3.01,1,1.8,2.46,4.42,3.92,7.05,.83,.63,1.67,1.25,2.51,1.87,.19,.74,.38,1.47,.57,2.21,.42,.19,.87,.26,1.34,.19,.82,.51,1.63,1.03,2.44,1.54,7.93,3.57,15.86,7.14,23.78,10.71l-.76,2.68c-5.9-.35-11.79-.7-17.69-1.05-7.96-.48-15.92-1.37-23.88-1.37-14.11,0-16.87-3.03-11.66-13.71,.58-1.2,.8-2.51,1.19-3.77,.51-1.58,1.02-3.17,1.53-4.75,.08-1.07,.16-2.14,.24-3.22,.14-.46,.23-.92,.29-1.39Z"/>
  <path class="cls-14" d="M110.4,232.51c6.03-1.04,12.05-2.08,18.08-3.12,3.08,3.31,6.16,6.62,9.24,9.94,.85,10.35,.4,10.39-12.32,10.58-8.56,.13-17.09,1.59-25.66,2.02-6.17,.31-12.4-.1-18.6-.19,0-.83,.01-1.66,.02-2.49,5.93-2.69,11.86-5.38,17.8-8.06,6.5-.53,12.51-1.5,11.44-8.69Z"/>
  <path class="cls-5" d="M565.21,32.44c7.47-.21,13.24,2.45,13.86,8.54,.63,6.2-.87,12.55,2.07,18.6-.33,.53-.65,1.07-.98,1.6,0,0,.17-.05,.17-.05-3.62,.96-7.24,1.92-10.86,2.87-2.67-.46-5.52-.57-7.96-1.45-3.97-1.42-7.67-3.33-11.49-5.04,.15-2.49,.3-4.98,.45-7.46,4.92-5.87,9.83-11.75,14.75-17.62Z"/>
  <path class="cls-15" d="M305.93,40.33c-1.4,3.17-2.79,6.34-4.19,9.51-15.44-5.27-30.87-10.55-47.27-16.15,14.92-11.72,21.79-12.04,35.33-3.31,5.29,3.41,10.75,6.64,16.13,9.95Z"/>
  <path class="cls-14" d="M159.95,75.31c.15-5.12-.1-10.28,.57-15.35,.59-4.44,2.22-8.78,3.4-13.16-.43,2.8-.86,5.6-1.58,10.35,10.56-6.74,19.45-5.87,26.45,2.45-3.27,4.98-6.35,10.04-9.84,14.91-3.04,4.23-6.53,8.25-10.28,12.92-2.32-3.22-5.52-7.66-8.72-12.11Z"/>
  <path class="cls-14" d="M315.73,229.02c6.28-.91,12.56-1.83,18.84-2.74,6.97,4.81,13.94,9.62,20.91,14.44,.23,.49,.48,.97,.69,1.46,1.57,3.68,3.13,7.36,4.69,11.05-5.78,.87-11.53,2.05-17.35,2.38-1.42,.08-3.35-2.48-4.56-4.07-2.79-3.65-5.28-7.46-7.89-11.2-5.11-3.77-10.22-7.53-15.33-11.3Z"/>
  <path class="cls-22" d="M472.53,108.66c-3.53,10.89-9.11,20.8-18.46,29.38-2.92,2.68-4.47,7.21-4.5,10.91-.04,5.12-3.07,7-8.16,8.09,.28-6.58,.56-13.16,.84-19.74,7.54-9.53,15.07-19.06,22.61-28.59,.57-.55,1.14-1.1,1.71-1.64,0,0,.15-.11,.15-.11,1.95,.08,3.91,.16,5.86,.24-.02,.48-.03,.96-.02,1.44Z"/>
  <path class="cls-15" d="M559.25,81.09c-7.67,2.33-16.59,3.39-17.72,12.37-12.51-13.25-12.16-17.25,2.34-32.57,.8,3.01,1.59,6.02,1.98,7.49,5.76,1.35,10.74,2.51,15.71,3.68,.04,1.09,.09,2.17,.13,3.26-.38,.6-.76,1.19-1.14,1.79-.43,1.33-.87,2.66-1.3,3.98Zm-19.28-8.33c-.24,.45-.78,.99-.63,1.32,.15,.32,1.01,.42,1.55,.62,.24-.45,.78-.99,.63-1.31-.16-.32-1-.42-1.56-.62Z"/>
  <path class="cls-14" d="M286.15,100.75c-1.55-1.03-4.19-1.93-4.42-3.13-.47-2.43,.37-5.03,.67-7.55,8.67-.65,17.73-1.55,23.9,4.79,2.01,2.06,3.07,6.38,1.79,8.6-2.35,4.08-7.35,5.6-12.75,2.7-3.16-1.69-6.14-3.6-9.2-5.41Z"/>
  <path class="cls-7" d="M472.55,107.22c-1.95-.08-3.91-.16-5.86-.24-.63-5.78-1.26-11.56-1.89-17.34,.67-3.17,1.34-6.34,2.01-9.51,1.65,3.89,3.31,7.79,5.07,11.93,2.14-.78,4.3-1.56,6.45-2.34,.63,.47,1.27,.93,1.9,1.4-1.52,1.57-2.96,3.2-4.59,4.68-1.48,1.35-3.18,2.53-4.79,3.79,2.09,1.39,4.1,3.88,6.29,3.99,13.1,.61,26.62,1.93,36.18-8.29,2.04-2.18,4.95-3.81,7.46-5.69,.83,.71,1.67,1.41,2.5,2.12-5.9,4.55-11.8,9.11-17.7,13.66-8.43,1.07-16.86,2.15-25.29,3.22-2.58-.46-5.16-.92-7.74-1.37Z"/>
  <path class="cls-22" d="M472.55,107.22c2.58,.46,5.16,.92,7.74,1.37,3.23,12.52,6.45,25.04,10.12,39.26-3.76-2.17-6.7-3.87-9.63-5.57,0,0-.22-.11-.22-.11-.17-.56-.35-1.12-.52-1.68-2.5-10.61-5.01-21.22-7.51-31.83,0-.48,0-.96,.02-1.44Z"/>
  <path class="cls-14" d="M419.3,34.68c-.41,2.85-.81,5.7-1.22,8.54-.54,.11-1.08,.19-1.63,.26-.74-.31-1.47-.61-2.21-.92-5.84,.04-11.67,.08-17.51,.11-2.41-1.31-4.82-2.62-7.22-3.93,3.32-9.58,4.95-10.16,15.2-6.94,4.63,1.46,9.71,1.95,14.59,2.88Z"/>
  <path class="cls-19" d="M211.5,127.49c-.45-.05-.79,.09-1,.43-11.04,2.47-22.08,4.95-33.12,7.42-3.1-4.65-5.93-3.45-8.64,.27-1.01-.08-2.01-.17-3.02-.25-2.29-5.48-5.1-2.16-7.83-.31-.99,.1-1.98,.2-2.97,.29-.16-.84-.32-1.67-.49-2.5,8.4-.92,16.96-3.09,25.17-2.43,9.78,.79,17.38-1.77,25.11-5.62,1.52-.76,3.52-.88,5.3-1.3,.49,1.34,.98,2.67,1.48,4.01Z"/>
  <path class="cls-7" d="M414.36,95.93c11.49-2.83,27.81,4.08,30.37,13.14-2.31,2.22-10.19-5.58-9.12,2.98-2.69-3.04-4.89-6.53-8.21-9.01-3.82-2.84-8.65-4.78-13.04-7.11Z"/>
  <path class="cls-10" d="M561.56,72.06c-4.98-1.16-9.95-2.33-15.71-3.68-.39-1.48-1.18-4.48-1.98-7.49,2.05-1.12,4.1-2.24,6.15-3.36,3.82,1.7,7.52,3.62,11.49,5.03,2.45,.87,5.29,.99,7.96,1.45-2.64,2.68-5.27,5.37-7.91,8.05Z"/>
  <path class="cls-22" d="M466.81,80.12c-.67,3.17-1.34,6.34-2.01,9.51-.59-8.27-1.18-16.54-1.77-24.81,1.14,.02,2.28,.04,3.43,.07,.62,3.37,1.24,6.73,1.86,10.09-.33,.62-.66,1.24-1,1.86-.17,1.09-.34,2.18-.51,3.28Z"/>
  <path class="cls-9" d="M303.62,61.05c8.48,1.92,19.13,.26,23.24,9.41-5.58-.98-11.12-2.5-16.76-2.8-5.86-.3-6.98-2.67-6.48-6.61Z"/>
  <path class="cls-6" d="M136.89,48.42c6.28,2.63,12.57,5.26,18.85,7.9-.02,.72-.04,1.44-.05,2.17-2.61-.1-5.36,.19-7.8-.4-3.17-.77-6.1-2.23-9.13-3.39-.21-.51-.42-1.03-.63-1.54-.48-1.07-.97-2.14-1.45-3.2-.22-.53-.15-1.04,.21-1.52Z"/>
  <path class="cls-8" d="M435.71,210.27c.61,6.37,1.23,12.74,1.84,19.11-5.64,.21-6.38-2.55-5.45-6.15,1.12-4.34,2.4-8.64,3.61-12.96Z"/>
  <path class="cls-14" d="M163.89,46.84c.49-3.69,.99-7.38,1.48-11.07-.49,3.69-.99,7.38-1.48,11.07Z"/>
  <path class="cls-4" d="M389.51,38.74c2.41,1.31,4.82,2.62,7.22,3.93-2.91-.04-5.82-.09-8.73-.13,.5-1.27,1-2.53,1.5-3.8Z"/>
  <path class="cls-14" d="M158.86,29.01c2.14-.97,4.28-1.94,6.41-2.91-.15,1.62-.3,3.24-.45,4.85-1.99-.65-3.98-1.3-5.96-1.95Z"/>
  <path class="cls-3" d="M437.44,232.42c-.08,1.07-.16,2.14-.24,3.22,.08-1.07,.16-2.14,.24-3.22Z"/>
  <path class="cls-4" d="M560.55,77.1c.38-.6,.76-1.19,1.14-1.79-.38,.6-.76,1.19-1.14,1.79Z"/>
  <path class="cls-2" d="M136.68,49.93c.48,1.07,.97,2.14,1.45,3.2-.48-1.07-.97-2.14-1.45-3.2Z"/>
  <polygon class="cls-18" points="580.33 61.13 580.16 61.19 580.27 61.63 580.33 61.13"/>
  <path class="cls-4" d="M414.25,42.56c.74,.31,1.47,.61,2.21,.92-.74-.31-1.47-.61-2.21-.92Z"/>
  <path class="cls-3" d="M460.91,245.17c-.19-.73-.38-1.47-.57-2.21,.19,.73,.38,1.47,.57,2.21Z"/>
  <path class="cls-3" d="M464.69,246.9c-.81-.51-1.63-1.03-2.44-1.54,.81,.51,1.63,1.03,2.44,1.54Z"/>
  <path class="cls-7" d="M467.32,76.84c.33-.62,.67-1.24,1-1.86-.33,.62-.67,1.24-1,1.86Z"/>
  <path class="cls-7" d="M466.55,107.08c-.57,.55-1.14,1.1-1.71,1.64,.57-.55,1.14-1.1,1.71-1.64Z"/>
  <path class="cls-13" d="M192.84,170.4c-7.44,.09-14.87,.18-22.31,.27,2.28-11.78,4.56-23.56,6.85-35.34,11.04-2.47,22.08-4.95,33.12-7.42-.53,9.1-10.24,8.95-16.64,8.91-11.07-.07-16.21,2.46-17.91,11.89-2.3,12.81,2.76,17.27,19.1,14.45-.74,2.43-1.48,4.83-2.21,7.24Z"/>
  <path class="cls-8" d="M311.39,229.25c-9.11,.45-17.52-.07-19.47-9.46,6.49,3.15,12.98,6.31,19.47,9.46Z"/>
  <path class="cls-8" d="M284.18,215.14c-1.95-1.63-3.9-3.26-5.85-4.89,1.95,1.63,3.9,3.26,5.85,4.89Z"/>
  <path class="cls-8" d="M289.99,218.22c-1.34-.54-2.68-1.07-4.03-1.61,1.34,.54,2.68,1.07,4.03,1.61Z"/>
  <path class="cls-8" d="M278.38,210.28c-.63,0-1.26-.04-1.88-.1,.63,.03,1.25,.07,1.88,.1Z"/>
  <path class="cls-8" d="M291.92,219.79c-.64-.53-1.29-1.05-1.93-1.58,.64,.53,1.29,1.05,1.93,1.58Z"/>
  <path class="cls-23" d="M154.1,173.69c-7.32,9.87-9.19,10.99-19.19,10.88,2.11-2.73,4-5.17,5.88-7.61,3.22-7.84,6.46-15.67,9.66-23.52,2.5-6.12,4.95-12.26,7.43-18.4,2.73-1.85,5.54-5.17,7.83,.31-1.54,3.11-3.63,6.13-4.51,9.36-2.62,9.61-4.77,19.31-7.1,28.98Z"/>
  <path class="cls-11" d="M480.04,140.49c.17,.56,.34,1.12,.52,1.68-.17-.56-.35-1.12-.52-1.68Z"/>
  <path class="cls-10" d="M539.97,72.76c.55,.2,1.4,.3,1.55,.62,.15,.32-.39,.87-.63,1.31-.55-.2-1.4-.29-1.55-.62-.15-.32,.39-.87,.63-1.32Z"/>
  <path class="cls-23" d="M177.38,135.33c-2.28,11.78-4.57,23.56-6.85,35.34-1.72,5.07-2.92,10.31-5.32,15.15-2.39,4.82-6.73,8.25-14.38,7.51,2.67-5.15,5.14-9.89,7.6-14.63,.96-2.73,2.22-5.43,2.84-8.21,2.59-11.61,4.99-23.26,7.47-34.89,2.71-3.72,5.54-4.92,8.64-.27Z"/>
  <path class="cls-20" d="M168.74,135.6c-2.47,11.63-4.87,23.27-7.47,34.89-.62,2.79-1.88,5.48-2.84,8.21-1.44-1.67-2.89-3.34-4.33-5.01,2.33-9.67,4.48-19.37,7.1-28.98,.88-3.23,2.97-6.25,4.51-9.36,1.01,.08,2.01,.17,3.02,.25Z"/>
  <path class="cls-18" d="M165.76,23.48c-.84-1.44-4.83-7.94-12.85-10.01-7.73-2-15.97,.93-20.38,6.24-5.31,6.38-1.24,11.57-6.25,16.71-4.9,5.03-10.11,1.4-22.5,6.96-5.26,2.36-10.58,4.75-11.19,9.16-.82,5.91,7.41,11.11,8.01,11.48,2.43,2.8,4.35,3.3,5.66,3.24,5.78-.28,7.64-11.99,18.33-22.58,.79-.79,4.85-4.71,10.16-5.31,1.86-.21,3.11,.07,4.07,.49,2.67,1.15,3.86,3.65,4.22,4.5,4.55-4.84,5.37-11.34,7.97-17.04,2.56-5.6,8.42-6.33,14.78-3.81Z"/>
  <path class="cls-18" d="M135.28,34.49c4.1,1.21,9.04,.43,11.36-1.68,.75-.68,2.05-1.33,3.39-1.72,4.11-1.19,8.67-5.35,7.95-7.59-.51-1.59-1.2-3.15-1.93-5.02-2.9,2.4-7.42,3.97-6.94,6.9,.14,.87-1.68,1.92-2.81,2.83-.14,.11-1.58-.11-2.36-.24-.86-.15-1.65-.38-2.47-.58-1.13,1.57-.45,3.14-.63,4.7-.18,1.54-2.51,2.32-5.56,2.41Z"/>
  <path class="cls-18" d="M138.13,26.13c3.16,2.93,7.93,4.44,10.92,3.59,.97-.27,2.42-.28,3.79-.02,4.2,.78,10.11-.91,10.43-3.25,.23-1.65,.29-3.37,.45-5.37-3.65,.85-8.38,.23-9.23,3.08-.25,.85-2.35,.97-3.75,1.27-.17,.04-1.37-.8-2.01-1.28-.7-.52-1.31-1.08-1.96-1.63-1.7,.91-1.76,2.61-2.61,3.94-.83,1.3-3.26,.95-6.03-.33Z"/>
  <path class="cls-18" d="M141.48,30.04c3.78,1.93,8.76,2.24,11.42,.84,.86-.45,2.26-.77,3.64-.84,4.05-.21,8.81-2.53,9.21-5.16,.09-.57,.06-1.88-2.03-3.8-3.69,.93-5.77,2.42-7,3.66-.69,.69-1.93,1.33-3.29,1.95-.16,.07-1.52-.42-2.26-.7-.81-.31-1.54-.68-2.3-1.03-1.4,1.18-1.03,2.71-1.51,4.08-.47,1.34-2.89,1.56-5.89,1.01Z"/>
</svg>